<?xml version="1.0" encoding="utf-8" standalone="no"?>
<!DOCTYPE svg PUBLIC "-//W3C//DTD SVG 1.1//EN"
  "http://www.w3.org/Graphics/SVG/1.1/DTD/svg11.dtd">
<svg xmlns:xlink="http://www.w3.org/1999/xlink" width="512pt" height="288pt" viewBox="0 0 512 288" xmlns="http://www.w3.org/2000/svg" version="1.1">
 <metadata>
  <rdf:RDF xmlns:dc="http://purl.org/dc/elements/1.1/" xmlns:cc="http://creativecommons.org/ns#" xmlns:rdf="http://www.w3.org/1999/02/22-rdf-syntax-ns#">
   <cc:Work>
    <dc:type rdf:resource="http://purl.org/dc/dcmitype/StillImage"/>
    <dc:date>2022-08-12T16:27:52.360504</dc:date>
    <dc:format>image/svg+xml</dc:format>
    <dc:creator>
     <cc:Agent>
      <dc:title>Matplotlib v3.5.1, https://matplotlib.org/</dc:title>
     </cc:Agent>
    </dc:creator>
   </cc:Work>
  </rdf:RDF>
 </metadata>
 <defs>
  <style type="text/css">*{stroke-linejoin: round; stroke-linecap: butt}</style>
 </defs>
 <g id="figure_1">
  <g id="patch_1">
   <path d="M 0 288 
L 512 288 
L 512 0 
L 0 0 
L 0 288 
z
" style="fill: none"/>
  </g>
  <g id="axes_1">
   <g id="patch_2">
    <path d="M 85.479375 265.825312 
L 496.88 265.825312 
L 496.88 19.679062 
L 85.479375 19.679062 
z
" style="fill: #ffffff"/>
   </g>
   <path d="M 267.674973 114.68399 
L 268.674973 114.715427 
L 269.674973 114.752367 
L 270.674973 114.850114 
L 271.674973 114.882635 
L 272.674973 114.95626 
L 273.674973 114.994826 
L 274.674973 115.030239 
L 275.674973 115.087879 
L 276.674973 115.158265 
L 277.674973 115.210229 
L 278.674973 115.269319 
L 279.674973 115.35764 
L 280.674973 115.403784 
L 281.674973 115.446195 
L 282.674973 115.476688 
L 283.674973 115.502733 
L 284.674973 115.523933 
L 285.674973 115.578234 
L 286.674973 115.606171 
L 287.674973 115.635895 
L 288.674973 115.66129 
L 289.674973 115.672491 
L 290.674973 115.682615 
L 291.674973 115.68241 
L 292.674973 115.6729 
L 293.674973 115.661247 
L 294.674973 115.630217 
L 295.674973 115.61905 
L 296.674973 115.588932 
L 297.674973 115.529155 
L 298.674973 115.491964 
L 299.674973 115.452867 
L 300.674973 115.410428 
L 301.674973 115.377663 
L 302.674973 115.310236 
L 303.674973 115.27111 
L 304.674973 115.228436 
L 305.674973 115.157855 
L 306.674973 115.121464 
L 307.674973 115.063061 
L 308.674973 114.952109 
L 309.674973 114.88145 
L 310.674973 114.76851 
L 311.674973 114.722738 
L 312.674973 114.661454 
L 313.674973 114.612955 
L 314.684402 114.532132 
" clip-path="url(#p0dc8cc8330)" style="fill: none; stroke: #ff7f0e; stroke-opacity: 0.5; stroke-width: 0.2; stroke-linecap: square"/>
   <path d="M 267.674973 108.739623 
L 268.674973 108.771059 
L 269.674973 108.808 
L 270.674973 108.905746 
L 271.674973 108.938268 
L 272.674973 109.011892 
L 273.674973 109.050458 
L 274.674973 109.085871 
L 275.674973 109.143511 
L 276.674973 109.213897 
L 277.674973 109.265862 
L 278.674973 109.324951 
L 279.674973 109.413272 
L 280.674973 109.459417 
L 281.674973 109.501828 
L 282.674973 109.53232 
L 283.674973 109.558365 
L 284.674973 109.579565 
L 285.674973 109.633866 
L 286.674973 109.661804 
L 287.674973 109.691528 
L 288.674973 109.716923 
L 289.674973 109.728123 
L 290.674973 109.738247 
L 291.674973 109.738043 
L 292.674973 109.728533 
L 293.674973 109.716879 
L 294.674973 109.68585 
L 295.674973 109.674682 
L 296.674973 109.644565 
L 297.674973 109.584788 
L 298.674973 109.547596 
L 299.674973 109.5085 
L 300.674973 109.46606 
L 301.674973 109.433295 
L 302.674973 109.365869 
L 303.674973 109.326743 
L 304.674973 109.284068 
L 305.674973 109.213488 
L 306.674973 109.177097 
L 307.674973 109.118694 
L 308.674973 109.007741 
L 309.674973 108.937083 
L 310.674973 108.824143 
L 311.674973 108.77837 
L 312.674973 108.717087 
L 313.674973 108.668587 
L 314.684402 108.587765 
" clip-path="url(#p0dc8cc8330)" style="fill: none; stroke: #ff7f0e; stroke-opacity: 0.5; stroke-width: 0.2; stroke-linecap: square"/>
   <path d="M 267.674973 84.262429 
L 268.674973 84.293865 
L 269.674973 84.330805 
L 270.674973 84.428552 
L 271.674973 84.461074 
L 272.674973 84.534698 
L 273.674973 84.573264 
L 274.674973 84.608677 
L 275.674973 84.666317 
L 276.674973 84.736703 
L 277.674973 84.788667 
L 278.674973 84.847757 
L 279.674973 84.936078 
L 280.674973 84.982222 
L 281.674973 85.024633 
L 282.674973 85.055126 
L 283.674973 85.081171 
L 284.674973 85.102371 
L 285.674973 85.156672 
L 286.674973 85.18461 
L 287.674973 85.214334 
L 288.674973 85.239728 
L 289.674973 85.250929 
L 290.674973 85.261053 
L 291.674973 85.260848 
L 292.674973 85.251339 
L 293.674973 85.239685 
L 294.674973 85.208656 
L 295.674973 85.197488 
L 296.674973 85.16737 
L 297.674973 85.107593 
L 298.674973 85.070402 
L 299.674973 85.031306 
L 300.674973 84.988866 
L 301.674973 84.956101 
L 302.674973 84.888675 
L 303.674973 84.849549 
L 304.674973 84.806874 
L 305.674973 84.736294 
L 306.674973 84.699903 
L 307.674973 84.641499 
L 308.674973 84.530547 
L 309.674973 84.459889 
L 310.674973 84.346949 
L 311.674973 84.301176 
L 312.674973 84.239893 
L 313.674973 84.191393 
L 314.684402 84.110571 
" clip-path="url(#p0dc8cc8330)" style="fill: none; stroke: #ff7f0e; stroke-opacity: 0.5; stroke-width: 0.2; stroke-linecap: square"/>
   <path d="M 267.674973 82.821415 
L 268.674973 82.852851 
L 269.674973 82.889791 
L 270.674973 82.987538 
L 271.674973 83.020059 
L 272.674973 83.093684 
L 273.674973 83.13225 
L 274.674973 83.167663 
L 275.674973 83.225303 
L 276.674973 83.295689 
L 277.674973 83.347653 
L 278.674973 83.406743 
L 279.674973 83.495064 
L 280.674973 83.541208 
L 281.674973 83.583619 
L 282.674973 83.614112 
L 283.674973 83.640157 
L 284.674973 83.661357 
L 285.674973 83.715658 
L 286.674973 83.743596 
L 287.674973 83.77332 
L 288.674973 83.798714 
L 289.674973 83.809915 
L 290.674973 83.820039 
L 291.674973 83.819834 
L 292.674973 83.810324 
L 293.674973 83.798671 
L 294.674973 83.767642 
L 295.674973 83.756474 
L 296.674973 83.726356 
L 297.674973 83.666579 
L 298.674973 83.629388 
L 299.674973 83.590292 
L 300.674973 83.547852 
L 301.674973 83.515087 
L 302.674973 83.44766 
L 303.674973 83.408534 
L 304.674973 83.36586 
L 305.674973 83.295279 
L 306.674973 83.258888 
L 307.674973 83.200485 
L 308.674973 83.089533 
L 309.674973 83.018874 
L 310.674973 82.905935 
L 311.674973 82.860162 
L 312.674973 82.798878 
L 313.674973 82.750379 
L 314.684402 82.669556 
" clip-path="url(#p0dc8cc8330)" style="fill: none; stroke: #ff7f0e; stroke-opacity: 0.5; stroke-width: 0.2; stroke-linecap: square"/>
   <path d="M 267.674973 134.815345 
L 268.674973 134.846782 
L 269.674973 134.883722 
L 270.674973 134.981469 
L 271.674973 135.01399 
L 272.674973 135.087615 
L 273.674973 135.126181 
L 274.674973 135.161594 
L 275.674973 135.219234 
L 276.674973 135.28962 
L 277.674973 135.341584 
L 278.674973 135.400674 
L 279.674973 135.488995 
L 280.674973 135.535139 
L 281.674973 135.57755 
L 282.674973 135.608043 
L 283.674973 135.634088 
L 284.674973 135.655288 
L 285.674973 135.709589 
L 286.674973 135.737527 
L 287.674973 135.76725 
L 288.674973 135.792645 
L 289.674973 135.803846 
L 290.674973 135.81397 
L 291.674973 135.813765 
L 292.674973 135.804255 
L 293.674973 135.792602 
L 294.674973 135.761573 
L 295.674973 135.750405 
L 296.674973 135.720287 
L 297.674973 135.66051 
L 298.674973 135.623319 
L 299.674973 135.584223 
L 300.674973 135.541783 
L 301.674973 135.509018 
L 302.674973 135.441591 
L 303.674973 135.402465 
L 304.674973 135.359791 
L 305.674973 135.28921 
L 306.674973 135.252819 
L 307.674973 135.194416 
L 308.674973 135.083464 
L 309.674973 135.012805 
L 310.674973 134.899866 
L 311.674973 134.854093 
L 312.674973 134.792809 
L 313.674973 134.74431 
L 314.684402 134.663487 
" clip-path="url(#p0dc8cc8330)" style="fill: none; stroke: #ff7f0e; stroke-opacity: 0.5; stroke-width: 0.2; stroke-linecap: square"/>
   <path d="M 314.684402 160.121543 
L 313.684402 160.090107 
L 312.684402 160.053166 
L 311.684402 159.95542 
L 310.684402 159.922898 
L 309.684402 159.849273 
L 308.684402 159.810708 
L 307.684402 159.775295 
L 306.684402 159.717655 
L 305.684402 159.647269 
L 304.684402 159.595304 
L 303.684402 159.536215 
L 302.684402 159.447894 
L 301.684402 159.401749 
L 300.684402 159.359338 
L 299.684402 159.328846 
L 298.684402 159.302801 
L 297.684402 159.281601 
L 296.684402 159.2273 
L 295.684402 159.199362 
L 294.684402 159.169638 
L 293.684402 159.144243 
L 292.684402 159.133043 
L 291.684402 159.122919 
L 290.684402 159.123123 
L 289.684402 159.132633 
L 288.684402 159.144287 
L 287.684402 159.175316 
L 286.684402 159.186484 
L 285.684402 159.216601 
L 284.684402 159.276378 
L 283.684402 159.31357 
L 282.684402 159.352666 
L 281.684402 159.395106 
L 280.684402 159.427871 
L 279.684402 159.495297 
L 278.684402 159.534423 
L 277.684402 159.577098 
L 276.684402 159.647678 
L 275.684402 159.684069 
L 274.684402 159.742472 
L 273.684402 159.853425 
L 272.684402 159.924083 
L 271.684402 160.037023 
L 270.684402 160.082796 
L 269.684402 160.144079 
L 268.684402 160.192578 
L 267.674973 160.273401 
" clip-path="url(#p0dc8cc8330)" style="fill: none; stroke: #2ca02c; stroke-opacity: 0.5; stroke-width: 0.2; stroke-linecap: square"/>
   <path d="M 314.684402 115.763559 
L 313.684402 115.732123 
L 312.684402 115.695182 
L 311.684402 115.597436 
L 310.684402 115.564914 
L 309.684402 115.491289 
L 308.684402 115.452724 
L 307.684402 115.417311 
L 306.684402 115.359671 
L 305.684402 115.289284 
L 304.684402 115.23732 
L 303.684402 115.17823 
L 302.684402 115.089909 
L 301.684402 115.043765 
L 300.684402 115.001354 
L 299.684402 114.970862 
L 298.684402 114.944817 
L 297.684402 114.923617 
L 296.684402 114.869315 
L 295.684402 114.841378 
L 294.684402 114.811654 
L 293.684402 114.786259 
L 292.684402 114.775059 
L 291.684402 114.764935 
L 290.684402 114.765139 
L 289.684402 114.774649 
L 288.684402 114.786303 
L 287.684402 114.817332 
L 286.684402 114.8285 
L 285.684402 114.858617 
L 284.684402 114.918394 
L 283.684402 114.955586 
L 282.684402 114.994682 
L 281.684402 115.037121 
L 280.684402 115.069887 
L 279.684402 115.137313 
L 278.684402 115.176439 
L 277.684402 115.219113 
L 276.684402 115.289694 
L 275.684402 115.326085 
L 274.684402 115.384488 
L 273.684402 115.495441 
L 272.684402 115.566099 
L 271.684402 115.679039 
L 270.684402 115.724812 
L 269.684402 115.786095 
L 268.684402 115.834594 
L 267.674973 115.915417 
" clip-path="url(#p0dc8cc8330)" style="fill: none; stroke: #2ca02c; stroke-opacity: 0.5; stroke-width: 0.2; stroke-linecap: square"/>
   <path d="M 314.684402 134.590634 
L 313.684402 134.559198 
L 312.684402 134.522257 
L 311.684402 134.424511 
L 310.684402 134.391989 
L 309.684402 134.318364 
L 308.684402 134.279799 
L 307.684402 134.244386 
L 306.684402 134.186746 
L 305.684402 134.116359 
L 304.684402 134.064395 
L 303.684402 134.005306 
L 302.684402 133.916985 
L 301.684402 133.87084 
L 300.684402 133.828429 
L 299.684402 133.797937 
L 298.684402 133.771892 
L 297.684402 133.750692 
L 296.684402 133.696391 
L 295.684402 133.668453 
L 294.684402 133.638729 
L 293.684402 133.613334 
L 292.684402 133.602134 
L 291.684402 133.59201 
L 290.684402 133.592214 
L 289.684402 133.601724 
L 288.684402 133.613378 
L 287.684402 133.644407 
L 286.684402 133.655575 
L 285.684402 133.685692 
L 284.684402 133.745469 
L 283.684402 133.782661 
L 282.684402 133.821757 
L 281.684402 133.864197 
L 280.684402 133.896962 
L 279.684402 133.964388 
L 278.684402 134.003514 
L 277.684402 134.046189 
L 276.684402 134.116769 
L 275.684402 134.15316 
L 274.684402 134.211563 
L 273.684402 134.322516 
L 272.684402 134.393174 
L 271.684402 134.506114 
L 270.684402 134.551887 
L 269.684402 134.61317 
L 268.684402 134.661669 
L 267.674973 134.742492 
" clip-path="url(#p0dc8cc8330)" style="fill: none; stroke: #2ca02c; stroke-opacity: 0.5; stroke-width: 0.2; stroke-linecap: square"/>
   <path d="M 314.684402 91.669683 
L 313.684402 91.638247 
L 312.684402 91.601306 
L 311.684402 91.50356 
L 310.684402 91.471038 
L 309.684402 91.397414 
L 308.684402 91.358848 
L 307.684402 91.323435 
L 306.684402 91.265795 
L 305.684402 91.195409 
L 304.684402 91.143444 
L 303.684402 91.084355 
L 302.684402 90.996034 
L 301.684402 90.949889 
L 300.684402 90.907479 
L 299.684402 90.876986 
L 298.684402 90.850941 
L 297.684402 90.829741 
L 296.684402 90.77544 
L 295.684402 90.747502 
L 294.684402 90.717778 
L 293.684402 90.692383 
L 292.684402 90.681183 
L 291.684402 90.671059 
L 290.684402 90.671263 
L 289.684402 90.680773 
L 288.684402 90.692427 
L 287.684402 90.723456 
L 286.684402 90.734624 
L 285.684402 90.764742 
L 284.684402 90.824518 
L 283.684402 90.86171 
L 282.684402 90.900806 
L 281.684402 90.943246 
L 280.684402 90.976011 
L 279.684402 91.043437 
L 278.684402 91.082563 
L 277.684402 91.125238 
L 276.684402 91.195818 
L 275.684402 91.232209 
L 274.684402 91.290612 
L 273.684402 91.401565 
L 272.684402 91.472223 
L 271.684402 91.585163 
L 270.684402 91.630936 
L 269.684402 91.692219 
L 268.684402 91.740719 
L 267.674973 91.821541 
" clip-path="url(#p0dc8cc8330)" style="fill: none; stroke: #2ca02c; stroke-opacity: 0.5; stroke-width: 0.2; stroke-linecap: square"/>
   <path d="M 314.684402 144.479604 
L 313.684402 144.448168 
L 312.684402 144.411227 
L 311.684402 144.313481 
L 310.684402 144.280959 
L 309.684402 144.207334 
L 308.684402 144.168769 
L 307.684402 144.133356 
L 306.684402 144.075716 
L 305.684402 144.005329 
L 304.684402 143.953365 
L 303.684402 143.894275 
L 302.684402 143.805955 
L 301.684402 143.75981 
L 300.684402 143.717399 
L 299.684402 143.686907 
L 298.684402 143.660862 
L 297.684402 143.639662 
L 296.684402 143.58536 
L 295.684402 143.557423 
L 294.684402 143.527699 
L 293.684402 143.502304 
L 292.684402 143.491104 
L 291.684402 143.48098 
L 290.684402 143.481184 
L 289.684402 143.490694 
L 288.684402 143.502348 
L 287.684402 143.533377 
L 286.684402 143.544545 
L 285.684402 143.574662 
L 284.684402 143.634439 
L 283.684402 143.671631 
L 282.684402 143.710727 
L 281.684402 143.753166 
L 280.684402 143.785932 
L 279.684402 143.853358 
L 278.684402 143.892484 
L 277.684402 143.935158 
L 276.684402 144.005739 
L 275.684402 144.04213 
L 274.684402 144.100533 
L 273.684402 144.211486 
L 272.684402 144.282144 
L 271.684402 144.395084 
L 270.684402 144.440857 
L 269.684402 144.50214 
L 268.684402 144.550639 
L 267.674973 144.631462 
" clip-path="url(#p0dc8cc8330)" style="fill: none; stroke: #2ca02c; stroke-opacity: 0.5; stroke-width: 0.2; stroke-linecap: square"/>
   <g id="patch_3">
    <path d="M 211.488906 19.679062 
L 211.488906 68.908312 
M 370.870469 19.679062 
L 370.870469 68.908312 
" clip-path="url(#p0dc8cc8330)" style="fill: none; stroke: #ffffff; stroke-width: 3; stroke-linejoin: miter"/>
    <path d="M 211.488906 19.679062 
L 211.488906 68.908312 
M 370.870469 19.679062 
L 370.870469 68.908312 
" clip-path="url(#p0dc8cc8330)" style="fill: none; stroke: #1f77b4; stroke-linejoin: miter"/>
    <g id="PolyCollection_1">
     <path d="M 370.870469 19.679062 
L 211.488906 19.679062 
L 211.488906 68.908312 
L 370.870469 68.908312 
L 370.870469 68.908312 
L 370.870469 19.679062 
z
" clip-path="url(#p0dc8cc8330)" style="fill: #1f77b4; fill-opacity: 0.5"/>
    </g>
    <g id="patch_4">
     <path d="M 104.179403 68.908312 
L 104.179403 265.825312 
M 263.560967 68.908312 
L 263.560967 265.825312 
" clip-path="url(#p0dc8cc8330)" style="fill: none; stroke: #ffffff; stroke-width: 3; stroke-linejoin: miter"/>
     <path d="M 104.179403 68.908312 
L 104.179403 265.825312 
M 263.560967 68.908312 
L 263.560967 265.825312 
" clip-path="url(#p0dc8cc8330)" style="fill: none; stroke: #ff7f0e; stroke-linejoin: miter"/>
     <g id="PolyCollection_2">
      <path d="M 263.560967 68.908312 
L 104.179403 68.908312 
L 104.179403 265.825312 
L 263.560967 265.825312 
L 263.560967 265.825312 
L 263.560967 68.908312 
z
" clip-path="url(#p0dc8cc8330)" style="fill: #ff7f0e; fill-opacity: 0.5"/>
     </g>
     <g id="patch_5">
      <path d="M 318.798408 68.908312 
L 318.798408 265.825312 
M 478.179972 68.908312 
L 478.179972 265.825312 
" clip-path="url(#p0dc8cc8330)" style="fill: none; stroke: #ffffff; stroke-width: 3; stroke-linejoin: miter"/>
      <path d="M 318.798408 68.908312 
L 318.798408 265.825312 
M 478.179972 68.908312 
L 478.179972 265.825312 
" clip-path="url(#p0dc8cc8330)" style="fill: none; stroke: #2ca02c; stroke-linejoin: miter"/>
      <g id="PolyCollection_3">
       <path d="M 478.179972 68.908312 
L 318.798408 68.908312 
L 318.798408 265.825312 
L 478.179972 265.825312 
L 478.179972 265.825312 
L 478.179972 68.908312 
z
" clip-path="url(#p0dc8cc8330)" style="fill: #2ca02c; fill-opacity: 0.5"/>
      </g>
      <g id="matplotlib.axis_1"/>
      <g id="matplotlib.axis_2">
       <g id="ytick_1">
        <g id="line2d_1">
         <defs>
          <path id="m05be0b95e3" d="M 0 0 
L -3.5 0 
" style="stroke: #000000; stroke-width: 0.8"/>
         </defs>
         <g>
          <use xlink:href="#m05be0b95e3" x="85.479375" y="265.825312" style="stroke: #000000; stroke-width: 0.8"/>
         </g>
        </g>
        <g id="text_1">
         <!-- 0 -->
         <g transform="translate(70.844375 270.384375)scale(0.12 -0.12)">
          <defs>
           <path id="DejaVuSans-30" d="M 2034 4250 
Q 1547 4250 1301 3770 
Q 1056 3291 1056 2328 
Q 1056 1369 1301 889 
Q 1547 409 2034 409 
Q 2525 409 2770 889 
Q 3016 1369 3016 2328 
Q 3016 3291 2770 3770 
Q 2525 4250 2034 4250 
z
M 2034 4750 
Q 2819 4750 3233 4129 
Q 3647 3509 3647 2328 
Q 3647 1150 3233 529 
Q 2819 -91 2034 -91 
Q 1250 -91 836 529 
Q 422 1150 422 2328 
Q 422 3509 836 4129 
Q 1250 4750 2034 4750 
z
" transform="scale(0.015625)"/>
          </defs>
          <use xlink:href="#DejaVuSans-30"/>
         </g>
        </g>
       </g>
       <g id="ytick_2">
        <g id="line2d_2">
         <g>
          <use xlink:href="#m05be0b95e3" x="85.479375" y="216.596062" style="stroke: #000000; stroke-width: 0.8"/>
         </g>
        </g>
        <g id="text_2">
         <!-- 50000 -->
         <g transform="translate(40.304375 221.155125)scale(0.12 -0.12)">
          <defs>
           <path id="DejaVuSans-35" d="M 691 4666 
L 3169 4666 
L 3169 4134 
L 1269 4134 
L 1269 2991 
Q 1406 3038 1543 3061 
Q 1681 3084 1819 3084 
Q 2600 3084 3056 2656 
Q 3513 2228 3513 1497 
Q 3513 744 3044 326 
Q 2575 -91 1722 -91 
Q 1428 -91 1123 -41 
Q 819 9 494 109 
L 494 744 
Q 775 591 1075 516 
Q 1375 441 1709 441 
Q 2250 441 2565 725 
Q 2881 1009 2881 1497 
Q 2881 1984 2565 2268 
Q 2250 2553 1709 2553 
Q 1456 2553 1204 2497 
Q 953 2441 691 2322 
L 691 4666 
z
" transform="scale(0.015625)"/>
          </defs>
          <use xlink:href="#DejaVuSans-35"/>
          <use xlink:href="#DejaVuSans-30" x="63.623047"/>
          <use xlink:href="#DejaVuSans-30" x="127.246094"/>
          <use xlink:href="#DejaVuSans-30" x="190.869141"/>
          <use xlink:href="#DejaVuSans-30" x="254.492188"/>
         </g>
        </g>
       </g>
       <g id="ytick_3">
        <g id="line2d_3">
         <g>
          <use xlink:href="#m05be0b95e3" x="85.479375" y="167.366812" style="stroke: #000000; stroke-width: 0.8"/>
         </g>
        </g>
        <g id="text_3">
         <!-- 100000 -->
         <g transform="translate(32.669375 171.925875)scale(0.12 -0.12)">
          <defs>
           <path id="DejaVuSans-31" d="M 794 531 
L 1825 531 
L 1825 4091 
L 703 3866 
L 703 4441 
L 1819 4666 
L 2450 4666 
L 2450 531 
L 3481 531 
L 3481 0 
L 794 0 
L 794 531 
z
" transform="scale(0.015625)"/>
          </defs>
          <use xlink:href="#DejaVuSans-31"/>
          <use xlink:href="#DejaVuSans-30" x="63.623047"/>
          <use xlink:href="#DejaVuSans-30" x="127.246094"/>
          <use xlink:href="#DejaVuSans-30" x="190.869141"/>
          <use xlink:href="#DejaVuSans-30" x="254.492188"/>
          <use xlink:href="#DejaVuSans-30" x="318.115234"/>
         </g>
        </g>
       </g>
       <g id="ytick_4">
        <g id="line2d_4">
         <g>
          <use xlink:href="#m05be0b95e3" x="85.479375" y="118.137562" style="stroke: #000000; stroke-width: 0.8"/>
         </g>
        </g>
        <g id="text_4">
         <!-- 150000 -->
         <g transform="translate(32.669375 122.696625)scale(0.12 -0.12)">
          <use xlink:href="#DejaVuSans-31"/>
          <use xlink:href="#DejaVuSans-35" x="63.623047"/>
          <use xlink:href="#DejaVuSans-30" x="127.246094"/>
          <use xlink:href="#DejaVuSans-30" x="190.869141"/>
          <use xlink:href="#DejaVuSans-30" x="254.492188"/>
          <use xlink:href="#DejaVuSans-30" x="318.115234"/>
         </g>
        </g>
       </g>
       <g id="ytick_5">
        <g id="line2d_5">
         <g>
          <use xlink:href="#m05be0b95e3" x="85.479375" y="68.908312" style="stroke: #000000; stroke-width: 0.8"/>
         </g>
        </g>
        <g id="text_5">
         <!-- 200000 -->
         <g transform="translate(32.669375 73.467375)scale(0.12 -0.12)">
          <defs>
           <path id="DejaVuSans-32" d="M 1228 531 
L 3431 531 
L 3431 0 
L 469 0 
L 469 531 
Q 828 903 1448 1529 
Q 2069 2156 2228 2338 
Q 2531 2678 2651 2914 
Q 2772 3150 2772 3378 
Q 2772 3750 2511 3984 
Q 2250 4219 1831 4219 
Q 1534 4219 1204 4116 
Q 875 4013 500 3803 
L 500 4441 
Q 881 4594 1212 4672 
Q 1544 4750 1819 4750 
Q 2544 4750 2975 4387 
Q 3406 4025 3406 3419 
Q 3406 3131 3298 2873 
Q 3191 2616 2906 2266 
Q 2828 2175 2409 1742 
Q 1991 1309 1228 531 
z
" transform="scale(0.015625)"/>
          </defs>
          <use xlink:href="#DejaVuSans-32"/>
          <use xlink:href="#DejaVuSans-30" x="63.623047"/>
          <use xlink:href="#DejaVuSans-30" x="127.246094"/>
          <use xlink:href="#DejaVuSans-30" x="190.869141"/>
          <use xlink:href="#DejaVuSans-30" x="254.492188"/>
          <use xlink:href="#DejaVuSans-30" x="318.115234"/>
         </g>
        </g>
       </g>
       <g id="ytick_6">
        <g id="line2d_6">
         <g>
          <use xlink:href="#m05be0b95e3" x="85.479375" y="19.679062" style="stroke: #000000; stroke-width: 0.8"/>
         </g>
        </g>
        <g id="text_6">
         <!-- 250000 -->
         <g transform="translate(32.669375 24.238125)scale(0.12 -0.12)">
          <use xlink:href="#DejaVuSans-32"/>
          <use xlink:href="#DejaVuSans-35" x="63.623047"/>
          <use xlink:href="#DejaVuSans-30" x="127.246094"/>
          <use xlink:href="#DejaVuSans-30" x="190.869141"/>
          <use xlink:href="#DejaVuSans-30" x="254.492188"/>
          <use xlink:href="#DejaVuSans-30" x="318.115234"/>
         </g>
        </g>
       </g>
       <g id="text_7">
        <!-- time ago (years) -->
        <g transform="translate(25.757813 200.759219)rotate(-90)scale(0.14 -0.14)">
         <defs>
          <path id="DejaVuSans-74" d="M 1172 4494 
L 1172 3500 
L 2356 3500 
L 2356 3053 
L 1172 3053 
L 1172 1153 
Q 1172 725 1289 603 
Q 1406 481 1766 481 
L 2356 481 
L 2356 0 
L 1766 0 
Q 1100 0 847 248 
Q 594 497 594 1153 
L 594 3053 
L 172 3053 
L 172 3500 
L 594 3500 
L 594 4494 
L 1172 4494 
z
" transform="scale(0.015625)"/>
          <path id="DejaVuSans-69" d="M 603 3500 
L 1178 3500 
L 1178 0 
L 603 0 
L 603 3500 
z
M 603 4863 
L 1178 4863 
L 1178 4134 
L 603 4134 
L 603 4863 
z
" transform="scale(0.015625)"/>
          <path id="DejaVuSans-6d" d="M 3328 2828 
Q 3544 3216 3844 3400 
Q 4144 3584 4550 3584 
Q 5097 3584 5394 3201 
Q 5691 2819 5691 2113 
L 5691 0 
L 5113 0 
L 5113 2094 
Q 5113 2597 4934 2840 
Q 4756 3084 4391 3084 
Q 3944 3084 3684 2787 
Q 3425 2491 3425 1978 
L 3425 0 
L 2847 0 
L 2847 2094 
Q 2847 2600 2669 2842 
Q 2491 3084 2119 3084 
Q 1678 3084 1418 2786 
Q 1159 2488 1159 1978 
L 1159 0 
L 581 0 
L 581 3500 
L 1159 3500 
L 1159 2956 
Q 1356 3278 1631 3431 
Q 1906 3584 2284 3584 
Q 2666 3584 2933 3390 
Q 3200 3197 3328 2828 
z
" transform="scale(0.015625)"/>
          <path id="DejaVuSans-65" d="M 3597 1894 
L 3597 1613 
L 953 1613 
Q 991 1019 1311 708 
Q 1631 397 2203 397 
Q 2534 397 2845 478 
Q 3156 559 3463 722 
L 3463 178 
Q 3153 47 2828 -22 
Q 2503 -91 2169 -91 
Q 1331 -91 842 396 
Q 353 884 353 1716 
Q 353 2575 817 3079 
Q 1281 3584 2069 3584 
Q 2775 3584 3186 3129 
Q 3597 2675 3597 1894 
z
M 3022 2063 
Q 3016 2534 2758 2815 
Q 2500 3097 2075 3097 
Q 1594 3097 1305 2825 
Q 1016 2553 972 2059 
L 3022 2063 
z
" transform="scale(0.015625)"/>
          <path id="DejaVuSans-20" transform="scale(0.015625)"/>
          <path id="DejaVuSans-61" d="M 2194 1759 
Q 1497 1759 1228 1600 
Q 959 1441 959 1056 
Q 959 750 1161 570 
Q 1363 391 1709 391 
Q 2188 391 2477 730 
Q 2766 1069 2766 1631 
L 2766 1759 
L 2194 1759 
z
M 3341 1997 
L 3341 0 
L 2766 0 
L 2766 531 
Q 2569 213 2275 61 
Q 1981 -91 1556 -91 
Q 1019 -91 701 211 
Q 384 513 384 1019 
Q 384 1609 779 1909 
Q 1175 2209 1959 2209 
L 2766 2209 
L 2766 2266 
Q 2766 2663 2505 2880 
Q 2244 3097 1772 3097 
Q 1472 3097 1187 3025 
Q 903 2953 641 2809 
L 641 3341 
Q 956 3463 1253 3523 
Q 1550 3584 1831 3584 
Q 2591 3584 2966 3190 
Q 3341 2797 3341 1997 
z
" transform="scale(0.015625)"/>
          <path id="DejaVuSans-67" d="M 2906 1791 
Q 2906 2416 2648 2759 
Q 2391 3103 1925 3103 
Q 1463 3103 1205 2759 
Q 947 2416 947 1791 
Q 947 1169 1205 825 
Q 1463 481 1925 481 
Q 2391 481 2648 825 
Q 2906 1169 2906 1791 
z
M 3481 434 
Q 3481 -459 3084 -895 
Q 2688 -1331 1869 -1331 
Q 1566 -1331 1297 -1286 
Q 1028 -1241 775 -1147 
L 775 -588 
Q 1028 -725 1275 -790 
Q 1522 -856 1778 -856 
Q 2344 -856 2625 -561 
Q 2906 -266 2906 331 
L 2906 616 
Q 2728 306 2450 153 
Q 2172 0 1784 0 
Q 1141 0 747 490 
Q 353 981 353 1791 
Q 353 2603 747 3093 
Q 1141 3584 1784 3584 
Q 2172 3584 2450 3431 
Q 2728 3278 2906 2969 
L 2906 3500 
L 3481 3500 
L 3481 434 
z
" transform="scale(0.015625)"/>
          <path id="DejaVuSans-6f" d="M 1959 3097 
Q 1497 3097 1228 2736 
Q 959 2375 959 1747 
Q 959 1119 1226 758 
Q 1494 397 1959 397 
Q 2419 397 2687 759 
Q 2956 1122 2956 1747 
Q 2956 2369 2687 2733 
Q 2419 3097 1959 3097 
z
M 1959 3584 
Q 2709 3584 3137 3096 
Q 3566 2609 3566 1747 
Q 3566 888 3137 398 
Q 2709 -91 1959 -91 
Q 1206 -91 779 398 
Q 353 888 353 1747 
Q 353 2609 779 3096 
Q 1206 3584 1959 3584 
z
" transform="scale(0.015625)"/>
          <path id="DejaVuSans-28" d="M 1984 4856 
Q 1566 4138 1362 3434 
Q 1159 2731 1159 2009 
Q 1159 1288 1364 580 
Q 1569 -128 1984 -844 
L 1484 -844 
Q 1016 -109 783 600 
Q 550 1309 550 2009 
Q 550 2706 781 3412 
Q 1013 4119 1484 4856 
L 1984 4856 
z
" transform="scale(0.015625)"/>
          <path id="DejaVuSans-79" d="M 2059 -325 
Q 1816 -950 1584 -1140 
Q 1353 -1331 966 -1331 
L 506 -1331 
L 506 -850 
L 844 -850 
Q 1081 -850 1212 -737 
Q 1344 -625 1503 -206 
L 1606 56 
L 191 3500 
L 800 3500 
L 1894 763 
L 2988 3500 
L 3597 3500 
L 2059 -325 
z
" transform="scale(0.015625)"/>
          <path id="DejaVuSans-72" d="M 2631 2963 
Q 2534 3019 2420 3045 
Q 2306 3072 2169 3072 
Q 1681 3072 1420 2755 
Q 1159 2438 1159 1844 
L 1159 0 
L 581 0 
L 581 3500 
L 1159 3500 
L 1159 2956 
Q 1341 3275 1631 3429 
Q 1922 3584 2338 3584 
Q 2397 3584 2469 3576 
Q 2541 3569 2628 3553 
L 2631 2963 
z
" transform="scale(0.015625)"/>
          <path id="DejaVuSans-73" d="M 2834 3397 
L 2834 2853 
Q 2591 2978 2328 3040 
Q 2066 3103 1784 3103 
Q 1356 3103 1142 2972 
Q 928 2841 928 2578 
Q 928 2378 1081 2264 
Q 1234 2150 1697 2047 
L 1894 2003 
Q 2506 1872 2764 1633 
Q 3022 1394 3022 966 
Q 3022 478 2636 193 
Q 2250 -91 1575 -91 
Q 1294 -91 989 -36 
Q 684 19 347 128 
L 347 722 
Q 666 556 975 473 
Q 1284 391 1588 391 
Q 1994 391 2212 530 
Q 2431 669 2431 922 
Q 2431 1156 2273 1281 
Q 2116 1406 1581 1522 
L 1381 1569 
Q 847 1681 609 1914 
Q 372 2147 372 2553 
Q 372 3047 722 3315 
Q 1072 3584 1716 3584 
Q 2034 3584 2315 3537 
Q 2597 3491 2834 3397 
z
" transform="scale(0.015625)"/>
          <path id="DejaVuSans-29" d="M 513 4856 
L 1013 4856 
Q 1481 4119 1714 3412 
Q 1947 2706 1947 2009 
Q 1947 1309 1714 600 
Q 1481 -109 1013 -844 
L 513 -844 
Q 928 -128 1133 580 
Q 1338 1288 1338 2009 
Q 1338 2731 1133 3434 
Q 928 4138 513 4856 
z
" transform="scale(0.015625)"/>
         </defs>
         <use xlink:href="#DejaVuSans-74"/>
         <use xlink:href="#DejaVuSans-69" x="39.208984"/>
         <use xlink:href="#DejaVuSans-6d" x="66.992188"/>
         <use xlink:href="#DejaVuSans-65" x="164.404297"/>
         <use xlink:href="#DejaVuSans-20" x="225.927734"/>
         <use xlink:href="#DejaVuSans-61" x="257.714844"/>
         <use xlink:href="#DejaVuSans-67" x="318.994141"/>
         <use xlink:href="#DejaVuSans-6f" x="382.470703"/>
         <use xlink:href="#DejaVuSans-20" x="443.652344"/>
         <use xlink:href="#DejaVuSans-28" x="475.439453"/>
         <use xlink:href="#DejaVuSans-79" x="514.453125"/>
         <use xlink:href="#DejaVuSans-65" x="573.632812"/>
         <use xlink:href="#DejaVuSans-61" x="635.15625"/>
         <use xlink:href="#DejaVuSans-72" x="696.435547"/>
         <use xlink:href="#DejaVuSans-73" x="737.548828"/>
         <use xlink:href="#DejaVuSans-29" x="789.648438"/>
        </g>
       </g>
      </g>
      <path d="M 315.684402 114.68399 
L 313.684402 113.68399 
L 313.684402 115.68399 
z
" clip-path="url(#p0dc8cc8330)" style="fill: #ff7f0e; fill-opacity: 0.5; stroke: #ff7f0e; stroke-opacity: 0.5; stroke-linejoin: miter"/>
      <path d="M 315.684402 108.739623 
L 313.684402 107.739623 
L 313.684402 109.739623 
z
" clip-path="url(#p0dc8cc8330)" style="fill: #ff7f0e; fill-opacity: 0.5; stroke: #ff7f0e; stroke-opacity: 0.5; stroke-linejoin: miter"/>
      <path d="M 315.684402 84.262429 
L 313.684402 83.262429 
L 313.684402 85.262429 
z
" clip-path="url(#p0dc8cc8330)" style="fill: #ff7f0e; fill-opacity: 0.5; stroke: #ff7f0e; stroke-opacity: 0.5; stroke-linejoin: miter"/>
      <path d="M 315.684402 82.821415 
L 313.684402 81.821415 
L 313.684402 83.821415 
z
" clip-path="url(#p0dc8cc8330)" style="fill: #ff7f0e; fill-opacity: 0.5; stroke: #ff7f0e; stroke-opacity: 0.5; stroke-linejoin: miter"/>
      <path d="M 315.684402 134.815345 
L 313.684402 133.815345 
L 313.684402 135.815345 
z
" clip-path="url(#p0dc8cc8330)" style="fill: #ff7f0e; fill-opacity: 0.5; stroke: #ff7f0e; stroke-opacity: 0.5; stroke-linejoin: miter"/>
      <path d="M 266.674973 160.121543 
L 268.674973 161.121543 
L 268.674973 159.121543 
z
" clip-path="url(#p0dc8cc8330)" style="fill: #2ca02c; fill-opacity: 0.5; stroke: #2ca02c; stroke-opacity: 0.5; stroke-linejoin: miter"/>
      <path d="M 266.674973 115.763559 
L 268.674973 116.763559 
L 268.674973 114.763559 
z
" clip-path="url(#p0dc8cc8330)" style="fill: #2ca02c; fill-opacity: 0.5; stroke: #2ca02c; stroke-opacity: 0.5; stroke-linejoin: miter"/>
      <path d="M 266.674973 134.590634 
L 268.674973 135.590634 
L 268.674973 133.590634 
z
" clip-path="url(#p0dc8cc8330)" style="fill: #2ca02c; fill-opacity: 0.5; stroke: #2ca02c; stroke-opacity: 0.5; stroke-linejoin: miter"/>
      <path d="M 266.674973 91.669683 
L 268.674973 92.669683 
L 268.674973 90.669683 
z
" clip-path="url(#p0dc8cc8330)" style="fill: #2ca02c; fill-opacity: 0.5; stroke: #2ca02c; stroke-opacity: 0.5; stroke-linejoin: miter"/>
      <path d="M 266.674973 144.479604 
L 268.674973 145.479604 
L 268.674973 143.479604 
z
" clip-path="url(#p0dc8cc8330)" style="fill: #2ca02c; fill-opacity: 0.5; stroke: #2ca02c; stroke-opacity: 0.5; stroke-linejoin: miter"/>
      <g id="patch_6">
       <path d="M 85.479375 265.825312 
L 85.479375 19.679062 
" style="fill: none; stroke: #000000; stroke-width: 0.8; stroke-linejoin: miter; stroke-linecap: square"/>
      </g>
     </g>
    </g>
    <defs>
     <clipPath id="p0dc8cc8330">
      <rect x="85.479375" y="19.679062" width="411.400625" height="246.14625"/>
     </clipPath>
    </defs>
   </g>
  </g>
 </g>
</svg>
