<?xml version="1.0" encoding="utf-8" standalone="no"?>
<!DOCTYPE svg PUBLIC "-//W3C//DTD SVG 1.1//EN"
  "http://www.w3.org/Graphics/SVG/1.1/DTD/svg11.dtd">
<svg xmlns:xlink="http://www.w3.org/1999/xlink" width="512pt" height="288pt" viewBox="0 0 512 288" xmlns="http://www.w3.org/2000/svg" version="1.1">
 <metadata>
  <rdf:RDF xmlns:dc="http://purl.org/dc/elements/1.1/" xmlns:cc="http://creativecommons.org/ns#" xmlns:rdf="http://www.w3.org/1999/02/22-rdf-syntax-ns#">
   <cc:Work>
    <dc:type rdf:resource="http://purl.org/dc/dcmitype/StillImage"/>
    <dc:date>2022-08-12T16:34:07.321872</dc:date>
    <dc:format>image/svg+xml</dc:format>
    <dc:creator>
     <cc:Agent>
      <dc:title>Matplotlib v3.5.1, https://matplotlib.org/</dc:title>
     </cc:Agent>
    </dc:creator>
   </cc:Work>
  </rdf:RDF>
 </metadata>
 <defs>
  <style type="text/css">*{stroke-linejoin: round; stroke-linecap: butt}</style>
 </defs>
 <g id="figure_1">
  <g id="patch_1">
   <path d="M 0 288 
L 512 288 
L 512 0 
L 0 0 
L 0 288 
z
" style="fill: none"/>
  </g>
  <g id="axes_1">
   <g id="patch_2">
    <path d="M 85.479375 265.825312 
L 496.88 265.825312 
L 496.88 19.679062 
L 85.479375 19.679062 
z
" style="fill: #ffffff"/>
   </g>
   <g id="patch_3">
    <path d="M 255.956295 19.679062 
L 255.956295 68.908312 
L 220.732902 68.908312 
L 220.732902 167.366812 
M 326.40308 19.679062 
L 326.40308 68.908312 
L 361.626473 68.908312 
L 361.626473 167.366812 
" clip-path="url(#p6a60970654)" style="fill: none; stroke: #ffffff; stroke-width: 3; stroke-linejoin: miter"/>
    <path d="M 255.956295 19.679062 
L 255.956295 68.908312 
L 220.732902 68.908312 
L 220.732902 167.366812 
M 326.40308 19.679062 
L 326.40308 68.908312 
L 361.626473 68.908312 
L 361.626473 167.366812 
" clip-path="url(#p6a60970654)" style="fill: none; stroke: #1f77b4; stroke-linejoin: miter"/>
    <g id="PolyCollection_1">
     <path d="M 326.40308 19.679062 
L 255.956295 19.679062 
L 255.956295 68.908312 
L 220.732902 68.908312 
L 220.732902 167.366812 
L 361.626473 167.366812 
L 361.626473 167.366812 
L 361.626473 68.908312 
L 326.40308 68.908312 
L 326.40308 19.679062 
z
" clip-path="url(#p6a60970654)" style="fill: #1f77b4; fill-opacity: 0.5"/>
    </g>
    <g id="patch_4">
     <path d="M 104.179403 167.366812 
L 104.179403 265.825312 
M 174.626189 167.366812 
L 174.626189 265.825312 
" clip-path="url(#p6a60970654)" style="fill: none; stroke: #ffffff; stroke-width: 3; stroke-linejoin: miter"/>
     <path d="M 104.179403 167.366812 
L 104.179403 265.825312 
M 174.626189 167.366812 
L 174.626189 265.825312 
" clip-path="url(#p6a60970654)" style="fill: none; stroke: #ff7f0e; stroke-linejoin: miter"/>
     <g id="PolyCollection_2">
      <path d="M 174.626189 167.366812 
L 104.179403 167.366812 
L 104.179403 265.825312 
L 174.626189 265.825312 
L 174.626189 265.825312 
L 174.626189 167.366812 
z
" clip-path="url(#p6a60970654)" style="fill: #ff7f0e; fill-opacity: 0.5"/>
     </g>
     <g id="patch_5">
      <path d="M 407.733186 167.366812 
L 407.733186 265.825312 
M 478.179972 167.366812 
L 478.179972 265.825312 
" clip-path="url(#p6a60970654)" style="fill: none; stroke: #ffffff; stroke-width: 3; stroke-linejoin: miter"/>
      <path d="M 407.733186 167.366812 
L 407.733186 265.825312 
M 478.179972 167.366812 
L 478.179972 265.825312 
" clip-path="url(#p6a60970654)" style="fill: none; stroke: #2ca02c; stroke-linejoin: miter"/>
      <g id="PolyCollection_3">
       <path d="M 478.179972 167.366812 
L 407.733186 167.366812 
L 407.733186 265.825312 
L 478.179972 265.825312 
L 478.179972 265.825312 
L 478.179972 167.366812 
z
" clip-path="url(#p6a60970654)" style="fill: #2ca02c; fill-opacity: 0.5"/>
      </g>
      <g id="matplotlib.axis_1"/>
      <g id="matplotlib.axis_2">
       <g id="ytick_1">
        <g id="line2d_1">
         <defs>
          <path id="m855cbcb0a9" d="M 0 0 
L -3.5 0 
" style="stroke: #000000; stroke-width: 0.8"/>
         </defs>
         <g>
          <use xlink:href="#m855cbcb0a9" x="85.479375" y="265.825312" style="stroke: #000000; stroke-width: 0.8"/>
         </g>
        </g>
        <g id="text_1">
         <!-- 0 -->
         <g transform="translate(70.844375 270.384375)scale(0.12 -0.12)">
          <defs>
           <path id="DejaVuSans-30" d="M 2034 4250 
Q 1547 4250 1301 3770 
Q 1056 3291 1056 2328 
Q 1056 1369 1301 889 
Q 1547 409 2034 409 
Q 2525 409 2770 889 
Q 3016 1369 3016 2328 
Q 3016 3291 2770 3770 
Q 2525 4250 2034 4250 
z
M 2034 4750 
Q 2819 4750 3233 4129 
Q 3647 3509 3647 2328 
Q 3647 1150 3233 529 
Q 2819 -91 2034 -91 
Q 1250 -91 836 529 
Q 422 1150 422 2328 
Q 422 3509 836 4129 
Q 1250 4750 2034 4750 
z
" transform="scale(0.015625)"/>
          </defs>
          <use xlink:href="#DejaVuSans-30"/>
         </g>
        </g>
       </g>
       <g id="ytick_2">
        <g id="line2d_2">
         <g>
          <use xlink:href="#m855cbcb0a9" x="85.479375" y="216.596062" style="stroke: #000000; stroke-width: 0.8"/>
         </g>
        </g>
        <g id="text_2">
         <!-- 50000 -->
         <g transform="translate(40.304375 221.155125)scale(0.12 -0.12)">
          <defs>
           <path id="DejaVuSans-35" d="M 691 4666 
L 3169 4666 
L 3169 4134 
L 1269 4134 
L 1269 2991 
Q 1406 3038 1543 3061 
Q 1681 3084 1819 3084 
Q 2600 3084 3056 2656 
Q 3513 2228 3513 1497 
Q 3513 744 3044 326 
Q 2575 -91 1722 -91 
Q 1428 -91 1123 -41 
Q 819 9 494 109 
L 494 744 
Q 775 591 1075 516 
Q 1375 441 1709 441 
Q 2250 441 2565 725 
Q 2881 1009 2881 1497 
Q 2881 1984 2565 2268 
Q 2250 2553 1709 2553 
Q 1456 2553 1204 2497 
Q 953 2441 691 2322 
L 691 4666 
z
" transform="scale(0.015625)"/>
          </defs>
          <use xlink:href="#DejaVuSans-35"/>
          <use xlink:href="#DejaVuSans-30" x="63.623047"/>
          <use xlink:href="#DejaVuSans-30" x="127.246094"/>
          <use xlink:href="#DejaVuSans-30" x="190.869141"/>
          <use xlink:href="#DejaVuSans-30" x="254.492188"/>
         </g>
        </g>
       </g>
       <g id="ytick_3">
        <g id="line2d_3">
         <g>
          <use xlink:href="#m855cbcb0a9" x="85.479375" y="167.366812" style="stroke: #000000; stroke-width: 0.8"/>
         </g>
        </g>
        <g id="text_3">
         <!-- 100000 -->
         <g transform="translate(32.669375 171.925875)scale(0.12 -0.12)">
          <defs>
           <path id="DejaVuSans-31" d="M 794 531 
L 1825 531 
L 1825 4091 
L 703 3866 
L 703 4441 
L 1819 4666 
L 2450 4666 
L 2450 531 
L 3481 531 
L 3481 0 
L 794 0 
L 794 531 
z
" transform="scale(0.015625)"/>
          </defs>
          <use xlink:href="#DejaVuSans-31"/>
          <use xlink:href="#DejaVuSans-30" x="63.623047"/>
          <use xlink:href="#DejaVuSans-30" x="127.246094"/>
          <use xlink:href="#DejaVuSans-30" x="190.869141"/>
          <use xlink:href="#DejaVuSans-30" x="254.492188"/>
          <use xlink:href="#DejaVuSans-30" x="318.115234"/>
         </g>
        </g>
       </g>
       <g id="ytick_4">
        <g id="line2d_4">
         <g>
          <use xlink:href="#m855cbcb0a9" x="85.479375" y="118.137562" style="stroke: #000000; stroke-width: 0.8"/>
         </g>
        </g>
        <g id="text_4">
         <!-- 150000 -->
         <g transform="translate(32.669375 122.696625)scale(0.12 -0.12)">
          <use xlink:href="#DejaVuSans-31"/>
          <use xlink:href="#DejaVuSans-35" x="63.623047"/>
          <use xlink:href="#DejaVuSans-30" x="127.246094"/>
          <use xlink:href="#DejaVuSans-30" x="190.869141"/>
          <use xlink:href="#DejaVuSans-30" x="254.492188"/>
          <use xlink:href="#DejaVuSans-30" x="318.115234"/>
         </g>
        </g>
       </g>
       <g id="ytick_5">
        <g id="line2d_5">
         <g>
          <use xlink:href="#m855cbcb0a9" x="85.479375" y="68.908312" style="stroke: #000000; stroke-width: 0.8"/>
         </g>
        </g>
        <g id="text_5">
         <!-- 200000 -->
         <g transform="translate(32.669375 73.467375)scale(0.12 -0.12)">
          <defs>
           <path id="DejaVuSans-32" d="M 1228 531 
L 3431 531 
L 3431 0 
L 469 0 
L 469 531 
Q 828 903 1448 1529 
Q 2069 2156 2228 2338 
Q 2531 2678 2651 2914 
Q 2772 3150 2772 3378 
Q 2772 3750 2511 3984 
Q 2250 4219 1831 4219 
Q 1534 4219 1204 4116 
Q 875 4013 500 3803 
L 500 4441 
Q 881 4594 1212 4672 
Q 1544 4750 1819 4750 
Q 2544 4750 2975 4387 
Q 3406 4025 3406 3419 
Q 3406 3131 3298 2873 
Q 3191 2616 2906 2266 
Q 2828 2175 2409 1742 
Q 1991 1309 1228 531 
z
" transform="scale(0.015625)"/>
          </defs>
          <use xlink:href="#DejaVuSans-32"/>
          <use xlink:href="#DejaVuSans-30" x="63.623047"/>
          <use xlink:href="#DejaVuSans-30" x="127.246094"/>
          <use xlink:href="#DejaVuSans-30" x="190.869141"/>
          <use xlink:href="#DejaVuSans-30" x="254.492188"/>
          <use xlink:href="#DejaVuSans-30" x="318.115234"/>
         </g>
        </g>
       </g>
       <g id="ytick_6">
        <g id="line2d_6">
         <g>
          <use xlink:href="#m855cbcb0a9" x="85.479375" y="19.679062" style="stroke: #000000; stroke-width: 0.8"/>
         </g>
        </g>
        <g id="text_6">
         <!-- 250000 -->
         <g transform="translate(32.669375 24.238125)scale(0.12 -0.12)">
          <use xlink:href="#DejaVuSans-32"/>
          <use xlink:href="#DejaVuSans-35" x="63.623047"/>
          <use xlink:href="#DejaVuSans-30" x="127.246094"/>
          <use xlink:href="#DejaVuSans-30" x="190.869141"/>
          <use xlink:href="#DejaVuSans-30" x="254.492188"/>
          <use xlink:href="#DejaVuSans-30" x="318.115234"/>
         </g>
        </g>
       </g>
       <g id="text_7">
        <!-- time ago (years) -->
        <g transform="translate(25.757813 200.759219)rotate(-90)scale(0.14 -0.14)">
         <defs>
          <path id="DejaVuSans-74" d="M 1172 4494 
L 1172 3500 
L 2356 3500 
L 2356 3053 
L 1172 3053 
L 1172 1153 
Q 1172 725 1289 603 
Q 1406 481 1766 481 
L 2356 481 
L 2356 0 
L 1766 0 
Q 1100 0 847 248 
Q 594 497 594 1153 
L 594 3053 
L 172 3053 
L 172 3500 
L 594 3500 
L 594 4494 
L 1172 4494 
z
" transform="scale(0.015625)"/>
          <path id="DejaVuSans-69" d="M 603 3500 
L 1178 3500 
L 1178 0 
L 603 0 
L 603 3500 
z
M 603 4863 
L 1178 4863 
L 1178 4134 
L 603 4134 
L 603 4863 
z
" transform="scale(0.015625)"/>
          <path id="DejaVuSans-6d" d="M 3328 2828 
Q 3544 3216 3844 3400 
Q 4144 3584 4550 3584 
Q 5097 3584 5394 3201 
Q 5691 2819 5691 2113 
L 5691 0 
L 5113 0 
L 5113 2094 
Q 5113 2597 4934 2840 
Q 4756 3084 4391 3084 
Q 3944 3084 3684 2787 
Q 3425 2491 3425 1978 
L 3425 0 
L 2847 0 
L 2847 2094 
Q 2847 2600 2669 2842 
Q 2491 3084 2119 3084 
Q 1678 3084 1418 2786 
Q 1159 2488 1159 1978 
L 1159 0 
L 581 0 
L 581 3500 
L 1159 3500 
L 1159 2956 
Q 1356 3278 1631 3431 
Q 1906 3584 2284 3584 
Q 2666 3584 2933 3390 
Q 3200 3197 3328 2828 
z
" transform="scale(0.015625)"/>
          <path id="DejaVuSans-65" d="M 3597 1894 
L 3597 1613 
L 953 1613 
Q 991 1019 1311 708 
Q 1631 397 2203 397 
Q 2534 397 2845 478 
Q 3156 559 3463 722 
L 3463 178 
Q 3153 47 2828 -22 
Q 2503 -91 2169 -91 
Q 1331 -91 842 396 
Q 353 884 353 1716 
Q 353 2575 817 3079 
Q 1281 3584 2069 3584 
Q 2775 3584 3186 3129 
Q 3597 2675 3597 1894 
z
M 3022 2063 
Q 3016 2534 2758 2815 
Q 2500 3097 2075 3097 
Q 1594 3097 1305 2825 
Q 1016 2553 972 2059 
L 3022 2063 
z
" transform="scale(0.015625)"/>
          <path id="DejaVuSans-20" transform="scale(0.015625)"/>
          <path id="DejaVuSans-61" d="M 2194 1759 
Q 1497 1759 1228 1600 
Q 959 1441 959 1056 
Q 959 750 1161 570 
Q 1363 391 1709 391 
Q 2188 391 2477 730 
Q 2766 1069 2766 1631 
L 2766 1759 
L 2194 1759 
z
M 3341 1997 
L 3341 0 
L 2766 0 
L 2766 531 
Q 2569 213 2275 61 
Q 1981 -91 1556 -91 
Q 1019 -91 701 211 
Q 384 513 384 1019 
Q 384 1609 779 1909 
Q 1175 2209 1959 2209 
L 2766 2209 
L 2766 2266 
Q 2766 2663 2505 2880 
Q 2244 3097 1772 3097 
Q 1472 3097 1187 3025 
Q 903 2953 641 2809 
L 641 3341 
Q 956 3463 1253 3523 
Q 1550 3584 1831 3584 
Q 2591 3584 2966 3190 
Q 3341 2797 3341 1997 
z
" transform="scale(0.015625)"/>
          <path id="DejaVuSans-67" d="M 2906 1791 
Q 2906 2416 2648 2759 
Q 2391 3103 1925 3103 
Q 1463 3103 1205 2759 
Q 947 2416 947 1791 
Q 947 1169 1205 825 
Q 1463 481 1925 481 
Q 2391 481 2648 825 
Q 2906 1169 2906 1791 
z
M 3481 434 
Q 3481 -459 3084 -895 
Q 2688 -1331 1869 -1331 
Q 1566 -1331 1297 -1286 
Q 1028 -1241 775 -1147 
L 775 -588 
Q 1028 -725 1275 -790 
Q 1522 -856 1778 -856 
Q 2344 -856 2625 -561 
Q 2906 -266 2906 331 
L 2906 616 
Q 2728 306 2450 153 
Q 2172 0 1784 0 
Q 1141 0 747 490 
Q 353 981 353 1791 
Q 353 2603 747 3093 
Q 1141 3584 1784 3584 
Q 2172 3584 2450 3431 
Q 2728 3278 2906 2969 
L 2906 3500 
L 3481 3500 
L 3481 434 
z
" transform="scale(0.015625)"/>
          <path id="DejaVuSans-6f" d="M 1959 3097 
Q 1497 3097 1228 2736 
Q 959 2375 959 1747 
Q 959 1119 1226 758 
Q 1494 397 1959 397 
Q 2419 397 2687 759 
Q 2956 1122 2956 1747 
Q 2956 2369 2687 2733 
Q 2419 3097 1959 3097 
z
M 1959 3584 
Q 2709 3584 3137 3096 
Q 3566 2609 3566 1747 
Q 3566 888 3137 398 
Q 2709 -91 1959 -91 
Q 1206 -91 779 398 
Q 353 888 353 1747 
Q 353 2609 779 3096 
Q 1206 3584 1959 3584 
z
" transform="scale(0.015625)"/>
          <path id="DejaVuSans-28" d="M 1984 4856 
Q 1566 4138 1362 3434 
Q 1159 2731 1159 2009 
Q 1159 1288 1364 580 
Q 1569 -128 1984 -844 
L 1484 -844 
Q 1016 -109 783 600 
Q 550 1309 550 2009 
Q 550 2706 781 3412 
Q 1013 4119 1484 4856 
L 1984 4856 
z
" transform="scale(0.015625)"/>
          <path id="DejaVuSans-79" d="M 2059 -325 
Q 1816 -950 1584 -1140 
Q 1353 -1331 966 -1331 
L 506 -1331 
L 506 -850 
L 844 -850 
Q 1081 -850 1212 -737 
Q 1344 -625 1503 -206 
L 1606 56 
L 191 3500 
L 800 3500 
L 1894 763 
L 2988 3500 
L 3597 3500 
L 2059 -325 
z
" transform="scale(0.015625)"/>
          <path id="DejaVuSans-72" d="M 2631 2963 
Q 2534 3019 2420 3045 
Q 2306 3072 2169 3072 
Q 1681 3072 1420 2755 
Q 1159 2438 1159 1844 
L 1159 0 
L 581 0 
L 581 3500 
L 1159 3500 
L 1159 2956 
Q 1341 3275 1631 3429 
Q 1922 3584 2338 3584 
Q 2397 3584 2469 3576 
Q 2541 3569 2628 3553 
L 2631 2963 
z
" transform="scale(0.015625)"/>
          <path id="DejaVuSans-73" d="M 2834 3397 
L 2834 2853 
Q 2591 2978 2328 3040 
Q 2066 3103 1784 3103 
Q 1356 3103 1142 2972 
Q 928 2841 928 2578 
Q 928 2378 1081 2264 
Q 1234 2150 1697 2047 
L 1894 2003 
Q 2506 1872 2764 1633 
Q 3022 1394 3022 966 
Q 3022 478 2636 193 
Q 2250 -91 1575 -91 
Q 1294 -91 989 -36 
Q 684 19 347 128 
L 347 722 
Q 666 556 975 473 
Q 1284 391 1588 391 
Q 1994 391 2212 530 
Q 2431 669 2431 922 
Q 2431 1156 2273 1281 
Q 2116 1406 1581 1522 
L 1381 1569 
Q 847 1681 609 1914 
Q 372 2147 372 2553 
Q 372 3047 722 3315 
Q 1072 3584 1716 3584 
Q 2034 3584 2315 3537 
Q 2597 3491 2834 3397 
z
" transform="scale(0.015625)"/>
          <path id="DejaVuSans-29" d="M 513 4856 
L 1013 4856 
Q 1481 4119 1714 3412 
Q 1947 2706 1947 2009 
Q 1947 1309 1714 600 
Q 1481 -109 1013 -844 
L 513 -844 
Q 928 -128 1133 580 
Q 1338 1288 1338 2009 
Q 1338 2731 1133 3434 
Q 928 4138 513 4856 
z
" transform="scale(0.015625)"/>
         </defs>
         <use xlink:href="#DejaVuSans-74"/>
         <use xlink:href="#DejaVuSans-69" x="39.208984"/>
         <use xlink:href="#DejaVuSans-6d" x="66.992188"/>
         <use xlink:href="#DejaVuSans-65" x="164.404297"/>
         <use xlink:href="#DejaVuSans-20" x="225.927734"/>
         <use xlink:href="#DejaVuSans-61" x="257.714844"/>
         <use xlink:href="#DejaVuSans-67" x="318.994141"/>
         <use xlink:href="#DejaVuSans-6f" x="382.470703"/>
         <use xlink:href="#DejaVuSans-20" x="443.652344"/>
         <use xlink:href="#DejaVuSans-28" x="475.439453"/>
         <use xlink:href="#DejaVuSans-79" x="514.453125"/>
         <use xlink:href="#DejaVuSans-65" x="573.632812"/>
         <use xlink:href="#DejaVuSans-61" x="635.15625"/>
         <use xlink:href="#DejaVuSans-72" x="696.435547"/>
         <use xlink:href="#DejaVuSans-73" x="737.548828"/>
         <use xlink:href="#DejaVuSans-29" x="789.648438"/>
        </g>
       </g>
      </g>
      <g id="patch_6">
       <path d="M 218.732055 167.366812 
L 217.732055 167.335376 
L 216.732055 167.298436 
L 215.732055 167.200689 
L 214.732055 167.168168 
L 213.732055 167.094543 
L 212.732055 167.055977 
L 211.732055 167.020564 
L 210.732055 166.962924 
L 209.732055 166.892538 
L 208.732055 166.840574 
L 207.732055 166.781484 
L 206.732055 166.693163 
L 205.732055 166.647019 
L 204.732055 166.604608 
L 203.732055 166.574115 
L 202.732055 166.54807 
L 201.732055 166.52687 
L 200.732055 166.472569 
L 199.732055 166.444631 
L 198.732055 166.414908 
L 197.732055 166.389513 
L 196.732055 166.378312 
L 195.732055 166.368188 
L 194.732055 166.368393 
L 193.732055 166.377903 
L 192.732055 166.389556 
L 191.732055 166.420585 
L 190.732055 166.431753 
L 189.732055 166.461871 
L 188.732055 166.521648 
L 187.732055 166.558839 
L 186.732055 166.597935 
L 185.732055 166.640375 
L 184.732055 166.67314 
L 183.732055 166.740567 
L 182.732055 166.779693 
L 181.732055 166.822367 
L 180.732055 166.892948 
L 179.732055 166.929339 
L 177.744385 166.987742 
" clip-path="url(#p6a60970654)" style="fill: none; stroke: #ffffff; stroke-width: 3; stroke-linecap: round"/>
       <path d="M 218.732055 167.366812 
L 217.732055 167.335376 
L 216.732055 167.298436 
L 215.732055 167.200689 
L 214.732055 167.168168 
L 213.732055 167.094543 
L 212.732055 167.055977 
L 211.732055 167.020564 
L 210.732055 166.962924 
L 209.732055 166.892538 
L 208.732055 166.840574 
L 207.732055 166.781484 
L 206.732055 166.693163 
L 205.732055 166.647019 
L 204.732055 166.604608 
L 203.732055 166.574115 
L 202.732055 166.54807 
L 201.732055 166.52687 
L 200.732055 166.472569 
L 199.732055 166.444631 
L 198.732055 166.414908 
L 197.732055 166.389513 
L 196.732055 166.378312 
L 195.732055 166.368188 
L 194.732055 166.368393 
L 193.732055 166.377903 
L 192.732055 166.389556 
L 191.732055 166.420585 
L 190.732055 166.431753 
L 189.732055 166.461871 
L 188.732055 166.521648 
L 187.732055 166.558839 
L 186.732055 166.597935 
L 185.732055 166.640375 
L 184.732055 166.67314 
L 183.732055 166.740567 
L 182.732055 166.779693 
L 181.732055 166.822367 
L 180.732055 166.892948 
L 179.732055 166.929339 
L 177.744385 166.987742 
" clip-path="url(#p6a60970654)" style="fill: none; stroke: #1f77b4; stroke-linecap: round"/>
       <path d="M 181.744385 169.366812 
L 180.864017 168.891481 
L 179.98611 168.411227 
L 179.135396 167.876586 
L 177.833222 167.189139 
L 178.760575 167.163124 
L 179.672249 166.750405 
L 180.582514 166.334866 
L 181.925009 165.728061 
L 181.270111 166.366812 
L 181.218146 167.366812 
L 181.159057 169.366812 
L 181.744385 169.366812 
z
" clip-path="url(#p6a60970654)" style="fill: #ffffff; stroke: #ffffff; stroke-width: 3; stroke-linecap: round"/>
       <path d="M 181.744385 169.366812 
L 180.864017 168.891481 
L 179.98611 168.411227 
L 179.135396 167.876586 
L 177.833222 167.189139 
L 178.760575 167.163124 
L 179.672249 166.750405 
L 180.582514 166.334866 
L 181.925009 165.728061 
L 181.270111 166.366812 
L 181.218146 167.366812 
L 181.159057 169.366812 
L 181.744385 169.366812 
z
" clip-path="url(#p6a60970654)" style="fill: #ffffff; stroke: #1f77b4; stroke-linecap: round"/>
       <g id="patch_7">
        <path d="M 363.62732 167.366812 
L 364.62732 167.398249 
L 365.62732 167.435189 
L 366.62732 167.532936 
L 367.62732 167.565457 
L 368.62732 167.639082 
L 369.62732 167.677648 
L 370.62732 167.713061 
L 371.62732 167.770701 
L 372.62732 167.841087 
L 373.62732 167.893051 
L 374.62732 167.952141 
L 375.62732 168.040462 
L 376.62732 168.086606 
L 377.62732 168.129017 
L 378.62732 168.15951 
L 379.62732 168.185555 
L 380.62732 168.206755 
L 381.62732 168.261056 
L 382.62732 168.288994 
L 383.62732 168.318717 
L 384.62732 168.344112 
L 385.62732 168.355313 
L 386.62732 168.365437 
L 387.62732 168.365232 
L 388.62732 168.355722 
L 389.62732 168.344069 
L 390.62732 168.31304 
L 391.62732 168.301872 
L 392.62732 168.271754 
L 393.62732 168.211977 
L 394.62732 168.174786 
L 395.62732 168.13569 
L 396.62732 168.09325 
L 397.62732 168.060485 
L 398.62732 167.993058 
L 399.62732 167.953932 
L 400.62732 167.911258 
L 401.62732 167.840677 
L 402.62732 167.804286 
L 404.61499 167.745883 
" clip-path="url(#p6a60970654)" style="fill: none; stroke: #ffffff; stroke-width: 3; stroke-linecap: round"/>
        <path d="M 363.62732 167.366812 
L 364.62732 167.398249 
L 365.62732 167.435189 
L 366.62732 167.532936 
L 367.62732 167.565457 
L 368.62732 167.639082 
L 369.62732 167.677648 
L 370.62732 167.713061 
L 371.62732 167.770701 
L 372.62732 167.841087 
L 373.62732 167.893051 
L 374.62732 167.952141 
L 375.62732 168.040462 
L 376.62732 168.086606 
L 377.62732 168.129017 
L 378.62732 168.15951 
L 379.62732 168.185555 
L 380.62732 168.206755 
L 381.62732 168.261056 
L 382.62732 168.288994 
L 383.62732 168.318717 
L 384.62732 168.344112 
L 385.62732 168.355313 
L 386.62732 168.365437 
L 387.62732 168.365232 
L 388.62732 168.355722 
L 389.62732 168.344069 
L 390.62732 168.31304 
L 391.62732 168.301872 
L 392.62732 168.271754 
L 393.62732 168.211977 
L 394.62732 168.174786 
L 395.62732 168.13569 
L 396.62732 168.09325 
L 397.62732 168.060485 
L 398.62732 167.993058 
L 399.62732 167.953932 
L 400.62732 167.911258 
L 401.62732 167.840677 
L 402.62732 167.804286 
L 404.61499 167.745883 
" clip-path="url(#p6a60970654)" style="fill: none; stroke: #1f77b4; stroke-linecap: round"/>
        <path d="M 400.61499 165.366812 
L 401.495358 165.842144 
L 402.373265 166.322398 
L 403.223979 166.857039 
L 404.526153 167.544486 
L 403.5988 167.570501 
L 402.687126 167.98322 
L 401.776861 168.398759 
L 400.434366 169.005564 
L 401.089264 168.366812 
L 401.141229 167.366812 
L 401.200318 165.366812 
L 400.61499 165.366812 
z
" clip-path="url(#p6a60970654)" style="fill: #ffffff; stroke: #ffffff; stroke-width: 3; stroke-linecap: round"/>
        <path d="M 400.61499 165.366812 
L 401.495358 165.842144 
L 402.373265 166.322398 
L 403.223979 166.857039 
L 404.526153 167.544486 
L 403.5988 167.570501 
L 402.687126 167.98322 
L 401.776861 168.398759 
L 400.434366 169.005564 
L 401.089264 168.366812 
L 401.141229 167.366812 
L 401.200318 165.366812 
L 400.61499 165.366812 
z
" clip-path="url(#p6a60970654)" style="fill: #ffffff; stroke: #1f77b4; stroke-linecap: round"/>
        <g id="patch_8">
         <path d="M 85.479375 265.825312 
L 85.479375 19.679062 
" style="fill: none; stroke: #000000; stroke-width: 0.8; stroke-linejoin: miter; stroke-linecap: square"/>
        </g>
       </g>
      </g>
      <defs>
       <clipPath id="p6a60970654">
        <rect x="85.479375" y="19.679062" width="411.400625" height="246.14625"/>
       </clipPath>
      </defs>
     </g>
    </g>
   </g>
  </g>
 </g>
</svg>
