<?xml version="1.0" encoding="utf-8" standalone="no"?>
<!DOCTYPE svg PUBLIC "-//W3C//DTD SVG 1.1//EN"
  "http://www.w3.org/Graphics/SVG/1.1/DTD/svg11.dtd">
<svg xmlns:xlink="http://www.w3.org/1999/xlink" width="512pt" height="288pt" viewBox="0 0 512 288" xmlns="http://www.w3.org/2000/svg" version="1.1">
 <metadata>
  <rdf:RDF xmlns:dc="http://purl.org/dc/elements/1.1/" xmlns:cc="http://creativecommons.org/ns#" xmlns:rdf="http://www.w3.org/1999/02/22-rdf-syntax-ns#">
   <cc:Work>
    <dc:type rdf:resource="http://purl.org/dc/dcmitype/StillImage"/>
    <dc:date>2022-08-12T16:27:37.340681</dc:date>
    <dc:format>image/svg+xml</dc:format>
    <dc:creator>
     <cc:Agent>
      <dc:title>Matplotlib v3.5.1, https://matplotlib.org/</dc:title>
     </cc:Agent>
    </dc:creator>
   </cc:Work>
  </rdf:RDF>
 </metadata>
 <defs>
  <style type="text/css">*{stroke-linejoin: round; stroke-linecap: butt}</style>
 </defs>
 <g id="figure_1">
  <g id="patch_1">
   <path d="M 0 288 
L 512 288 
L 512 0 
L 0 0 
L 0 288 
z
" style="fill: none"/>
  </g>
  <g id="axes_1">
   <g id="patch_2">
    <path d="M 85.479375 265.825312 
L 496.88 265.825312 
L 496.88 19.679062 
L 85.479375 19.679062 
z
" style="fill: #ffffff"/>
   </g>
   <g id="patch_3">
    <path d="M 231.899335 19.679062 
L 231.899335 68.908312 
M 350.46004 19.679062 
L 350.46004 68.908312 
" clip-path="url(#p0ce8fa37f8)" style="fill: none; stroke: #ffffff; stroke-width: 3; stroke-linejoin: miter"/>
    <path d="M 231.899335 19.679062 
L 231.899335 68.908312 
M 350.46004 19.679062 
L 350.46004 68.908312 
" clip-path="url(#p0ce8fa37f8)" style="fill: none; stroke: #1f77b4; stroke-linejoin: miter"/>
    <g id="PolyCollection_1">
     <path d="M 350.46004 19.679062 
L 231.899335 19.679062 
L 231.899335 68.908312 
L 350.46004 68.908312 
L 350.46004 68.908312 
L 350.46004 19.679062 
z
" clip-path="url(#p0ce8fa37f8)" style="fill: #1f77b4; fill-opacity: 0.5"/>
    </g>
    <g id="patch_4">
     <path d="M 181.714155 68.908312 
L 181.714155 167.366812 
M 240.994507 68.908312 
L 240.994507 167.366812 
" clip-path="url(#p0ce8fa37f8)" style="fill: none; stroke: #ffffff; stroke-width: 3; stroke-linejoin: miter"/>
     <path d="M 181.714155 68.908312 
L 181.714155 167.366812 
M 240.994507 68.908312 
L 240.994507 167.366812 
" clip-path="url(#p0ce8fa37f8)" style="fill: none; stroke: #ff7f0e; stroke-linejoin: miter"/>
     <g id="PolyCollection_2">
      <path d="M 240.994507 68.908312 
L 181.714155 68.908312 
L 181.714155 167.366812 
L 240.994507 167.366812 
L 240.994507 167.366812 
L 240.994507 68.908312 
z
" clip-path="url(#p0ce8fa37f8)" style="fill: #ff7f0e; fill-opacity: 0.5"/>
     </g>
     <g id="patch_5">
      <path d="M 341.364868 68.908312 
L 341.364868 167.366812 
M 400.64522 68.908312 
L 400.64522 167.366812 
" clip-path="url(#p0ce8fa37f8)" style="fill: none; stroke: #ffffff; stroke-width: 3; stroke-linejoin: miter"/>
      <path d="M 341.364868 68.908312 
L 341.364868 167.366812 
M 400.64522 68.908312 
L 400.64522 167.366812 
" clip-path="url(#p0ce8fa37f8)" style="fill: none; stroke: #2ca02c; stroke-linejoin: miter"/>
      <g id="PolyCollection_3">
       <path d="M 400.64522 68.908312 
L 341.364868 68.908312 
L 341.364868 167.366812 
L 400.64522 167.366812 
L 400.64522 167.366812 
L 400.64522 68.908312 
z
" clip-path="url(#p0ce8fa37f8)" style="fill: #2ca02c; fill-opacity: 0.5"/>
      </g>
      <g id="patch_6">
       <path d="M 104.179403 167.366812 
L 104.179403 265.825312 
M 222.740108 167.366812 
L 222.740108 265.825312 
" clip-path="url(#p0ce8fa37f8)" style="fill: none; stroke: #ffffff; stroke-width: 3; stroke-linejoin: miter"/>
       <path d="M 104.179403 167.366812 
L 104.179403 265.825312 
M 222.740108 167.366812 
L 222.740108 265.825312 
" clip-path="url(#p0ce8fa37f8)" style="fill: none; stroke: #d62728; stroke-linejoin: miter"/>
       <g id="PolyCollection_4">
        <path d="M 222.740108 167.366812 
L 104.179403 167.366812 
L 104.179403 265.825312 
L 222.740108 265.825312 
L 222.740108 265.825312 
L 222.740108 167.366812 
z
" clip-path="url(#p0ce8fa37f8)" style="fill: #d62728; fill-opacity: 0.5"/>
       </g>
       <g id="patch_7">
        <path d="M 359.619267 167.366812 
L 359.619267 265.825312 
M 478.179972 167.366812 
L 478.179972 265.825312 
" clip-path="url(#p0ce8fa37f8)" style="fill: none; stroke: #ffffff; stroke-width: 3; stroke-linejoin: miter"/>
        <path d="M 359.619267 167.366812 
L 359.619267 265.825312 
M 478.179972 167.366812 
L 478.179972 265.825312 
" clip-path="url(#p0ce8fa37f8)" style="fill: none; stroke: #9467bd; stroke-linejoin: miter"/>
        <g id="PolyCollection_5">
         <path d="M 478.179972 167.366812 
L 359.619267 167.366812 
L 359.619267 265.825312 
L 478.179972 265.825312 
L 478.179972 265.825312 
L 478.179972 167.366812 
z
" clip-path="url(#p0ce8fa37f8)" style="fill: #9467bd; fill-opacity: 0.5"/>
        </g>
        <g id="matplotlib.axis_1"/>
        <g id="matplotlib.axis_2">
         <g id="ytick_1">
          <g id="line2d_1">
           <defs>
            <path id="m6cf0564232" d="M 0 0 
L -3.5 0 
" style="stroke: #000000; stroke-width: 0.8"/>
           </defs>
           <g>
            <use xlink:href="#m6cf0564232" x="85.479375" y="265.825312" style="stroke: #000000; stroke-width: 0.8"/>
           </g>
          </g>
          <g id="text_1">
           <!-- 0 -->
           <g transform="translate(70.844375 270.384375)scale(0.12 -0.12)">
            <defs>
             <path id="DejaVuSans-30" d="M 2034 4250 
Q 1547 4250 1301 3770 
Q 1056 3291 1056 2328 
Q 1056 1369 1301 889 
Q 1547 409 2034 409 
Q 2525 409 2770 889 
Q 3016 1369 3016 2328 
Q 3016 3291 2770 3770 
Q 2525 4250 2034 4250 
z
M 2034 4750 
Q 2819 4750 3233 4129 
Q 3647 3509 3647 2328 
Q 3647 1150 3233 529 
Q 2819 -91 2034 -91 
Q 1250 -91 836 529 
Q 422 1150 422 2328 
Q 422 3509 836 4129 
Q 1250 4750 2034 4750 
z
" transform="scale(0.015625)"/>
            </defs>
            <use xlink:href="#DejaVuSans-30"/>
           </g>
          </g>
         </g>
         <g id="ytick_2">
          <g id="line2d_2">
           <g>
            <use xlink:href="#m6cf0564232" x="85.479375" y="216.596062" style="stroke: #000000; stroke-width: 0.8"/>
           </g>
          </g>
          <g id="text_2">
           <!-- 50000 -->
           <g transform="translate(40.304375 221.155125)scale(0.12 -0.12)">
            <defs>
             <path id="DejaVuSans-35" d="M 691 4666 
L 3169 4666 
L 3169 4134 
L 1269 4134 
L 1269 2991 
Q 1406 3038 1543 3061 
Q 1681 3084 1819 3084 
Q 2600 3084 3056 2656 
Q 3513 2228 3513 1497 
Q 3513 744 3044 326 
Q 2575 -91 1722 -91 
Q 1428 -91 1123 -41 
Q 819 9 494 109 
L 494 744 
Q 775 591 1075 516 
Q 1375 441 1709 441 
Q 2250 441 2565 725 
Q 2881 1009 2881 1497 
Q 2881 1984 2565 2268 
Q 2250 2553 1709 2553 
Q 1456 2553 1204 2497 
Q 953 2441 691 2322 
L 691 4666 
z
" transform="scale(0.015625)"/>
            </defs>
            <use xlink:href="#DejaVuSans-35"/>
            <use xlink:href="#DejaVuSans-30" x="63.623047"/>
            <use xlink:href="#DejaVuSans-30" x="127.246094"/>
            <use xlink:href="#DejaVuSans-30" x="190.869141"/>
            <use xlink:href="#DejaVuSans-30" x="254.492188"/>
           </g>
          </g>
         </g>
         <g id="ytick_3">
          <g id="line2d_3">
           <g>
            <use xlink:href="#m6cf0564232" x="85.479375" y="167.366812" style="stroke: #000000; stroke-width: 0.8"/>
           </g>
          </g>
          <g id="text_3">
           <!-- 100000 -->
           <g transform="translate(32.669375 171.925875)scale(0.12 -0.12)">
            <defs>
             <path id="DejaVuSans-31" d="M 794 531 
L 1825 531 
L 1825 4091 
L 703 3866 
L 703 4441 
L 1819 4666 
L 2450 4666 
L 2450 531 
L 3481 531 
L 3481 0 
L 794 0 
L 794 531 
z
" transform="scale(0.015625)"/>
            </defs>
            <use xlink:href="#DejaVuSans-31"/>
            <use xlink:href="#DejaVuSans-30" x="63.623047"/>
            <use xlink:href="#DejaVuSans-30" x="127.246094"/>
            <use xlink:href="#DejaVuSans-30" x="190.869141"/>
            <use xlink:href="#DejaVuSans-30" x="254.492188"/>
            <use xlink:href="#DejaVuSans-30" x="318.115234"/>
           </g>
          </g>
         </g>
         <g id="ytick_4">
          <g id="line2d_4">
           <g>
            <use xlink:href="#m6cf0564232" x="85.479375" y="118.137562" style="stroke: #000000; stroke-width: 0.8"/>
           </g>
          </g>
          <g id="text_4">
           <!-- 150000 -->
           <g transform="translate(32.669375 122.696625)scale(0.12 -0.12)">
            <use xlink:href="#DejaVuSans-31"/>
            <use xlink:href="#DejaVuSans-35" x="63.623047"/>
            <use xlink:href="#DejaVuSans-30" x="127.246094"/>
            <use xlink:href="#DejaVuSans-30" x="190.869141"/>
            <use xlink:href="#DejaVuSans-30" x="254.492188"/>
            <use xlink:href="#DejaVuSans-30" x="318.115234"/>
           </g>
          </g>
         </g>
         <g id="ytick_5">
          <g id="line2d_5">
           <g>
            <use xlink:href="#m6cf0564232" x="85.479375" y="68.908312" style="stroke: #000000; stroke-width: 0.8"/>
           </g>
          </g>
          <g id="text_5">
           <!-- 200000 -->
           <g transform="translate(32.669375 73.467375)scale(0.12 -0.12)">
            <defs>
             <path id="DejaVuSans-32" d="M 1228 531 
L 3431 531 
L 3431 0 
L 469 0 
L 469 531 
Q 828 903 1448 1529 
Q 2069 2156 2228 2338 
Q 2531 2678 2651 2914 
Q 2772 3150 2772 3378 
Q 2772 3750 2511 3984 
Q 2250 4219 1831 4219 
Q 1534 4219 1204 4116 
Q 875 4013 500 3803 
L 500 4441 
Q 881 4594 1212 4672 
Q 1544 4750 1819 4750 
Q 2544 4750 2975 4387 
Q 3406 4025 3406 3419 
Q 3406 3131 3298 2873 
Q 3191 2616 2906 2266 
Q 2828 2175 2409 1742 
Q 1991 1309 1228 531 
z
" transform="scale(0.015625)"/>
            </defs>
            <use xlink:href="#DejaVuSans-32"/>
            <use xlink:href="#DejaVuSans-30" x="63.623047"/>
            <use xlink:href="#DejaVuSans-30" x="127.246094"/>
            <use xlink:href="#DejaVuSans-30" x="190.869141"/>
            <use xlink:href="#DejaVuSans-30" x="254.492188"/>
            <use xlink:href="#DejaVuSans-30" x="318.115234"/>
           </g>
          </g>
         </g>
         <g id="ytick_6">
          <g id="line2d_6">
           <g>
            <use xlink:href="#m6cf0564232" x="85.479375" y="19.679062" style="stroke: #000000; stroke-width: 0.8"/>
           </g>
          </g>
          <g id="text_6">
           <!-- 250000 -->
           <g transform="translate(32.669375 24.238125)scale(0.12 -0.12)">
            <use xlink:href="#DejaVuSans-32"/>
            <use xlink:href="#DejaVuSans-35" x="63.623047"/>
            <use xlink:href="#DejaVuSans-30" x="127.246094"/>
            <use xlink:href="#DejaVuSans-30" x="190.869141"/>
            <use xlink:href="#DejaVuSans-30" x="254.492188"/>
            <use xlink:href="#DejaVuSans-30" x="318.115234"/>
           </g>
          </g>
         </g>
         <g id="text_7">
          <!-- time ago (years) -->
          <g transform="translate(25.757813 200.759219)rotate(-90)scale(0.14 -0.14)">
           <defs>
            <path id="DejaVuSans-74" d="M 1172 4494 
L 1172 3500 
L 2356 3500 
L 2356 3053 
L 1172 3053 
L 1172 1153 
Q 1172 725 1289 603 
Q 1406 481 1766 481 
L 2356 481 
L 2356 0 
L 1766 0 
Q 1100 0 847 248 
Q 594 497 594 1153 
L 594 3053 
L 172 3053 
L 172 3500 
L 594 3500 
L 594 4494 
L 1172 4494 
z
" transform="scale(0.015625)"/>
            <path id="DejaVuSans-69" d="M 603 3500 
L 1178 3500 
L 1178 0 
L 603 0 
L 603 3500 
z
M 603 4863 
L 1178 4863 
L 1178 4134 
L 603 4134 
L 603 4863 
z
" transform="scale(0.015625)"/>
            <path id="DejaVuSans-6d" d="M 3328 2828 
Q 3544 3216 3844 3400 
Q 4144 3584 4550 3584 
Q 5097 3584 5394 3201 
Q 5691 2819 5691 2113 
L 5691 0 
L 5113 0 
L 5113 2094 
Q 5113 2597 4934 2840 
Q 4756 3084 4391 3084 
Q 3944 3084 3684 2787 
Q 3425 2491 3425 1978 
L 3425 0 
L 2847 0 
L 2847 2094 
Q 2847 2600 2669 2842 
Q 2491 3084 2119 3084 
Q 1678 3084 1418 2786 
Q 1159 2488 1159 1978 
L 1159 0 
L 581 0 
L 581 3500 
L 1159 3500 
L 1159 2956 
Q 1356 3278 1631 3431 
Q 1906 3584 2284 3584 
Q 2666 3584 2933 3390 
Q 3200 3197 3328 2828 
z
" transform="scale(0.015625)"/>
            <path id="DejaVuSans-65" d="M 3597 1894 
L 3597 1613 
L 953 1613 
Q 991 1019 1311 708 
Q 1631 397 2203 397 
Q 2534 397 2845 478 
Q 3156 559 3463 722 
L 3463 178 
Q 3153 47 2828 -22 
Q 2503 -91 2169 -91 
Q 1331 -91 842 396 
Q 353 884 353 1716 
Q 353 2575 817 3079 
Q 1281 3584 2069 3584 
Q 2775 3584 3186 3129 
Q 3597 2675 3597 1894 
z
M 3022 2063 
Q 3016 2534 2758 2815 
Q 2500 3097 2075 3097 
Q 1594 3097 1305 2825 
Q 1016 2553 972 2059 
L 3022 2063 
z
" transform="scale(0.015625)"/>
            <path id="DejaVuSans-20" transform="scale(0.015625)"/>
            <path id="DejaVuSans-61" d="M 2194 1759 
Q 1497 1759 1228 1600 
Q 959 1441 959 1056 
Q 959 750 1161 570 
Q 1363 391 1709 391 
Q 2188 391 2477 730 
Q 2766 1069 2766 1631 
L 2766 1759 
L 2194 1759 
z
M 3341 1997 
L 3341 0 
L 2766 0 
L 2766 531 
Q 2569 213 2275 61 
Q 1981 -91 1556 -91 
Q 1019 -91 701 211 
Q 384 513 384 1019 
Q 384 1609 779 1909 
Q 1175 2209 1959 2209 
L 2766 2209 
L 2766 2266 
Q 2766 2663 2505 2880 
Q 2244 3097 1772 3097 
Q 1472 3097 1187 3025 
Q 903 2953 641 2809 
L 641 3341 
Q 956 3463 1253 3523 
Q 1550 3584 1831 3584 
Q 2591 3584 2966 3190 
Q 3341 2797 3341 1997 
z
" transform="scale(0.015625)"/>
            <path id="DejaVuSans-67" d="M 2906 1791 
Q 2906 2416 2648 2759 
Q 2391 3103 1925 3103 
Q 1463 3103 1205 2759 
Q 947 2416 947 1791 
Q 947 1169 1205 825 
Q 1463 481 1925 481 
Q 2391 481 2648 825 
Q 2906 1169 2906 1791 
z
M 3481 434 
Q 3481 -459 3084 -895 
Q 2688 -1331 1869 -1331 
Q 1566 -1331 1297 -1286 
Q 1028 -1241 775 -1147 
L 775 -588 
Q 1028 -725 1275 -790 
Q 1522 -856 1778 -856 
Q 2344 -856 2625 -561 
Q 2906 -266 2906 331 
L 2906 616 
Q 2728 306 2450 153 
Q 2172 0 1784 0 
Q 1141 0 747 490 
Q 353 981 353 1791 
Q 353 2603 747 3093 
Q 1141 3584 1784 3584 
Q 2172 3584 2450 3431 
Q 2728 3278 2906 2969 
L 2906 3500 
L 3481 3500 
L 3481 434 
z
" transform="scale(0.015625)"/>
            <path id="DejaVuSans-6f" d="M 1959 3097 
Q 1497 3097 1228 2736 
Q 959 2375 959 1747 
Q 959 1119 1226 758 
Q 1494 397 1959 397 
Q 2419 397 2687 759 
Q 2956 1122 2956 1747 
Q 2956 2369 2687 2733 
Q 2419 3097 1959 3097 
z
M 1959 3584 
Q 2709 3584 3137 3096 
Q 3566 2609 3566 1747 
Q 3566 888 3137 398 
Q 2709 -91 1959 -91 
Q 1206 -91 779 398 
Q 353 888 353 1747 
Q 353 2609 779 3096 
Q 1206 3584 1959 3584 
z
" transform="scale(0.015625)"/>
            <path id="DejaVuSans-28" d="M 1984 4856 
Q 1566 4138 1362 3434 
Q 1159 2731 1159 2009 
Q 1159 1288 1364 580 
Q 1569 -128 1984 -844 
L 1484 -844 
Q 1016 -109 783 600 
Q 550 1309 550 2009 
Q 550 2706 781 3412 
Q 1013 4119 1484 4856 
L 1984 4856 
z
" transform="scale(0.015625)"/>
            <path id="DejaVuSans-79" d="M 2059 -325 
Q 1816 -950 1584 -1140 
Q 1353 -1331 966 -1331 
L 506 -1331 
L 506 -850 
L 844 -850 
Q 1081 -850 1212 -737 
Q 1344 -625 1503 -206 
L 1606 56 
L 191 3500 
L 800 3500 
L 1894 763 
L 2988 3500 
L 3597 3500 
L 2059 -325 
z
" transform="scale(0.015625)"/>
            <path id="DejaVuSans-72" d="M 2631 2963 
Q 2534 3019 2420 3045 
Q 2306 3072 2169 3072 
Q 1681 3072 1420 2755 
Q 1159 2438 1159 1844 
L 1159 0 
L 581 0 
L 581 3500 
L 1159 3500 
L 1159 2956 
Q 1341 3275 1631 3429 
Q 1922 3584 2338 3584 
Q 2397 3584 2469 3576 
Q 2541 3569 2628 3553 
L 2631 2963 
z
" transform="scale(0.015625)"/>
            <path id="DejaVuSans-73" d="M 2834 3397 
L 2834 2853 
Q 2591 2978 2328 3040 
Q 2066 3103 1784 3103 
Q 1356 3103 1142 2972 
Q 928 2841 928 2578 
Q 928 2378 1081 2264 
Q 1234 2150 1697 2047 
L 1894 2003 
Q 2506 1872 2764 1633 
Q 3022 1394 3022 966 
Q 3022 478 2636 193 
Q 2250 -91 1575 -91 
Q 1294 -91 989 -36 
Q 684 19 347 128 
L 347 722 
Q 666 556 975 473 
Q 1284 391 1588 391 
Q 1994 391 2212 530 
Q 2431 669 2431 922 
Q 2431 1156 2273 1281 
Q 2116 1406 1581 1522 
L 1381 1569 
Q 847 1681 609 1914 
Q 372 2147 372 2553 
Q 372 3047 722 3315 
Q 1072 3584 1716 3584 
Q 2034 3584 2315 3537 
Q 2597 3491 2834 3397 
z
" transform="scale(0.015625)"/>
            <path id="DejaVuSans-29" d="M 513 4856 
L 1013 4856 
Q 1481 4119 1714 3412 
Q 1947 2706 1947 2009 
Q 1947 1309 1714 600 
Q 1481 -109 1013 -844 
L 513 -844 
Q 928 -128 1133 580 
Q 1338 1288 1338 2009 
Q 1338 2731 1133 3434 
Q 928 4138 513 4856 
z
" transform="scale(0.015625)"/>
           </defs>
           <use xlink:href="#DejaVuSans-74"/>
           <use xlink:href="#DejaVuSans-69" x="39.208984"/>
           <use xlink:href="#DejaVuSans-6d" x="66.992188"/>
           <use xlink:href="#DejaVuSans-65" x="164.404297"/>
           <use xlink:href="#DejaVuSans-20" x="225.927734"/>
           <use xlink:href="#DejaVuSans-61" x="257.714844"/>
           <use xlink:href="#DejaVuSans-67" x="318.994141"/>
           <use xlink:href="#DejaVuSans-6f" x="382.470703"/>
           <use xlink:href="#DejaVuSans-20" x="443.652344"/>
           <use xlink:href="#DejaVuSans-28" x="475.439453"/>
           <use xlink:href="#DejaVuSans-79" x="514.453125"/>
           <use xlink:href="#DejaVuSans-65" x="573.632812"/>
           <use xlink:href="#DejaVuSans-61" x="635.15625"/>
           <use xlink:href="#DejaVuSans-72" x="696.435547"/>
           <use xlink:href="#DejaVuSans-73" x="737.548828"/>
           <use xlink:href="#DejaVuSans-29" x="789.648438"/>
          </g>
         </g>
        </g>
        <g id="patch_8">
         <path d="M 339.36293 167.366813 
L 338.36293 167.335376 
L 337.36293 167.298436 
L 336.36293 167.200689 
L 335.36293 167.168168 
L 334.36293 167.094543 
L 333.36293 167.055977 
L 332.36293 167.020564 
L 331.36293 166.962924 
L 330.36293 166.892538 
L 329.36293 166.840574 
L 328.36293 166.781484 
L 327.36293 166.693163 
L 326.36293 166.647019 
L 325.36293 166.604608 
L 324.36293 166.574115 
L 323.36293 166.54807 
L 322.36293 166.52687 
L 321.36293 166.472569 
L 320.36293 166.444631 
L 319.36293 166.414908 
L 318.36293 166.389513 
L 317.36293 166.378312 
L 316.36293 166.368188 
L 315.36293 166.368393 
L 314.36293 166.377903 
L 313.36293 166.389556 
L 312.36293 166.420585 
L 311.36293 166.431753 
L 310.36293 166.461871 
L 309.36293 166.521648 
L 308.36293 166.558839 
L 307.36293 166.597935 
L 306.36293 166.640375 
L 305.36293 166.67314 
L 304.36293 166.740567 
L 303.36293 166.779693 
L 302.36293 166.822367 
L 301.36293 166.892948 
L 300.36293 166.929339 
L 299.36293 166.987742 
L 298.36293 167.098694 
L 297.36293 167.169353 
L 296.36293 167.282292 
L 295.36293 167.328065 
L 294.36293 167.389349 
L 293.36293 167.437848 
L 292.36293 167.518671 
L 291.36293 167.63719 
L 290.36293 167.7074 
L 289.36293 167.790663 
L 288.36293 167.823804 
L 287.36293 167.875042 
L 286.36293 167.94344 
L 285.36293 168.009655 
L 284.36293 168.086573 
L 283.36293 168.113888 
L 282.32934 168.140366 
L 281.32934 168.163016 
L 280.32934 168.182547 
L 279.32934 168.208941 
L 278.32934 168.258712 
L 277.32934 168.293785 
L 276.32934 168.329651 
L 275.32934 168.345018 
L 274.32934 168.360788 
L 273.32934 168.3642 
L 272.32934 168.366618 
L 271.32934 168.366132 
L 270.32934 168.364202 
L 269.32934 168.350945 
L 268.32934 168.342555 
L 267.32934 168.321018 
L 266.32934 168.297986 
L 265.32934 168.280752 
L 264.32934 168.26229 
L 263.32934 168.241837 
L 262.32934 168.225237 
L 261.32934 168.162459 
L 260.32934 168.087194 
L 259.32934 168.054554 
L 258.32934 167.986991 
L 257.32934 167.932944 
L 256.32934 167.899239 
L 255.32934 167.809113 
L 254.32934 167.780578 
L 253.32934 167.749092 
L 252.32934 167.718082 
L 251.32934 167.663274 
L 250.32934 167.598686 
L 249.32934 167.560491 
L 248.32934 167.464557 
L 247.32934 167.415299 
L 246.32934 167.371229 
L 245.32934 167.331105 
L 244.32934 167.222738 
L 243.32934 167.18111 
L 242.32934 167.118969 
L 241.32934 167.049007 
L 240.32934 166.944502 
L 239.32934 166.907515 
L 238.32934 166.861637 
L 237.32934 166.793143 
L 236.32934 166.744397 
L 235.32934 166.666799 
L 234.32934 166.636259 
L 233.32934 166.566744 
L 232.32934 166.542771 
L 231.32934 166.51415 
L 230.32934 166.472357 
L 229.32934 166.450781 
L 228.32934 166.436833 
L 227.32934 166.41011 
L 225.854767 166.4008 
" clip-path="url(#p0ce8fa37f8)" style="fill: none; stroke: #ffffff; stroke-width: 3; stroke-linecap: round"/>
         <path d="M 339.36293 167.366813 
L 338.36293 167.335376 
L 337.36293 167.298436 
L 336.36293 167.200689 
L 335.36293 167.168168 
L 334.36293 167.094543 
L 333.36293 167.055977 
L 332.36293 167.020564 
L 331.36293 166.962924 
L 330.36293 166.892538 
L 329.36293 166.840574 
L 328.36293 166.781484 
L 327.36293 166.693163 
L 326.36293 166.647019 
L 325.36293 166.604608 
L 324.36293 166.574115 
L 323.36293 166.54807 
L 322.36293 166.52687 
L 321.36293 166.472569 
L 320.36293 166.444631 
L 319.36293 166.414908 
L 318.36293 166.389513 
L 317.36293 166.378312 
L 316.36293 166.368188 
L 315.36293 166.368393 
L 314.36293 166.377903 
L 313.36293 166.389556 
L 312.36293 166.420585 
L 311.36293 166.431753 
L 310.36293 166.461871 
L 309.36293 166.521648 
L 308.36293 166.558839 
L 307.36293 166.597935 
L 306.36293 166.640375 
L 305.36293 166.67314 
L 304.36293 166.740567 
L 303.36293 166.779693 
L 302.36293 166.822367 
L 301.36293 166.892948 
L 300.36293 166.929339 
L 299.36293 166.987742 
L 298.36293 167.098694 
L 297.36293 167.169353 
L 296.36293 167.282292 
L 295.36293 167.328065 
L 294.36293 167.389349 
L 293.36293 167.437848 
L 292.36293 167.518671 
L 291.36293 167.63719 
L 290.36293 167.7074 
L 289.36293 167.790663 
L 288.36293 167.823804 
L 287.36293 167.875042 
L 286.36293 167.94344 
L 285.36293 168.009655 
L 284.36293 168.086573 
L 283.36293 168.113888 
L 282.32934 168.140366 
L 281.32934 168.163016 
L 280.32934 168.182547 
L 279.32934 168.208941 
L 278.32934 168.258712 
L 277.32934 168.293785 
L 276.32934 168.329651 
L 275.32934 168.345018 
L 274.32934 168.360788 
L 273.32934 168.3642 
L 272.32934 168.366618 
L 271.32934 168.366132 
L 270.32934 168.364202 
L 269.32934 168.350945 
L 268.32934 168.342555 
L 267.32934 168.321018 
L 266.32934 168.297986 
L 265.32934 168.280752 
L 264.32934 168.26229 
L 263.32934 168.241837 
L 262.32934 168.225237 
L 261.32934 168.162459 
L 260.32934 168.087194 
L 259.32934 168.054554 
L 258.32934 167.986991 
L 257.32934 167.932944 
L 256.32934 167.899239 
L 255.32934 167.809113 
L 254.32934 167.780578 
L 253.32934 167.749092 
L 252.32934 167.718082 
L 251.32934 167.663274 
L 250.32934 167.598686 
L 249.32934 167.560491 
L 248.32934 167.464557 
L 247.32934 167.415299 
L 246.32934 167.371229 
L 245.32934 167.331105 
L 244.32934 167.222738 
L 243.32934 167.18111 
L 242.32934 167.118969 
L 241.32934 167.049007 
L 240.32934 166.944502 
L 239.32934 166.907515 
L 238.32934 166.861637 
L 237.32934 166.793143 
L 236.32934 166.744397 
L 235.32934 166.666799 
L 234.32934 166.636259 
L 233.32934 166.566744 
L 232.32934 166.542771 
L 231.32934 166.51415 
L 230.32934 166.472357 
L 229.32934 166.450781 
L 228.32934 166.436833 
L 227.32934 166.41011 
L 225.854767 166.4008 
" clip-path="url(#p0ce8fa37f8)" style="fill: none; stroke: #2ca02c; stroke-linecap: round"/>
         <path d="M 229.854767 169.366812 
L 228.974398 168.891481 
L 228.096491 168.411227 
L 227.245778 167.876586 
L 225.943603 167.189139 
L 226.870956 167.163124 
L 227.782631 166.750405 
L 228.692895 166.334866 
L 230.035391 165.728061 
L 229.380492 166.366812 
L 229.328528 167.366812 
L 229.269438 169.366812 
L 229.854767 169.366812 
z
" clip-path="url(#p0ce8fa37f8)" style="fill: #ffffff; stroke: #ffffff; stroke-width: 3; stroke-linecap: round"/>
         <path d="M 229.854767 169.366812 
L 228.974398 168.891481 
L 228.096491 168.411227 
L 227.245778 167.876586 
L 225.943603 167.189139 
L 226.870956 167.163124 
L 227.782631 166.750405 
L 228.692895 166.334866 
L 230.035391 165.728061 
L 229.380492 166.366812 
L 229.328528 167.366812 
L 229.269438 169.366812 
L 229.854767 169.366812 
z
" clip-path="url(#p0ce8fa37f8)" style="fill: #ffffff; stroke: #2ca02c; stroke-linecap: round"/>
         <g id="patch_9">
          <path d="M 242.909561 167.932054 
L 243.866116 168.225297 
L 244.821224 168.52385 
L 245.760345 168.88107 
L 246.716614 169.17536 
L 247.662077 169.509306 
L 248.616757 169.809428 
L 249.988706 170.219986 
L 250.970225 170.494327 
L 251.932036 170.776948 
L 252.897786 171.041574 
L 253.862012 171.31316 
L 254.819987 171.613302 
L 255.786982 171.872242 
L 256.754775 172.127536 
L 257.725118 172.371187 
L 258.696411 172.610493 
L 259.668741 172.845066 
L 260.633991 173.111975 
L 261.60488 173.35313 
L 262.575386 173.59603 
L 264.18592 173.974618 
L 265.240303 174.14353 
L 266.228166 174.299185 
L 267.217534 174.444622 
L 268.208256 174.580853 
L 269.199291 174.714963 
L 270.193148 174.829904 
L 271.184112 174.964495 
L 272.177836 175.080338 
L 273.17588 175.166837 
L 274.170634 175.275682 
L 275.165666 175.382642 
L 276.161185 175.486294 
L 277.155294 175.599518 
L 278.58536 175.741883 
L 279.629756 175.782723 
L 280.630142 175.815108 
L 281.632619 175.819666 
L 282.632535 175.858317 
L 283.634099 175.875018 
L 284.639602 175.839317 
L 285.642085 175.843797 
L 286.647737 175.806114 
L 287.648355 175.83541 
L 288.650136 175.849239 
L 289.650959 175.875815 
L 290.654204 175.87016 
L 291.660273 175.826914 
L 292.950174 175.853442 
L 293.925813 175.771977 
L 294.925901 175.741588 
L 295.926038 175.693104 
L 296.926222 175.627459 
L 297.926401 175.563996 
L 298.926609 175.489832 
L 299.92668 175.46527 
L 300.926749 175.441545 
L 301.926808 175.421648 
L 302.926858 175.404869 
L 303.926927 175.381229 
L 304.92706 175.334211 
L 305.927153 175.301891 
L 307.141831 175.269369 
L 308.068445 175.186568 
L 309.064904 175.10102 
L 310.062225 175.027799 
L 311.059616 174.95557 
L 312.05721 174.886238 
L 313.054905 174.818346 
L 314.05339 174.761753 
L 315.051536 174.700306 
L 316.050599 174.651974 
L 317.049767 174.605133 
L 318.04853 174.552507 
L 319.047379 174.501108 
L 320.046366 174.451693 
L 321.260225 174.383379 
L 322.197388 174.310452 
L 323.197968 174.243327 
L 324.19251 174.134006 
L 325.191999 174.059257 
L 326.189573 173.971128 
L 327.184266 173.862861 
L 328.18695 173.810448 
L 329.180911 173.697064 
L 330.17529 173.586601 
L 331.169601 173.475668 
L 332.167283 173.388292 
L 333.166351 173.310598 
L 334.16168 173.206776 
L 335.453737 173.118828 
L 336.434676 172.956595 
L 337.421357 172.788063 
L 338.407203 172.615674 
L 339.407489 172.509983 
L 340.393653 172.339064 
L 341.384158 172.188194 
L 342.376318 172.044968 
L 343.375787 171.935502 
L 344.360969 171.760048 
L 345.348033 171.593283 
L 346.339882 171.448622 
L 347.327552 171.28466 
L 348.321328 171.148896 
L 349.736039 170.87385 
L 350.756292 170.669601 
L 351.727568 170.43044 
L 352.700063 170.195765 
L 353.676013 169.9738 
L 354.64666 169.732326 
L 355.615307 169.483491 
L 356.876741 169.168312 
" clip-path="url(#p0ce8fa37f8)" style="fill: none; stroke: #ffffff; stroke-width: 3; stroke-linecap: round"/>
          <path d="M 242.909561 167.932054 
L 243.866116 168.225297 
L 244.821224 168.52385 
L 245.760345 168.88107 
L 246.716614 169.17536 
L 247.662077 169.509306 
L 248.616757 169.809428 
L 249.988706 170.219986 
L 250.970225 170.494327 
L 251.932036 170.776948 
L 252.897786 171.041574 
L 253.862012 171.31316 
L 254.819987 171.613302 
L 255.786982 171.872242 
L 256.754775 172.127536 
L 257.725118 172.371187 
L 258.696411 172.610493 
L 259.668741 172.845066 
L 260.633991 173.111975 
L 261.60488 173.35313 
L 262.575386 173.59603 
L 264.18592 173.974618 
L 265.240303 174.14353 
L 266.228166 174.299185 
L 267.217534 174.444622 
L 268.208256 174.580853 
L 269.199291 174.714963 
L 270.193148 174.829904 
L 271.184112 174.964495 
L 272.177836 175.080338 
L 273.17588 175.166837 
L 274.170634 175.275682 
L 275.165666 175.382642 
L 276.161185 175.486294 
L 277.155294 175.599518 
L 278.58536 175.741883 
L 279.629756 175.782723 
L 280.630142 175.815108 
L 281.632619 175.819666 
L 282.632535 175.858317 
L 283.634099 175.875018 
L 284.639602 175.839317 
L 285.642085 175.843797 
L 286.647737 175.806114 
L 287.648355 175.83541 
L 288.650136 175.849239 
L 289.650959 175.875815 
L 290.654204 175.87016 
L 291.660273 175.826914 
L 292.950174 175.853442 
L 293.925813 175.771977 
L 294.925901 175.741588 
L 295.926038 175.693104 
L 296.926222 175.627459 
L 297.926401 175.563996 
L 298.926609 175.489832 
L 299.92668 175.46527 
L 300.926749 175.441545 
L 301.926808 175.421648 
L 302.926858 175.404869 
L 303.926927 175.381229 
L 304.92706 175.334211 
L 305.927153 175.301891 
L 307.141831 175.269369 
L 308.068445 175.186568 
L 309.064904 175.10102 
L 310.062225 175.027799 
L 311.059616 174.95557 
L 312.05721 174.886238 
L 313.054905 174.818346 
L 314.05339 174.761753 
L 315.051536 174.700306 
L 316.050599 174.651974 
L 317.049767 174.605133 
L 318.04853 174.552507 
L 319.047379 174.501108 
L 320.046366 174.451693 
L 321.260225 174.383379 
L 322.197388 174.310452 
L 323.197968 174.243327 
L 324.19251 174.134006 
L 325.191999 174.059257 
L 326.189573 173.971128 
L 327.184266 173.862861 
L 328.18695 173.810448 
L 329.180911 173.697064 
L 330.17529 173.586601 
L 331.169601 173.475668 
L 332.167283 173.388292 
L 333.166351 173.310598 
L 334.16168 173.206776 
L 335.453737 173.118828 
L 336.434676 172.956595 
L 337.421357 172.788063 
L 338.407203 172.615674 
L 339.407489 172.509983 
L 340.393653 172.339064 
L 341.384158 172.188194 
L 342.376318 172.044968 
L 343.375787 171.935502 
L 344.360969 171.760048 
L 345.348033 171.593283 
L 346.339882 171.448622 
L 347.327552 171.28466 
L 348.321328 171.148896 
L 349.736039 170.87385 
L 350.756292 170.669601 
L 351.727568 170.43044 
L 352.700063 170.195765 
L 353.676013 169.9738 
L 354.64666 169.732326 
L 355.615307 169.483491 
L 356.876741 169.168312 
" clip-path="url(#p0ce8fa37f8)" style="fill: none; stroke: #ff7f0e; stroke-linecap: round"/>
          <path d="M 352.226822 167.439521 
L 353.204801 167.650578 
L 354.181789 167.867048 
L 355.147824 168.14333 
L 356.590021 168.440501 
L 355.706685 168.724013 
L 354.946213 169.374528 
L 354.187881 170.027358 
L 353.067775 170.984368 
L 353.518638 170.188366 
L 353.28976 169.213525 
L 353.067726 168.236697 
L 352.873765 167.251721 
L 352.226822 167.439521 
z
" clip-path="url(#p0ce8fa37f8)" style="fill: #ffffff; stroke: #ffffff; stroke-width: 3; stroke-linecap: round"/>
          <path d="M 352.226822 167.439521 
L 353.204801 167.650578 
L 354.181789 167.867048 
L 355.147824 168.14333 
L 356.590021 168.440501 
L 355.706685 168.724013 
L 354.946213 169.374528 
L 354.187881 170.027358 
L 353.067775 170.984368 
L 353.518638 170.188366 
L 353.28976 169.213525 
L 353.067726 168.236697 
L 352.873765 167.251721 
L 352.226822 167.439521 
z
" clip-path="url(#p0ce8fa37f8)" style="fill: #ffffff; stroke: #ff7f0e; stroke-linecap: round"/>
          <g id="patch_10">
           <path d="M 85.479375 265.825312 
L 85.479375 19.679062 
" style="fill: none; stroke: #000000; stroke-width: 0.8; stroke-linejoin: miter; stroke-linecap: square"/>
          </g>
         </g>
        </g>
        <defs>
         <clipPath id="p0ce8fa37f8">
          <rect x="85.479375" y="19.679062" width="411.400625" height="246.14625"/>
         </clipPath>
        </defs>
       </g>
      </g>
     </g>
    </g>
   </g>
  </g>
 </g>
</svg>
