<?xml version="1.0" encoding="utf-8" standalone="no"?>
<!DOCTYPE svg PUBLIC "-//W3C//DTD SVG 1.1//EN"
  "http://www.w3.org/Graphics/SVG/1.1/DTD/svg11.dtd">
<svg xmlns:xlink="http://www.w3.org/1999/xlink" width="512pt" height="288pt" viewBox="0 0 512 288" xmlns="http://www.w3.org/2000/svg" version="1.1">
 <metadata>
  <rdf:RDF xmlns:dc="http://purl.org/dc/elements/1.1/" xmlns:cc="http://creativecommons.org/ns#" xmlns:rdf="http://www.w3.org/1999/02/22-rdf-syntax-ns#">
   <cc:Work>
    <dc:type rdf:resource="http://purl.org/dc/dcmitype/StillImage"/>
    <dc:date>2022-08-09T15:15:38.464394</dc:date>
    <dc:format>image/svg+xml</dc:format>
    <dc:creator>
     <cc:Agent>
      <dc:title>Matplotlib v3.5.1, https://matplotlib.org/</dc:title>
     </cc:Agent>
    </dc:creator>
   </cc:Work>
  </rdf:RDF>
 </metadata>
 <defs>
  <style type="text/css">*{stroke-linejoin: round; stroke-linecap: butt}</style>
 </defs>
 <g id="figure_1">
  <g id="patch_1">
   <path d="M 0 288 
L 512 288 
L 512 0 
L 0 0 
L 0 288 
z
" style="fill: none"/>
  </g>
  <g id="axes_1">
   <g id="patch_2">
    <path d="M 49.65125 269.014219 
L 503.36 269.014219 
L 503.36 8.64 
L 49.65125 8.64 
z
" style="fill: #ffffff"/>
   </g>
   <g id="patch_3">
    <path d="M 225.674581 8.64 
L 225.674581 60.714844 
M 345.277037 8.64 
L 345.277037 60.714844 
" clip-path="url(#pb058cfe3c3)" style="fill: none; stroke: #ffffff; stroke-width: 3; stroke-linejoin: miter"/>
    <path d="M 225.674581 8.64 
L 225.674581 60.714844 
M 345.277037 8.64 
L 345.277037 60.714844 
" clip-path="url(#pb058cfe3c3)" style="fill: none; stroke: #1f77b4; stroke-linejoin: miter"/>
    <g id="PolyCollection_1">
     <path d="M 345.277037 8.64 
L 225.674581 8.64 
L 225.674581 60.714844 
L 345.277037 60.714844 
L 345.277037 60.714844 
L 345.277037 8.64 
z
" clip-path="url(#pb058cfe3c3)" style="fill: #1f77b4; fill-opacity: 0.5"/>
    </g>
    <g id="patch_4">
     <path d="M 70.274375 60.714844 
L 70.274375 112.789687 
M 130.075603 60.714844 
L 130.075603 112.789687 
" clip-path="url(#pb058cfe3c3)" style="fill: none; stroke: #ffffff; stroke-width: 3; stroke-linejoin: miter"/>
     <path d="M 70.274375 60.714844 
L 70.274375 112.789687 
M 130.075603 60.714844 
L 130.075603 112.789687 
" clip-path="url(#pb058cfe3c3)" style="fill: none; stroke: #ff7f0e; stroke-linejoin: miter"/>
     <g id="PolyCollection_2">
      <path d="M 130.075603 60.714844 
L 70.274375 60.714844 
L 70.274375 112.789687 
L 130.075603 112.789687 
L 130.075603 112.789687 
L 130.075603 60.714844 
z
" clip-path="url(#pb058cfe3c3)" style="fill: #ff7f0e; fill-opacity: 0.5"/>
     </g>
     <g id="patch_5">
      <path d="M 267.535441 60.714844 
L 267.535441 112.789687 
M 303.416178 60.714844 
L 303.416178 112.789687 
" clip-path="url(#pb058cfe3c3)" style="fill: none; stroke: #ffffff; stroke-width: 3; stroke-linejoin: miter"/>
      <path d="M 267.535441 60.714844 
L 267.535441 112.789687 
M 303.416178 60.714844 
L 303.416178 112.789687 
" clip-path="url(#pb058cfe3c3)" style="fill: none; stroke: #2ca02c; stroke-linejoin: miter"/>
      <g id="PolyCollection_3">
       <path d="M 303.416178 60.714844 
L 267.535441 60.714844 
L 267.535441 112.789687 
L 303.416178 112.789687 
L 303.416178 112.789687 
L 303.416178 60.714844 
z
" clip-path="url(#pb058cfe3c3)" style="fill: #2ca02c; fill-opacity: 0.5"/>
      </g>
      <g id="patch_6">
       <path d="M 458.816384 60.714844 
L 458.816384 112.789687 
M 482.736875 60.714844 
L 482.736875 112.789687 
" clip-path="url(#pb058cfe3c3)" style="fill: none; stroke: #ffffff; stroke-width: 3; stroke-linejoin: miter"/>
       <path d="M 458.816384 60.714844 
L 458.816384 112.789687 
M 482.736875 60.714844 
L 482.736875 112.789687 
" clip-path="url(#pb058cfe3c3)" style="fill: none; stroke: #d62728; stroke-linejoin: miter"/>
       <g id="PolyCollection_4">
        <path d="M 482.736875 60.714844 
L 458.816384 60.714844 
L 458.816384 112.789687 
L 482.736875 112.789687 
L 482.736875 112.789687 
L 482.736875 60.714844 
z
" clip-path="url(#pb058cfe3c3)" style="fill: #d62728; fill-opacity: 0.5"/>
       </g>
       <g id="patch_7">
        <path d="M 225.674581 112.789687 
L 225.674581 164.864531 
M 345.277037 112.789687 
L 345.277037 164.864531 
" clip-path="url(#pb058cfe3c3)" style="fill: none; stroke: #ffffff; stroke-width: 3; stroke-linejoin: miter"/>
        <path d="M 225.674581 112.789687 
L 225.674581 164.864531 
M 345.277037 112.789687 
L 345.277037 164.864531 
" clip-path="url(#pb058cfe3c3)" style="fill: none; stroke: #9467bd; stroke-linejoin: miter"/>
        <g id="PolyCollection_5">
         <path d="M 345.277037 112.789687 
L 225.674581 112.789687 
L 225.674581 164.864531 
L 345.277037 164.864531 
L 345.277037 164.864531 
L 345.277037 112.789687 
z
" clip-path="url(#pb058cfe3c3)" style="fill: #9467bd; fill-opacity: 0.5"/>
        </g>
        <g id="patch_8">
         <path d="M 70.274375 164.864531 
L 70.274375 216.939375 
M 130.075603 164.864531 
L 130.075603 216.939375 
" clip-path="url(#pb058cfe3c3)" style="fill: none; stroke: #ffffff; stroke-width: 3; stroke-linejoin: miter"/>
         <path d="M 70.274375 164.864531 
L 70.274375 216.939375 
M 130.075603 164.864531 
L 130.075603 216.939375 
" clip-path="url(#pb058cfe3c3)" style="fill: none; stroke: #8c564b; stroke-linejoin: miter"/>
         <g id="PolyCollection_6">
          <path d="M 130.075603 164.864531 
L 70.274375 164.864531 
L 70.274375 216.939375 
L 130.075603 216.939375 
L 130.075603 216.939375 
L 130.075603 164.864531 
z
" clip-path="url(#pb058cfe3c3)" style="fill: #8c564b; fill-opacity: 0.5"/>
         </g>
         <g id="patch_9">
          <path d="M 267.535441 164.864531 
L 267.535441 216.939375 
M 303.416178 164.864531 
L 303.416178 216.939375 
" clip-path="url(#pb058cfe3c3)" style="fill: none; stroke: #ffffff; stroke-width: 3; stroke-linejoin: miter"/>
          <path d="M 267.535441 164.864531 
L 267.535441 216.939375 
M 303.416178 164.864531 
L 303.416178 216.939375 
" clip-path="url(#pb058cfe3c3)" style="fill: none; stroke: #e377c2; stroke-linejoin: miter"/>
          <g id="PolyCollection_7">
           <path d="M 303.416178 164.864531 
L 267.535441 164.864531 
L 267.535441 216.939375 
L 303.416178 216.939375 
L 303.416178 216.939375 
L 303.416178 164.864531 
z
" clip-path="url(#pb058cfe3c3)" style="fill: #e377c2; fill-opacity: 0.5"/>
          </g>
          <g id="patch_10">
           <path d="M 458.816384 164.864531 
L 458.816384 216.939375 
M 482.736875 164.864531 
L 482.736875 216.939375 
" clip-path="url(#pb058cfe3c3)" style="fill: none; stroke: #ffffff; stroke-width: 3; stroke-linejoin: miter"/>
           <path d="M 458.816384 164.864531 
L 458.816384 216.939375 
M 482.736875 164.864531 
L 482.736875 216.939375 
" clip-path="url(#pb058cfe3c3)" style="fill: none; stroke: #7f7f7f; stroke-linejoin: miter"/>
           <g id="PolyCollection_8">
            <path d="M 482.736875 164.864531 
L 458.816384 164.864531 
L 458.816384 216.939375 
L 482.736875 216.939375 
L 482.736875 216.939375 
L 482.736875 164.864531 
z
" clip-path="url(#pb058cfe3c3)" style="fill: #7f7f7f; fill-opacity: 0.5"/>
           </g>
           <g id="patch_11">
            <path d="M 225.674581 216.939375 
L 225.674581 269.014219 
M 345.277037 216.939375 
L 345.277037 269.014219 
" clip-path="url(#pb058cfe3c3)" style="fill: none; stroke: #ffffff; stroke-width: 3; stroke-linejoin: miter"/>
            <path d="M 225.674581 216.939375 
L 225.674581 269.014219 
M 345.277037 216.939375 
L 345.277037 269.014219 
" clip-path="url(#pb058cfe3c3)" style="fill: none; stroke: #bcbd22; stroke-linejoin: miter"/>
            <g id="PolyCollection_9">
             <path d="M 345.277037 216.939375 
L 225.674581 216.939375 
L 225.674581 269.014219 
L 345.277037 269.014219 
L 345.277037 269.014219 
L 345.277037 216.939375 
z
" clip-path="url(#pb058cfe3c3)" style="fill: #bcbd22; fill-opacity: 0.5"/>
            </g>
            <g id="matplotlib.axis_1">
             <g id="xtick_1">
              <g id="line2d_1"/>
              <g id="text_1">
               <!-- Merge_2 -->
               <g transform="translate(270.572372 277.709531)scale(0.07 -0.07)">
                <defs>
                 <path id="DejaVuSans-4d" d="M 628 4666 
L 1569 4666 
L 2759 1491 
L 3956 4666 
L 4897 4666 
L 4897 0 
L 4281 0 
L 4281 4097 
L 3078 897 
L 2444 897 
L 1241 4097 
L 1241 0 
L 628 0 
L 628 4666 
z
" transform="scale(0.015625)"/>
                 <path id="DejaVuSans-65" d="M 3597 1894 
L 3597 1613 
L 953 1613 
Q 991 1019 1311 708 
Q 1631 397 2203 397 
Q 2534 397 2845 478 
Q 3156 559 3463 722 
L 3463 178 
Q 3153 47 2828 -22 
Q 2503 -91 2169 -91 
Q 1331 -91 842 396 
Q 353 884 353 1716 
Q 353 2575 817 3079 
Q 1281 3584 2069 3584 
Q 2775 3584 3186 3129 
Q 3597 2675 3597 1894 
z
M 3022 2063 
Q 3016 2534 2758 2815 
Q 2500 3097 2075 3097 
Q 1594 3097 1305 2825 
Q 1016 2553 972 2059 
L 3022 2063 
z
" transform="scale(0.015625)"/>
                 <path id="DejaVuSans-72" d="M 2631 2963 
Q 2534 3019 2420 3045 
Q 2306 3072 2169 3072 
Q 1681 3072 1420 2755 
Q 1159 2438 1159 1844 
L 1159 0 
L 581 0 
L 581 3500 
L 1159 3500 
L 1159 2956 
Q 1341 3275 1631 3429 
Q 1922 3584 2338 3584 
Q 2397 3584 2469 3576 
Q 2541 3569 2628 3553 
L 2631 2963 
z
" transform="scale(0.015625)"/>
                 <path id="DejaVuSans-67" d="M 2906 1791 
Q 2906 2416 2648 2759 
Q 2391 3103 1925 3103 
Q 1463 3103 1205 2759 
Q 947 2416 947 1791 
Q 947 1169 1205 825 
Q 1463 481 1925 481 
Q 2391 481 2648 825 
Q 2906 1169 2906 1791 
z
M 3481 434 
Q 3481 -459 3084 -895 
Q 2688 -1331 1869 -1331 
Q 1566 -1331 1297 -1286 
Q 1028 -1241 775 -1147 
L 775 -588 
Q 1028 -725 1275 -790 
Q 1522 -856 1778 -856 
Q 2344 -856 2625 -561 
Q 2906 -266 2906 331 
L 2906 616 
Q 2728 306 2450 153 
Q 2172 0 1784 0 
Q 1141 0 747 490 
Q 353 981 353 1791 
Q 353 2603 747 3093 
Q 1141 3584 1784 3584 
Q 2172 3584 2450 3431 
Q 2728 3278 2906 2969 
L 2906 3500 
L 3481 3500 
L 3481 434 
z
" transform="scale(0.015625)"/>
                 <path id="DejaVuSans-5f" d="M 3263 -1063 
L 3263 -1509 
L -63 -1509 
L -63 -1063 
L 3263 -1063 
z
" transform="scale(0.015625)"/>
                 <path id="DejaVuSans-32" d="M 1228 531 
L 3431 531 
L 3431 0 
L 469 0 
L 469 531 
Q 828 903 1448 1529 
Q 2069 2156 2228 2338 
Q 2531 2678 2651 2914 
Q 2772 3150 2772 3378 
Q 2772 3750 2511 3984 
Q 2250 4219 1831 4219 
Q 1534 4219 1204 4116 
Q 875 4013 500 3803 
L 500 4441 
Q 881 4594 1212 4672 
Q 1544 4750 1819 4750 
Q 2544 4750 2975 4387 
Q 3406 4025 3406 3419 
Q 3406 3131 3298 2873 
Q 3191 2616 2906 2266 
Q 2828 2175 2409 1742 
Q 1991 1309 1228 531 
z
" transform="scale(0.015625)"/>
                </defs>
                <use xlink:href="#DejaVuSans-4d"/>
                <use xlink:href="#DejaVuSans-65" x="86.279297"/>
                <use xlink:href="#DejaVuSans-72" x="147.802734"/>
                <use xlink:href="#DejaVuSans-67" x="187.166016"/>
                <use xlink:href="#DejaVuSans-65" x="250.642578"/>
                <use xlink:href="#DejaVuSans-5f" x="312.166016"/>
                <use xlink:href="#DejaVuSans-32" x="362.166016"/>
               </g>
              </g>
             </g>
            </g>
            <g id="matplotlib.axis_2">
             <g id="ytick_1">
              <g id="line2d_2">
               <defs>
                <path id="m451bc0f340" d="M 0 0 
L -3.5 0 
" style="stroke: #000000; stroke-width: 0.8"/>
               </defs>
               <g>
                <use xlink:href="#m451bc0f340" x="49.65125" y="269.014219" style="stroke: #000000; stroke-width: 0.8"/>
               </g>
              </g>
              <g id="text_2">
               <!-- 0 -->
               <g transform="translate(38.1975 271.673672)scale(0.07 -0.07)">
                <defs>
                 <path id="DejaVuSans-30" d="M 2034 4250 
Q 1547 4250 1301 3770 
Q 1056 3291 1056 2328 
Q 1056 1369 1301 889 
Q 1547 409 2034 409 
Q 2525 409 2770 889 
Q 3016 1369 3016 2328 
Q 3016 3291 2770 3770 
Q 2525 4250 2034 4250 
z
M 2034 4750 
Q 2819 4750 3233 4129 
Q 3647 3509 3647 2328 
Q 3647 1150 3233 529 
Q 2819 -91 2034 -91 
Q 1250 -91 836 529 
Q 422 1150 422 2328 
Q 422 3509 836 4129 
Q 1250 4750 2034 4750 
z
" transform="scale(0.015625)"/>
                </defs>
                <use xlink:href="#DejaVuSans-30"/>
               </g>
              </g>
             </g>
             <g id="ytick_2">
              <g id="line2d_3">
               <g>
                <use xlink:href="#m451bc0f340" x="49.65125" y="234.297656" style="stroke: #000000; stroke-width: 0.8"/>
               </g>
              </g>
              <g id="text_3">
               <!-- 2000 -->
               <g transform="translate(24.83625 236.957109)scale(0.07 -0.07)">
                <use xlink:href="#DejaVuSans-32"/>
                <use xlink:href="#DejaVuSans-30" x="63.623047"/>
                <use xlink:href="#DejaVuSans-30" x="127.246094"/>
                <use xlink:href="#DejaVuSans-30" x="190.869141"/>
               </g>
              </g>
             </g>
             <g id="ytick_3">
              <g id="line2d_4">
               <g>
                <use xlink:href="#m451bc0f340" x="49.65125" y="199.581094" style="stroke: #000000; stroke-width: 0.8"/>
               </g>
              </g>
              <g id="text_4">
               <!-- 4000 -->
               <g transform="translate(24.83625 202.240547)scale(0.07 -0.07)">
                <defs>
                 <path id="DejaVuSans-34" d="M 2419 4116 
L 825 1625 
L 2419 1625 
L 2419 4116 
z
M 2253 4666 
L 3047 4666 
L 3047 1625 
L 3713 1625 
L 3713 1100 
L 3047 1100 
L 3047 0 
L 2419 0 
L 2419 1100 
L 313 1100 
L 313 1709 
L 2253 4666 
z
" transform="scale(0.015625)"/>
                </defs>
                <use xlink:href="#DejaVuSans-34"/>
                <use xlink:href="#DejaVuSans-30" x="63.623047"/>
                <use xlink:href="#DejaVuSans-30" x="127.246094"/>
                <use xlink:href="#DejaVuSans-30" x="190.869141"/>
               </g>
              </g>
             </g>
             <g id="ytick_4">
              <g id="line2d_5">
               <g>
                <use xlink:href="#m451bc0f340" x="49.65125" y="164.864531" style="stroke: #000000; stroke-width: 0.8"/>
               </g>
              </g>
              <g id="text_5">
               <!-- 6000 -->
               <g transform="translate(24.83625 167.523984)scale(0.07 -0.07)">
                <defs>
                 <path id="DejaVuSans-36" d="M 2113 2584 
Q 1688 2584 1439 2293 
Q 1191 2003 1191 1497 
Q 1191 994 1439 701 
Q 1688 409 2113 409 
Q 2538 409 2786 701 
Q 3034 994 3034 1497 
Q 3034 2003 2786 2293 
Q 2538 2584 2113 2584 
z
M 3366 4563 
L 3366 3988 
Q 3128 4100 2886 4159 
Q 2644 4219 2406 4219 
Q 1781 4219 1451 3797 
Q 1122 3375 1075 2522 
Q 1259 2794 1537 2939 
Q 1816 3084 2150 3084 
Q 2853 3084 3261 2657 
Q 3669 2231 3669 1497 
Q 3669 778 3244 343 
Q 2819 -91 2113 -91 
Q 1303 -91 875 529 
Q 447 1150 447 2328 
Q 447 3434 972 4092 
Q 1497 4750 2381 4750 
Q 2619 4750 2861 4703 
Q 3103 4656 3366 4563 
z
" transform="scale(0.015625)"/>
                </defs>
                <use xlink:href="#DejaVuSans-36"/>
                <use xlink:href="#DejaVuSans-30" x="63.623047"/>
                <use xlink:href="#DejaVuSans-30" x="127.246094"/>
                <use xlink:href="#DejaVuSans-30" x="190.869141"/>
               </g>
              </g>
             </g>
             <g id="ytick_5">
              <g id="line2d_6">
               <g>
                <use xlink:href="#m451bc0f340" x="49.65125" y="130.147969" style="stroke: #000000; stroke-width: 0.8"/>
               </g>
              </g>
              <g id="text_6">
               <!-- 8000 -->
               <g transform="translate(24.83625 132.807422)scale(0.07 -0.07)">
                <defs>
                 <path id="DejaVuSans-38" d="M 2034 2216 
Q 1584 2216 1326 1975 
Q 1069 1734 1069 1313 
Q 1069 891 1326 650 
Q 1584 409 2034 409 
Q 2484 409 2743 651 
Q 3003 894 3003 1313 
Q 3003 1734 2745 1975 
Q 2488 2216 2034 2216 
z
M 1403 2484 
Q 997 2584 770 2862 
Q 544 3141 544 3541 
Q 544 4100 942 4425 
Q 1341 4750 2034 4750 
Q 2731 4750 3128 4425 
Q 3525 4100 3525 3541 
Q 3525 3141 3298 2862 
Q 3072 2584 2669 2484 
Q 3125 2378 3379 2068 
Q 3634 1759 3634 1313 
Q 3634 634 3220 271 
Q 2806 -91 2034 -91 
Q 1263 -91 848 271 
Q 434 634 434 1313 
Q 434 1759 690 2068 
Q 947 2378 1403 2484 
z
M 1172 3481 
Q 1172 3119 1398 2916 
Q 1625 2713 2034 2713 
Q 2441 2713 2670 2916 
Q 2900 3119 2900 3481 
Q 2900 3844 2670 4047 
Q 2441 4250 2034 4250 
Q 1625 4250 1398 4047 
Q 1172 3844 1172 3481 
z
" transform="scale(0.015625)"/>
                </defs>
                <use xlink:href="#DejaVuSans-38"/>
                <use xlink:href="#DejaVuSans-30" x="63.623047"/>
                <use xlink:href="#DejaVuSans-30" x="127.246094"/>
                <use xlink:href="#DejaVuSans-30" x="190.869141"/>
               </g>
              </g>
             </g>
             <g id="ytick_6">
              <g id="line2d_7">
               <g>
                <use xlink:href="#m451bc0f340" x="49.65125" y="95.431406" style="stroke: #000000; stroke-width: 0.8"/>
               </g>
              </g>
              <g id="text_7">
               <!-- 10000 -->
               <g transform="translate(20.3825 98.090859)scale(0.07 -0.07)">
                <defs>
                 <path id="DejaVuSans-31" d="M 794 531 
L 1825 531 
L 1825 4091 
L 703 3866 
L 703 4441 
L 1819 4666 
L 2450 4666 
L 2450 531 
L 3481 531 
L 3481 0 
L 794 0 
L 794 531 
z
" transform="scale(0.015625)"/>
                </defs>
                <use xlink:href="#DejaVuSans-31"/>
                <use xlink:href="#DejaVuSans-30" x="63.623047"/>
                <use xlink:href="#DejaVuSans-30" x="127.246094"/>
                <use xlink:href="#DejaVuSans-30" x="190.869141"/>
                <use xlink:href="#DejaVuSans-30" x="254.492188"/>
               </g>
              </g>
             </g>
             <g id="ytick_7">
              <g id="line2d_8">
               <g>
                <use xlink:href="#m451bc0f340" x="49.65125" y="60.714844" style="stroke: #000000; stroke-width: 0.8"/>
               </g>
              </g>
              <g id="text_8">
               <!-- 12000 -->
               <g transform="translate(20.3825 63.374297)scale(0.07 -0.07)">
                <use xlink:href="#DejaVuSans-31"/>
                <use xlink:href="#DejaVuSans-32" x="63.623047"/>
                <use xlink:href="#DejaVuSans-30" x="127.246094"/>
                <use xlink:href="#DejaVuSans-30" x="190.869141"/>
                <use xlink:href="#DejaVuSans-30" x="254.492188"/>
               </g>
              </g>
             </g>
             <g id="ytick_8">
              <g id="line2d_9">
               <g>
                <use xlink:href="#m451bc0f340" x="49.65125" y="25.998281" style="stroke: #000000; stroke-width: 0.8"/>
               </g>
              </g>
              <g id="text_9">
               <!-- 14000 -->
               <g transform="translate(20.3825 28.657734)scale(0.07 -0.07)">
                <use xlink:href="#DejaVuSans-31"/>
                <use xlink:href="#DejaVuSans-34" x="63.623047"/>
                <use xlink:href="#DejaVuSans-30" x="127.246094"/>
                <use xlink:href="#DejaVuSans-30" x="190.869141"/>
                <use xlink:href="#DejaVuSans-30" x="254.492188"/>
               </g>
              </g>
             </g>
             <g id="text_10">
              <!-- time ago (generations) -->
              <g transform="translate(14.71875 184.803984)rotate(-90)scale(0.08 -0.08)">
               <defs>
                <path id="DejaVuSans-74" d="M 1172 4494 
L 1172 3500 
L 2356 3500 
L 2356 3053 
L 1172 3053 
L 1172 1153 
Q 1172 725 1289 603 
Q 1406 481 1766 481 
L 2356 481 
L 2356 0 
L 1766 0 
Q 1100 0 847 248 
Q 594 497 594 1153 
L 594 3053 
L 172 3053 
L 172 3500 
L 594 3500 
L 594 4494 
L 1172 4494 
z
" transform="scale(0.015625)"/>
                <path id="DejaVuSans-69" d="M 603 3500 
L 1178 3500 
L 1178 0 
L 603 0 
L 603 3500 
z
M 603 4863 
L 1178 4863 
L 1178 4134 
L 603 4134 
L 603 4863 
z
" transform="scale(0.015625)"/>
                <path id="DejaVuSans-6d" d="M 3328 2828 
Q 3544 3216 3844 3400 
Q 4144 3584 4550 3584 
Q 5097 3584 5394 3201 
Q 5691 2819 5691 2113 
L 5691 0 
L 5113 0 
L 5113 2094 
Q 5113 2597 4934 2840 
Q 4756 3084 4391 3084 
Q 3944 3084 3684 2787 
Q 3425 2491 3425 1978 
L 3425 0 
L 2847 0 
L 2847 2094 
Q 2847 2600 2669 2842 
Q 2491 3084 2119 3084 
Q 1678 3084 1418 2786 
Q 1159 2488 1159 1978 
L 1159 0 
L 581 0 
L 581 3500 
L 1159 3500 
L 1159 2956 
Q 1356 3278 1631 3431 
Q 1906 3584 2284 3584 
Q 2666 3584 2933 3390 
Q 3200 3197 3328 2828 
z
" transform="scale(0.015625)"/>
                <path id="DejaVuSans-20" transform="scale(0.015625)"/>
                <path id="DejaVuSans-61" d="M 2194 1759 
Q 1497 1759 1228 1600 
Q 959 1441 959 1056 
Q 959 750 1161 570 
Q 1363 391 1709 391 
Q 2188 391 2477 730 
Q 2766 1069 2766 1631 
L 2766 1759 
L 2194 1759 
z
M 3341 1997 
L 3341 0 
L 2766 0 
L 2766 531 
Q 2569 213 2275 61 
Q 1981 -91 1556 -91 
Q 1019 -91 701 211 
Q 384 513 384 1019 
Q 384 1609 779 1909 
Q 1175 2209 1959 2209 
L 2766 2209 
L 2766 2266 
Q 2766 2663 2505 2880 
Q 2244 3097 1772 3097 
Q 1472 3097 1187 3025 
Q 903 2953 641 2809 
L 641 3341 
Q 956 3463 1253 3523 
Q 1550 3584 1831 3584 
Q 2591 3584 2966 3190 
Q 3341 2797 3341 1997 
z
" transform="scale(0.015625)"/>
                <path id="DejaVuSans-6f" d="M 1959 3097 
Q 1497 3097 1228 2736 
Q 959 2375 959 1747 
Q 959 1119 1226 758 
Q 1494 397 1959 397 
Q 2419 397 2687 759 
Q 2956 1122 2956 1747 
Q 2956 2369 2687 2733 
Q 2419 3097 1959 3097 
z
M 1959 3584 
Q 2709 3584 3137 3096 
Q 3566 2609 3566 1747 
Q 3566 888 3137 398 
Q 2709 -91 1959 -91 
Q 1206 -91 779 398 
Q 353 888 353 1747 
Q 353 2609 779 3096 
Q 1206 3584 1959 3584 
z
" transform="scale(0.015625)"/>
                <path id="DejaVuSans-28" d="M 1984 4856 
Q 1566 4138 1362 3434 
Q 1159 2731 1159 2009 
Q 1159 1288 1364 580 
Q 1569 -128 1984 -844 
L 1484 -844 
Q 1016 -109 783 600 
Q 550 1309 550 2009 
Q 550 2706 781 3412 
Q 1013 4119 1484 4856 
L 1984 4856 
z
" transform="scale(0.015625)"/>
                <path id="DejaVuSans-6e" d="M 3513 2113 
L 3513 0 
L 2938 0 
L 2938 2094 
Q 2938 2591 2744 2837 
Q 2550 3084 2163 3084 
Q 1697 3084 1428 2787 
Q 1159 2491 1159 1978 
L 1159 0 
L 581 0 
L 581 3500 
L 1159 3500 
L 1159 2956 
Q 1366 3272 1645 3428 
Q 1925 3584 2291 3584 
Q 2894 3584 3203 3211 
Q 3513 2838 3513 2113 
z
" transform="scale(0.015625)"/>
                <path id="DejaVuSans-73" d="M 2834 3397 
L 2834 2853 
Q 2591 2978 2328 3040 
Q 2066 3103 1784 3103 
Q 1356 3103 1142 2972 
Q 928 2841 928 2578 
Q 928 2378 1081 2264 
Q 1234 2150 1697 2047 
L 1894 2003 
Q 2506 1872 2764 1633 
Q 3022 1394 3022 966 
Q 3022 478 2636 193 
Q 2250 -91 1575 -91 
Q 1294 -91 989 -36 
Q 684 19 347 128 
L 347 722 
Q 666 556 975 473 
Q 1284 391 1588 391 
Q 1994 391 2212 530 
Q 2431 669 2431 922 
Q 2431 1156 2273 1281 
Q 2116 1406 1581 1522 
L 1381 1569 
Q 847 1681 609 1914 
Q 372 2147 372 2553 
Q 372 3047 722 3315 
Q 1072 3584 1716 3584 
Q 2034 3584 2315 3537 
Q 2597 3491 2834 3397 
z
" transform="scale(0.015625)"/>
                <path id="DejaVuSans-29" d="M 513 4856 
L 1013 4856 
Q 1481 4119 1714 3412 
Q 1947 2706 1947 2009 
Q 1947 1309 1714 600 
Q 1481 -109 1013 -844 
L 513 -844 
Q 928 -128 1133 580 
Q 1338 1288 1338 2009 
Q 1338 2731 1133 3434 
Q 928 4138 513 4856 
z
" transform="scale(0.015625)"/>
               </defs>
               <use xlink:href="#DejaVuSans-74"/>
               <use xlink:href="#DejaVuSans-69" x="39.208984"/>
               <use xlink:href="#DejaVuSans-6d" x="66.992188"/>
               <use xlink:href="#DejaVuSans-65" x="164.404297"/>
               <use xlink:href="#DejaVuSans-20" x="225.927734"/>
               <use xlink:href="#DejaVuSans-61" x="257.714844"/>
               <use xlink:href="#DejaVuSans-67" x="318.994141"/>
               <use xlink:href="#DejaVuSans-6f" x="382.470703"/>
               <use xlink:href="#DejaVuSans-20" x="443.652344"/>
               <use xlink:href="#DejaVuSans-28" x="475.439453"/>
               <use xlink:href="#DejaVuSans-67" x="514.453125"/>
               <use xlink:href="#DejaVuSans-65" x="577.929688"/>
               <use xlink:href="#DejaVuSans-6e" x="639.453125"/>
               <use xlink:href="#DejaVuSans-65" x="702.832031"/>
               <use xlink:href="#DejaVuSans-72" x="764.355469"/>
               <use xlink:href="#DejaVuSans-61" x="805.46875"/>
               <use xlink:href="#DejaVuSans-74" x="866.748047"/>
               <use xlink:href="#DejaVuSans-69" x="905.957031"/>
               <use xlink:href="#DejaVuSans-6f" x="933.740234"/>
               <use xlink:href="#DejaVuSans-6e" x="994.921875"/>
               <use xlink:href="#DejaVuSans-73" x="1058.300781"/>
               <use xlink:href="#DejaVuSans-29" x="1110.400391"/>
              </g>
             </g>
            </g>
            <g id="patch_12">
             <path d="M 223.676128 60.714844 
L 222.676128 60.683407 
L 221.676128 60.646467 
L 220.676128 60.54872 
L 219.676128 60.516199 
L 218.676128 60.442574 
L 217.676128 60.404009 
L 216.676128 60.368595 
L 215.676128 60.310955 
L 214.676128 60.240569 
L 213.676128 60.188605 
L 212.676128 60.129515 
L 211.676128 60.041194 
L 210.676128 59.99505 
L 209.676128 59.952639 
L 208.676128 59.922146 
L 207.676128 59.896101 
L 206.676128 59.874901 
L 205.676128 59.8206 
L 204.676128 59.792663 
L 203.676128 59.762939 
L 202.676128 59.737544 
L 201.676128 59.726344 
L 200.676128 59.71622 
L 199.676128 59.716424 
L 198.676128 59.725934 
L 197.676128 59.737587 
L 196.676128 59.768617 
L 195.676128 59.779785 
L 194.676128 59.809902 
L 193.676128 59.869679 
L 192.676128 59.906871 
L 191.676128 59.945967 
L 190.676128 59.988406 
L 189.676128 60.021171 
L 188.676128 60.088598 
L 187.676128 60.127724 
L 186.676128 60.170398 
L 185.676128 60.240979 
L 184.676128 60.27737 
L 183.676128 60.335773 
L 182.676128 60.446726 
L 181.676128 60.517384 
L 180.676128 60.630324 
L 179.676128 60.676097 
L 178.676128 60.73738 
L 177.676128 60.785879 
L 176.676128 60.866702 
L 175.676128 60.985221 
L 174.676128 61.055431 
L 173.676128 61.138694 
L 172.676128 61.171836 
L 171.676128 61.223073 
L 170.676128 61.291471 
L 169.676128 61.357687 
L 168.676128 61.434604 
L 167.676128 61.461919 
L 166.676128 61.488397 
L 165.676128 61.511047 
L 164.676128 61.530579 
L 163.676128 61.556973 
L 162.676128 61.606743 
L 161.676128 61.641817 
L 160.676128 61.677682 
L 159.676128 61.69305 
L 158.676128 61.708819 
L 157.676128 61.712231 
L 156.676128 61.714649 
L 155.676128 61.714163 
L 154.676128 61.712234 
L 153.676128 61.698977 
L 152.676128 61.690586 
L 151.676128 61.669049 
L 150.676128 61.646017 
L 149.676128 61.628783 
L 148.676128 61.610321 
L 147.676128 61.589868 
L 146.676128 61.573269 
L 145.676128 61.51049 
L 144.676128 61.435225 
L 143.676128 61.402586 
L 142.676128 61.335022 
L 141.676128 61.280975 
L 140.676128 61.247271 
L 139.676128 61.157145 
L 138.676128 61.12861 
L 137.676128 61.097124 
L 136.676128 61.066113 
L 135.676128 61.011305 
L 134.676128 60.946717 
L 133.196016 60.908522 
" clip-path="url(#pb058cfe3c3)" style="fill: none; stroke: #ffffff; stroke-width: 3; stroke-linecap: round"/>
             <path d="M 223.676128 60.714844 
L 222.676128 60.683407 
L 221.676128 60.646467 
L 220.676128 60.54872 
L 219.676128 60.516199 
L 218.676128 60.442574 
L 217.676128 60.404009 
L 216.676128 60.368595 
L 215.676128 60.310955 
L 214.676128 60.240569 
L 213.676128 60.188605 
L 212.676128 60.129515 
L 211.676128 60.041194 
L 210.676128 59.99505 
L 209.676128 59.952639 
L 208.676128 59.922146 
L 207.676128 59.896101 
L 206.676128 59.874901 
L 205.676128 59.8206 
L 204.676128 59.792663 
L 203.676128 59.762939 
L 202.676128 59.737544 
L 201.676128 59.726344 
L 200.676128 59.71622 
L 199.676128 59.716424 
L 198.676128 59.725934 
L 197.676128 59.737587 
L 196.676128 59.768617 
L 195.676128 59.779785 
L 194.676128 59.809902 
L 193.676128 59.869679 
L 192.676128 59.906871 
L 191.676128 59.945967 
L 190.676128 59.988406 
L 189.676128 60.021171 
L 188.676128 60.088598 
L 187.676128 60.127724 
L 186.676128 60.170398 
L 185.676128 60.240979 
L 184.676128 60.27737 
L 183.676128 60.335773 
L 182.676128 60.446726 
L 181.676128 60.517384 
L 180.676128 60.630324 
L 179.676128 60.676097 
L 178.676128 60.73738 
L 177.676128 60.785879 
L 176.676128 60.866702 
L 175.676128 60.985221 
L 174.676128 61.055431 
L 173.676128 61.138694 
L 172.676128 61.171836 
L 171.676128 61.223073 
L 170.676128 61.291471 
L 169.676128 61.357687 
L 168.676128 61.434604 
L 167.676128 61.461919 
L 166.676128 61.488397 
L 165.676128 61.511047 
L 164.676128 61.530579 
L 163.676128 61.556973 
L 162.676128 61.606743 
L 161.676128 61.641817 
L 160.676128 61.677682 
L 159.676128 61.69305 
L 158.676128 61.708819 
L 157.676128 61.712231 
L 156.676128 61.714649 
L 155.676128 61.714163 
L 154.676128 61.712234 
L 153.676128 61.698977 
L 152.676128 61.690586 
L 151.676128 61.669049 
L 150.676128 61.646017 
L 149.676128 61.628783 
L 148.676128 61.610321 
L 147.676128 61.589868 
L 146.676128 61.573269 
L 145.676128 61.51049 
L 144.676128 61.435225 
L 143.676128 61.402586 
L 142.676128 61.335022 
L 141.676128 61.280975 
L 140.676128 61.247271 
L 139.676128 61.157145 
L 138.676128 61.12861 
L 137.676128 61.097124 
L 136.676128 61.066113 
L 135.676128 61.011305 
L 134.676128 60.946717 
L 133.196016 60.908522 
" clip-path="url(#pb058cfe3c3)" style="fill: none; stroke: #1f77b4; stroke-linecap: round"/>
             <path d="M 137.196016 62.714844 
L 136.315648 62.239513 
L 135.437741 61.759259 
L 134.587028 61.224618 
L 133.284853 60.53717 
L 134.212206 60.511155 
L 135.123881 60.098436 
L 136.034145 59.682897 
L 137.376641 59.076092 
L 136.721742 59.714844 
L 136.669778 60.714844 
L 136.610688 62.714844 
L 137.196016 62.714844 
z
" clip-path="url(#pb058cfe3c3)" style="fill: #ffffff; stroke: #ffffff; stroke-width: 3; stroke-linecap: round"/>
             <path d="M 137.196016 62.714844 
L 136.315648 62.239513 
L 135.437741 61.759259 
L 134.587028 61.224618 
L 133.284853 60.53717 
L 134.212206 60.511155 
L 135.123881 60.098436 
L 136.034145 59.682897 
L 137.376641 59.076092 
L 136.721742 59.714844 
L 136.669778 60.714844 
L 136.610688 62.714844 
L 137.196016 62.714844 
z
" clip-path="url(#pb058cfe3c3)" style="fill: #ffffff; stroke: #1f77b4; stroke-linecap: round"/>
             <g id="patch_13">
              <path d="M 347.276311 60.714844 
L 348.276311 60.74628 
L 349.276311 60.78322 
L 350.276311 60.880967 
L 351.276311 60.913489 
L 352.276311 60.987113 
L 353.276311 61.025679 
L 354.276311 61.061092 
L 355.276311 61.118732 
L 356.276311 61.189118 
L 357.276311 61.241082 
L 358.276311 61.300172 
L 359.276311 61.388493 
L 360.276311 61.434637 
L 361.276311 61.477048 
L 362.276311 61.507541 
L 363.276311 61.533586 
L 364.276311 61.554786 
L 365.276311 61.609087 
L 366.276311 61.637025 
L 367.276311 61.666749 
L 368.276311 61.692143 
L 369.276311 61.703344 
L 370.276311 61.713468 
L 371.276311 61.713264 
L 372.276311 61.703754 
L 373.276311 61.6921 
L 374.276311 61.661071 
L 375.276311 61.649903 
L 376.276311 61.619785 
L 377.276311 61.560008 
L 378.276311 61.522817 
L 379.276311 61.483721 
L 380.276311 61.441281 
L 381.276311 61.408516 
L 382.276311 61.34109 
L 383.276311 61.301964 
L 384.276311 61.259289 
L 385.276311 61.188709 
L 386.276311 61.152318 
L 387.276311 61.093915 
L 388.276311 60.982962 
L 389.276311 60.912304 
L 390.276311 60.799364 
L 391.276311 60.753591 
L 392.276311 60.692308 
L 393.276311 60.643808 
L 394.276311 60.562986 
L 395.276311 60.444467 
L 396.276311 60.374256 
L 397.276311 60.290994 
L 398.276311 60.257852 
L 399.276311 60.206615 
L 400.276311 60.138216 
L 401.276311 60.072001 
L 402.276311 59.995084 
L 403.276311 59.967768 
L 404.276311 59.941291 
L 405.276311 59.91864 
L 406.276311 59.899109 
L 407.276311 59.872715 
L 408.276311 59.822944 
L 409.276311 59.787871 
L 410.276311 59.752005 
L 411.276311 59.736638 
L 412.276311 59.720869 
L 413.276311 59.717456 
L 414.276311 59.715038 
L 415.276311 59.715525 
L 416.276311 59.717454 
L 417.276311 59.730711 
L 418.276311 59.739101 
L 419.276311 59.760638 
L 420.276311 59.78367 
L 421.276311 59.800904 
L 422.276311 59.819366 
L 423.276311 59.839819 
L 424.276311 59.856419 
L 425.276311 59.919198 
L 426.276311 59.994463 
L 427.276311 60.027102 
L 428.276311 60.094665 
L 429.276311 60.148712 
L 430.276311 60.182417 
L 431.276311 60.272543 
L 432.276311 60.301078 
L 433.276311 60.332564 
L 434.276311 60.363575 
L 435.276311 60.418383 
L 436.276311 60.48297 
L 437.276311 60.521165 
L 438.276311 60.6171 
L 439.276311 60.666358 
L 440.276311 60.710427 
L 441.276311 60.750551 
L 442.276311 60.858918 
L 443.276311 60.900546 
L 444.276311 60.962687 
L 445.276311 61.03265 
L 446.276311 61.137154 
L 447.276311 61.174142 
L 448.276311 61.220019 
L 449.276311 61.288513 
L 450.276311 61.337259 
L 451.276311 61.414857 
L 452.276311 61.445397 
L 453.276311 61.514912 
L 454.276311 61.538885 
L 455.700241 61.567507 
" clip-path="url(#pb058cfe3c3)" style="fill: none; stroke: #ffffff; stroke-width: 3; stroke-linecap: round"/>
              <path d="M 347.276311 60.714844 
L 348.276311 60.74628 
L 349.276311 60.78322 
L 350.276311 60.880967 
L 351.276311 60.913489 
L 352.276311 60.987113 
L 353.276311 61.025679 
L 354.276311 61.061092 
L 355.276311 61.118732 
L 356.276311 61.189118 
L 357.276311 61.241082 
L 358.276311 61.300172 
L 359.276311 61.388493 
L 360.276311 61.434637 
L 361.276311 61.477048 
L 362.276311 61.507541 
L 363.276311 61.533586 
L 364.276311 61.554786 
L 365.276311 61.609087 
L 366.276311 61.637025 
L 367.276311 61.666749 
L 368.276311 61.692143 
L 369.276311 61.703344 
L 370.276311 61.713468 
L 371.276311 61.713264 
L 372.276311 61.703754 
L 373.276311 61.6921 
L 374.276311 61.661071 
L 375.276311 61.649903 
L 376.276311 61.619785 
L 377.276311 61.560008 
L 378.276311 61.522817 
L 379.276311 61.483721 
L 380.276311 61.441281 
L 381.276311 61.408516 
L 382.276311 61.34109 
L 383.276311 61.301964 
L 384.276311 61.259289 
L 385.276311 61.188709 
L 386.276311 61.152318 
L 387.276311 61.093915 
L 388.276311 60.982962 
L 389.276311 60.912304 
L 390.276311 60.799364 
L 391.276311 60.753591 
L 392.276311 60.692308 
L 393.276311 60.643808 
L 394.276311 60.562986 
L 395.276311 60.444467 
L 396.276311 60.374256 
L 397.276311 60.290994 
L 398.276311 60.257852 
L 399.276311 60.206615 
L 400.276311 60.138216 
L 401.276311 60.072001 
L 402.276311 59.995084 
L 403.276311 59.967768 
L 404.276311 59.941291 
L 405.276311 59.91864 
L 406.276311 59.899109 
L 407.276311 59.872715 
L 408.276311 59.822944 
L 409.276311 59.787871 
L 410.276311 59.752005 
L 411.276311 59.736638 
L 412.276311 59.720869 
L 413.276311 59.717456 
L 414.276311 59.715038 
L 415.276311 59.715525 
L 416.276311 59.717454 
L 417.276311 59.730711 
L 418.276311 59.739101 
L 419.276311 59.760638 
L 420.276311 59.78367 
L 421.276311 59.800904 
L 422.276311 59.819366 
L 423.276311 59.839819 
L 424.276311 59.856419 
L 425.276311 59.919198 
L 426.276311 59.994463 
L 427.276311 60.027102 
L 428.276311 60.094665 
L 429.276311 60.148712 
L 430.276311 60.182417 
L 431.276311 60.272543 
L 432.276311 60.301078 
L 433.276311 60.332564 
L 434.276311 60.363575 
L 435.276311 60.418383 
L 436.276311 60.48297 
L 437.276311 60.521165 
L 438.276311 60.6171 
L 439.276311 60.666358 
L 440.276311 60.710427 
L 441.276311 60.750551 
L 442.276311 60.858918 
L 443.276311 60.900546 
L 444.276311 60.962687 
L 445.276311 61.03265 
L 446.276311 61.137154 
L 447.276311 61.174142 
L 448.276311 61.220019 
L 449.276311 61.288513 
L 450.276311 61.337259 
L 451.276311 61.414857 
L 452.276311 61.445397 
L 453.276311 61.514912 
L 454.276311 61.538885 
L 455.700241 61.567507 
" clip-path="url(#pb058cfe3c3)" style="fill: none; stroke: #1f77b4; stroke-linecap: round"/>
              <path d="M 451.700241 58.714844 
L 452.58061 59.190175 
L 453.458517 59.670429 
L 454.30923 60.20507 
L 455.611404 60.892517 
L 454.684051 60.918532 
L 453.772377 61.331251 
L 452.862113 61.746791 
L 451.519617 62.353595 
L 452.174516 61.714844 
L 452.22648 60.714844 
L 452.28557 58.714844 
L 451.700241 58.714844 
z
" clip-path="url(#pb058cfe3c3)" style="fill: #ffffff; stroke: #ffffff; stroke-width: 3; stroke-linecap: round"/>
              <path d="M 451.700241 58.714844 
L 452.58061 59.190175 
L 453.458517 59.670429 
L 454.30923 60.20507 
L 455.611404 60.892517 
L 454.684051 60.918532 
L 453.772377 61.331251 
L 452.862113 61.746791 
L 451.519617 62.353595 
L 452.174516 61.714844 
L 452.22648 60.714844 
L 452.28557 58.714844 
L 451.700241 58.714844 
z
" clip-path="url(#pb058cfe3c3)" style="fill: #ffffff; stroke: #1f77b4; stroke-linecap: round"/>
              <g id="patch_14">
               <path d="M 132.074056 112.789687 
L 133.074056 112.821124 
L 134.074056 112.858064 
L 135.074056 112.955811 
L 136.074056 112.988332 
L 137.074056 113.061957 
L 138.074056 113.100523 
L 139.074056 113.135936 
L 140.074056 113.193576 
L 141.074056 113.263962 
L 142.074056 113.315926 
L 143.074056 113.375016 
L 144.074056 113.463337 
L 145.074056 113.509481 
L 146.074056 113.551892 
L 147.074056 113.582385 
L 148.074056 113.60843 
L 149.074056 113.62963 
L 150.074056 113.683931 
L 151.074056 113.711869 
L 152.074056 113.741592 
L 153.074056 113.766987 
L 154.074056 113.778188 
L 155.074056 113.788312 
L 156.074056 113.788107 
L 157.074056 113.778597 
L 158.074056 113.766944 
L 159.074056 113.735915 
L 160.074056 113.724747 
L 161.074056 113.694629 
L 162.074056 113.634852 
L 163.074056 113.597661 
L 164.074056 113.558565 
L 165.074056 113.516125 
L 166.074056 113.48336 
L 167.074056 113.415933 
L 168.074056 113.376807 
L 169.074056 113.334133 
L 170.074056 113.263552 
L 171.074056 113.227161 
L 172.074056 113.168758 
L 173.074056 113.057806 
L 174.074056 112.987147 
L 175.074056 112.874208 
L 176.074056 112.828435 
L 177.074056 112.767151 
L 178.074056 112.718652 
L 179.074056 112.637829 
L 180.074056 112.51931 
L 181.074056 112.4491 
L 182.074056 112.365837 
L 183.074056 112.332696 
L 184.074056 112.281458 
L 185.074056 112.21306 
L 186.074056 112.146845 
L 187.074056 112.069927 
L 188.074056 112.042612 
L 189.074056 112.016134 
L 190.074056 111.993484 
L 191.074056 111.973953 
L 192.074056 111.947559 
L 193.074056 111.897788 
L 194.074056 111.862715 
L 195.074056 111.826849 
L 196.074056 111.811482 
L 197.074056 111.795712 
L 198.074056 111.7923 
L 199.074056 111.789882 
L 200.074056 111.790368 
L 201.074056 111.792298 
L 202.074056 111.805555 
L 203.074056 111.813945 
L 204.074056 111.835482 
L 205.074056 111.858514 
L 206.074056 111.875748 
L 207.074056 111.89421 
L 208.074056 111.914663 
L 209.074056 111.931263 
L 210.074056 111.994041 
L 211.074056 112.069306 
L 212.074056 112.101946 
L 213.074056 112.169509 
L 214.074056 112.223556 
L 215.074056 112.257261 
L 216.074056 112.347387 
L 217.074056 112.375922 
L 218.074056 112.407408 
L 219.074056 112.438418 
L 220.074056 112.493226 
L 221.074056 112.557814 
L 222.554168 112.596009 
" clip-path="url(#pb058cfe3c3)" style="fill: none; stroke: #ffffff; stroke-width: 3; stroke-linecap: round"/>
               <path d="M 132.074056 112.789687 
L 133.074056 112.821124 
L 134.074056 112.858064 
L 135.074056 112.955811 
L 136.074056 112.988332 
L 137.074056 113.061957 
L 138.074056 113.100523 
L 139.074056 113.135936 
L 140.074056 113.193576 
L 141.074056 113.263962 
L 142.074056 113.315926 
L 143.074056 113.375016 
L 144.074056 113.463337 
L 145.074056 113.509481 
L 146.074056 113.551892 
L 147.074056 113.582385 
L 148.074056 113.60843 
L 149.074056 113.62963 
L 150.074056 113.683931 
L 151.074056 113.711869 
L 152.074056 113.741592 
L 153.074056 113.766987 
L 154.074056 113.778188 
L 155.074056 113.788312 
L 156.074056 113.788107 
L 157.074056 113.778597 
L 158.074056 113.766944 
L 159.074056 113.735915 
L 160.074056 113.724747 
L 161.074056 113.694629 
L 162.074056 113.634852 
L 163.074056 113.597661 
L 164.074056 113.558565 
L 165.074056 113.516125 
L 166.074056 113.48336 
L 167.074056 113.415933 
L 168.074056 113.376807 
L 169.074056 113.334133 
L 170.074056 113.263552 
L 171.074056 113.227161 
L 172.074056 113.168758 
L 173.074056 113.057806 
L 174.074056 112.987147 
L 175.074056 112.874208 
L 176.074056 112.828435 
L 177.074056 112.767151 
L 178.074056 112.718652 
L 179.074056 112.637829 
L 180.074056 112.51931 
L 181.074056 112.4491 
L 182.074056 112.365837 
L 183.074056 112.332696 
L 184.074056 112.281458 
L 185.074056 112.21306 
L 186.074056 112.146845 
L 187.074056 112.069927 
L 188.074056 112.042612 
L 189.074056 112.016134 
L 190.074056 111.993484 
L 191.074056 111.973953 
L 192.074056 111.947559 
L 193.074056 111.897788 
L 194.074056 111.862715 
L 195.074056 111.826849 
L 196.074056 111.811482 
L 197.074056 111.795712 
L 198.074056 111.7923 
L 199.074056 111.789882 
L 200.074056 111.790368 
L 201.074056 111.792298 
L 202.074056 111.805555 
L 203.074056 111.813945 
L 204.074056 111.835482 
L 205.074056 111.858514 
L 206.074056 111.875748 
L 207.074056 111.89421 
L 208.074056 111.914663 
L 209.074056 111.931263 
L 210.074056 111.994041 
L 211.074056 112.069306 
L 212.074056 112.101946 
L 213.074056 112.169509 
L 214.074056 112.223556 
L 215.074056 112.257261 
L 216.074056 112.347387 
L 217.074056 112.375922 
L 218.074056 112.407408 
L 219.074056 112.438418 
L 220.074056 112.493226 
L 221.074056 112.557814 
L 222.554168 112.596009 
" clip-path="url(#pb058cfe3c3)" style="fill: none; stroke: #ff7f0e; stroke-linecap: round"/>
               <path d="M 218.554168 110.789687 
L 219.434536 111.265019 
L 220.312443 111.745273 
L 221.163157 112.279914 
L 222.465331 112.967361 
L 221.537978 112.993376 
L 220.626304 113.406095 
L 219.716039 113.821634 
L 218.373543 114.428439 
L 219.028442 113.789687 
L 219.080406 112.789687 
L 219.139496 110.789687 
L 218.554168 110.789687 
z
" clip-path="url(#pb058cfe3c3)" style="fill: #ffffff; stroke: #ffffff; stroke-width: 3; stroke-linecap: round"/>
               <path d="M 218.554168 110.789687 
L 219.434536 111.265019 
L 220.312443 111.745273 
L 221.163157 112.279914 
L 222.465331 112.967361 
L 221.537978 112.993376 
L 220.626304 113.406095 
L 219.716039 113.821634 
L 218.373543 114.428439 
L 219.028442 113.789687 
L 219.080406 112.789687 
L 219.139496 110.789687 
L 218.554168 110.789687 
z
" clip-path="url(#pb058cfe3c3)" style="fill: #ffffff; stroke: #ff7f0e; stroke-linecap: round"/>
               <g id="patch_15">
                <path d="M 456.81711 112.789687 
L 455.81711 112.758251 
L 454.81711 112.721311 
L 453.81711 112.623564 
L 452.81711 112.591043 
L 451.81711 112.517418 
L 450.81711 112.478852 
L 449.81711 112.443439 
L 448.81711 112.385799 
L 447.81711 112.315413 
L 446.81711 112.263449 
L 445.81711 112.204359 
L 444.81711 112.116038 
L 443.81711 112.069894 
L 442.81711 112.027483 
L 441.81711 111.99699 
L 440.81711 111.970945 
L 439.81711 111.949745 
L 438.81711 111.895444 
L 437.81711 111.867506 
L 436.81711 111.837783 
L 435.81711 111.812388 
L 434.81711 111.801187 
L 433.81711 111.791063 
L 432.81711 111.791268 
L 431.81711 111.800778 
L 430.81711 111.812431 
L 429.81711 111.84346 
L 428.81711 111.854628 
L 427.81711 111.884746 
L 426.81711 111.944523 
L 425.81711 111.981714 
L 424.81711 112.02081 
L 423.81711 112.06325 
L 422.81711 112.096015 
L 421.81711 112.163442 
L 420.81711 112.202568 
L 419.81711 112.245242 
L 418.81711 112.315823 
L 417.81711 112.352214 
L 416.81711 112.410617 
L 415.81711 112.521569 
L 414.81711 112.592228 
L 413.81711 112.705167 
L 412.81711 112.75094 
L 411.81711 112.812224 
L 410.81711 112.860723 
L 409.81711 112.941546 
L 408.81711 113.060065 
L 407.81711 113.130275 
L 406.81711 113.213538 
L 405.81711 113.246679 
L 404.81711 113.297917 
L 403.81711 113.366315 
L 402.81711 113.43253 
L 401.81711 113.509448 
L 400.81711 113.536763 
L 399.81711 113.563241 
L 398.81711 113.585891 
L 397.81711 113.605422 
L 396.81711 113.631816 
L 395.81711 113.681587 
L 394.81711 113.71666 
L 393.81711 113.752526 
L 392.81711 113.767893 
L 391.81711 113.783663 
L 390.81711 113.787075 
L 389.81711 113.789493 
L 388.81711 113.789007 
L 387.81711 113.787077 
L 386.81711 113.77382 
L 385.81711 113.76543 
L 384.81711 113.743893 
L 383.81711 113.720861 
L 382.81711 113.703627 
L 381.81711 113.685165 
L 380.81711 113.664712 
L 379.81711 113.648112 
L 378.81711 113.585334 
L 377.81711 113.510069 
L 376.81711 113.477429 
L 375.81711 113.409866 
L 374.81711 113.355819 
L 373.81711 113.322114 
L 372.81711 113.231988 
L 371.81711 113.203453 
L 370.81711 113.171967 
L 369.81711 113.140957 
L 368.81711 113.086149 
L 367.81711 113.021561 
L 366.81711 112.983366 
L 365.81711 112.887432 
L 364.81711 112.838174 
L 363.81711 112.794104 
L 362.81711 112.75398 
L 361.81711 112.645613 
L 360.81711 112.603985 
L 359.81711 112.541844 
L 358.81711 112.471882 
L 357.81711 112.367377 
L 356.81711 112.33039 
L 355.81711 112.284512 
L 354.81711 112.216018 
L 353.81711 112.167272 
L 352.81711 112.089674 
L 351.81711 112.059134 
L 350.81711 111.989619 
L 349.81711 111.965646 
L 348.39318 111.937025 
" clip-path="url(#pb058cfe3c3)" style="fill: none; stroke: #ffffff; stroke-width: 3; stroke-linecap: round"/>
                <path d="M 456.81711 112.789687 
L 455.81711 112.758251 
L 454.81711 112.721311 
L 453.81711 112.623564 
L 452.81711 112.591043 
L 451.81711 112.517418 
L 450.81711 112.478852 
L 449.81711 112.443439 
L 448.81711 112.385799 
L 447.81711 112.315413 
L 446.81711 112.263449 
L 445.81711 112.204359 
L 444.81711 112.116038 
L 443.81711 112.069894 
L 442.81711 112.027483 
L 441.81711 111.99699 
L 440.81711 111.970945 
L 439.81711 111.949745 
L 438.81711 111.895444 
L 437.81711 111.867506 
L 436.81711 111.837783 
L 435.81711 111.812388 
L 434.81711 111.801187 
L 433.81711 111.791063 
L 432.81711 111.791268 
L 431.81711 111.800778 
L 430.81711 111.812431 
L 429.81711 111.84346 
L 428.81711 111.854628 
L 427.81711 111.884746 
L 426.81711 111.944523 
L 425.81711 111.981714 
L 424.81711 112.02081 
L 423.81711 112.06325 
L 422.81711 112.096015 
L 421.81711 112.163442 
L 420.81711 112.202568 
L 419.81711 112.245242 
L 418.81711 112.315823 
L 417.81711 112.352214 
L 416.81711 112.410617 
L 415.81711 112.521569 
L 414.81711 112.592228 
L 413.81711 112.705167 
L 412.81711 112.75094 
L 411.81711 112.812224 
L 410.81711 112.860723 
L 409.81711 112.941546 
L 408.81711 113.060065 
L 407.81711 113.130275 
L 406.81711 113.213538 
L 405.81711 113.246679 
L 404.81711 113.297917 
L 403.81711 113.366315 
L 402.81711 113.43253 
L 401.81711 113.509448 
L 400.81711 113.536763 
L 399.81711 113.563241 
L 398.81711 113.585891 
L 397.81711 113.605422 
L 396.81711 113.631816 
L 395.81711 113.681587 
L 394.81711 113.71666 
L 393.81711 113.752526 
L 392.81711 113.767893 
L 391.81711 113.783663 
L 390.81711 113.787075 
L 389.81711 113.789493 
L 388.81711 113.789007 
L 387.81711 113.787077 
L 386.81711 113.77382 
L 385.81711 113.76543 
L 384.81711 113.743893 
L 383.81711 113.720861 
L 382.81711 113.703627 
L 381.81711 113.685165 
L 380.81711 113.664712 
L 379.81711 113.648112 
L 378.81711 113.585334 
L 377.81711 113.510069 
L 376.81711 113.477429 
L 375.81711 113.409866 
L 374.81711 113.355819 
L 373.81711 113.322114 
L 372.81711 113.231988 
L 371.81711 113.203453 
L 370.81711 113.171967 
L 369.81711 113.140957 
L 368.81711 113.086149 
L 367.81711 113.021561 
L 366.81711 112.983366 
L 365.81711 112.887432 
L 364.81711 112.838174 
L 363.81711 112.794104 
L 362.81711 112.75398 
L 361.81711 112.645613 
L 360.81711 112.603985 
L 359.81711 112.541844 
L 358.81711 112.471882 
L 357.81711 112.367377 
L 356.81711 112.33039 
L 355.81711 112.284512 
L 354.81711 112.216018 
L 353.81711 112.167272 
L 352.81711 112.089674 
L 351.81711 112.059134 
L 350.81711 111.989619 
L 349.81711 111.965646 
L 348.39318 111.937025 
" clip-path="url(#pb058cfe3c3)" style="fill: none; stroke: #d62728; stroke-linecap: round"/>
                <path d="M 352.39318 114.789687 
L 351.512811 114.314356 
L 350.634905 113.834102 
L 349.784191 113.299461 
L 348.482017 112.612014 
L 349.40937 112.585999 
L 350.321044 112.17328 
L 351.231308 111.757741 
L 352.573804 111.150936 
L 351.918905 111.789687 
L 351.866941 112.789687 
L 351.807851 114.789687 
L 352.39318 114.789687 
z
" clip-path="url(#pb058cfe3c3)" style="fill: #ffffff; stroke: #ffffff; stroke-width: 3; stroke-linecap: round"/>
                <path d="M 352.39318 114.789687 
L 351.512811 114.314356 
L 350.634905 113.834102 
L 349.784191 113.299461 
L 348.482017 112.612014 
L 349.40937 112.585999 
L 350.321044 112.17328 
L 351.231308 111.757741 
L 352.573804 111.150936 
L 351.918905 111.789687 
L 351.866941 112.789687 
L 351.807851 114.789687 
L 352.39318 114.789687 
z
" clip-path="url(#pb058cfe3c3)" style="fill: #ffffff; stroke: #d62728; stroke-linecap: round"/>
                <g id="patch_16">
                 <path d="M 223.676128 164.864531 
L 222.676128 164.833095 
L 221.676128 164.796155 
L 220.676128 164.698408 
L 219.676128 164.665886 
L 218.676128 164.592262 
L 217.676128 164.553696 
L 216.676128 164.518283 
L 215.676128 164.460643 
L 214.676128 164.390257 
L 213.676128 164.338293 
L 212.676128 164.279203 
L 211.676128 164.190882 
L 210.676128 164.144738 
L 209.676128 164.102327 
L 208.676128 164.071834 
L 207.676128 164.045789 
L 206.676128 164.024589 
L 205.676128 163.970288 
L 204.676128 163.94235 
L 203.676128 163.912626 
L 202.676128 163.887232 
L 201.676128 163.876031 
L 200.676128 163.865907 
L 199.676128 163.866111 
L 198.676128 163.875621 
L 197.676128 163.887275 
L 196.676128 163.918304 
L 195.676128 163.929472 
L 194.676128 163.95959 
L 193.676128 164.019367 
L 192.676128 164.056558 
L 191.676128 164.095654 
L 190.676128 164.138094 
L 189.676128 164.170859 
L 188.676128 164.238285 
L 187.676128 164.277411 
L 186.676128 164.320086 
L 185.676128 164.390666 
L 184.676128 164.427057 
L 183.676128 164.48546 
L 182.676128 164.596413 
L 181.676128 164.667071 
L 180.676128 164.780011 
L 179.676128 164.825784 
L 178.676128 164.887067 
L 177.676128 164.935567 
L 176.676128 165.016389 
L 175.676128 165.134908 
L 174.676128 165.205119 
L 173.676128 165.288381 
L 172.676128 165.321523 
L 171.676128 165.37276 
L 170.676128 165.441159 
L 169.676128 165.507374 
L 168.676128 165.584291 
L 167.676128 165.611607 
L 166.676128 165.638084 
L 165.676128 165.660735 
L 164.676128 165.680266 
L 163.676128 165.70666 
L 162.676128 165.756431 
L 161.676128 165.791504 
L 160.676128 165.82737 
L 159.676128 165.842737 
L 158.676128 165.858506 
L 157.676128 165.861919 
L 156.676128 165.864337 
L 155.676128 165.86385 
L 154.676128 165.861921 
L 153.676128 165.848664 
L 152.676128 165.840274 
L 151.676128 165.818737 
L 150.676128 165.795705 
L 149.676128 165.778471 
L 148.676128 165.760009 
L 147.676128 165.739556 
L 146.676128 165.722956 
L 145.676128 165.660177 
L 144.676128 165.584912 
L 143.676128 165.552273 
L 142.676128 165.48471 
L 141.676128 165.430663 
L 140.676128 165.396958 
L 139.676128 165.306832 
L 138.676128 165.278297 
L 137.676128 165.246811 
L 136.676128 165.2158 
L 135.676128 165.160992 
L 134.676128 165.096405 
L 133.196016 165.05821 
" clip-path="url(#pb058cfe3c3)" style="fill: none; stroke: #ffffff; stroke-width: 3; stroke-linecap: round"/>
                 <path d="M 223.676128 164.864531 
L 222.676128 164.833095 
L 221.676128 164.796155 
L 220.676128 164.698408 
L 219.676128 164.665886 
L 218.676128 164.592262 
L 217.676128 164.553696 
L 216.676128 164.518283 
L 215.676128 164.460643 
L 214.676128 164.390257 
L 213.676128 164.338293 
L 212.676128 164.279203 
L 211.676128 164.190882 
L 210.676128 164.144738 
L 209.676128 164.102327 
L 208.676128 164.071834 
L 207.676128 164.045789 
L 206.676128 164.024589 
L 205.676128 163.970288 
L 204.676128 163.94235 
L 203.676128 163.912626 
L 202.676128 163.887232 
L 201.676128 163.876031 
L 200.676128 163.865907 
L 199.676128 163.866111 
L 198.676128 163.875621 
L 197.676128 163.887275 
L 196.676128 163.918304 
L 195.676128 163.929472 
L 194.676128 163.95959 
L 193.676128 164.019367 
L 192.676128 164.056558 
L 191.676128 164.095654 
L 190.676128 164.138094 
L 189.676128 164.170859 
L 188.676128 164.238285 
L 187.676128 164.277411 
L 186.676128 164.320086 
L 185.676128 164.390666 
L 184.676128 164.427057 
L 183.676128 164.48546 
L 182.676128 164.596413 
L 181.676128 164.667071 
L 180.676128 164.780011 
L 179.676128 164.825784 
L 178.676128 164.887067 
L 177.676128 164.935567 
L 176.676128 165.016389 
L 175.676128 165.134908 
L 174.676128 165.205119 
L 173.676128 165.288381 
L 172.676128 165.321523 
L 171.676128 165.37276 
L 170.676128 165.441159 
L 169.676128 165.507374 
L 168.676128 165.584291 
L 167.676128 165.611607 
L 166.676128 165.638084 
L 165.676128 165.660735 
L 164.676128 165.680266 
L 163.676128 165.70666 
L 162.676128 165.756431 
L 161.676128 165.791504 
L 160.676128 165.82737 
L 159.676128 165.842737 
L 158.676128 165.858506 
L 157.676128 165.861919 
L 156.676128 165.864337 
L 155.676128 165.86385 
L 154.676128 165.861921 
L 153.676128 165.848664 
L 152.676128 165.840274 
L 151.676128 165.818737 
L 150.676128 165.795705 
L 149.676128 165.778471 
L 148.676128 165.760009 
L 147.676128 165.739556 
L 146.676128 165.722956 
L 145.676128 165.660177 
L 144.676128 165.584912 
L 143.676128 165.552273 
L 142.676128 165.48471 
L 141.676128 165.430663 
L 140.676128 165.396958 
L 139.676128 165.306832 
L 138.676128 165.278297 
L 137.676128 165.246811 
L 136.676128 165.2158 
L 135.676128 165.160992 
L 134.676128 165.096405 
L 133.196016 165.05821 
" clip-path="url(#pb058cfe3c3)" style="fill: none; stroke: #9467bd; stroke-linecap: round"/>
                 <path d="M 137.196016 166.864531 
L 136.315648 166.3892 
L 135.437741 165.908946 
L 134.587028 165.374305 
L 133.284853 164.686858 
L 134.212206 164.660843 
L 135.123881 164.248124 
L 136.034145 163.832584 
L 137.376641 163.22578 
L 136.721742 163.864531 
L 136.669778 164.864531 
L 136.610688 166.864531 
L 137.196016 166.864531 
z
" clip-path="url(#pb058cfe3c3)" style="fill: #ffffff; stroke: #ffffff; stroke-width: 3; stroke-linecap: round"/>
                 <path d="M 137.196016 166.864531 
L 136.315648 166.3892 
L 135.437741 165.908946 
L 134.587028 165.374305 
L 133.284853 164.686858 
L 134.212206 164.660843 
L 135.123881 164.248124 
L 136.034145 163.832584 
L 137.376641 163.22578 
L 136.721742 163.864531 
L 136.669778 164.864531 
L 136.610688 166.864531 
L 137.196016 166.864531 
z
" clip-path="url(#pb058cfe3c3)" style="fill: #ffffff; stroke: #9467bd; stroke-linecap: round"/>
                 <g id="patch_17">
                  <path d="M 347.276311 164.864531 
L 348.276311 164.895968 
L 349.276311 164.932908 
L 350.276311 165.030655 
L 351.276311 165.063176 
L 352.276311 165.136801 
L 353.276311 165.175366 
L 354.276311 165.21078 
L 355.276311 165.26842 
L 356.276311 165.338806 
L 357.276311 165.39077 
L 358.276311 165.44986 
L 359.276311 165.538181 
L 360.276311 165.584325 
L 361.276311 165.626736 
L 362.276311 165.657229 
L 363.276311 165.683274 
L 364.276311 165.704474 
L 365.276311 165.758775 
L 366.276311 165.786712 
L 367.276311 165.816436 
L 368.276311 165.841831 
L 369.276311 165.853031 
L 370.276311 165.863155 
L 371.276311 165.862951 
L 372.276311 165.853441 
L 373.276311 165.841788 
L 374.276311 165.810758 
L 375.276311 165.79959 
L 376.276311 165.769473 
L 377.276311 165.709696 
L 378.276311 165.672504 
L 379.276311 165.633408 
L 380.276311 165.590969 
L 381.276311 165.558204 
L 382.276311 165.490777 
L 383.276311 165.451651 
L 384.276311 165.408977 
L 385.276311 165.338396 
L 386.276311 165.302005 
L 387.276311 165.243602 
L 388.276311 165.132649 
L 389.276311 165.061991 
L 390.276311 164.949051 
L 391.276311 164.903278 
L 392.276311 164.841995 
L 393.276311 164.793496 
L 394.276311 164.712673 
L 395.276311 164.594154 
L 396.276311 164.523944 
L 397.276311 164.440681 
L 398.276311 164.407539 
L 399.276311 164.356302 
L 400.276311 164.287904 
L 401.276311 164.221688 
L 402.276311 164.144771 
L 403.276311 164.117456 
L 404.276311 164.090978 
L 405.276311 164.068328 
L 406.276311 164.048796 
L 407.276311 164.022402 
L 408.276311 163.972632 
L 409.276311 163.937558 
L 410.276311 163.901693 
L 411.276311 163.886325 
L 412.276311 163.870556 
L 413.276311 163.867144 
L 414.276311 163.864726 
L 415.276311 163.865212 
L 416.276311 163.867141 
L 417.276311 163.880398 
L 418.276311 163.888789 
L 419.276311 163.910326 
L 420.276311 163.933358 
L 421.276311 163.950592 
L 422.276311 163.969054 
L 423.276311 163.989507 
L 424.276311 164.006106 
L 425.276311 164.068885 
L 426.276311 164.14415 
L 427.276311 164.176789 
L 428.276311 164.244353 
L 429.276311 164.2984 
L 430.276311 164.332104 
L 431.276311 164.42223 
L 432.276311 164.450765 
L 433.276311 164.482251 
L 434.276311 164.513262 
L 435.276311 164.56807 
L 436.276311 164.632658 
L 437.276311 164.670853 
L 438.276311 164.766787 
L 439.276311 164.816045 
L 440.276311 164.860115 
L 441.276311 164.900238 
L 442.276311 165.008605 
L 443.276311 165.050233 
L 444.276311 165.112375 
L 445.276311 165.182337 
L 446.276311 165.286842 
L 447.276311 165.323829 
L 448.276311 165.369706 
L 449.276311 165.438201 
L 450.276311 165.486947 
L 451.276311 165.564544 
L 452.276311 165.595085 
L 453.276311 165.6646 
L 454.276311 165.688572 
L 455.700241 165.717194 
" clip-path="url(#pb058cfe3c3)" style="fill: none; stroke: #ffffff; stroke-width: 3; stroke-linecap: round"/>
                  <path d="M 347.276311 164.864531 
L 348.276311 164.895968 
L 349.276311 164.932908 
L 350.276311 165.030655 
L 351.276311 165.063176 
L 352.276311 165.136801 
L 353.276311 165.175366 
L 354.276311 165.21078 
L 355.276311 165.26842 
L 356.276311 165.338806 
L 357.276311 165.39077 
L 358.276311 165.44986 
L 359.276311 165.538181 
L 360.276311 165.584325 
L 361.276311 165.626736 
L 362.276311 165.657229 
L 363.276311 165.683274 
L 364.276311 165.704474 
L 365.276311 165.758775 
L 366.276311 165.786712 
L 367.276311 165.816436 
L 368.276311 165.841831 
L 369.276311 165.853031 
L 370.276311 165.863155 
L 371.276311 165.862951 
L 372.276311 165.853441 
L 373.276311 165.841788 
L 374.276311 165.810758 
L 375.276311 165.79959 
L 376.276311 165.769473 
L 377.276311 165.709696 
L 378.276311 165.672504 
L 379.276311 165.633408 
L 380.276311 165.590969 
L 381.276311 165.558204 
L 382.276311 165.490777 
L 383.276311 165.451651 
L 384.276311 165.408977 
L 385.276311 165.338396 
L 386.276311 165.302005 
L 387.276311 165.243602 
L 388.276311 165.132649 
L 389.276311 165.061991 
L 390.276311 164.949051 
L 391.276311 164.903278 
L 392.276311 164.841995 
L 393.276311 164.793496 
L 394.276311 164.712673 
L 395.276311 164.594154 
L 396.276311 164.523944 
L 397.276311 164.440681 
L 398.276311 164.407539 
L 399.276311 164.356302 
L 400.276311 164.287904 
L 401.276311 164.221688 
L 402.276311 164.144771 
L 403.276311 164.117456 
L 404.276311 164.090978 
L 405.276311 164.068328 
L 406.276311 164.048796 
L 407.276311 164.022402 
L 408.276311 163.972632 
L 409.276311 163.937558 
L 410.276311 163.901693 
L 411.276311 163.886325 
L 412.276311 163.870556 
L 413.276311 163.867144 
L 414.276311 163.864726 
L 415.276311 163.865212 
L 416.276311 163.867141 
L 417.276311 163.880398 
L 418.276311 163.888789 
L 419.276311 163.910326 
L 420.276311 163.933358 
L 421.276311 163.950592 
L 422.276311 163.969054 
L 423.276311 163.989507 
L 424.276311 164.006106 
L 425.276311 164.068885 
L 426.276311 164.14415 
L 427.276311 164.176789 
L 428.276311 164.244353 
L 429.276311 164.2984 
L 430.276311 164.332104 
L 431.276311 164.42223 
L 432.276311 164.450765 
L 433.276311 164.482251 
L 434.276311 164.513262 
L 435.276311 164.56807 
L 436.276311 164.632658 
L 437.276311 164.670853 
L 438.276311 164.766787 
L 439.276311 164.816045 
L 440.276311 164.860115 
L 441.276311 164.900238 
L 442.276311 165.008605 
L 443.276311 165.050233 
L 444.276311 165.112375 
L 445.276311 165.182337 
L 446.276311 165.286842 
L 447.276311 165.323829 
L 448.276311 165.369706 
L 449.276311 165.438201 
L 450.276311 165.486947 
L 451.276311 165.564544 
L 452.276311 165.595085 
L 453.276311 165.6646 
L 454.276311 165.688572 
L 455.700241 165.717194 
" clip-path="url(#pb058cfe3c3)" style="fill: none; stroke: #9467bd; stroke-linecap: round"/>
                  <path d="M 451.700241 162.864531 
L 452.58061 163.339862 
L 453.458517 163.820116 
L 454.30923 164.354757 
L 455.611404 165.042205 
L 454.684051 165.06822 
L 453.772377 165.480939 
L 452.862113 165.896478 
L 451.519617 166.503283 
L 452.174516 165.864531 
L 452.22648 164.864531 
L 452.28557 162.864531 
L 451.700241 162.864531 
z
" clip-path="url(#pb058cfe3c3)" style="fill: #ffffff; stroke: #ffffff; stroke-width: 3; stroke-linecap: round"/>
                  <path d="M 451.700241 162.864531 
L 452.58061 163.339862 
L 453.458517 163.820116 
L 454.30923 164.354757 
L 455.611404 165.042205 
L 454.684051 165.06822 
L 453.772377 165.480939 
L 452.862113 165.896478 
L 451.519617 166.503283 
L 452.174516 165.864531 
L 452.22648 164.864531 
L 452.28557 162.864531 
L 451.700241 162.864531 
z
" clip-path="url(#pb058cfe3c3)" style="fill: #ffffff; stroke: #9467bd; stroke-linecap: round"/>
                  <g id="patch_18">
                   <path d="M 132.074056 216.939375 
L 133.074056 216.970811 
L 134.074056 217.007752 
L 135.074056 217.105498 
L 136.074056 217.13802 
L 137.074056 217.211645 
L 138.074056 217.25021 
L 139.074056 217.285623 
L 140.074056 217.343263 
L 141.074056 217.413649 
L 142.074056 217.465614 
L 143.074056 217.524703 
L 144.074056 217.613024 
L 145.074056 217.659169 
L 146.074056 217.70158 
L 147.074056 217.732072 
L 148.074056 217.758117 
L 149.074056 217.779317 
L 150.074056 217.833618 
L 151.074056 217.861556 
L 152.074056 217.89128 
L 153.074056 217.916675 
L 154.074056 217.927875 
L 155.074056 217.937999 
L 156.074056 217.937795 
L 157.074056 217.928285 
L 158.074056 217.916631 
L 159.074056 217.885602 
L 160.074056 217.874434 
L 161.074056 217.844317 
L 162.074056 217.78454 
L 163.074056 217.747348 
L 164.074056 217.708252 
L 165.074056 217.665812 
L 166.074056 217.633047 
L 167.074056 217.565621 
L 168.074056 217.526495 
L 169.074056 217.48382 
L 170.074056 217.41324 
L 171.074056 217.376849 
L 172.074056 217.318446 
L 173.074056 217.207493 
L 174.074056 217.136835 
L 175.074056 217.023895 
L 176.074056 216.978122 
L 177.074056 216.916839 
L 178.074056 216.86834 
L 179.074056 216.787517 
L 180.074056 216.668998 
L 181.074056 216.598787 
L 182.074056 216.515525 
L 183.074056 216.482383 
L 184.074056 216.431146 
L 185.074056 216.362747 
L 186.074056 216.296532 
L 187.074056 216.219615 
L 188.074056 216.192299 
L 189.074056 216.165822 
L 190.074056 216.143171 
L 191.074056 216.12364 
L 192.074056 216.097246 
L 193.074056 216.047475 
L 194.074056 216.012402 
L 195.074056 215.976536 
L 196.074056 215.961169 
L 197.074056 215.9454 
L 198.074056 215.941987 
L 199.074056 215.93957 
L 200.074056 215.940056 
L 201.074056 215.941985 
L 202.074056 215.955242 
L 203.074056 215.963633 
L 204.074056 215.985169 
L 205.074056 216.008202 
L 206.074056 216.025435 
L 207.074056 216.043898 
L 208.074056 216.06435 
L 209.074056 216.08095 
L 210.074056 216.143729 
L 211.074056 216.218994 
L 212.074056 216.251633 
L 213.074056 216.319197 
L 214.074056 216.373244 
L 215.074056 216.406948 
L 216.074056 216.497074 
L 217.074056 216.525609 
L 218.074056 216.557095 
L 219.074056 216.588106 
L 220.074056 216.642914 
L 221.074056 216.707501 
L 222.554168 216.745697 
" clip-path="url(#pb058cfe3c3)" style="fill: none; stroke: #ffffff; stroke-width: 3; stroke-linecap: round"/>
                   <path d="M 132.074056 216.939375 
L 133.074056 216.970811 
L 134.074056 217.007752 
L 135.074056 217.105498 
L 136.074056 217.13802 
L 137.074056 217.211645 
L 138.074056 217.25021 
L 139.074056 217.285623 
L 140.074056 217.343263 
L 141.074056 217.413649 
L 142.074056 217.465614 
L 143.074056 217.524703 
L 144.074056 217.613024 
L 145.074056 217.659169 
L 146.074056 217.70158 
L 147.074056 217.732072 
L 148.074056 217.758117 
L 149.074056 217.779317 
L 150.074056 217.833618 
L 151.074056 217.861556 
L 152.074056 217.89128 
L 153.074056 217.916675 
L 154.074056 217.927875 
L 155.074056 217.937999 
L 156.074056 217.937795 
L 157.074056 217.928285 
L 158.074056 217.916631 
L 159.074056 217.885602 
L 160.074056 217.874434 
L 161.074056 217.844317 
L 162.074056 217.78454 
L 163.074056 217.747348 
L 164.074056 217.708252 
L 165.074056 217.665812 
L 166.074056 217.633047 
L 167.074056 217.565621 
L 168.074056 217.526495 
L 169.074056 217.48382 
L 170.074056 217.41324 
L 171.074056 217.376849 
L 172.074056 217.318446 
L 173.074056 217.207493 
L 174.074056 217.136835 
L 175.074056 217.023895 
L 176.074056 216.978122 
L 177.074056 216.916839 
L 178.074056 216.86834 
L 179.074056 216.787517 
L 180.074056 216.668998 
L 181.074056 216.598787 
L 182.074056 216.515525 
L 183.074056 216.482383 
L 184.074056 216.431146 
L 185.074056 216.362747 
L 186.074056 216.296532 
L 187.074056 216.219615 
L 188.074056 216.192299 
L 189.074056 216.165822 
L 190.074056 216.143171 
L 191.074056 216.12364 
L 192.074056 216.097246 
L 193.074056 216.047475 
L 194.074056 216.012402 
L 195.074056 215.976536 
L 196.074056 215.961169 
L 197.074056 215.9454 
L 198.074056 215.941987 
L 199.074056 215.93957 
L 200.074056 215.940056 
L 201.074056 215.941985 
L 202.074056 215.955242 
L 203.074056 215.963633 
L 204.074056 215.985169 
L 205.074056 216.008202 
L 206.074056 216.025435 
L 207.074056 216.043898 
L 208.074056 216.06435 
L 209.074056 216.08095 
L 210.074056 216.143729 
L 211.074056 216.218994 
L 212.074056 216.251633 
L 213.074056 216.319197 
L 214.074056 216.373244 
L 215.074056 216.406948 
L 216.074056 216.497074 
L 217.074056 216.525609 
L 218.074056 216.557095 
L 219.074056 216.588106 
L 220.074056 216.642914 
L 221.074056 216.707501 
L 222.554168 216.745697 
" clip-path="url(#pb058cfe3c3)" style="fill: none; stroke: #8c564b; stroke-linecap: round"/>
                   <path d="M 218.554168 214.939375 
L 219.434536 215.414706 
L 220.312443 215.89496 
L 221.163157 216.429601 
L 222.465331 217.117048 
L 221.537978 217.143063 
L 220.626304 217.555783 
L 219.716039 217.971322 
L 218.373543 218.578126 
L 219.028442 217.939375 
L 219.080406 216.939375 
L 219.139496 214.939375 
L 218.554168 214.939375 
z
" clip-path="url(#pb058cfe3c3)" style="fill: #ffffff; stroke: #ffffff; stroke-width: 3; stroke-linecap: round"/>
                   <path d="M 218.554168 214.939375 
L 219.434536 215.414706 
L 220.312443 215.89496 
L 221.163157 216.429601 
L 222.465331 217.117048 
L 221.537978 217.143063 
L 220.626304 217.555783 
L 219.716039 217.971322 
L 218.373543 218.578126 
L 219.028442 217.939375 
L 219.080406 216.939375 
L 219.139496 214.939375 
L 218.554168 214.939375 
z
" clip-path="url(#pb058cfe3c3)" style="fill: #ffffff; stroke: #8c564b; stroke-linecap: round"/>
                   <g id="patch_19">
                    <path d="M 456.81711 216.939375 
L 455.81711 216.907939 
L 454.81711 216.870998 
L 453.81711 216.773252 
L 452.81711 216.74073 
L 451.81711 216.667105 
L 450.81711 216.62854 
L 449.81711 216.593127 
L 448.81711 216.535487 
L 447.81711 216.465101 
L 446.81711 216.413136 
L 445.81711 216.354047 
L 444.81711 216.265726 
L 443.81711 216.219581 
L 442.81711 216.17717 
L 441.81711 216.146678 
L 440.81711 216.120633 
L 439.81711 216.099433 
L 438.81711 216.045132 
L 437.81711 216.017194 
L 436.81711 215.98747 
L 435.81711 215.962075 
L 434.81711 215.950875 
L 433.81711 215.940751 
L 432.81711 215.940955 
L 431.81711 215.950465 
L 430.81711 215.962119 
L 429.81711 215.993148 
L 428.81711 216.004316 
L 427.81711 216.034433 
L 426.81711 216.09421 
L 425.81711 216.131402 
L 424.81711 216.170498 
L 423.81711 216.212938 
L 422.81711 216.245703 
L 421.81711 216.313129 
L 420.81711 216.352255 
L 419.81711 216.39493 
L 418.81711 216.46551 
L 417.81711 216.501901 
L 416.81711 216.560304 
L 415.81711 216.671257 
L 414.81711 216.741915 
L 413.81711 216.854855 
L 412.81711 216.900628 
L 411.81711 216.961911 
L 410.81711 217.01041 
L 409.81711 217.091233 
L 408.81711 217.209752 
L 407.81711 217.279963 
L 406.81711 217.363225 
L 405.81711 217.396367 
L 404.81711 217.447604 
L 403.81711 217.516003 
L 402.81711 217.582218 
L 401.81711 217.659135 
L 400.81711 217.686451 
L 399.81711 217.712928 
L 398.81711 217.735579 
L 397.81711 217.75511 
L 396.81711 217.781504 
L 395.81711 217.831275 
L 394.81711 217.866348 
L 393.81711 217.902214 
L 392.81711 217.917581 
L 391.81711 217.93335 
L 390.81711 217.936763 
L 389.81711 217.93918 
L 388.81711 217.938694 
L 387.81711 217.936765 
L 386.81711 217.923508 
L 385.81711 217.915117 
L 384.81711 217.893581 
L 383.81711 217.870548 
L 382.81711 217.853315 
L 381.81711 217.834852 
L 380.81711 217.8144 
L 379.81711 217.7978 
L 378.81711 217.735021 
L 377.81711 217.659756 
L 376.81711 217.627117 
L 375.81711 217.559553 
L 374.81711 217.505506 
L 373.81711 217.471802 
L 372.81711 217.381676 
L 371.81711 217.353141 
L 370.81711 217.321655 
L 369.81711 217.290644 
L 368.81711 217.235836 
L 367.81711 217.171249 
L 366.81711 217.133053 
L 365.81711 217.037119 
L 364.81711 216.987861 
L 363.81711 216.943792 
L 362.81711 216.903668 
L 361.81711 216.795301 
L 360.81711 216.753673 
L 359.81711 216.691531 
L 358.81711 216.621569 
L 357.81711 216.517065 
L 356.81711 216.480077 
L 355.81711 216.4342 
L 354.81711 216.365705 
L 353.81711 216.316959 
L 352.81711 216.239362 
L 351.81711 216.208821 
L 350.81711 216.139307 
L 349.81711 216.115334 
L 348.39318 216.086712 
" clip-path="url(#pb058cfe3c3)" style="fill: none; stroke: #ffffff; stroke-width: 3; stroke-linecap: round"/>
                    <path d="M 456.81711 216.939375 
L 455.81711 216.907939 
L 454.81711 216.870998 
L 453.81711 216.773252 
L 452.81711 216.74073 
L 451.81711 216.667105 
L 450.81711 216.62854 
L 449.81711 216.593127 
L 448.81711 216.535487 
L 447.81711 216.465101 
L 446.81711 216.413136 
L 445.81711 216.354047 
L 444.81711 216.265726 
L 443.81711 216.219581 
L 442.81711 216.17717 
L 441.81711 216.146678 
L 440.81711 216.120633 
L 439.81711 216.099433 
L 438.81711 216.045132 
L 437.81711 216.017194 
L 436.81711 215.98747 
L 435.81711 215.962075 
L 434.81711 215.950875 
L 433.81711 215.940751 
L 432.81711 215.940955 
L 431.81711 215.950465 
L 430.81711 215.962119 
L 429.81711 215.993148 
L 428.81711 216.004316 
L 427.81711 216.034433 
L 426.81711 216.09421 
L 425.81711 216.131402 
L 424.81711 216.170498 
L 423.81711 216.212938 
L 422.81711 216.245703 
L 421.81711 216.313129 
L 420.81711 216.352255 
L 419.81711 216.39493 
L 418.81711 216.46551 
L 417.81711 216.501901 
L 416.81711 216.560304 
L 415.81711 216.671257 
L 414.81711 216.741915 
L 413.81711 216.854855 
L 412.81711 216.900628 
L 411.81711 216.961911 
L 410.81711 217.01041 
L 409.81711 217.091233 
L 408.81711 217.209752 
L 407.81711 217.279963 
L 406.81711 217.363225 
L 405.81711 217.396367 
L 404.81711 217.447604 
L 403.81711 217.516003 
L 402.81711 217.582218 
L 401.81711 217.659135 
L 400.81711 217.686451 
L 399.81711 217.712928 
L 398.81711 217.735579 
L 397.81711 217.75511 
L 396.81711 217.781504 
L 395.81711 217.831275 
L 394.81711 217.866348 
L 393.81711 217.902214 
L 392.81711 217.917581 
L 391.81711 217.93335 
L 390.81711 217.936763 
L 389.81711 217.93918 
L 388.81711 217.938694 
L 387.81711 217.936765 
L 386.81711 217.923508 
L 385.81711 217.915117 
L 384.81711 217.893581 
L 383.81711 217.870548 
L 382.81711 217.853315 
L 381.81711 217.834852 
L 380.81711 217.8144 
L 379.81711 217.7978 
L 378.81711 217.735021 
L 377.81711 217.659756 
L 376.81711 217.627117 
L 375.81711 217.559553 
L 374.81711 217.505506 
L 373.81711 217.471802 
L 372.81711 217.381676 
L 371.81711 217.353141 
L 370.81711 217.321655 
L 369.81711 217.290644 
L 368.81711 217.235836 
L 367.81711 217.171249 
L 366.81711 217.133053 
L 365.81711 217.037119 
L 364.81711 216.987861 
L 363.81711 216.943792 
L 362.81711 216.903668 
L 361.81711 216.795301 
L 360.81711 216.753673 
L 359.81711 216.691531 
L 358.81711 216.621569 
L 357.81711 216.517065 
L 356.81711 216.480077 
L 355.81711 216.4342 
L 354.81711 216.365705 
L 353.81711 216.316959 
L 352.81711 216.239362 
L 351.81711 216.208821 
L 350.81711 216.139307 
L 349.81711 216.115334 
L 348.39318 216.086712 
" clip-path="url(#pb058cfe3c3)" style="fill: none; stroke: #7f7f7f; stroke-linecap: round"/>
                    <path d="M 352.39318 218.939375 
L 351.512811 218.464044 
L 350.634905 217.98379 
L 349.784191 217.449149 
L 348.482017 216.761702 
L 349.40937 216.735687 
L 350.321044 216.322967 
L 351.231308 215.907428 
L 352.573804 215.300624 
L 351.918905 215.939375 
L 351.866941 216.939375 
L 351.807851 218.939375 
L 352.39318 218.939375 
z
" clip-path="url(#pb058cfe3c3)" style="fill: #ffffff; stroke: #ffffff; stroke-width: 3; stroke-linecap: round"/>
                    <path d="M 352.39318 218.939375 
L 351.512811 218.464044 
L 350.634905 217.98379 
L 349.784191 217.449149 
L 348.482017 216.761702 
L 349.40937 216.735687 
L 350.321044 216.322967 
L 351.231308 215.907428 
L 352.573804 215.300624 
L 351.918905 215.939375 
L 351.866941 216.939375 
L 351.807851 218.939375 
L 352.39318 218.939375 
z
" clip-path="url(#pb058cfe3c3)" style="fill: #ffffff; stroke: #7f7f7f; stroke-linecap: round"/>
                    <g id="patch_20">
                     <path d="M 49.65125 269.014219 
L 49.65125 8.64 
" style="fill: none; stroke: #000000; stroke-width: 0.8; stroke-linejoin: miter; stroke-linecap: square"/>
                    </g>
                    <g id="text_11">
                     <g id="patch_21">
                      <path d="M 266.685184 40.148672 
L 304.266434 40.148672 
Q 305.866434 40.148672 305.866434 38.548672 
L 305.866434 30.806172 
Q 305.866434 29.206172 304.266434 29.206172 
L 266.685184 29.206172 
Q 265.085184 29.206172 265.085184 30.806172 
L 265.085184 38.548672 
Q 265.085184 40.148672 266.685184 40.148672 
z
" style="fill: #ffffff; opacity: 0.6"/>
                     </g>
                     <!-- Ancestral -->
                     <g transform="translate(266.685184 36.884922)scale(0.08 -0.08)">
                      <defs>
                       <path id="DejaVuSans-41" d="M 2188 4044 
L 1331 1722 
L 3047 1722 
L 2188 4044 
z
M 1831 4666 
L 2547 4666 
L 4325 0 
L 3669 0 
L 3244 1197 
L 1141 1197 
L 716 0 
L 50 0 
L 1831 4666 
z
" transform="scale(0.015625)"/>
                       <path id="DejaVuSans-63" d="M 3122 3366 
L 3122 2828 
Q 2878 2963 2633 3030 
Q 2388 3097 2138 3097 
Q 1578 3097 1268 2742 
Q 959 2388 959 1747 
Q 959 1106 1268 751 
Q 1578 397 2138 397 
Q 2388 397 2633 464 
Q 2878 531 3122 666 
L 3122 134 
Q 2881 22 2623 -34 
Q 2366 -91 2075 -91 
Q 1284 -91 818 406 
Q 353 903 353 1747 
Q 353 2603 823 3093 
Q 1294 3584 2113 3584 
Q 2378 3584 2631 3529 
Q 2884 3475 3122 3366 
z
" transform="scale(0.015625)"/>
                       <path id="DejaVuSans-6c" d="M 603 4863 
L 1178 4863 
L 1178 0 
L 603 0 
L 603 4863 
z
" transform="scale(0.015625)"/>
                      </defs>
                      <use xlink:href="#DejaVuSans-41"/>
                      <use xlink:href="#DejaVuSans-6e" x="68.408203"/>
                      <use xlink:href="#DejaVuSans-63" x="131.787109"/>
                      <use xlink:href="#DejaVuSans-65" x="186.767578"/>
                      <use xlink:href="#DejaVuSans-73" x="248.291016"/>
                      <use xlink:href="#DejaVuSans-74" x="300.390625"/>
                      <use xlink:href="#DejaVuSans-72" x="339.599609"/>
                      <use xlink:href="#DejaVuSans-61" x="380.712891"/>
                      <use xlink:href="#DejaVuSans-6c" x="441.992188"/>
                     </g>
                    </g>
                    <g id="text_12">
                     <g id="patch_22">
                      <path d="M 84.215614 92.334766 
L 116.134364 92.334766 
Q 117.734364 92.334766 117.734364 90.734766 
L 117.734364 82.769766 
Q 117.734364 81.169766 116.134364 81.169766 
L 84.215614 81.169766 
Q 82.615614 81.169766 82.615614 82.769766 
L 82.615614 90.734766 
Q 82.615614 92.334766 84.215614 92.334766 
z
" style="fill: #ffffff; opacity: 0.6"/>
                     </g>
                     <!-- Split_00 -->
                     <g transform="translate(84.215614 88.848516)scale(0.08 -0.08)">
                      <defs>
                       <path id="DejaVuSans-53" d="M 3425 4513 
L 3425 3897 
Q 3066 4069 2747 4153 
Q 2428 4238 2131 4238 
Q 1616 4238 1336 4038 
Q 1056 3838 1056 3469 
Q 1056 3159 1242 3001 
Q 1428 2844 1947 2747 
L 2328 2669 
Q 3034 2534 3370 2195 
Q 3706 1856 3706 1288 
Q 3706 609 3251 259 
Q 2797 -91 1919 -91 
Q 1588 -91 1214 -16 
Q 841 59 441 206 
L 441 856 
Q 825 641 1194 531 
Q 1563 422 1919 422 
Q 2459 422 2753 634 
Q 3047 847 3047 1241 
Q 3047 1584 2836 1778 
Q 2625 1972 2144 2069 
L 1759 2144 
Q 1053 2284 737 2584 
Q 422 2884 422 3419 
Q 422 4038 858 4394 
Q 1294 4750 2059 4750 
Q 2388 4750 2728 4690 
Q 3069 4631 3425 4513 
z
" transform="scale(0.015625)"/>
                       <path id="DejaVuSans-70" d="M 1159 525 
L 1159 -1331 
L 581 -1331 
L 581 3500 
L 1159 3500 
L 1159 2969 
Q 1341 3281 1617 3432 
Q 1894 3584 2278 3584 
Q 2916 3584 3314 3078 
Q 3713 2572 3713 1747 
Q 3713 922 3314 415 
Q 2916 -91 2278 -91 
Q 1894 -91 1617 61 
Q 1341 213 1159 525 
z
M 3116 1747 
Q 3116 2381 2855 2742 
Q 2594 3103 2138 3103 
Q 1681 3103 1420 2742 
Q 1159 2381 1159 1747 
Q 1159 1113 1420 752 
Q 1681 391 2138 391 
Q 2594 391 2855 752 
Q 3116 1113 3116 1747 
z
" transform="scale(0.015625)"/>
                      </defs>
                      <use xlink:href="#DejaVuSans-53"/>
                      <use xlink:href="#DejaVuSans-70" x="63.476562"/>
                      <use xlink:href="#DejaVuSans-6c" x="126.953125"/>
                      <use xlink:href="#DejaVuSans-69" x="154.736328"/>
                      <use xlink:href="#DejaVuSans-74" x="182.519531"/>
                      <use xlink:href="#DejaVuSans-5f" x="221.728516"/>
                      <use xlink:href="#DejaVuSans-30" x="271.728516"/>
                      <use xlink:href="#DejaVuSans-30" x="335.351562"/>
                     </g>
                    </g>
                    <g id="text_13">
                     <g id="patch_23">
                      <path d="M 269.516434 92.334766 
L 301.435184 92.334766 
Q 303.035184 92.334766 303.035184 90.734766 
L 303.035184 82.769766 
Q 303.035184 81.169766 301.435184 81.169766 
L 269.516434 81.169766 
Q 267.916434 81.169766 267.916434 82.769766 
L 267.916434 90.734766 
Q 267.916434 92.334766 269.516434 92.334766 
z
" style="fill: #ffffff; opacity: 0.6"/>
                     </g>
                     <!-- Split_01 -->
                     <g transform="translate(269.516434 88.848516)scale(0.08 -0.08)">
                      <use xlink:href="#DejaVuSans-53"/>
                      <use xlink:href="#DejaVuSans-70" x="63.476562"/>
                      <use xlink:href="#DejaVuSans-6c" x="126.953125"/>
                      <use xlink:href="#DejaVuSans-69" x="154.736328"/>
                      <use xlink:href="#DejaVuSans-74" x="182.519531"/>
                      <use xlink:href="#DejaVuSans-5f" x="221.728516"/>
                      <use xlink:href="#DejaVuSans-30" x="271.728516"/>
                      <use xlink:href="#DejaVuSans-31" x="335.351562"/>
                     </g>
                    </g>
                    <g id="text_14">
                     <g id="patch_24">
                      <path d="M 454.817254 92.334766 
L 486.736004 92.334766 
Q 488.336004 92.334766 488.336004 90.734766 
L 488.336004 82.769766 
Q 488.336004 81.169766 486.736004 81.169766 
L 454.817254 81.169766 
Q 453.217254 81.169766 453.217254 82.769766 
L 453.217254 90.734766 
Q 453.217254 92.334766 454.817254 92.334766 
z
" style="fill: #ffffff; opacity: 0.6"/>
                     </g>
                     <!-- Split_02 -->
                     <g transform="translate(454.817254 88.848516)scale(0.08 -0.08)">
                      <use xlink:href="#DejaVuSans-53"/>
                      <use xlink:href="#DejaVuSans-70" x="63.476562"/>
                      <use xlink:href="#DejaVuSans-6c" x="126.953125"/>
                      <use xlink:href="#DejaVuSans-69" x="154.736328"/>
                      <use xlink:href="#DejaVuSans-74" x="182.519531"/>
                      <use xlink:href="#DejaVuSans-5f" x="221.728516"/>
                      <use xlink:href="#DejaVuSans-30" x="271.728516"/>
                      <use xlink:href="#DejaVuSans-32" x="335.351562"/>
                     </g>
                    </g>
                    <g id="text_15">
                     <g id="patch_25">
                      <path d="M 268.443309 144.298359 
L 302.508309 144.298359 
Q 304.108309 144.298359 304.108309 142.698359 
L 304.108309 134.955859 
Q 304.108309 133.355859 302.508309 133.355859 
L 268.443309 133.355859 
Q 266.843309 133.355859 266.843309 134.955859 
L 266.843309 142.698359 
Q 266.843309 144.298359 268.443309 144.298359 
z
" style="fill: #ffffff; opacity: 0.6"/>
                     </g>
                     <!-- Merge_1 -->
                     <g transform="translate(268.443309 140.812109)scale(0.08 -0.08)">
                      <use xlink:href="#DejaVuSans-4d"/>
                      <use xlink:href="#DejaVuSans-65" x="86.279297"/>
                      <use xlink:href="#DejaVuSans-72" x="147.802734"/>
                      <use xlink:href="#DejaVuSans-67" x="187.166016"/>
                      <use xlink:href="#DejaVuSans-65" x="250.642578"/>
                      <use xlink:href="#DejaVuSans-5f" x="312.166016"/>
                      <use xlink:href="#DejaVuSans-31" x="362.166016"/>
                     </g>
                    </g>
                    <g id="text_16">
                     <g id="patch_26">
                      <path d="M 84.215614 196.484453 
L 116.134364 196.484453 
Q 117.734364 196.484453 117.734364 194.884453 
L 117.734364 186.919453 
Q 117.734364 185.319453 116.134364 185.319453 
L 84.215614 185.319453 
Q 82.615614 185.319453 82.615614 186.919453 
L 82.615614 194.884453 
Q 82.615614 196.484453 84.215614 196.484453 
z
" style="fill: #ffffff; opacity: 0.6"/>
                     </g>
                     <!-- Split_10 -->
                     <g transform="translate(84.215614 192.998203)scale(0.08 -0.08)">
                      <use xlink:href="#DejaVuSans-53"/>
                      <use xlink:href="#DejaVuSans-70" x="63.476562"/>
                      <use xlink:href="#DejaVuSans-6c" x="126.953125"/>
                      <use xlink:href="#DejaVuSans-69" x="154.736328"/>
                      <use xlink:href="#DejaVuSans-74" x="182.519531"/>
                      <use xlink:href="#DejaVuSans-5f" x="221.728516"/>
                      <use xlink:href="#DejaVuSans-31" x="271.728516"/>
                      <use xlink:href="#DejaVuSans-30" x="335.351562"/>
                     </g>
                    </g>
                    <g id="text_17">
                     <g id="patch_27">
                      <path d="M 269.516434 196.484453 
L 301.435184 196.484453 
Q 303.035184 196.484453 303.035184 194.884453 
L 303.035184 186.919453 
Q 303.035184 185.319453 301.435184 185.319453 
L 269.516434 185.319453 
Q 267.916434 185.319453 267.916434 186.919453 
L 267.916434 194.884453 
Q 267.916434 196.484453 269.516434 196.484453 
z
" style="fill: #ffffff; opacity: 0.6"/>
                     </g>
                     <!-- Split_11 -->
                     <g transform="translate(269.516434 192.998203)scale(0.08 -0.08)">
                      <use xlink:href="#DejaVuSans-53"/>
                      <use xlink:href="#DejaVuSans-70" x="63.476562"/>
                      <use xlink:href="#DejaVuSans-6c" x="126.953125"/>
                      <use xlink:href="#DejaVuSans-69" x="154.736328"/>
                      <use xlink:href="#DejaVuSans-74" x="182.519531"/>
                      <use xlink:href="#DejaVuSans-5f" x="221.728516"/>
                      <use xlink:href="#DejaVuSans-31" x="271.728516"/>
                      <use xlink:href="#DejaVuSans-31" x="335.351562"/>
                     </g>
                    </g>
                    <g id="text_18">
                     <g id="patch_28">
                      <path d="M 454.817254 196.484453 
L 486.736004 196.484453 
Q 488.336004 196.484453 488.336004 194.884453 
L 488.336004 186.919453 
Q 488.336004 185.319453 486.736004 185.319453 
L 454.817254 185.319453 
Q 453.217254 185.319453 453.217254 186.919453 
L 453.217254 194.884453 
Q 453.217254 196.484453 454.817254 196.484453 
z
" style="fill: #ffffff; opacity: 0.6"/>
                     </g>
                     <!-- Split_12 -->
                     <g transform="translate(454.817254 192.998203)scale(0.08 -0.08)">
                      <use xlink:href="#DejaVuSans-53"/>
                      <use xlink:href="#DejaVuSans-70" x="63.476562"/>
                      <use xlink:href="#DejaVuSans-6c" x="126.953125"/>
                      <use xlink:href="#DejaVuSans-69" x="154.736328"/>
                      <use xlink:href="#DejaVuSans-74" x="182.519531"/>
                      <use xlink:href="#DejaVuSans-5f" x="221.728516"/>
                      <use xlink:href="#DejaVuSans-31" x="271.728516"/>
                      <use xlink:href="#DejaVuSans-32" x="335.351562"/>
                     </g>
                    </g>
                   </g>
                  </g>
                  <defs>
                   <clipPath id="pb058cfe3c3">
                    <rect x="49.65125" y="8.64" width="453.70875" height="260.374219"/>
                   </clipPath>
                  </defs>
                 </g>
                </g>
               </g>
              </g>
             </g>
            </g>
           </g>
          </g>
         </g>
        </g>
       </g>
      </g>
     </g>
    </g>
   </g>
  </g>
 </g>
</svg>
