<?xml version="1.0" encoding="utf-8" standalone="no"?>
<!DOCTYPE svg PUBLIC "-//W3C//DTD SVG 1.1//EN"
  "http://www.w3.org/Graphics/SVG/1.1/DTD/svg11.dtd">
<svg xmlns:xlink="http://www.w3.org/1999/xlink" width="512pt" height="288pt" viewBox="0 0 512 288" xmlns="http://www.w3.org/2000/svg" version="1.1">
 <metadata>
  <rdf:RDF xmlns:dc="http://purl.org/dc/elements/1.1/" xmlns:cc="http://creativecommons.org/ns#" xmlns:rdf="http://www.w3.org/1999/02/22-rdf-syntax-ns#">
   <cc:Work>
    <dc:type rdf:resource="http://purl.org/dc/dcmitype/StillImage"/>
    <dc:date>2022-08-09T14:15:17.454246</dc:date>
    <dc:format>image/svg+xml</dc:format>
    <dc:creator>
     <cc:Agent>
      <dc:title>Matplotlib v3.5.1, https://matplotlib.org/</dc:title>
     </cc:Agent>
    </dc:creator>
   </cc:Work>
  </rdf:RDF>
 </metadata>
 <defs>
  <style type="text/css">*{stroke-linejoin: round; stroke-linecap: butt}</style>
 </defs>
 <g id="figure_1">
  <g id="patch_1">
   <path d="M 0 288 
L 512 288 
L 512 0 
L 0 0 
L 0 288 
z
" style="fill: none"/>
  </g>
  <g id="axes_1">
   <g id="patch_2">
    <path d="M 49.65125 269.014219 
L 503.36 269.014219 
L 503.36 8.64 
L 49.65125 8.64 
z
" style="fill: #ffffff"/>
   </g>
   <g id="patch_3">
    <path d="M 225.674581 8.64 
L 225.674581 60.714844 
M 345.277037 8.64 
L 345.277037 60.714844 
" clip-path="url(#pa1318178aa)" style="fill: none; stroke: #ffffff; stroke-width: 3; stroke-linejoin: miter"/>
    <path d="M 225.674581 8.64 
L 225.674581 60.714844 
M 345.277037 8.64 
L 345.277037 60.714844 
" clip-path="url(#pa1318178aa)" style="fill: none; stroke: #1f77b4; stroke-linejoin: miter"/>
    <g id="PolyCollection_1">
     <path d="M 345.277037 8.64 
L 225.674581 8.64 
L 225.674581 60.714844 
L 345.277037 60.714844 
L 345.277037 60.714844 
L 345.277037 8.64 
z
" clip-path="url(#pa1318178aa)" style="fill: #1f77b4; fill-opacity: 0.5"/>
    </g>
    <g id="patch_4">
     <path d="M 70.274375 60.714844 
L 70.274375 87.306253 
M 130.075603 60.714844 
L 130.075603 87.306253 
" clip-path="url(#pa1318178aa)" style="fill: none; stroke: #ffffff; stroke-width: 3; stroke-linejoin: miter"/>
     <path d="M 70.274375 60.714844 
L 70.274375 87.306253 
M 130.075603 60.714844 
L 130.075603 87.306253 
" clip-path="url(#pa1318178aa)" style="fill: none; stroke: #ff7f0e; stroke-linejoin: miter"/>
     <g id="PolyCollection_2">
      <path d="M 130.075603 60.714844 
L 70.274375 60.714844 
L 70.274375 87.306253 
L 130.075603 87.306253 
L 130.075603 87.306253 
L 130.075603 60.714844 
z
" clip-path="url(#pa1318178aa)" style="fill: #ff7f0e; fill-opacity: 0.5"/>
     </g>
     <g id="patch_5">
      <path d="M 267.535441 60.714844 
L 267.535441 87.306253 
M 303.416178 60.714844 
L 303.416178 87.306253 
" clip-path="url(#pa1318178aa)" style="fill: none; stroke: #ffffff; stroke-width: 3; stroke-linejoin: miter"/>
      <path d="M 267.535441 60.714844 
L 267.535441 87.306253 
M 303.416178 60.714844 
L 303.416178 87.306253 
" clip-path="url(#pa1318178aa)" style="fill: none; stroke: #2ca02c; stroke-linejoin: miter"/>
      <g id="PolyCollection_3">
       <path d="M 303.416178 60.714844 
L 267.535441 60.714844 
L 267.535441 87.306253 
L 303.416178 87.306253 
L 303.416178 87.306253 
L 303.416178 60.714844 
z
" clip-path="url(#pa1318178aa)" style="fill: #2ca02c; fill-opacity: 0.5"/>
      </g>
      <g id="patch_6">
       <path d="M 458.816384 60.714844 
L 458.816384 87.306253 
M 482.736875 60.714844 
L 482.736875 87.306253 
" clip-path="url(#pa1318178aa)" style="fill: none; stroke: #ffffff; stroke-width: 3; stroke-linejoin: miter"/>
       <path d="M 458.816384 60.714844 
L 458.816384 87.306253 
M 482.736875 60.714844 
L 482.736875 87.306253 
" clip-path="url(#pa1318178aa)" style="fill: none; stroke: #d62728; stroke-linejoin: miter"/>
       <g id="PolyCollection_4">
        <path d="M 482.736875 60.714844 
L 458.816384 60.714844 
L 458.816384 87.306253 
L 482.736875 87.306253 
L 482.736875 87.306253 
L 482.736875 60.714844 
z
" clip-path="url(#pa1318178aa)" style="fill: #d62728; fill-opacity: 0.5"/>
       </g>
       <g id="patch_7">
        <path d="M 225.674581 87.306253 
L 225.674581 91.738155 
M 345.277037 87.306253 
L 345.277037 91.738155 
" clip-path="url(#pa1318178aa)" style="fill: none; stroke: #ffffff; stroke-width: 3; stroke-linejoin: miter"/>
        <path d="M 225.674581 87.306253 
L 225.674581 91.738155 
M 345.277037 87.306253 
L 345.277037 91.738155 
" clip-path="url(#pa1318178aa)" style="fill: none; stroke: #9467bd; stroke-linejoin: miter"/>
        <g id="PolyCollection_5">
         <path d="M 345.277037 87.306253 
L 225.674581 87.306253 
L 225.674581 91.738155 
L 345.277037 91.738155 
L 345.277037 91.738155 
L 345.277037 87.306253 
z
" clip-path="url(#pa1318178aa)" style="fill: #9467bd; fill-opacity: 0.5"/>
        </g>
        <g id="patch_8">
         <path d="M 70.274375 91.738155 
L 70.274375 180.376187 
M 130.075603 91.738155 
L 130.075603 180.376187 
" clip-path="url(#pa1318178aa)" style="fill: none; stroke: #ffffff; stroke-width: 3; stroke-linejoin: miter"/>
         <path d="M 70.274375 91.738155 
L 70.274375 180.376187 
M 130.075603 91.738155 
L 130.075603 180.376187 
" clip-path="url(#pa1318178aa)" style="fill: none; stroke: #8c564b; stroke-linejoin: miter"/>
         <g id="PolyCollection_6">
          <path d="M 130.075603 91.738155 
L 70.274375 91.738155 
L 70.274375 180.376187 
L 130.075603 180.376187 
L 130.075603 180.376187 
L 130.075603 91.738155 
z
" clip-path="url(#pa1318178aa)" style="fill: #8c564b; fill-opacity: 0.5"/>
         </g>
         <g id="patch_9">
          <path d="M 267.535441 91.738155 
L 267.535441 180.376187 
M 303.416178 91.738155 
L 303.416178 180.376187 
" clip-path="url(#pa1318178aa)" style="fill: none; stroke: #ffffff; stroke-width: 3; stroke-linejoin: miter"/>
          <path d="M 267.535441 91.738155 
L 267.535441 180.376187 
M 303.416178 91.738155 
L 303.416178 180.376187 
" clip-path="url(#pa1318178aa)" style="fill: none; stroke: #e377c2; stroke-linejoin: miter"/>
          <g id="PolyCollection_7">
           <path d="M 303.416178 91.738155 
L 267.535441 91.738155 
L 267.535441 180.376187 
L 303.416178 180.376187 
L 303.416178 180.376187 
L 303.416178 91.738155 
z
" clip-path="url(#pa1318178aa)" style="fill: #e377c2; fill-opacity: 0.5"/>
          </g>
          <g id="patch_10">
           <path d="M 458.816384 91.738155 
L 458.816384 180.376187 
M 482.736875 91.738155 
L 482.736875 180.376187 
" clip-path="url(#pa1318178aa)" style="fill: none; stroke: #ffffff; stroke-width: 3; stroke-linejoin: miter"/>
           <path d="M 458.816384 91.738155 
L 458.816384 180.376187 
M 482.736875 91.738155 
L 482.736875 180.376187 
" clip-path="url(#pa1318178aa)" style="fill: none; stroke: #7f7f7f; stroke-linejoin: miter"/>
           <g id="PolyCollection_8">
            <path d="M 482.736875 91.738155 
L 458.816384 91.738155 
L 458.816384 180.376187 
L 482.736875 180.376187 
L 482.736875 180.376187 
L 482.736875 91.738155 
z
" clip-path="url(#pa1318178aa)" style="fill: #7f7f7f; fill-opacity: 0.5"/>
           </g>
           <g id="patch_11">
            <path d="M 225.674581 180.376187 
L 225.674581 269.014219 
M 345.277037 180.376187 
L 345.277037 269.014219 
" clip-path="url(#pa1318178aa)" style="fill: none; stroke: #ffffff; stroke-width: 3; stroke-linejoin: miter"/>
            <path d="M 225.674581 180.376187 
L 225.674581 269.014219 
M 345.277037 180.376187 
L 345.277037 269.014219 
" clip-path="url(#pa1318178aa)" style="fill: none; stroke: #bcbd22; stroke-linejoin: miter"/>
            <g id="PolyCollection_9">
             <path d="M 345.277037 180.376187 
L 225.674581 180.376187 
L 225.674581 269.014219 
L 345.277037 269.014219 
L 345.277037 269.014219 
L 345.277037 180.376187 
z
" clip-path="url(#pa1318178aa)" style="fill: #bcbd22; fill-opacity: 0.5"/>
            </g>
            <g id="matplotlib.axis_1">
             <g id="xtick_1">
              <g id="line2d_1"/>
              <g id="text_1">
               <!-- Merge_2 -->
               <g transform="translate(270.572372 277.709531)scale(0.07 -0.07)">
                <defs>
                 <path id="DejaVuSans-4d" d="M 628 4666 
L 1569 4666 
L 2759 1491 
L 3956 4666 
L 4897 4666 
L 4897 0 
L 4281 0 
L 4281 4097 
L 3078 897 
L 2444 897 
L 1241 4097 
L 1241 0 
L 628 0 
L 628 4666 
z
" transform="scale(0.015625)"/>
                 <path id="DejaVuSans-65" d="M 3597 1894 
L 3597 1613 
L 953 1613 
Q 991 1019 1311 708 
Q 1631 397 2203 397 
Q 2534 397 2845 478 
Q 3156 559 3463 722 
L 3463 178 
Q 3153 47 2828 -22 
Q 2503 -91 2169 -91 
Q 1331 -91 842 396 
Q 353 884 353 1716 
Q 353 2575 817 3079 
Q 1281 3584 2069 3584 
Q 2775 3584 3186 3129 
Q 3597 2675 3597 1894 
z
M 3022 2063 
Q 3016 2534 2758 2815 
Q 2500 3097 2075 3097 
Q 1594 3097 1305 2825 
Q 1016 2553 972 2059 
L 3022 2063 
z
" transform="scale(0.015625)"/>
                 <path id="DejaVuSans-72" d="M 2631 2963 
Q 2534 3019 2420 3045 
Q 2306 3072 2169 3072 
Q 1681 3072 1420 2755 
Q 1159 2438 1159 1844 
L 1159 0 
L 581 0 
L 581 3500 
L 1159 3500 
L 1159 2956 
Q 1341 3275 1631 3429 
Q 1922 3584 2338 3584 
Q 2397 3584 2469 3576 
Q 2541 3569 2628 3553 
L 2631 2963 
z
" transform="scale(0.015625)"/>
                 <path id="DejaVuSans-67" d="M 2906 1791 
Q 2906 2416 2648 2759 
Q 2391 3103 1925 3103 
Q 1463 3103 1205 2759 
Q 947 2416 947 1791 
Q 947 1169 1205 825 
Q 1463 481 1925 481 
Q 2391 481 2648 825 
Q 2906 1169 2906 1791 
z
M 3481 434 
Q 3481 -459 3084 -895 
Q 2688 -1331 1869 -1331 
Q 1566 -1331 1297 -1286 
Q 1028 -1241 775 -1147 
L 775 -588 
Q 1028 -725 1275 -790 
Q 1522 -856 1778 -856 
Q 2344 -856 2625 -561 
Q 2906 -266 2906 331 
L 2906 616 
Q 2728 306 2450 153 
Q 2172 0 1784 0 
Q 1141 0 747 490 
Q 353 981 353 1791 
Q 353 2603 747 3093 
Q 1141 3584 1784 3584 
Q 2172 3584 2450 3431 
Q 2728 3278 2906 2969 
L 2906 3500 
L 3481 3500 
L 3481 434 
z
" transform="scale(0.015625)"/>
                 <path id="DejaVuSans-5f" d="M 3263 -1063 
L 3263 -1509 
L -63 -1509 
L -63 -1063 
L 3263 -1063 
z
" transform="scale(0.015625)"/>
                 <path id="DejaVuSans-32" d="M 1228 531 
L 3431 531 
L 3431 0 
L 469 0 
L 469 531 
Q 828 903 1448 1529 
Q 2069 2156 2228 2338 
Q 2531 2678 2651 2914 
Q 2772 3150 2772 3378 
Q 2772 3750 2511 3984 
Q 2250 4219 1831 4219 
Q 1534 4219 1204 4116 
Q 875 4013 500 3803 
L 500 4441 
Q 881 4594 1212 4672 
Q 1544 4750 1819 4750 
Q 2544 4750 2975 4387 
Q 3406 4025 3406 3419 
Q 3406 3131 3298 2873 
Q 3191 2616 2906 2266 
Q 2828 2175 2409 1742 
Q 1991 1309 1228 531 
z
" transform="scale(0.015625)"/>
                </defs>
                <use xlink:href="#DejaVuSans-4d"/>
                <use xlink:href="#DejaVuSans-65" x="86.279297"/>
                <use xlink:href="#DejaVuSans-72" x="147.802734"/>
                <use xlink:href="#DejaVuSans-67" x="187.166016"/>
                <use xlink:href="#DejaVuSans-65" x="250.642578"/>
                <use xlink:href="#DejaVuSans-5f" x="312.166016"/>
                <use xlink:href="#DejaVuSans-32" x="362.166016"/>
               </g>
              </g>
             </g>
            </g>
            <g id="matplotlib.axis_2">
             <g id="ytick_1">
              <g id="line2d_2">
               <defs>
                <path id="md6f1f4a875" d="M 0 0 
L -3.5 0 
" style="stroke: #000000; stroke-width: 0.8"/>
               </defs>
               <g>
                <use xlink:href="#md6f1f4a875" x="49.65125" y="269.014219" style="stroke: #000000; stroke-width: 0.8"/>
               </g>
              </g>
              <g id="text_2">
               <!-- 0 -->
               <g transform="translate(38.1975 271.673672)scale(0.07 -0.07)">
                <defs>
                 <path id="DejaVuSans-30" d="M 2034 4250 
Q 1547 4250 1301 3770 
Q 1056 3291 1056 2328 
Q 1056 1369 1301 889 
Q 1547 409 2034 409 
Q 2525 409 2770 889 
Q 3016 1369 3016 2328 
Q 3016 3291 2770 3770 
Q 2525 4250 2034 4250 
z
M 2034 4750 
Q 2819 4750 3233 4129 
Q 3647 3509 3647 2328 
Q 3647 1150 3233 529 
Q 2819 -91 2034 -91 
Q 1250 -91 836 529 
Q 422 1150 422 2328 
Q 422 3509 836 4129 
Q 1250 4750 2034 4750 
z
" transform="scale(0.015625)"/>
                </defs>
                <use xlink:href="#DejaVuSans-30"/>
               </g>
              </g>
             </g>
             <g id="ytick_2">
              <g id="line2d_3">
               <g>
                <use xlink:href="#md6f1f4a875" x="49.65125" y="239.468208" style="stroke: #000000; stroke-width: 0.8"/>
               </g>
              </g>
              <g id="text_3">
               <!-- 10000 -->
               <g transform="translate(20.3825 242.127661)scale(0.07 -0.07)">
                <defs>
                 <path id="DejaVuSans-31" d="M 794 531 
L 1825 531 
L 1825 4091 
L 703 3866 
L 703 4441 
L 1819 4666 
L 2450 4666 
L 2450 531 
L 3481 531 
L 3481 0 
L 794 0 
L 794 531 
z
" transform="scale(0.015625)"/>
                </defs>
                <use xlink:href="#DejaVuSans-31"/>
                <use xlink:href="#DejaVuSans-30" x="63.623047"/>
                <use xlink:href="#DejaVuSans-30" x="127.246094"/>
                <use xlink:href="#DejaVuSans-30" x="190.869141"/>
                <use xlink:href="#DejaVuSans-30" x="254.492188"/>
               </g>
              </g>
             </g>
             <g id="ytick_3">
              <g id="line2d_4">
               <g>
                <use xlink:href="#md6f1f4a875" x="49.65125" y="209.922197" style="stroke: #000000; stroke-width: 0.8"/>
               </g>
              </g>
              <g id="text_4">
               <!-- 20000 -->
               <g transform="translate(20.3825 212.581651)scale(0.07 -0.07)">
                <use xlink:href="#DejaVuSans-32"/>
                <use xlink:href="#DejaVuSans-30" x="63.623047"/>
                <use xlink:href="#DejaVuSans-30" x="127.246094"/>
                <use xlink:href="#DejaVuSans-30" x="190.869141"/>
                <use xlink:href="#DejaVuSans-30" x="254.492188"/>
               </g>
              </g>
             </g>
             <g id="ytick_4">
              <g id="line2d_5">
               <g>
                <use xlink:href="#md6f1f4a875" x="49.65125" y="180.376187" style="stroke: #000000; stroke-width: 0.8"/>
               </g>
              </g>
              <g id="text_5">
               <!-- 30000 -->
               <g transform="translate(20.3825 183.03564)scale(0.07 -0.07)">
                <defs>
                 <path id="DejaVuSans-33" d="M 2597 2516 
Q 3050 2419 3304 2112 
Q 3559 1806 3559 1356 
Q 3559 666 3084 287 
Q 2609 -91 1734 -91 
Q 1441 -91 1130 -33 
Q 819 25 488 141 
L 488 750 
Q 750 597 1062 519 
Q 1375 441 1716 441 
Q 2309 441 2620 675 
Q 2931 909 2931 1356 
Q 2931 1769 2642 2001 
Q 2353 2234 1838 2234 
L 1294 2234 
L 1294 2753 
L 1863 2753 
Q 2328 2753 2575 2939 
Q 2822 3125 2822 3475 
Q 2822 3834 2567 4026 
Q 2313 4219 1838 4219 
Q 1578 4219 1281 4162 
Q 984 4106 628 3988 
L 628 4550 
Q 988 4650 1302 4700 
Q 1616 4750 1894 4750 
Q 2613 4750 3031 4423 
Q 3450 4097 3450 3541 
Q 3450 3153 3228 2886 
Q 3006 2619 2597 2516 
z
" transform="scale(0.015625)"/>
                </defs>
                <use xlink:href="#DejaVuSans-33"/>
                <use xlink:href="#DejaVuSans-30" x="63.623047"/>
                <use xlink:href="#DejaVuSans-30" x="127.246094"/>
                <use xlink:href="#DejaVuSans-30" x="190.869141"/>
                <use xlink:href="#DejaVuSans-30" x="254.492188"/>
               </g>
              </g>
             </g>
             <g id="ytick_5">
              <g id="line2d_6">
               <g>
                <use xlink:href="#md6f1f4a875" x="49.65125" y="150.830176" style="stroke: #000000; stroke-width: 0.8"/>
               </g>
              </g>
              <g id="text_6">
               <!-- 40000 -->
               <g transform="translate(20.3825 153.489629)scale(0.07 -0.07)">
                <defs>
                 <path id="DejaVuSans-34" d="M 2419 4116 
L 825 1625 
L 2419 1625 
L 2419 4116 
z
M 2253 4666 
L 3047 4666 
L 3047 1625 
L 3713 1625 
L 3713 1100 
L 3047 1100 
L 3047 0 
L 2419 0 
L 2419 1100 
L 313 1100 
L 313 1709 
L 2253 4666 
z
" transform="scale(0.015625)"/>
                </defs>
                <use xlink:href="#DejaVuSans-34"/>
                <use xlink:href="#DejaVuSans-30" x="63.623047"/>
                <use xlink:href="#DejaVuSans-30" x="127.246094"/>
                <use xlink:href="#DejaVuSans-30" x="190.869141"/>
                <use xlink:href="#DejaVuSans-30" x="254.492188"/>
               </g>
              </g>
             </g>
             <g id="ytick_6">
              <g id="line2d_7">
               <g>
                <use xlink:href="#md6f1f4a875" x="49.65125" y="121.284166" style="stroke: #000000; stroke-width: 0.8"/>
               </g>
              </g>
              <g id="text_7">
               <!-- 50000 -->
               <g transform="translate(20.3825 123.943619)scale(0.07 -0.07)">
                <defs>
                 <path id="DejaVuSans-35" d="M 691 4666 
L 3169 4666 
L 3169 4134 
L 1269 4134 
L 1269 2991 
Q 1406 3038 1543 3061 
Q 1681 3084 1819 3084 
Q 2600 3084 3056 2656 
Q 3513 2228 3513 1497 
Q 3513 744 3044 326 
Q 2575 -91 1722 -91 
Q 1428 -91 1123 -41 
Q 819 9 494 109 
L 494 744 
Q 775 591 1075 516 
Q 1375 441 1709 441 
Q 2250 441 2565 725 
Q 2881 1009 2881 1497 
Q 2881 1984 2565 2268 
Q 2250 2553 1709 2553 
Q 1456 2553 1204 2497 
Q 953 2441 691 2322 
L 691 4666 
z
" transform="scale(0.015625)"/>
                </defs>
                <use xlink:href="#DejaVuSans-35"/>
                <use xlink:href="#DejaVuSans-30" x="63.623047"/>
                <use xlink:href="#DejaVuSans-30" x="127.246094"/>
                <use xlink:href="#DejaVuSans-30" x="190.869141"/>
                <use xlink:href="#DejaVuSans-30" x="254.492188"/>
               </g>
              </g>
             </g>
             <g id="ytick_7">
              <g id="line2d_8">
               <g>
                <use xlink:href="#md6f1f4a875" x="49.65125" y="91.738155" style="stroke: #000000; stroke-width: 0.8"/>
               </g>
              </g>
              <g id="text_8">
               <!-- 60000 -->
               <g transform="translate(20.3825 94.397608)scale(0.07 -0.07)">
                <defs>
                 <path id="DejaVuSans-36" d="M 2113 2584 
Q 1688 2584 1439 2293 
Q 1191 2003 1191 1497 
Q 1191 994 1439 701 
Q 1688 409 2113 409 
Q 2538 409 2786 701 
Q 3034 994 3034 1497 
Q 3034 2003 2786 2293 
Q 2538 2584 2113 2584 
z
M 3366 4563 
L 3366 3988 
Q 3128 4100 2886 4159 
Q 2644 4219 2406 4219 
Q 1781 4219 1451 3797 
Q 1122 3375 1075 2522 
Q 1259 2794 1537 2939 
Q 1816 3084 2150 3084 
Q 2853 3084 3261 2657 
Q 3669 2231 3669 1497 
Q 3669 778 3244 343 
Q 2819 -91 2113 -91 
Q 1303 -91 875 529 
Q 447 1150 447 2328 
Q 447 3434 972 4092 
Q 1497 4750 2381 4750 
Q 2619 4750 2861 4703 
Q 3103 4656 3366 4563 
z
" transform="scale(0.015625)"/>
                </defs>
                <use xlink:href="#DejaVuSans-36"/>
                <use xlink:href="#DejaVuSans-30" x="63.623047"/>
                <use xlink:href="#DejaVuSans-30" x="127.246094"/>
                <use xlink:href="#DejaVuSans-30" x="190.869141"/>
                <use xlink:href="#DejaVuSans-30" x="254.492188"/>
               </g>
              </g>
             </g>
             <g id="ytick_8">
              <g id="line2d_9">
               <g>
                <use xlink:href="#md6f1f4a875" x="49.65125" y="62.192144" style="stroke: #000000; stroke-width: 0.8"/>
               </g>
              </g>
              <g id="text_9">
               <!-- 70000 -->
               <g transform="translate(20.3825 64.851597)scale(0.07 -0.07)">
                <defs>
                 <path id="DejaVuSans-37" d="M 525 4666 
L 3525 4666 
L 3525 4397 
L 1831 0 
L 1172 0 
L 2766 4134 
L 525 4134 
L 525 4666 
z
" transform="scale(0.015625)"/>
                </defs>
                <use xlink:href="#DejaVuSans-37"/>
                <use xlink:href="#DejaVuSans-30" x="63.623047"/>
                <use xlink:href="#DejaVuSans-30" x="127.246094"/>
                <use xlink:href="#DejaVuSans-30" x="190.869141"/>
                <use xlink:href="#DejaVuSans-30" x="254.492188"/>
               </g>
              </g>
             </g>
             <g id="ytick_9">
              <g id="line2d_10">
               <g>
                <use xlink:href="#md6f1f4a875" x="49.65125" y="32.646134" style="stroke: #000000; stroke-width: 0.8"/>
               </g>
              </g>
              <g id="text_10">
               <!-- 80000 -->
               <g transform="translate(20.3825 35.305587)scale(0.07 -0.07)">
                <defs>
                 <path id="DejaVuSans-38" d="M 2034 2216 
Q 1584 2216 1326 1975 
Q 1069 1734 1069 1313 
Q 1069 891 1326 650 
Q 1584 409 2034 409 
Q 2484 409 2743 651 
Q 3003 894 3003 1313 
Q 3003 1734 2745 1975 
Q 2488 2216 2034 2216 
z
M 1403 2484 
Q 997 2584 770 2862 
Q 544 3141 544 3541 
Q 544 4100 942 4425 
Q 1341 4750 2034 4750 
Q 2731 4750 3128 4425 
Q 3525 4100 3525 3541 
Q 3525 3141 3298 2862 
Q 3072 2584 2669 2484 
Q 3125 2378 3379 2068 
Q 3634 1759 3634 1313 
Q 3634 634 3220 271 
Q 2806 -91 2034 -91 
Q 1263 -91 848 271 
Q 434 634 434 1313 
Q 434 1759 690 2068 
Q 947 2378 1403 2484 
z
M 1172 3481 
Q 1172 3119 1398 2916 
Q 1625 2713 2034 2713 
Q 2441 2713 2670 2916 
Q 2900 3119 2900 3481 
Q 2900 3844 2670 4047 
Q 2441 4250 2034 4250 
Q 1625 4250 1398 4047 
Q 1172 3844 1172 3481 
z
" transform="scale(0.015625)"/>
                </defs>
                <use xlink:href="#DejaVuSans-38"/>
                <use xlink:href="#DejaVuSans-30" x="63.623047"/>
                <use xlink:href="#DejaVuSans-30" x="127.246094"/>
                <use xlink:href="#DejaVuSans-30" x="190.869141"/>
                <use xlink:href="#DejaVuSans-30" x="254.492188"/>
               </g>
              </g>
             </g>
             <g id="text_11">
              <!-- time ago (generations) -->
              <g transform="translate(14.71875 184.803984)rotate(-90)scale(0.08 -0.08)">
               <defs>
                <path id="DejaVuSans-74" d="M 1172 4494 
L 1172 3500 
L 2356 3500 
L 2356 3053 
L 1172 3053 
L 1172 1153 
Q 1172 725 1289 603 
Q 1406 481 1766 481 
L 2356 481 
L 2356 0 
L 1766 0 
Q 1100 0 847 248 
Q 594 497 594 1153 
L 594 3053 
L 172 3053 
L 172 3500 
L 594 3500 
L 594 4494 
L 1172 4494 
z
" transform="scale(0.015625)"/>
                <path id="DejaVuSans-69" d="M 603 3500 
L 1178 3500 
L 1178 0 
L 603 0 
L 603 3500 
z
M 603 4863 
L 1178 4863 
L 1178 4134 
L 603 4134 
L 603 4863 
z
" transform="scale(0.015625)"/>
                <path id="DejaVuSans-6d" d="M 3328 2828 
Q 3544 3216 3844 3400 
Q 4144 3584 4550 3584 
Q 5097 3584 5394 3201 
Q 5691 2819 5691 2113 
L 5691 0 
L 5113 0 
L 5113 2094 
Q 5113 2597 4934 2840 
Q 4756 3084 4391 3084 
Q 3944 3084 3684 2787 
Q 3425 2491 3425 1978 
L 3425 0 
L 2847 0 
L 2847 2094 
Q 2847 2600 2669 2842 
Q 2491 3084 2119 3084 
Q 1678 3084 1418 2786 
Q 1159 2488 1159 1978 
L 1159 0 
L 581 0 
L 581 3500 
L 1159 3500 
L 1159 2956 
Q 1356 3278 1631 3431 
Q 1906 3584 2284 3584 
Q 2666 3584 2933 3390 
Q 3200 3197 3328 2828 
z
" transform="scale(0.015625)"/>
                <path id="DejaVuSans-20" transform="scale(0.015625)"/>
                <path id="DejaVuSans-61" d="M 2194 1759 
Q 1497 1759 1228 1600 
Q 959 1441 959 1056 
Q 959 750 1161 570 
Q 1363 391 1709 391 
Q 2188 391 2477 730 
Q 2766 1069 2766 1631 
L 2766 1759 
L 2194 1759 
z
M 3341 1997 
L 3341 0 
L 2766 0 
L 2766 531 
Q 2569 213 2275 61 
Q 1981 -91 1556 -91 
Q 1019 -91 701 211 
Q 384 513 384 1019 
Q 384 1609 779 1909 
Q 1175 2209 1959 2209 
L 2766 2209 
L 2766 2266 
Q 2766 2663 2505 2880 
Q 2244 3097 1772 3097 
Q 1472 3097 1187 3025 
Q 903 2953 641 2809 
L 641 3341 
Q 956 3463 1253 3523 
Q 1550 3584 1831 3584 
Q 2591 3584 2966 3190 
Q 3341 2797 3341 1997 
z
" transform="scale(0.015625)"/>
                <path id="DejaVuSans-6f" d="M 1959 3097 
Q 1497 3097 1228 2736 
Q 959 2375 959 1747 
Q 959 1119 1226 758 
Q 1494 397 1959 397 
Q 2419 397 2687 759 
Q 2956 1122 2956 1747 
Q 2956 2369 2687 2733 
Q 2419 3097 1959 3097 
z
M 1959 3584 
Q 2709 3584 3137 3096 
Q 3566 2609 3566 1747 
Q 3566 888 3137 398 
Q 2709 -91 1959 -91 
Q 1206 -91 779 398 
Q 353 888 353 1747 
Q 353 2609 779 3096 
Q 1206 3584 1959 3584 
z
" transform="scale(0.015625)"/>
                <path id="DejaVuSans-28" d="M 1984 4856 
Q 1566 4138 1362 3434 
Q 1159 2731 1159 2009 
Q 1159 1288 1364 580 
Q 1569 -128 1984 -844 
L 1484 -844 
Q 1016 -109 783 600 
Q 550 1309 550 2009 
Q 550 2706 781 3412 
Q 1013 4119 1484 4856 
L 1984 4856 
z
" transform="scale(0.015625)"/>
                <path id="DejaVuSans-6e" d="M 3513 2113 
L 3513 0 
L 2938 0 
L 2938 2094 
Q 2938 2591 2744 2837 
Q 2550 3084 2163 3084 
Q 1697 3084 1428 2787 
Q 1159 2491 1159 1978 
L 1159 0 
L 581 0 
L 581 3500 
L 1159 3500 
L 1159 2956 
Q 1366 3272 1645 3428 
Q 1925 3584 2291 3584 
Q 2894 3584 3203 3211 
Q 3513 2838 3513 2113 
z
" transform="scale(0.015625)"/>
                <path id="DejaVuSans-73" d="M 2834 3397 
L 2834 2853 
Q 2591 2978 2328 3040 
Q 2066 3103 1784 3103 
Q 1356 3103 1142 2972 
Q 928 2841 928 2578 
Q 928 2378 1081 2264 
Q 1234 2150 1697 2047 
L 1894 2003 
Q 2506 1872 2764 1633 
Q 3022 1394 3022 966 
Q 3022 478 2636 193 
Q 2250 -91 1575 -91 
Q 1294 -91 989 -36 
Q 684 19 347 128 
L 347 722 
Q 666 556 975 473 
Q 1284 391 1588 391 
Q 1994 391 2212 530 
Q 2431 669 2431 922 
Q 2431 1156 2273 1281 
Q 2116 1406 1581 1522 
L 1381 1569 
Q 847 1681 609 1914 
Q 372 2147 372 2553 
Q 372 3047 722 3315 
Q 1072 3584 1716 3584 
Q 2034 3584 2315 3537 
Q 2597 3491 2834 3397 
z
" transform="scale(0.015625)"/>
                <path id="DejaVuSans-29" d="M 513 4856 
L 1013 4856 
Q 1481 4119 1714 3412 
Q 1947 2706 1947 2009 
Q 1947 1309 1714 600 
Q 1481 -109 1013 -844 
L 513 -844 
Q 928 -128 1133 580 
Q 1338 1288 1338 2009 
Q 1338 2731 1133 3434 
Q 928 4138 513 4856 
z
" transform="scale(0.015625)"/>
               </defs>
               <use xlink:href="#DejaVuSans-74"/>
               <use xlink:href="#DejaVuSans-69" x="39.208984"/>
               <use xlink:href="#DejaVuSans-6d" x="66.992188"/>
               <use xlink:href="#DejaVuSans-65" x="164.404297"/>
               <use xlink:href="#DejaVuSans-20" x="225.927734"/>
               <use xlink:href="#DejaVuSans-61" x="257.714844"/>
               <use xlink:href="#DejaVuSans-67" x="318.994141"/>
               <use xlink:href="#DejaVuSans-6f" x="382.470703"/>
               <use xlink:href="#DejaVuSans-20" x="443.652344"/>
               <use xlink:href="#DejaVuSans-28" x="475.439453"/>
               <use xlink:href="#DejaVuSans-67" x="514.453125"/>
               <use xlink:href="#DejaVuSans-65" x="577.929688"/>
               <use xlink:href="#DejaVuSans-6e" x="639.453125"/>
               <use xlink:href="#DejaVuSans-65" x="702.832031"/>
               <use xlink:href="#DejaVuSans-72" x="764.355469"/>
               <use xlink:href="#DejaVuSans-61" x="805.46875"/>
               <use xlink:href="#DejaVuSans-74" x="866.748047"/>
               <use xlink:href="#DejaVuSans-69" x="905.957031"/>
               <use xlink:href="#DejaVuSans-6f" x="933.740234"/>
               <use xlink:href="#DejaVuSans-6e" x="994.921875"/>
               <use xlink:href="#DejaVuSans-73" x="1058.300781"/>
               <use xlink:href="#DejaVuSans-29" x="1110.400391"/>
              </g>
             </g>
            </g>
            <g id="patch_12">
             <path d="M 223.676128 60.714844 
L 222.676128 60.683407 
L 221.676128 60.646467 
L 220.676128 60.54872 
L 219.676128 60.516199 
L 218.676128 60.442574 
L 217.676128 60.404009 
L 216.676128 60.368595 
L 215.676128 60.310955 
L 214.676128 60.240569 
L 213.676128 60.188605 
L 212.676128 60.129515 
L 211.676128 60.041194 
L 210.676128 59.99505 
L 209.676128 59.952639 
L 208.676128 59.922146 
L 207.676128 59.896101 
L 206.676128 59.874901 
L 205.676128 59.8206 
L 204.676128 59.792663 
L 203.676128 59.762939 
L 202.676128 59.737544 
L 201.676128 59.726344 
L 200.676128 59.71622 
L 199.676128 59.716424 
L 198.676128 59.725934 
L 197.676128 59.737587 
L 196.676128 59.768617 
L 195.676128 59.779785 
L 194.676128 59.809902 
L 193.676128 59.869679 
L 192.676128 59.906871 
L 191.676128 59.945967 
L 190.676128 59.988406 
L 189.676128 60.021171 
L 188.676128 60.088598 
L 187.676128 60.127724 
L 186.676128 60.170398 
L 185.676128 60.240979 
L 184.676128 60.27737 
L 183.676128 60.335773 
L 182.676128 60.446726 
L 181.676128 60.517384 
L 180.676128 60.630324 
L 179.676128 60.676097 
L 178.676128 60.73738 
L 177.676128 60.785879 
L 176.676128 60.866702 
L 175.676128 60.985221 
L 174.676128 61.055431 
L 173.676128 61.138694 
L 172.676128 61.171836 
L 171.676128 61.223073 
L 170.676128 61.291471 
L 169.676128 61.357687 
L 168.676128 61.434604 
L 167.676128 61.461919 
L 166.676128 61.488397 
L 165.676128 61.511047 
L 164.676128 61.530579 
L 163.676128 61.556973 
L 162.676128 61.606743 
L 161.676128 61.641817 
L 160.676128 61.677682 
L 159.676128 61.69305 
L 158.676128 61.708819 
L 157.676128 61.712231 
L 156.676128 61.714649 
L 155.676128 61.714163 
L 154.676128 61.712234 
L 153.676128 61.698977 
L 152.676128 61.690586 
L 151.676128 61.669049 
L 150.676128 61.646017 
L 149.676128 61.628783 
L 148.676128 61.610321 
L 147.676128 61.589868 
L 146.676128 61.573269 
L 145.676128 61.51049 
L 144.676128 61.435225 
L 143.676128 61.402586 
L 142.676128 61.335022 
L 141.676128 61.280975 
L 140.676128 61.247271 
L 139.676128 61.157145 
L 138.676128 61.12861 
L 137.676128 61.097124 
L 136.676128 61.066113 
L 135.676128 61.011305 
L 134.676128 60.946717 
L 133.196016 60.908522 
" clip-path="url(#pa1318178aa)" style="fill: none; stroke: #ffffff; stroke-width: 3; stroke-linecap: round"/>
             <path d="M 223.676128 60.714844 
L 222.676128 60.683407 
L 221.676128 60.646467 
L 220.676128 60.54872 
L 219.676128 60.516199 
L 218.676128 60.442574 
L 217.676128 60.404009 
L 216.676128 60.368595 
L 215.676128 60.310955 
L 214.676128 60.240569 
L 213.676128 60.188605 
L 212.676128 60.129515 
L 211.676128 60.041194 
L 210.676128 59.99505 
L 209.676128 59.952639 
L 208.676128 59.922146 
L 207.676128 59.896101 
L 206.676128 59.874901 
L 205.676128 59.8206 
L 204.676128 59.792663 
L 203.676128 59.762939 
L 202.676128 59.737544 
L 201.676128 59.726344 
L 200.676128 59.71622 
L 199.676128 59.716424 
L 198.676128 59.725934 
L 197.676128 59.737587 
L 196.676128 59.768617 
L 195.676128 59.779785 
L 194.676128 59.809902 
L 193.676128 59.869679 
L 192.676128 59.906871 
L 191.676128 59.945967 
L 190.676128 59.988406 
L 189.676128 60.021171 
L 188.676128 60.088598 
L 187.676128 60.127724 
L 186.676128 60.170398 
L 185.676128 60.240979 
L 184.676128 60.27737 
L 183.676128 60.335773 
L 182.676128 60.446726 
L 181.676128 60.517384 
L 180.676128 60.630324 
L 179.676128 60.676097 
L 178.676128 60.73738 
L 177.676128 60.785879 
L 176.676128 60.866702 
L 175.676128 60.985221 
L 174.676128 61.055431 
L 173.676128 61.138694 
L 172.676128 61.171836 
L 171.676128 61.223073 
L 170.676128 61.291471 
L 169.676128 61.357687 
L 168.676128 61.434604 
L 167.676128 61.461919 
L 166.676128 61.488397 
L 165.676128 61.511047 
L 164.676128 61.530579 
L 163.676128 61.556973 
L 162.676128 61.606743 
L 161.676128 61.641817 
L 160.676128 61.677682 
L 159.676128 61.69305 
L 158.676128 61.708819 
L 157.676128 61.712231 
L 156.676128 61.714649 
L 155.676128 61.714163 
L 154.676128 61.712234 
L 153.676128 61.698977 
L 152.676128 61.690586 
L 151.676128 61.669049 
L 150.676128 61.646017 
L 149.676128 61.628783 
L 148.676128 61.610321 
L 147.676128 61.589868 
L 146.676128 61.573269 
L 145.676128 61.51049 
L 144.676128 61.435225 
L 143.676128 61.402586 
L 142.676128 61.335022 
L 141.676128 61.280975 
L 140.676128 61.247271 
L 139.676128 61.157145 
L 138.676128 61.12861 
L 137.676128 61.097124 
L 136.676128 61.066113 
L 135.676128 61.011305 
L 134.676128 60.946717 
L 133.196016 60.908522 
" clip-path="url(#pa1318178aa)" style="fill: none; stroke: #1f77b4; stroke-linecap: round"/>
             <path d="M 137.196016 62.714844 
L 136.315648 62.239513 
L 135.437741 61.759259 
L 134.587028 61.224618 
L 133.284853 60.53717 
L 134.212206 60.511155 
L 135.123881 60.098436 
L 136.034145 59.682897 
L 137.376641 59.076092 
L 136.721742 59.714844 
L 136.669778 60.714844 
L 136.610688 62.714844 
L 137.196016 62.714844 
z
" clip-path="url(#pa1318178aa)" style="fill: #ffffff; stroke: #ffffff; stroke-width: 3; stroke-linecap: round"/>
             <path d="M 137.196016 62.714844 
L 136.315648 62.239513 
L 135.437741 61.759259 
L 134.587028 61.224618 
L 133.284853 60.53717 
L 134.212206 60.511155 
L 135.123881 60.098436 
L 136.034145 59.682897 
L 137.376641 59.076092 
L 136.721742 59.714844 
L 136.669778 60.714844 
L 136.610688 62.714844 
L 137.196016 62.714844 
z
" clip-path="url(#pa1318178aa)" style="fill: #ffffff; stroke: #1f77b4; stroke-linecap: round"/>
             <g id="patch_13">
              <path d="M 347.276311 60.714844 
L 348.276311 60.74628 
L 349.276311 60.78322 
L 350.276311 60.880967 
L 351.276311 60.913489 
L 352.276311 60.987113 
L 353.276311 61.025679 
L 354.276311 61.061092 
L 355.276311 61.118732 
L 356.276311 61.189118 
L 357.276311 61.241082 
L 358.276311 61.300172 
L 359.276311 61.388493 
L 360.276311 61.434637 
L 361.276311 61.477048 
L 362.276311 61.507541 
L 363.276311 61.533586 
L 364.276311 61.554786 
L 365.276311 61.609087 
L 366.276311 61.637025 
L 367.276311 61.666749 
L 368.276311 61.692143 
L 369.276311 61.703344 
L 370.276311 61.713468 
L 371.276311 61.713264 
L 372.276311 61.703754 
L 373.276311 61.6921 
L 374.276311 61.661071 
L 375.276311 61.649903 
L 376.276311 61.619785 
L 377.276311 61.560008 
L 378.276311 61.522817 
L 379.276311 61.483721 
L 380.276311 61.441281 
L 381.276311 61.408516 
L 382.276311 61.34109 
L 383.276311 61.301964 
L 384.276311 61.259289 
L 385.276311 61.188709 
L 386.276311 61.152318 
L 387.276311 61.093915 
L 388.276311 60.982962 
L 389.276311 60.912304 
L 390.276311 60.799364 
L 391.276311 60.753591 
L 392.276311 60.692308 
L 393.276311 60.643808 
L 394.276311 60.562986 
L 395.276311 60.444467 
L 396.276311 60.374256 
L 397.276311 60.290994 
L 398.276311 60.257852 
L 399.276311 60.206615 
L 400.276311 60.138216 
L 401.276311 60.072001 
L 402.276311 59.995084 
L 403.276311 59.967768 
L 404.276311 59.941291 
L 405.276311 59.91864 
L 406.276311 59.899109 
L 407.276311 59.872715 
L 408.276311 59.822944 
L 409.276311 59.787871 
L 410.276311 59.752005 
L 411.276311 59.736638 
L 412.276311 59.720869 
L 413.276311 59.717456 
L 414.276311 59.715038 
L 415.276311 59.715525 
L 416.276311 59.717454 
L 417.276311 59.730711 
L 418.276311 59.739101 
L 419.276311 59.760638 
L 420.276311 59.78367 
L 421.276311 59.800904 
L 422.276311 59.819366 
L 423.276311 59.839819 
L 424.276311 59.856419 
L 425.276311 59.919198 
L 426.276311 59.994463 
L 427.276311 60.027102 
L 428.276311 60.094665 
L 429.276311 60.148712 
L 430.276311 60.182417 
L 431.276311 60.272543 
L 432.276311 60.301078 
L 433.276311 60.332564 
L 434.276311 60.363575 
L 435.276311 60.418383 
L 436.276311 60.48297 
L 437.276311 60.521165 
L 438.276311 60.6171 
L 439.276311 60.666358 
L 440.276311 60.710427 
L 441.276311 60.750551 
L 442.276311 60.858918 
L 443.276311 60.900546 
L 444.276311 60.962687 
L 445.276311 61.03265 
L 446.276311 61.137154 
L 447.276311 61.174142 
L 448.276311 61.220019 
L 449.276311 61.288513 
L 450.276311 61.337259 
L 451.276311 61.414857 
L 452.276311 61.445397 
L 453.276311 61.514912 
L 454.276311 61.538885 
L 455.700241 61.567507 
" clip-path="url(#pa1318178aa)" style="fill: none; stroke: #ffffff; stroke-width: 3; stroke-linecap: round"/>
              <path d="M 347.276311 60.714844 
L 348.276311 60.74628 
L 349.276311 60.78322 
L 350.276311 60.880967 
L 351.276311 60.913489 
L 352.276311 60.987113 
L 353.276311 61.025679 
L 354.276311 61.061092 
L 355.276311 61.118732 
L 356.276311 61.189118 
L 357.276311 61.241082 
L 358.276311 61.300172 
L 359.276311 61.388493 
L 360.276311 61.434637 
L 361.276311 61.477048 
L 362.276311 61.507541 
L 363.276311 61.533586 
L 364.276311 61.554786 
L 365.276311 61.609087 
L 366.276311 61.637025 
L 367.276311 61.666749 
L 368.276311 61.692143 
L 369.276311 61.703344 
L 370.276311 61.713468 
L 371.276311 61.713264 
L 372.276311 61.703754 
L 373.276311 61.6921 
L 374.276311 61.661071 
L 375.276311 61.649903 
L 376.276311 61.619785 
L 377.276311 61.560008 
L 378.276311 61.522817 
L 379.276311 61.483721 
L 380.276311 61.441281 
L 381.276311 61.408516 
L 382.276311 61.34109 
L 383.276311 61.301964 
L 384.276311 61.259289 
L 385.276311 61.188709 
L 386.276311 61.152318 
L 387.276311 61.093915 
L 388.276311 60.982962 
L 389.276311 60.912304 
L 390.276311 60.799364 
L 391.276311 60.753591 
L 392.276311 60.692308 
L 393.276311 60.643808 
L 394.276311 60.562986 
L 395.276311 60.444467 
L 396.276311 60.374256 
L 397.276311 60.290994 
L 398.276311 60.257852 
L 399.276311 60.206615 
L 400.276311 60.138216 
L 401.276311 60.072001 
L 402.276311 59.995084 
L 403.276311 59.967768 
L 404.276311 59.941291 
L 405.276311 59.91864 
L 406.276311 59.899109 
L 407.276311 59.872715 
L 408.276311 59.822944 
L 409.276311 59.787871 
L 410.276311 59.752005 
L 411.276311 59.736638 
L 412.276311 59.720869 
L 413.276311 59.717456 
L 414.276311 59.715038 
L 415.276311 59.715525 
L 416.276311 59.717454 
L 417.276311 59.730711 
L 418.276311 59.739101 
L 419.276311 59.760638 
L 420.276311 59.78367 
L 421.276311 59.800904 
L 422.276311 59.819366 
L 423.276311 59.839819 
L 424.276311 59.856419 
L 425.276311 59.919198 
L 426.276311 59.994463 
L 427.276311 60.027102 
L 428.276311 60.094665 
L 429.276311 60.148712 
L 430.276311 60.182417 
L 431.276311 60.272543 
L 432.276311 60.301078 
L 433.276311 60.332564 
L 434.276311 60.363575 
L 435.276311 60.418383 
L 436.276311 60.48297 
L 437.276311 60.521165 
L 438.276311 60.6171 
L 439.276311 60.666358 
L 440.276311 60.710427 
L 441.276311 60.750551 
L 442.276311 60.858918 
L 443.276311 60.900546 
L 444.276311 60.962687 
L 445.276311 61.03265 
L 446.276311 61.137154 
L 447.276311 61.174142 
L 448.276311 61.220019 
L 449.276311 61.288513 
L 450.276311 61.337259 
L 451.276311 61.414857 
L 452.276311 61.445397 
L 453.276311 61.514912 
L 454.276311 61.538885 
L 455.700241 61.567507 
" clip-path="url(#pa1318178aa)" style="fill: none; stroke: #1f77b4; stroke-linecap: round"/>
              <path d="M 451.700241 58.714844 
L 452.58061 59.190175 
L 453.458517 59.670429 
L 454.30923 60.20507 
L 455.611404 60.892517 
L 454.684051 60.918532 
L 453.772377 61.331251 
L 452.862113 61.746791 
L 451.519617 62.353595 
L 452.174516 61.714844 
L 452.22648 60.714844 
L 452.28557 58.714844 
L 451.700241 58.714844 
z
" clip-path="url(#pa1318178aa)" style="fill: #ffffff; stroke: #ffffff; stroke-width: 3; stroke-linecap: round"/>
              <path d="M 451.700241 58.714844 
L 452.58061 59.190175 
L 453.458517 59.670429 
L 454.30923 60.20507 
L 455.611404 60.892517 
L 454.684051 60.918532 
L 453.772377 61.331251 
L 452.862113 61.746791 
L 451.519617 62.353595 
L 452.174516 61.714844 
L 452.22648 60.714844 
L 452.28557 58.714844 
L 451.700241 58.714844 
z
" clip-path="url(#pa1318178aa)" style="fill: #ffffff; stroke: #1f77b4; stroke-linecap: round"/>
              <g id="patch_14">
               <path d="M 132.074056 87.306253 
L 133.074056 87.33769 
L 134.074056 87.37463 
L 135.074056 87.472377 
L 136.074056 87.504898 
L 137.074056 87.578523 
L 138.074056 87.617089 
L 139.074056 87.652502 
L 140.074056 87.710142 
L 141.074056 87.780528 
L 142.074056 87.832492 
L 143.074056 87.891582 
L 144.074056 87.979903 
L 145.074056 88.026047 
L 146.074056 88.068458 
L 147.074056 88.098951 
L 148.074056 88.124996 
L 149.074056 88.146196 
L 150.074056 88.200497 
L 151.074056 88.228434 
L 152.074056 88.258158 
L 153.074056 88.283553 
L 154.074056 88.294754 
L 155.074056 88.304878 
L 156.074056 88.304673 
L 157.074056 88.295163 
L 158.074056 88.28351 
L 159.074056 88.25248 
L 160.074056 88.241313 
L 161.074056 88.211195 
L 162.074056 88.151418 
L 163.074056 88.114227 
L 164.074056 88.07513 
L 165.074056 88.032691 
L 166.074056 87.999926 
L 167.074056 87.932499 
L 168.074056 87.893373 
L 169.074056 87.850699 
L 170.074056 87.780118 
L 171.074056 87.743727 
L 172.074056 87.685324 
L 173.074056 87.574372 
L 174.074056 87.503713 
L 175.074056 87.390773 
L 176.074056 87.345001 
L 177.074056 87.283717 
L 178.074056 87.235218 
L 179.074056 87.154395 
L 180.074056 87.035876 
L 181.074056 86.965666 
L 182.074056 86.882403 
L 183.074056 86.849262 
L 184.074056 86.798024 
L 185.074056 86.729626 
L 186.074056 86.66341 
L 187.074056 86.586493 
L 188.074056 86.559178 
L 189.074056 86.5327 
L 190.074056 86.51005 
L 191.074056 86.490518 
L 192.074056 86.464124 
L 193.074056 86.414354 
L 194.074056 86.37928 
L 195.074056 86.343415 
L 196.074056 86.328048 
L 197.074056 86.312278 
L 198.074056 86.308866 
L 199.074056 86.306448 
L 200.074056 86.306934 
L 201.074056 86.308864 
L 202.074056 86.32212 
L 203.074056 86.330511 
L 204.074056 86.352048 
L 205.074056 86.37508 
L 206.074056 86.392314 
L 207.074056 86.410776 
L 208.074056 86.431229 
L 209.074056 86.447829 
L 210.074056 86.510607 
L 211.074056 86.585872 
L 212.074056 86.618511 
L 213.074056 86.686075 
L 214.074056 86.740122 
L 215.074056 86.773826 
L 216.074056 86.863952 
L 217.074056 86.892487 
L 218.074056 86.923974 
L 219.074056 86.954984 
L 220.074056 87.009792 
L 221.074056 87.07438 
L 222.554168 87.112575 
" clip-path="url(#pa1318178aa)" style="fill: none; stroke: #ffffff; stroke-width: 3; stroke-linecap: round"/>
               <path d="M 132.074056 87.306253 
L 133.074056 87.33769 
L 134.074056 87.37463 
L 135.074056 87.472377 
L 136.074056 87.504898 
L 137.074056 87.578523 
L 138.074056 87.617089 
L 139.074056 87.652502 
L 140.074056 87.710142 
L 141.074056 87.780528 
L 142.074056 87.832492 
L 143.074056 87.891582 
L 144.074056 87.979903 
L 145.074056 88.026047 
L 146.074056 88.068458 
L 147.074056 88.098951 
L 148.074056 88.124996 
L 149.074056 88.146196 
L 150.074056 88.200497 
L 151.074056 88.228434 
L 152.074056 88.258158 
L 153.074056 88.283553 
L 154.074056 88.294754 
L 155.074056 88.304878 
L 156.074056 88.304673 
L 157.074056 88.295163 
L 158.074056 88.28351 
L 159.074056 88.25248 
L 160.074056 88.241313 
L 161.074056 88.211195 
L 162.074056 88.151418 
L 163.074056 88.114227 
L 164.074056 88.07513 
L 165.074056 88.032691 
L 166.074056 87.999926 
L 167.074056 87.932499 
L 168.074056 87.893373 
L 169.074056 87.850699 
L 170.074056 87.780118 
L 171.074056 87.743727 
L 172.074056 87.685324 
L 173.074056 87.574372 
L 174.074056 87.503713 
L 175.074056 87.390773 
L 176.074056 87.345001 
L 177.074056 87.283717 
L 178.074056 87.235218 
L 179.074056 87.154395 
L 180.074056 87.035876 
L 181.074056 86.965666 
L 182.074056 86.882403 
L 183.074056 86.849262 
L 184.074056 86.798024 
L 185.074056 86.729626 
L 186.074056 86.66341 
L 187.074056 86.586493 
L 188.074056 86.559178 
L 189.074056 86.5327 
L 190.074056 86.51005 
L 191.074056 86.490518 
L 192.074056 86.464124 
L 193.074056 86.414354 
L 194.074056 86.37928 
L 195.074056 86.343415 
L 196.074056 86.328048 
L 197.074056 86.312278 
L 198.074056 86.308866 
L 199.074056 86.306448 
L 200.074056 86.306934 
L 201.074056 86.308864 
L 202.074056 86.32212 
L 203.074056 86.330511 
L 204.074056 86.352048 
L 205.074056 86.37508 
L 206.074056 86.392314 
L 207.074056 86.410776 
L 208.074056 86.431229 
L 209.074056 86.447829 
L 210.074056 86.510607 
L 211.074056 86.585872 
L 212.074056 86.618511 
L 213.074056 86.686075 
L 214.074056 86.740122 
L 215.074056 86.773826 
L 216.074056 86.863952 
L 217.074056 86.892487 
L 218.074056 86.923974 
L 219.074056 86.954984 
L 220.074056 87.009792 
L 221.074056 87.07438 
L 222.554168 87.112575 
" clip-path="url(#pa1318178aa)" style="fill: none; stroke: #ff7f0e; stroke-linecap: round"/>
               <path d="M 218.554168 85.306253 
L 219.434536 85.781585 
L 220.312443 86.261839 
L 221.163157 86.796479 
L 222.465331 87.483927 
L 221.537978 87.509942 
L 220.626304 87.922661 
L 219.716039 88.3382 
L 218.373543 88.945005 
L 219.028442 88.306253 
L 219.080406 87.306253 
L 219.139496 85.306253 
L 218.554168 85.306253 
z
" clip-path="url(#pa1318178aa)" style="fill: #ffffff; stroke: #ffffff; stroke-width: 3; stroke-linecap: round"/>
               <path d="M 218.554168 85.306253 
L 219.434536 85.781585 
L 220.312443 86.261839 
L 221.163157 86.796479 
L 222.465331 87.483927 
L 221.537978 87.509942 
L 220.626304 87.922661 
L 219.716039 88.3382 
L 218.373543 88.945005 
L 219.028442 88.306253 
L 219.080406 87.306253 
L 219.139496 85.306253 
L 218.554168 85.306253 
z
" clip-path="url(#pa1318178aa)" style="fill: #ffffff; stroke: #ff7f0e; stroke-linecap: round"/>
               <g id="patch_15">
                <path d="M 456.81711 87.306253 
L 455.81711 87.274817 
L 454.81711 87.237877 
L 453.81711 87.14013 
L 452.81711 87.107608 
L 451.81711 87.033984 
L 450.81711 86.995418 
L 449.81711 86.960005 
L 448.81711 86.902365 
L 447.81711 86.831979 
L 446.81711 86.780015 
L 445.81711 86.720925 
L 444.81711 86.632604 
L 443.81711 86.58646 
L 442.81711 86.544049 
L 441.81711 86.513556 
L 440.81711 86.487511 
L 439.81711 86.466311 
L 438.81711 86.41201 
L 437.81711 86.384072 
L 436.81711 86.354348 
L 435.81711 86.328954 
L 434.81711 86.317753 
L 433.81711 86.307629 
L 432.81711 86.307834 
L 431.81711 86.317343 
L 430.81711 86.328997 
L 429.81711 86.360026 
L 428.81711 86.371194 
L 427.81711 86.401312 
L 426.81711 86.461089 
L 425.81711 86.49828 
L 424.81711 86.537376 
L 423.81711 86.579816 
L 422.81711 86.612581 
L 421.81711 86.680007 
L 420.81711 86.719133 
L 419.81711 86.761808 
L 418.81711 86.832389 
L 417.81711 86.868779 
L 416.81711 86.927183 
L 415.81711 87.038135 
L 414.81711 87.108793 
L 413.81711 87.221733 
L 412.81711 87.267506 
L 411.81711 87.328789 
L 410.81711 87.377289 
L 409.81711 87.458111 
L 408.81711 87.57663 
L 407.81711 87.646841 
L 406.81711 87.730103 
L 405.81711 87.763245 
L 404.81711 87.814483 
L 403.81711 87.882881 
L 402.81711 87.949096 
L 401.81711 88.026013 
L 400.81711 88.053329 
L 399.81711 88.079806 
L 398.81711 88.102457 
L 397.81711 88.121988 
L 396.81711 88.148382 
L 395.81711 88.198153 
L 394.81711 88.233226 
L 393.81711 88.269092 
L 392.81711 88.284459 
L 391.81711 88.300228 
L 390.81711 88.303641 
L 389.81711 88.306059 
L 388.81711 88.305573 
L 387.81711 88.303643 
L 386.81711 88.290386 
L 385.81711 88.281996 
L 384.81711 88.260459 
L 383.81711 88.237427 
L 382.81711 88.220193 
L 381.81711 88.201731 
L 380.81711 88.181278 
L 379.81711 88.164678 
L 378.81711 88.1019 
L 377.81711 88.026634 
L 376.81711 87.993995 
L 375.81711 87.926432 
L 374.81711 87.872385 
L 373.81711 87.83868 
L 372.81711 87.748554 
L 371.81711 87.720019 
L 370.81711 87.688533 
L 369.81711 87.657522 
L 368.81711 87.602714 
L 367.81711 87.538127 
L 366.81711 87.499932 
L 365.81711 87.403997 
L 364.81711 87.354739 
L 363.81711 87.31067 
L 362.81711 87.270546 
L 361.81711 87.162179 
L 360.81711 87.120551 
L 359.81711 87.05841 
L 358.81711 86.988447 
L 357.81711 86.883943 
L 356.81711 86.846955 
L 355.81711 86.801078 
L 354.81711 86.732584 
L 353.81711 86.683838 
L 352.81711 86.60624 
L 351.81711 86.5757 
L 350.81711 86.506185 
L 349.81711 86.482212 
L 348.39318 86.453591 
" clip-path="url(#pa1318178aa)" style="fill: none; stroke: #ffffff; stroke-width: 3; stroke-linecap: round"/>
                <path d="M 456.81711 87.306253 
L 455.81711 87.274817 
L 454.81711 87.237877 
L 453.81711 87.14013 
L 452.81711 87.107608 
L 451.81711 87.033984 
L 450.81711 86.995418 
L 449.81711 86.960005 
L 448.81711 86.902365 
L 447.81711 86.831979 
L 446.81711 86.780015 
L 445.81711 86.720925 
L 444.81711 86.632604 
L 443.81711 86.58646 
L 442.81711 86.544049 
L 441.81711 86.513556 
L 440.81711 86.487511 
L 439.81711 86.466311 
L 438.81711 86.41201 
L 437.81711 86.384072 
L 436.81711 86.354348 
L 435.81711 86.328954 
L 434.81711 86.317753 
L 433.81711 86.307629 
L 432.81711 86.307834 
L 431.81711 86.317343 
L 430.81711 86.328997 
L 429.81711 86.360026 
L 428.81711 86.371194 
L 427.81711 86.401312 
L 426.81711 86.461089 
L 425.81711 86.49828 
L 424.81711 86.537376 
L 423.81711 86.579816 
L 422.81711 86.612581 
L 421.81711 86.680007 
L 420.81711 86.719133 
L 419.81711 86.761808 
L 418.81711 86.832389 
L 417.81711 86.868779 
L 416.81711 86.927183 
L 415.81711 87.038135 
L 414.81711 87.108793 
L 413.81711 87.221733 
L 412.81711 87.267506 
L 411.81711 87.328789 
L 410.81711 87.377289 
L 409.81711 87.458111 
L 408.81711 87.57663 
L 407.81711 87.646841 
L 406.81711 87.730103 
L 405.81711 87.763245 
L 404.81711 87.814483 
L 403.81711 87.882881 
L 402.81711 87.949096 
L 401.81711 88.026013 
L 400.81711 88.053329 
L 399.81711 88.079806 
L 398.81711 88.102457 
L 397.81711 88.121988 
L 396.81711 88.148382 
L 395.81711 88.198153 
L 394.81711 88.233226 
L 393.81711 88.269092 
L 392.81711 88.284459 
L 391.81711 88.300228 
L 390.81711 88.303641 
L 389.81711 88.306059 
L 388.81711 88.305573 
L 387.81711 88.303643 
L 386.81711 88.290386 
L 385.81711 88.281996 
L 384.81711 88.260459 
L 383.81711 88.237427 
L 382.81711 88.220193 
L 381.81711 88.201731 
L 380.81711 88.181278 
L 379.81711 88.164678 
L 378.81711 88.1019 
L 377.81711 88.026634 
L 376.81711 87.993995 
L 375.81711 87.926432 
L 374.81711 87.872385 
L 373.81711 87.83868 
L 372.81711 87.748554 
L 371.81711 87.720019 
L 370.81711 87.688533 
L 369.81711 87.657522 
L 368.81711 87.602714 
L 367.81711 87.538127 
L 366.81711 87.499932 
L 365.81711 87.403997 
L 364.81711 87.354739 
L 363.81711 87.31067 
L 362.81711 87.270546 
L 361.81711 87.162179 
L 360.81711 87.120551 
L 359.81711 87.05841 
L 358.81711 86.988447 
L 357.81711 86.883943 
L 356.81711 86.846955 
L 355.81711 86.801078 
L 354.81711 86.732584 
L 353.81711 86.683838 
L 352.81711 86.60624 
L 351.81711 86.5757 
L 350.81711 86.506185 
L 349.81711 86.482212 
L 348.39318 86.453591 
" clip-path="url(#pa1318178aa)" style="fill: none; stroke: #d62728; stroke-linecap: round"/>
                <path d="M 352.39318 89.306253 
L 351.512811 88.830922 
L 350.634905 88.350668 
L 349.784191 87.816027 
L 348.482017 87.12858 
L 349.40937 87.102565 
L 350.321044 86.689846 
L 351.231308 86.274306 
L 352.573804 85.667502 
L 351.918905 86.306253 
L 351.866941 87.306253 
L 351.807851 89.306253 
L 352.39318 89.306253 
z
" clip-path="url(#pa1318178aa)" style="fill: #ffffff; stroke: #ffffff; stroke-width: 3; stroke-linecap: round"/>
                <path d="M 352.39318 89.306253 
L 351.512811 88.830922 
L 350.634905 88.350668 
L 349.784191 87.816027 
L 348.482017 87.12858 
L 349.40937 87.102565 
L 350.321044 86.689846 
L 351.231308 86.274306 
L 352.573804 85.667502 
L 351.918905 86.306253 
L 351.866941 87.306253 
L 351.807851 89.306253 
L 352.39318 89.306253 
z
" clip-path="url(#pa1318178aa)" style="fill: #ffffff; stroke: #d62728; stroke-linecap: round"/>
                <g id="patch_16">
                 <path d="M 223.676128 91.738155 
L 222.676128 91.706718 
L 221.676128 91.669778 
L 220.676128 91.572032 
L 219.676128 91.53951 
L 218.676128 91.465885 
L 217.676128 91.42732 
L 216.676128 91.391907 
L 215.676128 91.334267 
L 214.676128 91.26388 
L 213.676128 91.211916 
L 212.676128 91.152826 
L 211.676128 91.064505 
L 210.676128 91.018361 
L 209.676128 90.97595 
L 208.676128 90.945458 
L 207.676128 90.919413 
L 206.676128 90.898213 
L 205.676128 90.843911 
L 204.676128 90.815974 
L 203.676128 90.78625 
L 202.676128 90.760855 
L 201.676128 90.749655 
L 200.676128 90.739531 
L 199.676128 90.739735 
L 198.676128 90.749245 
L 197.676128 90.760899 
L 196.676128 90.791928 
L 195.676128 90.803096 
L 194.676128 90.833213 
L 193.676128 90.89299 
L 192.676128 90.930182 
L 191.676128 90.969278 
L 190.676128 91.011717 
L 189.676128 91.044483 
L 188.676128 91.111909 
L 187.676128 91.151035 
L 186.676128 91.193709 
L 185.676128 91.26429 
L 184.676128 91.300681 
L 183.676128 91.359084 
L 182.676128 91.470037 
L 181.676128 91.540695 
L 180.676128 91.653635 
L 179.676128 91.699408 
L 178.676128 91.760691 
L 177.676128 91.80919 
L 176.676128 91.890013 
L 175.676128 92.008532 
L 174.676128 92.078743 
L 173.676128 92.162005 
L 172.676128 92.195147 
L 171.676128 92.246384 
L 170.676128 92.314782 
L 169.676128 92.380998 
L 168.676128 92.457915 
L 167.676128 92.48523 
L 166.676128 92.511708 
L 165.676128 92.534359 
L 164.676128 92.55389 
L 163.676128 92.580284 
L 162.676128 92.630055 
L 161.676128 92.665128 
L 160.676128 92.700993 
L 159.676128 92.716361 
L 158.676128 92.73213 
L 157.676128 92.735543 
L 156.676128 92.73796 
L 155.676128 92.737474 
L 154.676128 92.735545 
L 153.676128 92.722288 
L 152.676128 92.713897 
L 151.676128 92.692361 
L 150.676128 92.669328 
L 149.676128 92.652095 
L 148.676128 92.633632 
L 147.676128 92.61318 
L 146.676128 92.59658 
L 145.676128 92.533801 
L 144.676128 92.458536 
L 143.676128 92.425897 
L 142.676128 92.358333 
L 141.676128 92.304286 
L 140.676128 92.270582 
L 139.676128 92.180456 
L 138.676128 92.151921 
L 137.676128 92.120435 
L 136.676128 92.089424 
L 135.676128 92.034616 
L 134.676128 91.970028 
L 133.196016 91.931833 
" clip-path="url(#pa1318178aa)" style="fill: none; stroke: #ffffff; stroke-width: 3; stroke-linecap: round"/>
                 <path d="M 223.676128 91.738155 
L 222.676128 91.706718 
L 221.676128 91.669778 
L 220.676128 91.572032 
L 219.676128 91.53951 
L 218.676128 91.465885 
L 217.676128 91.42732 
L 216.676128 91.391907 
L 215.676128 91.334267 
L 214.676128 91.26388 
L 213.676128 91.211916 
L 212.676128 91.152826 
L 211.676128 91.064505 
L 210.676128 91.018361 
L 209.676128 90.97595 
L 208.676128 90.945458 
L 207.676128 90.919413 
L 206.676128 90.898213 
L 205.676128 90.843911 
L 204.676128 90.815974 
L 203.676128 90.78625 
L 202.676128 90.760855 
L 201.676128 90.749655 
L 200.676128 90.739531 
L 199.676128 90.739735 
L 198.676128 90.749245 
L 197.676128 90.760899 
L 196.676128 90.791928 
L 195.676128 90.803096 
L 194.676128 90.833213 
L 193.676128 90.89299 
L 192.676128 90.930182 
L 191.676128 90.969278 
L 190.676128 91.011717 
L 189.676128 91.044483 
L 188.676128 91.111909 
L 187.676128 91.151035 
L 186.676128 91.193709 
L 185.676128 91.26429 
L 184.676128 91.300681 
L 183.676128 91.359084 
L 182.676128 91.470037 
L 181.676128 91.540695 
L 180.676128 91.653635 
L 179.676128 91.699408 
L 178.676128 91.760691 
L 177.676128 91.80919 
L 176.676128 91.890013 
L 175.676128 92.008532 
L 174.676128 92.078743 
L 173.676128 92.162005 
L 172.676128 92.195147 
L 171.676128 92.246384 
L 170.676128 92.314782 
L 169.676128 92.380998 
L 168.676128 92.457915 
L 167.676128 92.48523 
L 166.676128 92.511708 
L 165.676128 92.534359 
L 164.676128 92.55389 
L 163.676128 92.580284 
L 162.676128 92.630055 
L 161.676128 92.665128 
L 160.676128 92.700993 
L 159.676128 92.716361 
L 158.676128 92.73213 
L 157.676128 92.735543 
L 156.676128 92.73796 
L 155.676128 92.737474 
L 154.676128 92.735545 
L 153.676128 92.722288 
L 152.676128 92.713897 
L 151.676128 92.692361 
L 150.676128 92.669328 
L 149.676128 92.652095 
L 148.676128 92.633632 
L 147.676128 92.61318 
L 146.676128 92.59658 
L 145.676128 92.533801 
L 144.676128 92.458536 
L 143.676128 92.425897 
L 142.676128 92.358333 
L 141.676128 92.304286 
L 140.676128 92.270582 
L 139.676128 92.180456 
L 138.676128 92.151921 
L 137.676128 92.120435 
L 136.676128 92.089424 
L 135.676128 92.034616 
L 134.676128 91.970028 
L 133.196016 91.931833 
" clip-path="url(#pa1318178aa)" style="fill: none; stroke: #9467bd; stroke-linecap: round"/>
                 <path d="M 137.196016 93.738155 
L 136.315648 93.262824 
L 135.437741 92.78257 
L 134.587028 92.247929 
L 133.284853 91.560482 
L 134.212206 91.534467 
L 135.123881 91.121747 
L 136.034145 90.706208 
L 137.376641 90.099404 
L 136.721742 90.738155 
L 136.669778 91.738155 
L 136.610688 93.738155 
L 137.196016 93.738155 
z
" clip-path="url(#pa1318178aa)" style="fill: #ffffff; stroke: #ffffff; stroke-width: 3; stroke-linecap: round"/>
                 <path d="M 137.196016 93.738155 
L 136.315648 93.262824 
L 135.437741 92.78257 
L 134.587028 92.247929 
L 133.284853 91.560482 
L 134.212206 91.534467 
L 135.123881 91.121747 
L 136.034145 90.706208 
L 137.376641 90.099404 
L 136.721742 90.738155 
L 136.669778 91.738155 
L 136.610688 93.738155 
L 137.196016 93.738155 
z
" clip-path="url(#pa1318178aa)" style="fill: #ffffff; stroke: #9467bd; stroke-linecap: round"/>
                 <g id="patch_17">
                  <path d="M 347.276311 91.738155 
L 348.276311 91.769591 
L 349.276311 91.806532 
L 350.276311 91.904278 
L 351.276311 91.9368 
L 352.276311 92.010424 
L 353.276311 92.04899 
L 354.276311 92.084403 
L 355.276311 92.142043 
L 356.276311 92.212429 
L 357.276311 92.264394 
L 358.276311 92.323483 
L 359.276311 92.411804 
L 360.276311 92.457949 
L 361.276311 92.50036 
L 362.276311 92.530852 
L 363.276311 92.556897 
L 364.276311 92.578097 
L 365.276311 92.632398 
L 366.276311 92.660336 
L 367.276311 92.69006 
L 368.276311 92.715455 
L 369.276311 92.726655 
L 370.276311 92.736779 
L 371.276311 92.736575 
L 372.276311 92.727065 
L 373.276311 92.715411 
L 374.276311 92.684382 
L 375.276311 92.673214 
L 376.276311 92.643097 
L 377.276311 92.58332 
L 378.276311 92.546128 
L 379.276311 92.507032 
L 380.276311 92.464592 
L 381.276311 92.431827 
L 382.276311 92.364401 
L 383.276311 92.325275 
L 384.276311 92.2826 
L 385.276311 92.21202 
L 386.276311 92.175629 
L 387.276311 92.117226 
L 388.276311 92.006273 
L 389.276311 91.935615 
L 390.276311 91.822675 
L 391.276311 91.776902 
L 392.276311 91.715619 
L 393.276311 91.667119 
L 394.276311 91.586297 
L 395.276311 91.467778 
L 396.276311 91.397567 
L 397.276311 91.314305 
L 398.276311 91.281163 
L 399.276311 91.229926 
L 400.276311 91.161527 
L 401.276311 91.095312 
L 402.276311 91.018395 
L 403.276311 90.991079 
L 404.276311 90.964602 
L 405.276311 90.941951 
L 406.276311 90.92242 
L 407.276311 90.896026 
L 408.276311 90.846255 
L 409.276311 90.811182 
L 410.276311 90.775316 
L 411.276311 90.759949 
L 412.276311 90.74418 
L 413.276311 90.740767 
L 414.276311 90.73835 
L 415.276311 90.738836 
L 416.276311 90.740765 
L 417.276311 90.754022 
L 418.276311 90.762412 
L 419.276311 90.783949 
L 420.276311 90.806982 
L 421.276311 90.824215 
L 422.276311 90.842678 
L 423.276311 90.86313 
L 424.276311 90.87973 
L 425.276311 90.942509 
L 426.276311 91.017774 
L 427.276311 91.050413 
L 428.276311 91.117976 
L 429.276311 91.172024 
L 430.276311 91.205728 
L 431.276311 91.295854 
L 432.276311 91.324389 
L 433.276311 91.355875 
L 434.276311 91.386886 
L 435.276311 91.441694 
L 436.276311 91.506281 
L 437.276311 91.544477 
L 438.276311 91.640411 
L 439.276311 91.689669 
L 440.276311 91.733738 
L 441.276311 91.773862 
L 442.276311 91.882229 
L 443.276311 91.923857 
L 444.276311 91.985998 
L 445.276311 92.055961 
L 446.276311 92.160465 
L 447.276311 92.197453 
L 448.276311 92.24333 
L 449.276311 92.311825 
L 450.276311 92.36057 
L 451.276311 92.438168 
L 452.276311 92.468709 
L 453.276311 92.538223 
L 454.276311 92.562196 
L 455.700241 92.590818 
" clip-path="url(#pa1318178aa)" style="fill: none; stroke: #ffffff; stroke-width: 3; stroke-linecap: round"/>
                  <path d="M 347.276311 91.738155 
L 348.276311 91.769591 
L 349.276311 91.806532 
L 350.276311 91.904278 
L 351.276311 91.9368 
L 352.276311 92.010424 
L 353.276311 92.04899 
L 354.276311 92.084403 
L 355.276311 92.142043 
L 356.276311 92.212429 
L 357.276311 92.264394 
L 358.276311 92.323483 
L 359.276311 92.411804 
L 360.276311 92.457949 
L 361.276311 92.50036 
L 362.276311 92.530852 
L 363.276311 92.556897 
L 364.276311 92.578097 
L 365.276311 92.632398 
L 366.276311 92.660336 
L 367.276311 92.69006 
L 368.276311 92.715455 
L 369.276311 92.726655 
L 370.276311 92.736779 
L 371.276311 92.736575 
L 372.276311 92.727065 
L 373.276311 92.715411 
L 374.276311 92.684382 
L 375.276311 92.673214 
L 376.276311 92.643097 
L 377.276311 92.58332 
L 378.276311 92.546128 
L 379.276311 92.507032 
L 380.276311 92.464592 
L 381.276311 92.431827 
L 382.276311 92.364401 
L 383.276311 92.325275 
L 384.276311 92.2826 
L 385.276311 92.21202 
L 386.276311 92.175629 
L 387.276311 92.117226 
L 388.276311 92.006273 
L 389.276311 91.935615 
L 390.276311 91.822675 
L 391.276311 91.776902 
L 392.276311 91.715619 
L 393.276311 91.667119 
L 394.276311 91.586297 
L 395.276311 91.467778 
L 396.276311 91.397567 
L 397.276311 91.314305 
L 398.276311 91.281163 
L 399.276311 91.229926 
L 400.276311 91.161527 
L 401.276311 91.095312 
L 402.276311 91.018395 
L 403.276311 90.991079 
L 404.276311 90.964602 
L 405.276311 90.941951 
L 406.276311 90.92242 
L 407.276311 90.896026 
L 408.276311 90.846255 
L 409.276311 90.811182 
L 410.276311 90.775316 
L 411.276311 90.759949 
L 412.276311 90.74418 
L 413.276311 90.740767 
L 414.276311 90.73835 
L 415.276311 90.738836 
L 416.276311 90.740765 
L 417.276311 90.754022 
L 418.276311 90.762412 
L 419.276311 90.783949 
L 420.276311 90.806982 
L 421.276311 90.824215 
L 422.276311 90.842678 
L 423.276311 90.86313 
L 424.276311 90.87973 
L 425.276311 90.942509 
L 426.276311 91.017774 
L 427.276311 91.050413 
L 428.276311 91.117976 
L 429.276311 91.172024 
L 430.276311 91.205728 
L 431.276311 91.295854 
L 432.276311 91.324389 
L 433.276311 91.355875 
L 434.276311 91.386886 
L 435.276311 91.441694 
L 436.276311 91.506281 
L 437.276311 91.544477 
L 438.276311 91.640411 
L 439.276311 91.689669 
L 440.276311 91.733738 
L 441.276311 91.773862 
L 442.276311 91.882229 
L 443.276311 91.923857 
L 444.276311 91.985998 
L 445.276311 92.055961 
L 446.276311 92.160465 
L 447.276311 92.197453 
L 448.276311 92.24333 
L 449.276311 92.311825 
L 450.276311 92.36057 
L 451.276311 92.438168 
L 452.276311 92.468709 
L 453.276311 92.538223 
L 454.276311 92.562196 
L 455.700241 92.590818 
" clip-path="url(#pa1318178aa)" style="fill: none; stroke: #9467bd; stroke-linecap: round"/>
                  <path d="M 451.700241 89.738155 
L 452.58061 90.213486 
L 453.458517 90.69374 
L 454.30923 91.228381 
L 455.611404 91.915828 
L 454.684051 91.941843 
L 453.772377 92.354563 
L 452.862113 92.770102 
L 451.519617 93.376906 
L 452.174516 92.738155 
L 452.22648 91.738155 
L 452.28557 89.738155 
L 451.700241 89.738155 
z
" clip-path="url(#pa1318178aa)" style="fill: #ffffff; stroke: #ffffff; stroke-width: 3; stroke-linecap: round"/>
                  <path d="M 451.700241 89.738155 
L 452.58061 90.213486 
L 453.458517 90.69374 
L 454.30923 91.228381 
L 455.611404 91.915828 
L 454.684051 91.941843 
L 453.772377 92.354563 
L 452.862113 92.770102 
L 451.519617 93.376906 
L 452.174516 92.738155 
L 452.22648 91.738155 
L 452.28557 89.738155 
L 451.700241 89.738155 
z
" clip-path="url(#pa1318178aa)" style="fill: #ffffff; stroke: #9467bd; stroke-linecap: round"/>
                  <g id="patch_18">
                   <path d="M 132.074056 180.376187 
L 133.074056 180.407623 
L 134.074056 180.444564 
L 135.074056 180.54231 
L 136.074056 180.574832 
L 137.074056 180.648456 
L 138.074056 180.687022 
L 139.074056 180.722435 
L 140.074056 180.780075 
L 141.074056 180.850461 
L 142.074056 180.902425 
L 143.074056 180.961515 
L 144.074056 181.049836 
L 145.074056 181.09598 
L 146.074056 181.138391 
L 147.074056 181.168884 
L 148.074056 181.194929 
L 149.074056 181.216129 
L 150.074056 181.27043 
L 151.074056 181.298368 
L 152.074056 181.328092 
L 153.074056 181.353487 
L 154.074056 181.364687 
L 155.074056 181.374811 
L 156.074056 181.374607 
L 157.074056 181.365097 
L 158.074056 181.353443 
L 159.074056 181.322414 
L 160.074056 181.311246 
L 161.074056 181.281128 
L 162.074056 181.221352 
L 163.074056 181.18416 
L 164.074056 181.145064 
L 165.074056 181.102624 
L 166.074056 181.069859 
L 167.074056 181.002433 
L 168.074056 180.963307 
L 169.074056 180.920632 
L 170.074056 180.850052 
L 171.074056 180.813661 
L 172.074056 180.755258 
L 173.074056 180.644305 
L 174.074056 180.573647 
L 175.074056 180.460707 
L 176.074056 180.414934 
L 177.074056 180.353651 
L 178.074056 180.305151 
L 179.074056 180.224329 
L 180.074056 180.10581 
L 181.074056 180.035599 
L 182.074056 179.952337 
L 183.074056 179.919195 
L 184.074056 179.867958 
L 185.074056 179.799559 
L 186.074056 179.733344 
L 187.074056 179.656427 
L 188.074056 179.629111 
L 189.074056 179.602634 
L 190.074056 179.579983 
L 191.074056 179.560452 
L 192.074056 179.534058 
L 193.074056 179.484287 
L 194.074056 179.449214 
L 195.074056 179.413348 
L 196.074056 179.397981 
L 197.074056 179.382212 
L 198.074056 179.378799 
L 199.074056 179.376381 
L 200.074056 179.376868 
L 201.074056 179.378797 
L 202.074056 179.392054 
L 203.074056 179.400444 
L 204.074056 179.421981 
L 205.074056 179.445013 
L 206.074056 179.462247 
L 207.074056 179.480709 
L 208.074056 179.501162 
L 209.074056 179.517762 
L 210.074056 179.580541 
L 211.074056 179.655806 
L 212.074056 179.688445 
L 213.074056 179.756008 
L 214.074056 179.810055 
L 215.074056 179.84376 
L 216.074056 179.933886 
L 217.074056 179.962421 
L 218.074056 179.993907 
L 219.074056 180.024918 
L 220.074056 180.079726 
L 221.074056 180.144313 
L 222.554168 180.182508 
" clip-path="url(#pa1318178aa)" style="fill: none; stroke: #ffffff; stroke-width: 3; stroke-linecap: round"/>
                   <path d="M 132.074056 180.376187 
L 133.074056 180.407623 
L 134.074056 180.444564 
L 135.074056 180.54231 
L 136.074056 180.574832 
L 137.074056 180.648456 
L 138.074056 180.687022 
L 139.074056 180.722435 
L 140.074056 180.780075 
L 141.074056 180.850461 
L 142.074056 180.902425 
L 143.074056 180.961515 
L 144.074056 181.049836 
L 145.074056 181.09598 
L 146.074056 181.138391 
L 147.074056 181.168884 
L 148.074056 181.194929 
L 149.074056 181.216129 
L 150.074056 181.27043 
L 151.074056 181.298368 
L 152.074056 181.328092 
L 153.074056 181.353487 
L 154.074056 181.364687 
L 155.074056 181.374811 
L 156.074056 181.374607 
L 157.074056 181.365097 
L 158.074056 181.353443 
L 159.074056 181.322414 
L 160.074056 181.311246 
L 161.074056 181.281128 
L 162.074056 181.221352 
L 163.074056 181.18416 
L 164.074056 181.145064 
L 165.074056 181.102624 
L 166.074056 181.069859 
L 167.074056 181.002433 
L 168.074056 180.963307 
L 169.074056 180.920632 
L 170.074056 180.850052 
L 171.074056 180.813661 
L 172.074056 180.755258 
L 173.074056 180.644305 
L 174.074056 180.573647 
L 175.074056 180.460707 
L 176.074056 180.414934 
L 177.074056 180.353651 
L 178.074056 180.305151 
L 179.074056 180.224329 
L 180.074056 180.10581 
L 181.074056 180.035599 
L 182.074056 179.952337 
L 183.074056 179.919195 
L 184.074056 179.867958 
L 185.074056 179.799559 
L 186.074056 179.733344 
L 187.074056 179.656427 
L 188.074056 179.629111 
L 189.074056 179.602634 
L 190.074056 179.579983 
L 191.074056 179.560452 
L 192.074056 179.534058 
L 193.074056 179.484287 
L 194.074056 179.449214 
L 195.074056 179.413348 
L 196.074056 179.397981 
L 197.074056 179.382212 
L 198.074056 179.378799 
L 199.074056 179.376381 
L 200.074056 179.376868 
L 201.074056 179.378797 
L 202.074056 179.392054 
L 203.074056 179.400444 
L 204.074056 179.421981 
L 205.074056 179.445013 
L 206.074056 179.462247 
L 207.074056 179.480709 
L 208.074056 179.501162 
L 209.074056 179.517762 
L 210.074056 179.580541 
L 211.074056 179.655806 
L 212.074056 179.688445 
L 213.074056 179.756008 
L 214.074056 179.810055 
L 215.074056 179.84376 
L 216.074056 179.933886 
L 217.074056 179.962421 
L 218.074056 179.993907 
L 219.074056 180.024918 
L 220.074056 180.079726 
L 221.074056 180.144313 
L 222.554168 180.182508 
" clip-path="url(#pa1318178aa)" style="fill: none; stroke: #8c564b; stroke-linecap: round"/>
                   <path d="M 218.554168 178.376187 
L 219.434536 178.851518 
L 220.312443 179.331772 
L 221.163157 179.866413 
L 222.465331 180.55386 
L 221.537978 180.579875 
L 220.626304 180.992595 
L 219.716039 181.408134 
L 218.373543 182.014938 
L 219.028442 181.376187 
L 219.080406 180.376187 
L 219.139496 178.376187 
L 218.554168 178.376187 
z
" clip-path="url(#pa1318178aa)" style="fill: #ffffff; stroke: #ffffff; stroke-width: 3; stroke-linecap: round"/>
                   <path d="M 218.554168 178.376187 
L 219.434536 178.851518 
L 220.312443 179.331772 
L 221.163157 179.866413 
L 222.465331 180.55386 
L 221.537978 180.579875 
L 220.626304 180.992595 
L 219.716039 181.408134 
L 218.373543 182.014938 
L 219.028442 181.376187 
L 219.080406 180.376187 
L 219.139496 178.376187 
L 218.554168 178.376187 
z
" clip-path="url(#pa1318178aa)" style="fill: #ffffff; stroke: #8c564b; stroke-linecap: round"/>
                   <g id="patch_19">
                    <path d="M 456.81711 180.376187 
L 455.81711 180.34475 
L 454.81711 180.30781 
L 453.81711 180.210063 
L 452.81711 180.177542 
L 451.81711 180.103917 
L 450.81711 180.065352 
L 449.81711 180.029938 
L 448.81711 179.972299 
L 447.81711 179.901912 
L 446.81711 179.849948 
L 445.81711 179.790858 
L 444.81711 179.702537 
L 443.81711 179.656393 
L 442.81711 179.613982 
L 441.81711 179.583489 
L 440.81711 179.557445 
L 439.81711 179.536244 
L 438.81711 179.481943 
L 437.81711 179.454006 
L 436.81711 179.424282 
L 435.81711 179.398887 
L 434.81711 179.387687 
L 433.81711 179.377563 
L 432.81711 179.377767 
L 431.81711 179.387277 
L 430.81711 179.39893 
L 429.81711 179.42996 
L 428.81711 179.441128 
L 427.81711 179.471245 
L 426.81711 179.531022 
L 425.81711 179.568214 
L 424.81711 179.60731 
L 423.81711 179.649749 
L 422.81711 179.682514 
L 421.81711 179.749941 
L 420.81711 179.789067 
L 419.81711 179.831741 
L 418.81711 179.902322 
L 417.81711 179.938713 
L 416.81711 179.997116 
L 415.81711 180.108069 
L 414.81711 180.178727 
L 413.81711 180.291667 
L 412.81711 180.33744 
L 411.81711 180.398723 
L 410.81711 180.447222 
L 409.81711 180.528045 
L 408.81711 180.646564 
L 407.81711 180.716774 
L 406.81711 180.800037 
L 405.81711 180.833179 
L 404.81711 180.884416 
L 403.81711 180.952814 
L 402.81711 181.01903 
L 401.81711 181.095947 
L 400.81711 181.123262 
L 399.81711 181.14974 
L 398.81711 181.17239 
L 397.81711 181.191922 
L 396.81711 181.218316 
L 395.81711 181.268087 
L 394.81711 181.30316 
L 393.81711 181.339025 
L 392.81711 181.354393 
L 391.81711 181.370162 
L 390.81711 181.373574 
L 389.81711 181.375992 
L 388.81711 181.375506 
L 387.81711 181.373577 
L 386.81711 181.36032 
L 385.81711 181.351929 
L 384.81711 181.330392 
L 383.81711 181.30736 
L 382.81711 181.290126 
L 381.81711 181.271664 
L 380.81711 181.251212 
L 379.81711 181.234612 
L 378.81711 181.171833 
L 377.81711 181.096568 
L 376.81711 181.063929 
L 375.81711 180.996365 
L 374.81711 180.942318 
L 373.81711 180.908614 
L 372.81711 180.818488 
L 371.81711 180.789953 
L 370.81711 180.758467 
L 369.81711 180.727456 
L 368.81711 180.672648 
L 367.81711 180.60806 
L 366.81711 180.569865 
L 365.81711 180.473931 
L 364.81711 180.424673 
L 363.81711 180.380603 
L 362.81711 180.34048 
L 361.81711 180.232113 
L 360.81711 180.190485 
L 359.81711 180.128343 
L 358.81711 180.058381 
L 357.81711 179.953876 
L 356.81711 179.916889 
L 355.81711 179.871012 
L 354.81711 179.802517 
L 353.81711 179.753771 
L 352.81711 179.676174 
L 351.81711 179.645633 
L 350.81711 179.576119 
L 349.81711 179.552146 
L 348.39318 179.523524 
" clip-path="url(#pa1318178aa)" style="fill: none; stroke: #ffffff; stroke-width: 3; stroke-linecap: round"/>
                    <path d="M 456.81711 180.376187 
L 455.81711 180.34475 
L 454.81711 180.30781 
L 453.81711 180.210063 
L 452.81711 180.177542 
L 451.81711 180.103917 
L 450.81711 180.065352 
L 449.81711 180.029938 
L 448.81711 179.972299 
L 447.81711 179.901912 
L 446.81711 179.849948 
L 445.81711 179.790858 
L 444.81711 179.702537 
L 443.81711 179.656393 
L 442.81711 179.613982 
L 441.81711 179.583489 
L 440.81711 179.557445 
L 439.81711 179.536244 
L 438.81711 179.481943 
L 437.81711 179.454006 
L 436.81711 179.424282 
L 435.81711 179.398887 
L 434.81711 179.387687 
L 433.81711 179.377563 
L 432.81711 179.377767 
L 431.81711 179.387277 
L 430.81711 179.39893 
L 429.81711 179.42996 
L 428.81711 179.441128 
L 427.81711 179.471245 
L 426.81711 179.531022 
L 425.81711 179.568214 
L 424.81711 179.60731 
L 423.81711 179.649749 
L 422.81711 179.682514 
L 421.81711 179.749941 
L 420.81711 179.789067 
L 419.81711 179.831741 
L 418.81711 179.902322 
L 417.81711 179.938713 
L 416.81711 179.997116 
L 415.81711 180.108069 
L 414.81711 180.178727 
L 413.81711 180.291667 
L 412.81711 180.33744 
L 411.81711 180.398723 
L 410.81711 180.447222 
L 409.81711 180.528045 
L 408.81711 180.646564 
L 407.81711 180.716774 
L 406.81711 180.800037 
L 405.81711 180.833179 
L 404.81711 180.884416 
L 403.81711 180.952814 
L 402.81711 181.01903 
L 401.81711 181.095947 
L 400.81711 181.123262 
L 399.81711 181.14974 
L 398.81711 181.17239 
L 397.81711 181.191922 
L 396.81711 181.218316 
L 395.81711 181.268087 
L 394.81711 181.30316 
L 393.81711 181.339025 
L 392.81711 181.354393 
L 391.81711 181.370162 
L 390.81711 181.373574 
L 389.81711 181.375992 
L 388.81711 181.375506 
L 387.81711 181.373577 
L 386.81711 181.36032 
L 385.81711 181.351929 
L 384.81711 181.330392 
L 383.81711 181.30736 
L 382.81711 181.290126 
L 381.81711 181.271664 
L 380.81711 181.251212 
L 379.81711 181.234612 
L 378.81711 181.171833 
L 377.81711 181.096568 
L 376.81711 181.063929 
L 375.81711 180.996365 
L 374.81711 180.942318 
L 373.81711 180.908614 
L 372.81711 180.818488 
L 371.81711 180.789953 
L 370.81711 180.758467 
L 369.81711 180.727456 
L 368.81711 180.672648 
L 367.81711 180.60806 
L 366.81711 180.569865 
L 365.81711 180.473931 
L 364.81711 180.424673 
L 363.81711 180.380603 
L 362.81711 180.34048 
L 361.81711 180.232113 
L 360.81711 180.190485 
L 359.81711 180.128343 
L 358.81711 180.058381 
L 357.81711 179.953876 
L 356.81711 179.916889 
L 355.81711 179.871012 
L 354.81711 179.802517 
L 353.81711 179.753771 
L 352.81711 179.676174 
L 351.81711 179.645633 
L 350.81711 179.576119 
L 349.81711 179.552146 
L 348.39318 179.523524 
" clip-path="url(#pa1318178aa)" style="fill: none; stroke: #7f7f7f; stroke-linecap: round"/>
                    <path d="M 352.39318 182.376187 
L 351.512811 181.900856 
L 350.634905 181.420602 
L 349.784191 180.885961 
L 348.482017 180.198513 
L 349.40937 180.172499 
L 350.321044 179.759779 
L 351.231308 179.34424 
L 352.573804 178.737436 
L 351.918905 179.376187 
L 351.866941 180.376187 
L 351.807851 182.376187 
L 352.39318 182.376187 
z
" clip-path="url(#pa1318178aa)" style="fill: #ffffff; stroke: #ffffff; stroke-width: 3; stroke-linecap: round"/>
                    <path d="M 352.39318 182.376187 
L 351.512811 181.900856 
L 350.634905 181.420602 
L 349.784191 180.885961 
L 348.482017 180.198513 
L 349.40937 180.172499 
L 350.321044 179.759779 
L 351.231308 179.34424 
L 352.573804 178.737436 
L 351.918905 179.376187 
L 351.866941 180.376187 
L 351.807851 182.376187 
L 352.39318 182.376187 
z
" clip-path="url(#pa1318178aa)" style="fill: #ffffff; stroke: #7f7f7f; stroke-linecap: round"/>
                    <g id="patch_20">
                     <path d="M 49.65125 269.014219 
L 49.65125 8.64 
" style="fill: none; stroke: #000000; stroke-width: 0.8; stroke-linejoin: miter; stroke-linecap: square"/>
                    </g>
                    <g id="text_12">
                     <g id="patch_21">
                      <path d="M 266.685184 40.148672 
L 304.266434 40.148672 
Q 305.866434 40.148672 305.866434 38.548672 
L 305.866434 30.806172 
Q 305.866434 29.206172 304.266434 29.206172 
L 266.685184 29.206172 
Q 265.085184 29.206172 265.085184 30.806172 
L 265.085184 38.548672 
Q 265.085184 40.148672 266.685184 40.148672 
z
" style="fill: #ffffff; opacity: 0.6"/>
                     </g>
                     <!-- Ancestral -->
                     <g transform="translate(266.685184 36.884922)scale(0.08 -0.08)">
                      <defs>
                       <path id="DejaVuSans-41" d="M 2188 4044 
L 1331 1722 
L 3047 1722 
L 2188 4044 
z
M 1831 4666 
L 2547 4666 
L 4325 0 
L 3669 0 
L 3244 1197 
L 1141 1197 
L 716 0 
L 50 0 
L 1831 4666 
z
" transform="scale(0.015625)"/>
                       <path id="DejaVuSans-63" d="M 3122 3366 
L 3122 2828 
Q 2878 2963 2633 3030 
Q 2388 3097 2138 3097 
Q 1578 3097 1268 2742 
Q 959 2388 959 1747 
Q 959 1106 1268 751 
Q 1578 397 2138 397 
Q 2388 397 2633 464 
Q 2878 531 3122 666 
L 3122 134 
Q 2881 22 2623 -34 
Q 2366 -91 2075 -91 
Q 1284 -91 818 406 
Q 353 903 353 1747 
Q 353 2603 823 3093 
Q 1294 3584 2113 3584 
Q 2378 3584 2631 3529 
Q 2884 3475 3122 3366 
z
" transform="scale(0.015625)"/>
                       <path id="DejaVuSans-6c" d="M 603 4863 
L 1178 4863 
L 1178 0 
L 603 0 
L 603 4863 
z
" transform="scale(0.015625)"/>
                      </defs>
                      <use xlink:href="#DejaVuSans-41"/>
                      <use xlink:href="#DejaVuSans-6e" x="68.408203"/>
                      <use xlink:href="#DejaVuSans-63" x="131.787109"/>
                      <use xlink:href="#DejaVuSans-65" x="186.767578"/>
                      <use xlink:href="#DejaVuSans-73" x="248.291016"/>
                      <use xlink:href="#DejaVuSans-74" x="300.390625"/>
                      <use xlink:href="#DejaVuSans-72" x="339.599609"/>
                      <use xlink:href="#DejaVuSans-61" x="380.712891"/>
                      <use xlink:href="#DejaVuSans-6c" x="441.992188"/>
                     </g>
                    </g>
                    <g id="text_13">
                     <g id="patch_22">
                      <path d="M 84.215614 79.593049 
L 116.134364 79.593049 
Q 117.734364 79.593049 117.734364 77.993049 
L 117.734364 70.028049 
Q 117.734364 68.428049 116.134364 68.428049 
L 84.215614 68.428049 
Q 82.615614 68.428049 82.615614 70.028049 
L 82.615614 77.993049 
Q 82.615614 79.593049 84.215614 79.593049 
z
" style="fill: #ffffff; opacity: 0.6"/>
                     </g>
                     <!-- Split_00 -->
                     <g transform="translate(84.215614 76.106799)scale(0.08 -0.08)">
                      <defs>
                       <path id="DejaVuSans-53" d="M 3425 4513 
L 3425 3897 
Q 3066 4069 2747 4153 
Q 2428 4238 2131 4238 
Q 1616 4238 1336 4038 
Q 1056 3838 1056 3469 
Q 1056 3159 1242 3001 
Q 1428 2844 1947 2747 
L 2328 2669 
Q 3034 2534 3370 2195 
Q 3706 1856 3706 1288 
Q 3706 609 3251 259 
Q 2797 -91 1919 -91 
Q 1588 -91 1214 -16 
Q 841 59 441 206 
L 441 856 
Q 825 641 1194 531 
Q 1563 422 1919 422 
Q 2459 422 2753 634 
Q 3047 847 3047 1241 
Q 3047 1584 2836 1778 
Q 2625 1972 2144 2069 
L 1759 2144 
Q 1053 2284 737 2584 
Q 422 2884 422 3419 
Q 422 4038 858 4394 
Q 1294 4750 2059 4750 
Q 2388 4750 2728 4690 
Q 3069 4631 3425 4513 
z
" transform="scale(0.015625)"/>
                       <path id="DejaVuSans-70" d="M 1159 525 
L 1159 -1331 
L 581 -1331 
L 581 3500 
L 1159 3500 
L 1159 2969 
Q 1341 3281 1617 3432 
Q 1894 3584 2278 3584 
Q 2916 3584 3314 3078 
Q 3713 2572 3713 1747 
Q 3713 922 3314 415 
Q 2916 -91 2278 -91 
Q 1894 -91 1617 61 
Q 1341 213 1159 525 
z
M 3116 1747 
Q 3116 2381 2855 2742 
Q 2594 3103 2138 3103 
Q 1681 3103 1420 2742 
Q 1159 2381 1159 1747 
Q 1159 1113 1420 752 
Q 1681 391 2138 391 
Q 2594 391 2855 752 
Q 3116 1113 3116 1747 
z
" transform="scale(0.015625)"/>
                      </defs>
                      <use xlink:href="#DejaVuSans-53"/>
                      <use xlink:href="#DejaVuSans-70" x="63.476562"/>
                      <use xlink:href="#DejaVuSans-6c" x="126.953125"/>
                      <use xlink:href="#DejaVuSans-69" x="154.736328"/>
                      <use xlink:href="#DejaVuSans-74" x="182.519531"/>
                      <use xlink:href="#DejaVuSans-5f" x="221.728516"/>
                      <use xlink:href="#DejaVuSans-30" x="271.728516"/>
                      <use xlink:href="#DejaVuSans-30" x="335.351562"/>
                     </g>
                    </g>
                    <g id="text_14">
                     <g id="patch_23">
                      <path d="M 269.516434 79.593049 
L 301.435184 79.593049 
Q 303.035184 79.593049 303.035184 77.993049 
L 303.035184 70.028049 
Q 303.035184 68.428049 301.435184 68.428049 
L 269.516434 68.428049 
Q 267.916434 68.428049 267.916434 70.028049 
L 267.916434 77.993049 
Q 267.916434 79.593049 269.516434 79.593049 
z
" style="fill: #ffffff; opacity: 0.6"/>
                     </g>
                     <!-- Split_01 -->
                     <g transform="translate(269.516434 76.106799)scale(0.08 -0.08)">
                      <use xlink:href="#DejaVuSans-53"/>
                      <use xlink:href="#DejaVuSans-70" x="63.476562"/>
                      <use xlink:href="#DejaVuSans-6c" x="126.953125"/>
                      <use xlink:href="#DejaVuSans-69" x="154.736328"/>
                      <use xlink:href="#DejaVuSans-74" x="182.519531"/>
                      <use xlink:href="#DejaVuSans-5f" x="221.728516"/>
                      <use xlink:href="#DejaVuSans-30" x="271.728516"/>
                      <use xlink:href="#DejaVuSans-31" x="335.351562"/>
                     </g>
                    </g>
                    <g id="text_15">
                     <g id="patch_24">
                      <path d="M 454.817254 79.593049 
L 486.736004 79.593049 
Q 488.336004 79.593049 488.336004 77.993049 
L 488.336004 70.028049 
Q 488.336004 68.428049 486.736004 68.428049 
L 454.817254 68.428049 
Q 453.217254 68.428049 453.217254 70.028049 
L 453.217254 77.993049 
Q 453.217254 79.593049 454.817254 79.593049 
z
" style="fill: #ffffff; opacity: 0.6"/>
                     </g>
                     <!-- Split_02 -->
                     <g transform="translate(454.817254 76.106799)scale(0.08 -0.08)">
                      <use xlink:href="#DejaVuSans-53"/>
                      <use xlink:href="#DejaVuSans-70" x="63.476562"/>
                      <use xlink:href="#DejaVuSans-6c" x="126.953125"/>
                      <use xlink:href="#DejaVuSans-69" x="154.736328"/>
                      <use xlink:href="#DejaVuSans-74" x="182.519531"/>
                      <use xlink:href="#DejaVuSans-5f" x="221.728516"/>
                      <use xlink:href="#DejaVuSans-30" x="271.728516"/>
                      <use xlink:href="#DejaVuSans-32" x="335.351562"/>
                     </g>
                    </g>
                    <g id="text_16">
                     <g id="patch_25">
                      <path d="M 268.443309 94.993454 
L 302.508309 94.993454 
Q 304.108309 94.993454 304.108309 93.393454 
L 304.108309 85.650954 
Q 304.108309 84.050954 302.508309 84.050954 
L 268.443309 84.050954 
Q 266.843309 84.050954 266.843309 85.650954 
L 266.843309 93.393454 
Q 266.843309 94.993454 268.443309 94.993454 
z
" style="fill: #ffffff; opacity: 0.6"/>
                     </g>
                     <!-- Merge_1 -->
                     <g transform="translate(268.443309 91.507204)scale(0.08 -0.08)">
                      <use xlink:href="#DejaVuSans-4d"/>
                      <use xlink:href="#DejaVuSans-65" x="86.279297"/>
                      <use xlink:href="#DejaVuSans-72" x="147.802734"/>
                      <use xlink:href="#DejaVuSans-67" x="187.166016"/>
                      <use xlink:href="#DejaVuSans-65" x="250.642578"/>
                      <use xlink:href="#DejaVuSans-5f" x="312.166016"/>
                      <use xlink:href="#DejaVuSans-31" x="362.166016"/>
                     </g>
                    </g>
                    <g id="text_17">
                     <g id="patch_26">
                      <path d="M 84.215614 141.639671 
L 116.134364 141.639671 
Q 117.734364 141.639671 117.734364 140.039671 
L 117.734364 132.074671 
Q 117.734364 130.474671 116.134364 130.474671 
L 84.215614 130.474671 
Q 82.615614 130.474671 82.615614 132.074671 
L 82.615614 140.039671 
Q 82.615614 141.639671 84.215614 141.639671 
z
" style="fill: #ffffff; opacity: 0.6"/>
                     </g>
                     <!-- Split_10 -->
                     <g transform="translate(84.215614 138.153421)scale(0.08 -0.08)">
                      <use xlink:href="#DejaVuSans-53"/>
                      <use xlink:href="#DejaVuSans-70" x="63.476562"/>
                      <use xlink:href="#DejaVuSans-6c" x="126.953125"/>
                      <use xlink:href="#DejaVuSans-69" x="154.736328"/>
                      <use xlink:href="#DejaVuSans-74" x="182.519531"/>
                      <use xlink:href="#DejaVuSans-5f" x="221.728516"/>
                      <use xlink:href="#DejaVuSans-31" x="271.728516"/>
                      <use xlink:href="#DejaVuSans-30" x="335.351562"/>
                     </g>
                    </g>
                    <g id="text_18">
                     <g id="patch_27">
                      <path d="M 269.516434 141.639671 
L 301.435184 141.639671 
Q 303.035184 141.639671 303.035184 140.039671 
L 303.035184 132.074671 
Q 303.035184 130.474671 301.435184 130.474671 
L 269.516434 130.474671 
Q 267.916434 130.474671 267.916434 132.074671 
L 267.916434 140.039671 
Q 267.916434 141.639671 269.516434 141.639671 
z
" style="fill: #ffffff; opacity: 0.6"/>
                     </g>
                     <!-- Split_11 -->
                     <g transform="translate(269.516434 138.153421)scale(0.08 -0.08)">
                      <use xlink:href="#DejaVuSans-53"/>
                      <use xlink:href="#DejaVuSans-70" x="63.476562"/>
                      <use xlink:href="#DejaVuSans-6c" x="126.953125"/>
                      <use xlink:href="#DejaVuSans-69" x="154.736328"/>
                      <use xlink:href="#DejaVuSans-74" x="182.519531"/>
                      <use xlink:href="#DejaVuSans-5f" x="221.728516"/>
                      <use xlink:href="#DejaVuSans-31" x="271.728516"/>
                      <use xlink:href="#DejaVuSans-31" x="335.351562"/>
                     </g>
                    </g>
                    <g id="text_19">
                     <g id="patch_28">
                      <path d="M 454.817254 141.639671 
L 486.736004 141.639671 
Q 488.336004 141.639671 488.336004 140.039671 
L 488.336004 132.074671 
Q 488.336004 130.474671 486.736004 130.474671 
L 454.817254 130.474671 
Q 453.217254 130.474671 453.217254 132.074671 
L 453.217254 140.039671 
Q 453.217254 141.639671 454.817254 141.639671 
z
" style="fill: #ffffff; opacity: 0.6"/>
                     </g>
                     <!-- Split_12 -->
                     <g transform="translate(454.817254 138.153421)scale(0.08 -0.08)">
                      <use xlink:href="#DejaVuSans-53"/>
                      <use xlink:href="#DejaVuSans-70" x="63.476562"/>
                      <use xlink:href="#DejaVuSans-6c" x="126.953125"/>
                      <use xlink:href="#DejaVuSans-69" x="154.736328"/>
                      <use xlink:href="#DejaVuSans-74" x="182.519531"/>
                      <use xlink:href="#DejaVuSans-5f" x="221.728516"/>
                      <use xlink:href="#DejaVuSans-31" x="271.728516"/>
                      <use xlink:href="#DejaVuSans-32" x="335.351562"/>
                     </g>
                    </g>
                   </g>
                  </g>
                  <defs>
                   <clipPath id="pa1318178aa">
                    <rect x="49.65125" y="8.64" width="453.70875" height="260.374219"/>
                   </clipPath>
                  </defs>
                 </g>
                </g>
               </g>
              </g>
             </g>
            </g>
           </g>
          </g>
         </g>
        </g>
       </g>
      </g>
     </g>
    </g>
   </g>
  </g>
 </g>
</svg>
