<?xml version="1.0" encoding="utf-8" standalone="no"?>
<!DOCTYPE svg PUBLIC "-//W3C//DTD SVG 1.1//EN"
  "http://www.w3.org/Graphics/SVG/1.1/DTD/svg11.dtd">
<svg xmlns:xlink="http://www.w3.org/1999/xlink" width="512pt" height="288pt" viewBox="0 0 512 288" xmlns="http://www.w3.org/2000/svg" version="1.1">
 <metadata>
  <rdf:RDF xmlns:dc="http://purl.org/dc/elements/1.1/" xmlns:cc="http://creativecommons.org/ns#" xmlns:rdf="http://www.w3.org/1999/02/22-rdf-syntax-ns#">
   <cc:Work>
    <dc:type rdf:resource="http://purl.org/dc/dcmitype/StillImage"/>
    <dc:date>2022-08-09T15:34:58.817224</dc:date>
    <dc:format>image/svg+xml</dc:format>
    <dc:creator>
     <cc:Agent>
      <dc:title>Matplotlib v3.5.1, https://matplotlib.org/</dc:title>
     </cc:Agent>
    </dc:creator>
   </cc:Work>
  </rdf:RDF>
 </metadata>
 <defs>
  <style type="text/css">*{stroke-linejoin: round; stroke-linecap: butt}</style>
 </defs>
 <g id="figure_1">
  <g id="patch_1">
   <path d="M 0 288 
L 512 288 
L 512 0 
L 0 0 
L 0 288 
z
" style="fill: none"/>
  </g>
  <g id="axes_1">
   <g id="patch_2">
    <path d="M 49.65125 269.014219 
L 503.36 269.014219 
L 503.36 8.64 
L 49.65125 8.64 
z
" style="fill: #ffffff"/>
   </g>
   <g id="patch_3">
    <path d="M 225.674581 8.64 
L 225.674581 60.714844 
M 345.277037 8.64 
L 345.277037 60.714844 
" clip-path="url(#p858954d60d)" style="fill: none; stroke: #ffffff; stroke-width: 3; stroke-linejoin: miter"/>
    <path d="M 225.674581 8.64 
L 225.674581 60.714844 
M 345.277037 8.64 
L 345.277037 60.714844 
" clip-path="url(#p858954d60d)" style="fill: none; stroke: #1f77b4; stroke-linejoin: miter"/>
    <g id="PolyCollection_1">
     <path d="M 345.277037 8.64 
L 225.674581 8.64 
L 225.674581 60.714844 
L 345.277037 60.714844 
L 345.277037 60.714844 
L 345.277037 8.64 
z
" clip-path="url(#p858954d60d)" style="fill: #1f77b4; fill-opacity: 0.5"/>
    </g>
    <g id="patch_4">
     <path d="M 70.274375 60.714844 
L 70.274375 73.339048 
M 130.075603 60.714844 
L 130.075603 73.339048 
" clip-path="url(#p858954d60d)" style="fill: none; stroke: #ffffff; stroke-width: 3; stroke-linejoin: miter"/>
     <path d="M 70.274375 60.714844 
L 70.274375 73.339048 
M 130.075603 60.714844 
L 130.075603 73.339048 
" clip-path="url(#p858954d60d)" style="fill: none; stroke: #ff7f0e; stroke-linejoin: miter"/>
     <g id="PolyCollection_2">
      <path d="M 130.075603 60.714844 
L 70.274375 60.714844 
L 70.274375 73.339048 
L 130.075603 73.339048 
L 130.075603 73.339048 
L 130.075603 60.714844 
z
" clip-path="url(#p858954d60d)" style="fill: #ff7f0e; fill-opacity: 0.5"/>
     </g>
     <g id="patch_5">
      <path d="M 267.535441 60.714844 
L 267.535441 73.339048 
M 303.416178 60.714844 
L 303.416178 73.339048 
" clip-path="url(#p858954d60d)" style="fill: none; stroke: #ffffff; stroke-width: 3; stroke-linejoin: miter"/>
      <path d="M 267.535441 60.714844 
L 267.535441 73.339048 
M 303.416178 60.714844 
L 303.416178 73.339048 
" clip-path="url(#p858954d60d)" style="fill: none; stroke: #2ca02c; stroke-linejoin: miter"/>
      <g id="PolyCollection_3">
       <path d="M 303.416178 60.714844 
L 267.535441 60.714844 
L 267.535441 73.339048 
L 303.416178 73.339048 
L 303.416178 73.339048 
L 303.416178 60.714844 
z
" clip-path="url(#p858954d60d)" style="fill: #2ca02c; fill-opacity: 0.5"/>
      </g>
      <g id="patch_6">
       <path d="M 458.816384 60.714844 
L 458.816384 73.339048 
M 482.736875 60.714844 
L 482.736875 73.339048 
" clip-path="url(#p858954d60d)" style="fill: none; stroke: #ffffff; stroke-width: 3; stroke-linejoin: miter"/>
       <path d="M 458.816384 60.714844 
L 458.816384 73.339048 
M 482.736875 60.714844 
L 482.736875 73.339048 
" clip-path="url(#p858954d60d)" style="fill: none; stroke: #d62728; stroke-linejoin: miter"/>
       <g id="PolyCollection_4">
        <path d="M 482.736875 60.714844 
L 458.816384 60.714844 
L 458.816384 73.339048 
L 482.736875 73.339048 
L 482.736875 73.339048 
L 482.736875 60.714844 
z
" clip-path="url(#p858954d60d)" style="fill: #d62728; fill-opacity: 0.5"/>
       </g>
       <g id="patch_7">
        <path d="M 225.674581 73.339048 
L 225.674581 79.651151 
M 345.277037 73.339048 
L 345.277037 79.651151 
" clip-path="url(#p858954d60d)" style="fill: none; stroke: #ffffff; stroke-width: 3; stroke-linejoin: miter"/>
        <path d="M 225.674581 73.339048 
L 225.674581 79.651151 
M 345.277037 73.339048 
L 345.277037 79.651151 
" clip-path="url(#p858954d60d)" style="fill: none; stroke: #9467bd; stroke-linejoin: miter"/>
        <g id="PolyCollection_5">
         <path d="M 345.277037 73.339048 
L 225.674581 73.339048 
L 225.674581 79.651151 
L 345.277037 79.651151 
L 345.277037 79.651151 
L 345.277037 73.339048 
z
" clip-path="url(#p858954d60d)" style="fill: #9467bd; fill-opacity: 0.5"/>
        </g>
        <g id="patch_8">
         <path d="M 70.274375 79.651151 
L 70.274375 205.893196 
M 130.075603 79.651151 
L 130.075603 205.893196 
" clip-path="url(#p858954d60d)" style="fill: none; stroke: #ffffff; stroke-width: 3; stroke-linejoin: miter"/>
         <path d="M 70.274375 79.651151 
L 70.274375 205.893196 
M 130.075603 79.651151 
L 130.075603 205.893196 
" clip-path="url(#p858954d60d)" style="fill: none; stroke: #8c564b; stroke-linejoin: miter"/>
         <g id="PolyCollection_6">
          <path d="M 130.075603 79.651151 
L 70.274375 79.651151 
L 70.274375 205.893196 
L 130.075603 205.893196 
L 130.075603 205.893196 
L 130.075603 79.651151 
z
" clip-path="url(#p858954d60d)" style="fill: #8c564b; fill-opacity: 0.5"/>
         </g>
         <g id="patch_9">
          <path d="M 267.535441 79.651151 
L 267.535441 205.893196 
M 303.416178 79.651151 
L 303.416178 205.893196 
" clip-path="url(#p858954d60d)" style="fill: none; stroke: #ffffff; stroke-width: 3; stroke-linejoin: miter"/>
          <path d="M 267.535441 79.651151 
L 267.535441 205.893196 
M 303.416178 79.651151 
L 303.416178 205.893196 
" clip-path="url(#p858954d60d)" style="fill: none; stroke: #e377c2; stroke-linejoin: miter"/>
          <g id="PolyCollection_7">
           <path d="M 303.416178 79.651151 
L 267.535441 79.651151 
L 267.535441 205.893196 
L 303.416178 205.893196 
L 303.416178 205.893196 
L 303.416178 79.651151 
z
" clip-path="url(#p858954d60d)" style="fill: #e377c2; fill-opacity: 0.5"/>
          </g>
          <g id="patch_10">
           <path d="M 458.816384 79.651151 
L 458.816384 205.893196 
M 482.736875 79.651151 
L 482.736875 205.893196 
" clip-path="url(#p858954d60d)" style="fill: none; stroke: #ffffff; stroke-width: 3; stroke-linejoin: miter"/>
           <path d="M 458.816384 79.651151 
L 458.816384 205.893196 
M 482.736875 79.651151 
L 482.736875 205.893196 
" clip-path="url(#p858954d60d)" style="fill: none; stroke: #7f7f7f; stroke-linejoin: miter"/>
           <g id="PolyCollection_8">
            <path d="M 482.736875 79.651151 
L 458.816384 79.651151 
L 458.816384 205.893196 
L 482.736875 205.893196 
L 482.736875 205.893196 
L 482.736875 79.651151 
z
" clip-path="url(#p858954d60d)" style="fill: #7f7f7f; fill-opacity: 0.5"/>
           </g>
           <g id="patch_11">
            <path d="M 225.674581 205.893196 
L 225.674581 269.014219 
M 345.277037 205.893196 
L 345.277037 269.014219 
" clip-path="url(#p858954d60d)" style="fill: none; stroke: #ffffff; stroke-width: 3; stroke-linejoin: miter"/>
            <path d="M 225.674581 205.893196 
L 225.674581 269.014219 
M 345.277037 205.893196 
L 345.277037 269.014219 
" clip-path="url(#p858954d60d)" style="fill: none; stroke: #bcbd22; stroke-linejoin: miter"/>
            <g id="PolyCollection_9">
             <path d="M 345.277037 205.893196 
L 225.674581 205.893196 
L 225.674581 269.014219 
L 345.277037 269.014219 
L 345.277037 269.014219 
L 345.277037 205.893196 
z
" clip-path="url(#p858954d60d)" style="fill: #bcbd22; fill-opacity: 0.5"/>
            </g>
            <g id="matplotlib.axis_1">
             <g id="xtick_1">
              <g id="line2d_1"/>
              <g id="text_1">
               <!-- Merge_2 -->
               <g transform="translate(270.572372 277.709531)scale(0.07 -0.07)">
                <defs>
                 <path id="DejaVuSans-4d" d="M 628 4666 
L 1569 4666 
L 2759 1491 
L 3956 4666 
L 4897 4666 
L 4897 0 
L 4281 0 
L 4281 4097 
L 3078 897 
L 2444 897 
L 1241 4097 
L 1241 0 
L 628 0 
L 628 4666 
z
" transform="scale(0.015625)"/>
                 <path id="DejaVuSans-65" d="M 3597 1894 
L 3597 1613 
L 953 1613 
Q 991 1019 1311 708 
Q 1631 397 2203 397 
Q 2534 397 2845 478 
Q 3156 559 3463 722 
L 3463 178 
Q 3153 47 2828 -22 
Q 2503 -91 2169 -91 
Q 1331 -91 842 396 
Q 353 884 353 1716 
Q 353 2575 817 3079 
Q 1281 3584 2069 3584 
Q 2775 3584 3186 3129 
Q 3597 2675 3597 1894 
z
M 3022 2063 
Q 3016 2534 2758 2815 
Q 2500 3097 2075 3097 
Q 1594 3097 1305 2825 
Q 1016 2553 972 2059 
L 3022 2063 
z
" transform="scale(0.015625)"/>
                 <path id="DejaVuSans-72" d="M 2631 2963 
Q 2534 3019 2420 3045 
Q 2306 3072 2169 3072 
Q 1681 3072 1420 2755 
Q 1159 2438 1159 1844 
L 1159 0 
L 581 0 
L 581 3500 
L 1159 3500 
L 1159 2956 
Q 1341 3275 1631 3429 
Q 1922 3584 2338 3584 
Q 2397 3584 2469 3576 
Q 2541 3569 2628 3553 
L 2631 2963 
z
" transform="scale(0.015625)"/>
                 <path id="DejaVuSans-67" d="M 2906 1791 
Q 2906 2416 2648 2759 
Q 2391 3103 1925 3103 
Q 1463 3103 1205 2759 
Q 947 2416 947 1791 
Q 947 1169 1205 825 
Q 1463 481 1925 481 
Q 2391 481 2648 825 
Q 2906 1169 2906 1791 
z
M 3481 434 
Q 3481 -459 3084 -895 
Q 2688 -1331 1869 -1331 
Q 1566 -1331 1297 -1286 
Q 1028 -1241 775 -1147 
L 775 -588 
Q 1028 -725 1275 -790 
Q 1522 -856 1778 -856 
Q 2344 -856 2625 -561 
Q 2906 -266 2906 331 
L 2906 616 
Q 2728 306 2450 153 
Q 2172 0 1784 0 
Q 1141 0 747 490 
Q 353 981 353 1791 
Q 353 2603 747 3093 
Q 1141 3584 1784 3584 
Q 2172 3584 2450 3431 
Q 2728 3278 2906 2969 
L 2906 3500 
L 3481 3500 
L 3481 434 
z
" transform="scale(0.015625)"/>
                 <path id="DejaVuSans-5f" d="M 3263 -1063 
L 3263 -1509 
L -63 -1509 
L -63 -1063 
L 3263 -1063 
z
" transform="scale(0.015625)"/>
                 <path id="DejaVuSans-32" d="M 1228 531 
L 3431 531 
L 3431 0 
L 469 0 
L 469 531 
Q 828 903 1448 1529 
Q 2069 2156 2228 2338 
Q 2531 2678 2651 2914 
Q 2772 3150 2772 3378 
Q 2772 3750 2511 3984 
Q 2250 4219 1831 4219 
Q 1534 4219 1204 4116 
Q 875 4013 500 3803 
L 500 4441 
Q 881 4594 1212 4672 
Q 1544 4750 1819 4750 
Q 2544 4750 2975 4387 
Q 3406 4025 3406 3419 
Q 3406 3131 3298 2873 
Q 3191 2616 2906 2266 
Q 2828 2175 2409 1742 
Q 1991 1309 1228 531 
z
" transform="scale(0.015625)"/>
                </defs>
                <use xlink:href="#DejaVuSans-4d"/>
                <use xlink:href="#DejaVuSans-65" x="86.279297"/>
                <use xlink:href="#DejaVuSans-72" x="147.802734"/>
                <use xlink:href="#DejaVuSans-67" x="187.166016"/>
                <use xlink:href="#DejaVuSans-65" x="250.642578"/>
                <use xlink:href="#DejaVuSans-5f" x="312.166016"/>
                <use xlink:href="#DejaVuSans-32" x="362.166016"/>
               </g>
              </g>
             </g>
            </g>
            <g id="matplotlib.axis_2">
             <g id="ytick_1">
              <g id="line2d_2">
               <defs>
                <path id="m9a509e75eb" d="M 0 0 
L -3.5 0 
" style="stroke: #000000; stroke-width: 0.8"/>
               </defs>
               <g>
                <use xlink:href="#m9a509e75eb" x="49.65125" y="269.014219" style="stroke: #000000; stroke-width: 0.8"/>
               </g>
              </g>
              <g id="text_2">
               <!-- 0 -->
               <g transform="translate(38.1975 271.673672)scale(0.07 -0.07)">
                <defs>
                 <path id="DejaVuSans-30" d="M 2034 4250 
Q 1547 4250 1301 3770 
Q 1056 3291 1056 2328 
Q 1056 1369 1301 889 
Q 1547 409 2034 409 
Q 2525 409 2770 889 
Q 3016 1369 3016 2328 
Q 3016 3291 2770 3770 
Q 2525 4250 2034 4250 
z
M 2034 4750 
Q 2819 4750 3233 4129 
Q 3647 3509 3647 2328 
Q 3647 1150 3233 529 
Q 2819 -91 2034 -91 
Q 1250 -91 836 529 
Q 422 1150 422 2328 
Q 422 3509 836 4129 
Q 1250 4750 2034 4750 
z
" transform="scale(0.015625)"/>
                </defs>
                <use xlink:href="#DejaVuSans-30"/>
               </g>
              </g>
             </g>
             <g id="ytick_2">
              <g id="line2d_3">
               <g>
                <use xlink:href="#m9a509e75eb" x="49.65125" y="226.933537" style="stroke: #000000; stroke-width: 0.8"/>
               </g>
              </g>
              <g id="text_3">
               <!-- 10000 -->
               <g transform="translate(20.3825 229.59299)scale(0.07 -0.07)">
                <defs>
                 <path id="DejaVuSans-31" d="M 794 531 
L 1825 531 
L 1825 4091 
L 703 3866 
L 703 4441 
L 1819 4666 
L 2450 4666 
L 2450 531 
L 3481 531 
L 3481 0 
L 794 0 
L 794 531 
z
" transform="scale(0.015625)"/>
                </defs>
                <use xlink:href="#DejaVuSans-31"/>
                <use xlink:href="#DejaVuSans-30" x="63.623047"/>
                <use xlink:href="#DejaVuSans-30" x="127.246094"/>
                <use xlink:href="#DejaVuSans-30" x="190.869141"/>
                <use xlink:href="#DejaVuSans-30" x="254.492188"/>
               </g>
              </g>
             </g>
             <g id="ytick_3">
              <g id="line2d_4">
               <g>
                <use xlink:href="#m9a509e75eb" x="49.65125" y="184.852855" style="stroke: #000000; stroke-width: 0.8"/>
               </g>
              </g>
              <g id="text_4">
               <!-- 20000 -->
               <g transform="translate(20.3825 187.512308)scale(0.07 -0.07)">
                <use xlink:href="#DejaVuSans-32"/>
                <use xlink:href="#DejaVuSans-30" x="63.623047"/>
                <use xlink:href="#DejaVuSans-30" x="127.246094"/>
                <use xlink:href="#DejaVuSans-30" x="190.869141"/>
                <use xlink:href="#DejaVuSans-30" x="254.492188"/>
               </g>
              </g>
             </g>
             <g id="ytick_4">
              <g id="line2d_5">
               <g>
                <use xlink:href="#m9a509e75eb" x="49.65125" y="142.772173" style="stroke: #000000; stroke-width: 0.8"/>
               </g>
              </g>
              <g id="text_5">
               <!-- 30000 -->
               <g transform="translate(20.3825 145.431626)scale(0.07 -0.07)">
                <defs>
                 <path id="DejaVuSans-33" d="M 2597 2516 
Q 3050 2419 3304 2112 
Q 3559 1806 3559 1356 
Q 3559 666 3084 287 
Q 2609 -91 1734 -91 
Q 1441 -91 1130 -33 
Q 819 25 488 141 
L 488 750 
Q 750 597 1062 519 
Q 1375 441 1716 441 
Q 2309 441 2620 675 
Q 2931 909 2931 1356 
Q 2931 1769 2642 2001 
Q 2353 2234 1838 2234 
L 1294 2234 
L 1294 2753 
L 1863 2753 
Q 2328 2753 2575 2939 
Q 2822 3125 2822 3475 
Q 2822 3834 2567 4026 
Q 2313 4219 1838 4219 
Q 1578 4219 1281 4162 
Q 984 4106 628 3988 
L 628 4550 
Q 988 4650 1302 4700 
Q 1616 4750 1894 4750 
Q 2613 4750 3031 4423 
Q 3450 4097 3450 3541 
Q 3450 3153 3228 2886 
Q 3006 2619 2597 2516 
z
" transform="scale(0.015625)"/>
                </defs>
                <use xlink:href="#DejaVuSans-33"/>
                <use xlink:href="#DejaVuSans-30" x="63.623047"/>
                <use xlink:href="#DejaVuSans-30" x="127.246094"/>
                <use xlink:href="#DejaVuSans-30" x="190.869141"/>
                <use xlink:href="#DejaVuSans-30" x="254.492188"/>
               </g>
              </g>
             </g>
             <g id="ytick_5">
              <g id="line2d_6">
               <g>
                <use xlink:href="#m9a509e75eb" x="49.65125" y="100.691491" style="stroke: #000000; stroke-width: 0.8"/>
               </g>
              </g>
              <g id="text_6">
               <!-- 40000 -->
               <g transform="translate(20.3825 103.350945)scale(0.07 -0.07)">
                <defs>
                 <path id="DejaVuSans-34" d="M 2419 4116 
L 825 1625 
L 2419 1625 
L 2419 4116 
z
M 2253 4666 
L 3047 4666 
L 3047 1625 
L 3713 1625 
L 3713 1100 
L 3047 1100 
L 3047 0 
L 2419 0 
L 2419 1100 
L 313 1100 
L 313 1709 
L 2253 4666 
z
" transform="scale(0.015625)"/>
                </defs>
                <use xlink:href="#DejaVuSans-34"/>
                <use xlink:href="#DejaVuSans-30" x="63.623047"/>
                <use xlink:href="#DejaVuSans-30" x="127.246094"/>
                <use xlink:href="#DejaVuSans-30" x="190.869141"/>
                <use xlink:href="#DejaVuSans-30" x="254.492188"/>
               </g>
              </g>
             </g>
             <g id="ytick_6">
              <g id="line2d_7">
               <g>
                <use xlink:href="#m9a509e75eb" x="49.65125" y="58.61081" style="stroke: #000000; stroke-width: 0.8"/>
               </g>
              </g>
              <g id="text_7">
               <!-- 50000 -->
               <g transform="translate(20.3825 61.270263)scale(0.07 -0.07)">
                <defs>
                 <path id="DejaVuSans-35" d="M 691 4666 
L 3169 4666 
L 3169 4134 
L 1269 4134 
L 1269 2991 
Q 1406 3038 1543 3061 
Q 1681 3084 1819 3084 
Q 2600 3084 3056 2656 
Q 3513 2228 3513 1497 
Q 3513 744 3044 326 
Q 2575 -91 1722 -91 
Q 1428 -91 1123 -41 
Q 819 9 494 109 
L 494 744 
Q 775 591 1075 516 
Q 1375 441 1709 441 
Q 2250 441 2565 725 
Q 2881 1009 2881 1497 
Q 2881 1984 2565 2268 
Q 2250 2553 1709 2553 
Q 1456 2553 1204 2497 
Q 953 2441 691 2322 
L 691 4666 
z
" transform="scale(0.015625)"/>
                </defs>
                <use xlink:href="#DejaVuSans-35"/>
                <use xlink:href="#DejaVuSans-30" x="63.623047"/>
                <use xlink:href="#DejaVuSans-30" x="127.246094"/>
                <use xlink:href="#DejaVuSans-30" x="190.869141"/>
                <use xlink:href="#DejaVuSans-30" x="254.492188"/>
               </g>
              </g>
             </g>
             <g id="ytick_7">
              <g id="line2d_8">
               <g>
                <use xlink:href="#m9a509e75eb" x="49.65125" y="16.530128" style="stroke: #000000; stroke-width: 0.8"/>
               </g>
              </g>
              <g id="text_8">
               <!-- 60000 -->
               <g transform="translate(20.3825 19.189581)scale(0.07 -0.07)">
                <defs>
                 <path id="DejaVuSans-36" d="M 2113 2584 
Q 1688 2584 1439 2293 
Q 1191 2003 1191 1497 
Q 1191 994 1439 701 
Q 1688 409 2113 409 
Q 2538 409 2786 701 
Q 3034 994 3034 1497 
Q 3034 2003 2786 2293 
Q 2538 2584 2113 2584 
z
M 3366 4563 
L 3366 3988 
Q 3128 4100 2886 4159 
Q 2644 4219 2406 4219 
Q 1781 4219 1451 3797 
Q 1122 3375 1075 2522 
Q 1259 2794 1537 2939 
Q 1816 3084 2150 3084 
Q 2853 3084 3261 2657 
Q 3669 2231 3669 1497 
Q 3669 778 3244 343 
Q 2819 -91 2113 -91 
Q 1303 -91 875 529 
Q 447 1150 447 2328 
Q 447 3434 972 4092 
Q 1497 4750 2381 4750 
Q 2619 4750 2861 4703 
Q 3103 4656 3366 4563 
z
" transform="scale(0.015625)"/>
                </defs>
                <use xlink:href="#DejaVuSans-36"/>
                <use xlink:href="#DejaVuSans-30" x="63.623047"/>
                <use xlink:href="#DejaVuSans-30" x="127.246094"/>
                <use xlink:href="#DejaVuSans-30" x="190.869141"/>
                <use xlink:href="#DejaVuSans-30" x="254.492188"/>
               </g>
              </g>
             </g>
             <g id="text_9">
              <!-- time ago (generations) -->
              <g transform="translate(14.71875 184.803984)rotate(-90)scale(0.08 -0.08)">
               <defs>
                <path id="DejaVuSans-74" d="M 1172 4494 
L 1172 3500 
L 2356 3500 
L 2356 3053 
L 1172 3053 
L 1172 1153 
Q 1172 725 1289 603 
Q 1406 481 1766 481 
L 2356 481 
L 2356 0 
L 1766 0 
Q 1100 0 847 248 
Q 594 497 594 1153 
L 594 3053 
L 172 3053 
L 172 3500 
L 594 3500 
L 594 4494 
L 1172 4494 
z
" transform="scale(0.015625)"/>
                <path id="DejaVuSans-69" d="M 603 3500 
L 1178 3500 
L 1178 0 
L 603 0 
L 603 3500 
z
M 603 4863 
L 1178 4863 
L 1178 4134 
L 603 4134 
L 603 4863 
z
" transform="scale(0.015625)"/>
                <path id="DejaVuSans-6d" d="M 3328 2828 
Q 3544 3216 3844 3400 
Q 4144 3584 4550 3584 
Q 5097 3584 5394 3201 
Q 5691 2819 5691 2113 
L 5691 0 
L 5113 0 
L 5113 2094 
Q 5113 2597 4934 2840 
Q 4756 3084 4391 3084 
Q 3944 3084 3684 2787 
Q 3425 2491 3425 1978 
L 3425 0 
L 2847 0 
L 2847 2094 
Q 2847 2600 2669 2842 
Q 2491 3084 2119 3084 
Q 1678 3084 1418 2786 
Q 1159 2488 1159 1978 
L 1159 0 
L 581 0 
L 581 3500 
L 1159 3500 
L 1159 2956 
Q 1356 3278 1631 3431 
Q 1906 3584 2284 3584 
Q 2666 3584 2933 3390 
Q 3200 3197 3328 2828 
z
" transform="scale(0.015625)"/>
                <path id="DejaVuSans-20" transform="scale(0.015625)"/>
                <path id="DejaVuSans-61" d="M 2194 1759 
Q 1497 1759 1228 1600 
Q 959 1441 959 1056 
Q 959 750 1161 570 
Q 1363 391 1709 391 
Q 2188 391 2477 730 
Q 2766 1069 2766 1631 
L 2766 1759 
L 2194 1759 
z
M 3341 1997 
L 3341 0 
L 2766 0 
L 2766 531 
Q 2569 213 2275 61 
Q 1981 -91 1556 -91 
Q 1019 -91 701 211 
Q 384 513 384 1019 
Q 384 1609 779 1909 
Q 1175 2209 1959 2209 
L 2766 2209 
L 2766 2266 
Q 2766 2663 2505 2880 
Q 2244 3097 1772 3097 
Q 1472 3097 1187 3025 
Q 903 2953 641 2809 
L 641 3341 
Q 956 3463 1253 3523 
Q 1550 3584 1831 3584 
Q 2591 3584 2966 3190 
Q 3341 2797 3341 1997 
z
" transform="scale(0.015625)"/>
                <path id="DejaVuSans-6f" d="M 1959 3097 
Q 1497 3097 1228 2736 
Q 959 2375 959 1747 
Q 959 1119 1226 758 
Q 1494 397 1959 397 
Q 2419 397 2687 759 
Q 2956 1122 2956 1747 
Q 2956 2369 2687 2733 
Q 2419 3097 1959 3097 
z
M 1959 3584 
Q 2709 3584 3137 3096 
Q 3566 2609 3566 1747 
Q 3566 888 3137 398 
Q 2709 -91 1959 -91 
Q 1206 -91 779 398 
Q 353 888 353 1747 
Q 353 2609 779 3096 
Q 1206 3584 1959 3584 
z
" transform="scale(0.015625)"/>
                <path id="DejaVuSans-28" d="M 1984 4856 
Q 1566 4138 1362 3434 
Q 1159 2731 1159 2009 
Q 1159 1288 1364 580 
Q 1569 -128 1984 -844 
L 1484 -844 
Q 1016 -109 783 600 
Q 550 1309 550 2009 
Q 550 2706 781 3412 
Q 1013 4119 1484 4856 
L 1984 4856 
z
" transform="scale(0.015625)"/>
                <path id="DejaVuSans-6e" d="M 3513 2113 
L 3513 0 
L 2938 0 
L 2938 2094 
Q 2938 2591 2744 2837 
Q 2550 3084 2163 3084 
Q 1697 3084 1428 2787 
Q 1159 2491 1159 1978 
L 1159 0 
L 581 0 
L 581 3500 
L 1159 3500 
L 1159 2956 
Q 1366 3272 1645 3428 
Q 1925 3584 2291 3584 
Q 2894 3584 3203 3211 
Q 3513 2838 3513 2113 
z
" transform="scale(0.015625)"/>
                <path id="DejaVuSans-73" d="M 2834 3397 
L 2834 2853 
Q 2591 2978 2328 3040 
Q 2066 3103 1784 3103 
Q 1356 3103 1142 2972 
Q 928 2841 928 2578 
Q 928 2378 1081 2264 
Q 1234 2150 1697 2047 
L 1894 2003 
Q 2506 1872 2764 1633 
Q 3022 1394 3022 966 
Q 3022 478 2636 193 
Q 2250 -91 1575 -91 
Q 1294 -91 989 -36 
Q 684 19 347 128 
L 347 722 
Q 666 556 975 473 
Q 1284 391 1588 391 
Q 1994 391 2212 530 
Q 2431 669 2431 922 
Q 2431 1156 2273 1281 
Q 2116 1406 1581 1522 
L 1381 1569 
Q 847 1681 609 1914 
Q 372 2147 372 2553 
Q 372 3047 722 3315 
Q 1072 3584 1716 3584 
Q 2034 3584 2315 3537 
Q 2597 3491 2834 3397 
z
" transform="scale(0.015625)"/>
                <path id="DejaVuSans-29" d="M 513 4856 
L 1013 4856 
Q 1481 4119 1714 3412 
Q 1947 2706 1947 2009 
Q 1947 1309 1714 600 
Q 1481 -109 1013 -844 
L 513 -844 
Q 928 -128 1133 580 
Q 1338 1288 1338 2009 
Q 1338 2731 1133 3434 
Q 928 4138 513 4856 
z
" transform="scale(0.015625)"/>
               </defs>
               <use xlink:href="#DejaVuSans-74"/>
               <use xlink:href="#DejaVuSans-69" x="39.208984"/>
               <use xlink:href="#DejaVuSans-6d" x="66.992188"/>
               <use xlink:href="#DejaVuSans-65" x="164.404297"/>
               <use xlink:href="#DejaVuSans-20" x="225.927734"/>
               <use xlink:href="#DejaVuSans-61" x="257.714844"/>
               <use xlink:href="#DejaVuSans-67" x="318.994141"/>
               <use xlink:href="#DejaVuSans-6f" x="382.470703"/>
               <use xlink:href="#DejaVuSans-20" x="443.652344"/>
               <use xlink:href="#DejaVuSans-28" x="475.439453"/>
               <use xlink:href="#DejaVuSans-67" x="514.453125"/>
               <use xlink:href="#DejaVuSans-65" x="577.929688"/>
               <use xlink:href="#DejaVuSans-6e" x="639.453125"/>
               <use xlink:href="#DejaVuSans-65" x="702.832031"/>
               <use xlink:href="#DejaVuSans-72" x="764.355469"/>
               <use xlink:href="#DejaVuSans-61" x="805.46875"/>
               <use xlink:href="#DejaVuSans-74" x="866.748047"/>
               <use xlink:href="#DejaVuSans-69" x="905.957031"/>
               <use xlink:href="#DejaVuSans-6f" x="933.740234"/>
               <use xlink:href="#DejaVuSans-6e" x="994.921875"/>
               <use xlink:href="#DejaVuSans-73" x="1058.300781"/>
               <use xlink:href="#DejaVuSans-29" x="1110.400391"/>
              </g>
             </g>
            </g>
            <g id="patch_12">
             <path d="M 223.676128 60.714844 
L 222.676128 60.683407 
L 221.676128 60.646467 
L 220.676128 60.54872 
L 219.676128 60.516199 
L 218.676128 60.442574 
L 217.676128 60.404009 
L 216.676128 60.368595 
L 215.676128 60.310955 
L 214.676128 60.240569 
L 213.676128 60.188605 
L 212.676128 60.129515 
L 211.676128 60.041194 
L 210.676128 59.99505 
L 209.676128 59.952639 
L 208.676128 59.922146 
L 207.676128 59.896101 
L 206.676128 59.874901 
L 205.676128 59.8206 
L 204.676128 59.792663 
L 203.676128 59.762939 
L 202.676128 59.737544 
L 201.676128 59.726344 
L 200.676128 59.71622 
L 199.676128 59.716424 
L 198.676128 59.725934 
L 197.676128 59.737587 
L 196.676128 59.768617 
L 195.676128 59.779785 
L 194.676128 59.809902 
L 193.676128 59.869679 
L 192.676128 59.906871 
L 191.676128 59.945967 
L 190.676128 59.988406 
L 189.676128 60.021171 
L 188.676128 60.088598 
L 187.676128 60.127724 
L 186.676128 60.170398 
L 185.676128 60.240979 
L 184.676128 60.27737 
L 183.676128 60.335773 
L 182.676128 60.446726 
L 181.676128 60.517384 
L 180.676128 60.630324 
L 179.676128 60.676097 
L 178.676128 60.73738 
L 177.676128 60.785879 
L 176.676128 60.866702 
L 175.676128 60.985221 
L 174.676128 61.055431 
L 173.676128 61.138694 
L 172.676128 61.171836 
L 171.676128 61.223073 
L 170.676128 61.291471 
L 169.676128 61.357687 
L 168.676128 61.434604 
L 167.676128 61.461919 
L 166.676128 61.488397 
L 165.676128 61.511047 
L 164.676128 61.530579 
L 163.676128 61.556973 
L 162.676128 61.606743 
L 161.676128 61.641817 
L 160.676128 61.677682 
L 159.676128 61.69305 
L 158.676128 61.708819 
L 157.676128 61.712231 
L 156.676128 61.714649 
L 155.676128 61.714163 
L 154.676128 61.712234 
L 153.676128 61.698977 
L 152.676128 61.690586 
L 151.676128 61.669049 
L 150.676128 61.646017 
L 149.676128 61.628783 
L 148.676128 61.610321 
L 147.676128 61.589868 
L 146.676128 61.573269 
L 145.676128 61.51049 
L 144.676128 61.435225 
L 143.676128 61.402586 
L 142.676128 61.335022 
L 141.676128 61.280975 
L 140.676128 61.247271 
L 139.676128 61.157145 
L 138.676128 61.12861 
L 137.676128 61.097124 
L 136.676128 61.066113 
L 135.676128 61.011305 
L 134.676128 60.946717 
L 133.196016 60.908522 
" clip-path="url(#p858954d60d)" style="fill: none; stroke: #ffffff; stroke-width: 3; stroke-linecap: round"/>
             <path d="M 223.676128 60.714844 
L 222.676128 60.683407 
L 221.676128 60.646467 
L 220.676128 60.54872 
L 219.676128 60.516199 
L 218.676128 60.442574 
L 217.676128 60.404009 
L 216.676128 60.368595 
L 215.676128 60.310955 
L 214.676128 60.240569 
L 213.676128 60.188605 
L 212.676128 60.129515 
L 211.676128 60.041194 
L 210.676128 59.99505 
L 209.676128 59.952639 
L 208.676128 59.922146 
L 207.676128 59.896101 
L 206.676128 59.874901 
L 205.676128 59.8206 
L 204.676128 59.792663 
L 203.676128 59.762939 
L 202.676128 59.737544 
L 201.676128 59.726344 
L 200.676128 59.71622 
L 199.676128 59.716424 
L 198.676128 59.725934 
L 197.676128 59.737587 
L 196.676128 59.768617 
L 195.676128 59.779785 
L 194.676128 59.809902 
L 193.676128 59.869679 
L 192.676128 59.906871 
L 191.676128 59.945967 
L 190.676128 59.988406 
L 189.676128 60.021171 
L 188.676128 60.088598 
L 187.676128 60.127724 
L 186.676128 60.170398 
L 185.676128 60.240979 
L 184.676128 60.27737 
L 183.676128 60.335773 
L 182.676128 60.446726 
L 181.676128 60.517384 
L 180.676128 60.630324 
L 179.676128 60.676097 
L 178.676128 60.73738 
L 177.676128 60.785879 
L 176.676128 60.866702 
L 175.676128 60.985221 
L 174.676128 61.055431 
L 173.676128 61.138694 
L 172.676128 61.171836 
L 171.676128 61.223073 
L 170.676128 61.291471 
L 169.676128 61.357687 
L 168.676128 61.434604 
L 167.676128 61.461919 
L 166.676128 61.488397 
L 165.676128 61.511047 
L 164.676128 61.530579 
L 163.676128 61.556973 
L 162.676128 61.606743 
L 161.676128 61.641817 
L 160.676128 61.677682 
L 159.676128 61.69305 
L 158.676128 61.708819 
L 157.676128 61.712231 
L 156.676128 61.714649 
L 155.676128 61.714163 
L 154.676128 61.712234 
L 153.676128 61.698977 
L 152.676128 61.690586 
L 151.676128 61.669049 
L 150.676128 61.646017 
L 149.676128 61.628783 
L 148.676128 61.610321 
L 147.676128 61.589868 
L 146.676128 61.573269 
L 145.676128 61.51049 
L 144.676128 61.435225 
L 143.676128 61.402586 
L 142.676128 61.335022 
L 141.676128 61.280975 
L 140.676128 61.247271 
L 139.676128 61.157145 
L 138.676128 61.12861 
L 137.676128 61.097124 
L 136.676128 61.066113 
L 135.676128 61.011305 
L 134.676128 60.946717 
L 133.196016 60.908522 
" clip-path="url(#p858954d60d)" style="fill: none; stroke: #1f77b4; stroke-linecap: round"/>
             <path d="M 137.196016 62.714844 
L 136.315648 62.239513 
L 135.437741 61.759259 
L 134.587028 61.224618 
L 133.284853 60.53717 
L 134.212206 60.511155 
L 135.123881 60.098436 
L 136.034145 59.682897 
L 137.376641 59.076092 
L 136.721742 59.714844 
L 136.669778 60.714844 
L 136.610688 62.714844 
L 137.196016 62.714844 
z
" clip-path="url(#p858954d60d)" style="fill: #ffffff; stroke: #ffffff; stroke-width: 3; stroke-linecap: round"/>
             <path d="M 137.196016 62.714844 
L 136.315648 62.239513 
L 135.437741 61.759259 
L 134.587028 61.224618 
L 133.284853 60.53717 
L 134.212206 60.511155 
L 135.123881 60.098436 
L 136.034145 59.682897 
L 137.376641 59.076092 
L 136.721742 59.714844 
L 136.669778 60.714844 
L 136.610688 62.714844 
L 137.196016 62.714844 
z
" clip-path="url(#p858954d60d)" style="fill: #ffffff; stroke: #1f77b4; stroke-linecap: round"/>
             <g id="patch_13">
              <path d="M 347.276311 60.714844 
L 348.276311 60.74628 
L 349.276311 60.78322 
L 350.276311 60.880967 
L 351.276311 60.913489 
L 352.276311 60.987113 
L 353.276311 61.025679 
L 354.276311 61.061092 
L 355.276311 61.118732 
L 356.276311 61.189118 
L 357.276311 61.241082 
L 358.276311 61.300172 
L 359.276311 61.388493 
L 360.276311 61.434637 
L 361.276311 61.477048 
L 362.276311 61.507541 
L 363.276311 61.533586 
L 364.276311 61.554786 
L 365.276311 61.609087 
L 366.276311 61.637025 
L 367.276311 61.666749 
L 368.276311 61.692143 
L 369.276311 61.703344 
L 370.276311 61.713468 
L 371.276311 61.713264 
L 372.276311 61.703754 
L 373.276311 61.6921 
L 374.276311 61.661071 
L 375.276311 61.649903 
L 376.276311 61.619785 
L 377.276311 61.560008 
L 378.276311 61.522817 
L 379.276311 61.483721 
L 380.276311 61.441281 
L 381.276311 61.408516 
L 382.276311 61.34109 
L 383.276311 61.301964 
L 384.276311 61.259289 
L 385.276311 61.188709 
L 386.276311 61.152318 
L 387.276311 61.093915 
L 388.276311 60.982962 
L 389.276311 60.912304 
L 390.276311 60.799364 
L 391.276311 60.753591 
L 392.276311 60.692308 
L 393.276311 60.643808 
L 394.276311 60.562986 
L 395.276311 60.444467 
L 396.276311 60.374256 
L 397.276311 60.290994 
L 398.276311 60.257852 
L 399.276311 60.206615 
L 400.276311 60.138216 
L 401.276311 60.072001 
L 402.276311 59.995084 
L 403.276311 59.967768 
L 404.276311 59.941291 
L 405.276311 59.91864 
L 406.276311 59.899109 
L 407.276311 59.872715 
L 408.276311 59.822944 
L 409.276311 59.787871 
L 410.276311 59.752005 
L 411.276311 59.736638 
L 412.276311 59.720869 
L 413.276311 59.717456 
L 414.276311 59.715038 
L 415.276311 59.715525 
L 416.276311 59.717454 
L 417.276311 59.730711 
L 418.276311 59.739101 
L 419.276311 59.760638 
L 420.276311 59.78367 
L 421.276311 59.800904 
L 422.276311 59.819366 
L 423.276311 59.839819 
L 424.276311 59.856419 
L 425.276311 59.919198 
L 426.276311 59.994463 
L 427.276311 60.027102 
L 428.276311 60.094665 
L 429.276311 60.148712 
L 430.276311 60.182417 
L 431.276311 60.272543 
L 432.276311 60.301078 
L 433.276311 60.332564 
L 434.276311 60.363575 
L 435.276311 60.418383 
L 436.276311 60.48297 
L 437.276311 60.521165 
L 438.276311 60.6171 
L 439.276311 60.666358 
L 440.276311 60.710427 
L 441.276311 60.750551 
L 442.276311 60.858918 
L 443.276311 60.900546 
L 444.276311 60.962687 
L 445.276311 61.03265 
L 446.276311 61.137154 
L 447.276311 61.174142 
L 448.276311 61.220019 
L 449.276311 61.288513 
L 450.276311 61.337259 
L 451.276311 61.414857 
L 452.276311 61.445397 
L 453.276311 61.514912 
L 454.276311 61.538885 
L 455.700241 61.567507 
" clip-path="url(#p858954d60d)" style="fill: none; stroke: #ffffff; stroke-width: 3; stroke-linecap: round"/>
              <path d="M 347.276311 60.714844 
L 348.276311 60.74628 
L 349.276311 60.78322 
L 350.276311 60.880967 
L 351.276311 60.913489 
L 352.276311 60.987113 
L 353.276311 61.025679 
L 354.276311 61.061092 
L 355.276311 61.118732 
L 356.276311 61.189118 
L 357.276311 61.241082 
L 358.276311 61.300172 
L 359.276311 61.388493 
L 360.276311 61.434637 
L 361.276311 61.477048 
L 362.276311 61.507541 
L 363.276311 61.533586 
L 364.276311 61.554786 
L 365.276311 61.609087 
L 366.276311 61.637025 
L 367.276311 61.666749 
L 368.276311 61.692143 
L 369.276311 61.703344 
L 370.276311 61.713468 
L 371.276311 61.713264 
L 372.276311 61.703754 
L 373.276311 61.6921 
L 374.276311 61.661071 
L 375.276311 61.649903 
L 376.276311 61.619785 
L 377.276311 61.560008 
L 378.276311 61.522817 
L 379.276311 61.483721 
L 380.276311 61.441281 
L 381.276311 61.408516 
L 382.276311 61.34109 
L 383.276311 61.301964 
L 384.276311 61.259289 
L 385.276311 61.188709 
L 386.276311 61.152318 
L 387.276311 61.093915 
L 388.276311 60.982962 
L 389.276311 60.912304 
L 390.276311 60.799364 
L 391.276311 60.753591 
L 392.276311 60.692308 
L 393.276311 60.643808 
L 394.276311 60.562986 
L 395.276311 60.444467 
L 396.276311 60.374256 
L 397.276311 60.290994 
L 398.276311 60.257852 
L 399.276311 60.206615 
L 400.276311 60.138216 
L 401.276311 60.072001 
L 402.276311 59.995084 
L 403.276311 59.967768 
L 404.276311 59.941291 
L 405.276311 59.91864 
L 406.276311 59.899109 
L 407.276311 59.872715 
L 408.276311 59.822944 
L 409.276311 59.787871 
L 410.276311 59.752005 
L 411.276311 59.736638 
L 412.276311 59.720869 
L 413.276311 59.717456 
L 414.276311 59.715038 
L 415.276311 59.715525 
L 416.276311 59.717454 
L 417.276311 59.730711 
L 418.276311 59.739101 
L 419.276311 59.760638 
L 420.276311 59.78367 
L 421.276311 59.800904 
L 422.276311 59.819366 
L 423.276311 59.839819 
L 424.276311 59.856419 
L 425.276311 59.919198 
L 426.276311 59.994463 
L 427.276311 60.027102 
L 428.276311 60.094665 
L 429.276311 60.148712 
L 430.276311 60.182417 
L 431.276311 60.272543 
L 432.276311 60.301078 
L 433.276311 60.332564 
L 434.276311 60.363575 
L 435.276311 60.418383 
L 436.276311 60.48297 
L 437.276311 60.521165 
L 438.276311 60.6171 
L 439.276311 60.666358 
L 440.276311 60.710427 
L 441.276311 60.750551 
L 442.276311 60.858918 
L 443.276311 60.900546 
L 444.276311 60.962687 
L 445.276311 61.03265 
L 446.276311 61.137154 
L 447.276311 61.174142 
L 448.276311 61.220019 
L 449.276311 61.288513 
L 450.276311 61.337259 
L 451.276311 61.414857 
L 452.276311 61.445397 
L 453.276311 61.514912 
L 454.276311 61.538885 
L 455.700241 61.567507 
" clip-path="url(#p858954d60d)" style="fill: none; stroke: #1f77b4; stroke-linecap: round"/>
              <path d="M 451.700241 58.714844 
L 452.58061 59.190175 
L 453.458517 59.670429 
L 454.30923 60.20507 
L 455.611404 60.892517 
L 454.684051 60.918532 
L 453.772377 61.331251 
L 452.862113 61.746791 
L 451.519617 62.353595 
L 452.174516 61.714844 
L 452.22648 60.714844 
L 452.28557 58.714844 
L 451.700241 58.714844 
z
" clip-path="url(#p858954d60d)" style="fill: #ffffff; stroke: #ffffff; stroke-width: 3; stroke-linecap: round"/>
              <path d="M 451.700241 58.714844 
L 452.58061 59.190175 
L 453.458517 59.670429 
L 454.30923 60.20507 
L 455.611404 60.892517 
L 454.684051 60.918532 
L 453.772377 61.331251 
L 452.862113 61.746791 
L 451.519617 62.353595 
L 452.174516 61.714844 
L 452.22648 60.714844 
L 452.28557 58.714844 
L 451.700241 58.714844 
z
" clip-path="url(#p858954d60d)" style="fill: #ffffff; stroke: #1f77b4; stroke-linecap: round"/>
              <g id="patch_14">
               <path d="M 132.074056 73.339048 
L 133.074056 73.370485 
L 134.074056 73.407425 
L 135.074056 73.505172 
L 136.074056 73.537693 
L 137.074056 73.611318 
L 138.074056 73.649884 
L 139.074056 73.685297 
L 140.074056 73.742937 
L 141.074056 73.813323 
L 142.074056 73.865287 
L 143.074056 73.924377 
L 144.074056 74.012698 
L 145.074056 74.058842 
L 146.074056 74.101253 
L 147.074056 74.131746 
L 148.074056 74.157791 
L 149.074056 74.178991 
L 150.074056 74.233292 
L 151.074056 74.261229 
L 152.074056 74.290953 
L 153.074056 74.316348 
L 154.074056 74.327549 
L 155.074056 74.337673 
L 156.074056 74.337468 
L 157.074056 74.327958 
L 158.074056 74.316305 
L 159.074056 74.285275 
L 160.074056 74.274108 
L 161.074056 74.24399 
L 162.074056 74.184213 
L 163.074056 74.147022 
L 164.074056 74.107925 
L 165.074056 74.065486 
L 166.074056 74.032721 
L 167.074056 73.965294 
L 168.074056 73.926168 
L 169.074056 73.883494 
L 170.074056 73.812913 
L 171.074056 73.776522 
L 172.074056 73.718119 
L 173.074056 73.607167 
L 174.074056 73.536508 
L 175.074056 73.423568 
L 176.074056 73.377796 
L 177.074056 73.316512 
L 178.074056 73.268013 
L 179.074056 73.18719 
L 180.074056 73.068671 
L 181.074056 72.998461 
L 182.074056 72.915198 
L 183.074056 72.882056 
L 184.074056 72.830819 
L 185.074056 72.762421 
L 186.074056 72.696205 
L 187.074056 72.619288 
L 188.074056 72.591973 
L 189.074056 72.565495 
L 190.074056 72.542845 
L 191.074056 72.523313 
L 192.074056 72.496919 
L 193.074056 72.447149 
L 194.074056 72.412075 
L 195.074056 72.37621 
L 196.074056 72.360842 
L 197.074056 72.345073 
L 198.074056 72.341661 
L 199.074056 72.339243 
L 200.074056 72.339729 
L 201.074056 72.341658 
L 202.074056 72.354915 
L 203.074056 72.363306 
L 204.074056 72.384843 
L 205.074056 72.407875 
L 206.074056 72.425109 
L 207.074056 72.443571 
L 208.074056 72.464024 
L 209.074056 72.480624 
L 210.074056 72.543402 
L 211.074056 72.618667 
L 212.074056 72.651306 
L 213.074056 72.71887 
L 214.074056 72.772917 
L 215.074056 72.806621 
L 216.074056 72.896747 
L 217.074056 72.925282 
L 218.074056 72.956769 
L 219.074056 72.987779 
L 220.074056 73.042587 
L 221.074056 73.107175 
L 222.554168 73.14537 
" clip-path="url(#p858954d60d)" style="fill: none; stroke: #ffffff; stroke-width: 3; stroke-linecap: round"/>
               <path d="M 132.074056 73.339048 
L 133.074056 73.370485 
L 134.074056 73.407425 
L 135.074056 73.505172 
L 136.074056 73.537693 
L 137.074056 73.611318 
L 138.074056 73.649884 
L 139.074056 73.685297 
L 140.074056 73.742937 
L 141.074056 73.813323 
L 142.074056 73.865287 
L 143.074056 73.924377 
L 144.074056 74.012698 
L 145.074056 74.058842 
L 146.074056 74.101253 
L 147.074056 74.131746 
L 148.074056 74.157791 
L 149.074056 74.178991 
L 150.074056 74.233292 
L 151.074056 74.261229 
L 152.074056 74.290953 
L 153.074056 74.316348 
L 154.074056 74.327549 
L 155.074056 74.337673 
L 156.074056 74.337468 
L 157.074056 74.327958 
L 158.074056 74.316305 
L 159.074056 74.285275 
L 160.074056 74.274108 
L 161.074056 74.24399 
L 162.074056 74.184213 
L 163.074056 74.147022 
L 164.074056 74.107925 
L 165.074056 74.065486 
L 166.074056 74.032721 
L 167.074056 73.965294 
L 168.074056 73.926168 
L 169.074056 73.883494 
L 170.074056 73.812913 
L 171.074056 73.776522 
L 172.074056 73.718119 
L 173.074056 73.607167 
L 174.074056 73.536508 
L 175.074056 73.423568 
L 176.074056 73.377796 
L 177.074056 73.316512 
L 178.074056 73.268013 
L 179.074056 73.18719 
L 180.074056 73.068671 
L 181.074056 72.998461 
L 182.074056 72.915198 
L 183.074056 72.882056 
L 184.074056 72.830819 
L 185.074056 72.762421 
L 186.074056 72.696205 
L 187.074056 72.619288 
L 188.074056 72.591973 
L 189.074056 72.565495 
L 190.074056 72.542845 
L 191.074056 72.523313 
L 192.074056 72.496919 
L 193.074056 72.447149 
L 194.074056 72.412075 
L 195.074056 72.37621 
L 196.074056 72.360842 
L 197.074056 72.345073 
L 198.074056 72.341661 
L 199.074056 72.339243 
L 200.074056 72.339729 
L 201.074056 72.341658 
L 202.074056 72.354915 
L 203.074056 72.363306 
L 204.074056 72.384843 
L 205.074056 72.407875 
L 206.074056 72.425109 
L 207.074056 72.443571 
L 208.074056 72.464024 
L 209.074056 72.480624 
L 210.074056 72.543402 
L 211.074056 72.618667 
L 212.074056 72.651306 
L 213.074056 72.71887 
L 214.074056 72.772917 
L 215.074056 72.806621 
L 216.074056 72.896747 
L 217.074056 72.925282 
L 218.074056 72.956769 
L 219.074056 72.987779 
L 220.074056 73.042587 
L 221.074056 73.107175 
L 222.554168 73.14537 
" clip-path="url(#p858954d60d)" style="fill: none; stroke: #ff7f0e; stroke-linecap: round"/>
               <path d="M 218.554168 71.339048 
L 219.434536 71.814379 
L 220.312443 72.294634 
L 221.163157 72.829274 
L 222.465331 73.516722 
L 221.537978 73.542737 
L 220.626304 73.955456 
L 219.716039 74.370995 
L 218.373543 74.9778 
L 219.028442 74.339048 
L 219.080406 73.339048 
L 219.139496 71.339048 
L 218.554168 71.339048 
z
" clip-path="url(#p858954d60d)" style="fill: #ffffff; stroke: #ffffff; stroke-width: 3; stroke-linecap: round"/>
               <path d="M 218.554168 71.339048 
L 219.434536 71.814379 
L 220.312443 72.294634 
L 221.163157 72.829274 
L 222.465331 73.516722 
L 221.537978 73.542737 
L 220.626304 73.955456 
L 219.716039 74.370995 
L 218.373543 74.9778 
L 219.028442 74.339048 
L 219.080406 73.339048 
L 219.139496 71.339048 
L 218.554168 71.339048 
z
" clip-path="url(#p858954d60d)" style="fill: #ffffff; stroke: #ff7f0e; stroke-linecap: round"/>
               <g id="patch_15">
                <path d="M 456.81711 73.339048 
L 455.81711 73.307612 
L 454.81711 73.270672 
L 453.81711 73.172925 
L 452.81711 73.140403 
L 451.81711 73.066779 
L 450.81711 73.028213 
L 449.81711 72.9928 
L 448.81711 72.93516 
L 447.81711 72.864774 
L 446.81711 72.81281 
L 445.81711 72.75372 
L 444.81711 72.665399 
L 443.81711 72.619255 
L 442.81711 72.576844 
L 441.81711 72.546351 
L 440.81711 72.520306 
L 439.81711 72.499106 
L 438.81711 72.444805 
L 437.81711 72.416867 
L 436.81711 72.387143 
L 435.81711 72.361749 
L 434.81711 72.350548 
L 433.81711 72.340424 
L 432.81711 72.340629 
L 431.81711 72.350138 
L 430.81711 72.361792 
L 429.81711 72.392821 
L 428.81711 72.403989 
L 427.81711 72.434107 
L 426.81711 72.493884 
L 425.81711 72.531075 
L 424.81711 72.570171 
L 423.81711 72.612611 
L 422.81711 72.645376 
L 421.81711 72.712802 
L 420.81711 72.751928 
L 419.81711 72.794603 
L 418.81711 72.865183 
L 417.81711 72.901574 
L 416.81711 72.959978 
L 415.81711 73.07093 
L 414.81711 73.141588 
L 413.81711 73.254528 
L 412.81711 73.300301 
L 411.81711 73.361584 
L 410.81711 73.410084 
L 409.81711 73.490906 
L 408.81711 73.609425 
L 407.81711 73.679636 
L 406.81711 73.762898 
L 405.81711 73.79604 
L 404.81711 73.847277 
L 403.81711 73.915676 
L 402.81711 73.981891 
L 401.81711 74.058808 
L 400.81711 74.086124 
L 399.81711 74.112601 
L 398.81711 74.135252 
L 397.81711 74.154783 
L 396.81711 74.181177 
L 395.81711 74.230948 
L 394.81711 74.266021 
L 393.81711 74.301887 
L 392.81711 74.317254 
L 391.81711 74.333023 
L 390.81711 74.336436 
L 389.81711 74.338854 
L 388.81711 74.338367 
L 387.81711 74.336438 
L 386.81711 74.323181 
L 385.81711 74.314791 
L 384.81711 74.293254 
L 383.81711 74.270222 
L 382.81711 74.252988 
L 381.81711 74.234526 
L 380.81711 74.214073 
L 379.81711 74.197473 
L 378.81711 74.134694 
L 377.81711 74.059429 
L 376.81711 74.02679 
L 375.81711 73.959227 
L 374.81711 73.90518 
L 373.81711 73.871475 
L 372.81711 73.781349 
L 371.81711 73.752814 
L 370.81711 73.721328 
L 369.81711 73.690317 
L 368.81711 73.635509 
L 367.81711 73.570922 
L 366.81711 73.532727 
L 365.81711 73.436792 
L 364.81711 73.387534 
L 363.81711 73.343465 
L 362.81711 73.303341 
L 361.81711 73.194974 
L 360.81711 73.153346 
L 359.81711 73.091205 
L 358.81711 73.021242 
L 357.81711 72.916738 
L 356.81711 72.87975 
L 355.81711 72.833873 
L 354.81711 72.765379 
L 353.81711 72.716633 
L 352.81711 72.639035 
L 351.81711 72.608495 
L 350.81711 72.53898 
L 349.81711 72.515007 
L 348.39318 72.486386 
" clip-path="url(#p858954d60d)" style="fill: none; stroke: #ffffff; stroke-width: 3; stroke-linecap: round"/>
                <path d="M 456.81711 73.339048 
L 455.81711 73.307612 
L 454.81711 73.270672 
L 453.81711 73.172925 
L 452.81711 73.140403 
L 451.81711 73.066779 
L 450.81711 73.028213 
L 449.81711 72.9928 
L 448.81711 72.93516 
L 447.81711 72.864774 
L 446.81711 72.81281 
L 445.81711 72.75372 
L 444.81711 72.665399 
L 443.81711 72.619255 
L 442.81711 72.576844 
L 441.81711 72.546351 
L 440.81711 72.520306 
L 439.81711 72.499106 
L 438.81711 72.444805 
L 437.81711 72.416867 
L 436.81711 72.387143 
L 435.81711 72.361749 
L 434.81711 72.350548 
L 433.81711 72.340424 
L 432.81711 72.340629 
L 431.81711 72.350138 
L 430.81711 72.361792 
L 429.81711 72.392821 
L 428.81711 72.403989 
L 427.81711 72.434107 
L 426.81711 72.493884 
L 425.81711 72.531075 
L 424.81711 72.570171 
L 423.81711 72.612611 
L 422.81711 72.645376 
L 421.81711 72.712802 
L 420.81711 72.751928 
L 419.81711 72.794603 
L 418.81711 72.865183 
L 417.81711 72.901574 
L 416.81711 72.959978 
L 415.81711 73.07093 
L 414.81711 73.141588 
L 413.81711 73.254528 
L 412.81711 73.300301 
L 411.81711 73.361584 
L 410.81711 73.410084 
L 409.81711 73.490906 
L 408.81711 73.609425 
L 407.81711 73.679636 
L 406.81711 73.762898 
L 405.81711 73.79604 
L 404.81711 73.847277 
L 403.81711 73.915676 
L 402.81711 73.981891 
L 401.81711 74.058808 
L 400.81711 74.086124 
L 399.81711 74.112601 
L 398.81711 74.135252 
L 397.81711 74.154783 
L 396.81711 74.181177 
L 395.81711 74.230948 
L 394.81711 74.266021 
L 393.81711 74.301887 
L 392.81711 74.317254 
L 391.81711 74.333023 
L 390.81711 74.336436 
L 389.81711 74.338854 
L 388.81711 74.338367 
L 387.81711 74.336438 
L 386.81711 74.323181 
L 385.81711 74.314791 
L 384.81711 74.293254 
L 383.81711 74.270222 
L 382.81711 74.252988 
L 381.81711 74.234526 
L 380.81711 74.214073 
L 379.81711 74.197473 
L 378.81711 74.134694 
L 377.81711 74.059429 
L 376.81711 74.02679 
L 375.81711 73.959227 
L 374.81711 73.90518 
L 373.81711 73.871475 
L 372.81711 73.781349 
L 371.81711 73.752814 
L 370.81711 73.721328 
L 369.81711 73.690317 
L 368.81711 73.635509 
L 367.81711 73.570922 
L 366.81711 73.532727 
L 365.81711 73.436792 
L 364.81711 73.387534 
L 363.81711 73.343465 
L 362.81711 73.303341 
L 361.81711 73.194974 
L 360.81711 73.153346 
L 359.81711 73.091205 
L 358.81711 73.021242 
L 357.81711 72.916738 
L 356.81711 72.87975 
L 355.81711 72.833873 
L 354.81711 72.765379 
L 353.81711 72.716633 
L 352.81711 72.639035 
L 351.81711 72.608495 
L 350.81711 72.53898 
L 349.81711 72.515007 
L 348.39318 72.486386 
" clip-path="url(#p858954d60d)" style="fill: none; stroke: #d62728; stroke-linecap: round"/>
                <path d="M 352.39318 75.339048 
L 351.512811 74.863717 
L 350.634905 74.383463 
L 349.784191 73.848822 
L 348.482017 73.161375 
L 349.40937 73.13536 
L 350.321044 72.722641 
L 351.231308 72.307101 
L 352.573804 71.700297 
L 351.918905 72.339048 
L 351.866941 73.339048 
L 351.807851 75.339048 
L 352.39318 75.339048 
z
" clip-path="url(#p858954d60d)" style="fill: #ffffff; stroke: #ffffff; stroke-width: 3; stroke-linecap: round"/>
                <path d="M 352.39318 75.339048 
L 351.512811 74.863717 
L 350.634905 74.383463 
L 349.784191 73.848822 
L 348.482017 73.161375 
L 349.40937 73.13536 
L 350.321044 72.722641 
L 351.231308 72.307101 
L 352.573804 71.700297 
L 351.918905 72.339048 
L 351.866941 73.339048 
L 351.807851 75.339048 
L 352.39318 75.339048 
z
" clip-path="url(#p858954d60d)" style="fill: #ffffff; stroke: #d62728; stroke-linecap: round"/>
                <g id="patch_16">
                 <path d="M 223.676128 79.651151 
L 222.676128 79.619714 
L 221.676128 79.582774 
L 220.676128 79.485027 
L 219.676128 79.452506 
L 218.676128 79.378881 
L 217.676128 79.340315 
L 216.676128 79.304902 
L 215.676128 79.247262 
L 214.676128 79.176876 
L 213.676128 79.124912 
L 212.676128 79.065822 
L 211.676128 78.977501 
L 210.676128 78.931357 
L 209.676128 78.888946 
L 208.676128 78.858453 
L 207.676128 78.832408 
L 206.676128 78.811208 
L 205.676128 78.756907 
L 204.676128 78.72897 
L 203.676128 78.699246 
L 202.676128 78.673851 
L 201.676128 78.66265 
L 200.676128 78.652526 
L 199.676128 78.652731 
L 198.676128 78.662241 
L 197.676128 78.673894 
L 196.676128 78.704923 
L 195.676128 78.716091 
L 194.676128 78.746209 
L 193.676128 78.805986 
L 192.676128 78.843177 
L 191.676128 78.882273 
L 190.676128 78.924713 
L 189.676128 78.957478 
L 188.676128 79.024905 
L 187.676128 79.064031 
L 186.676128 79.106705 
L 185.676128 79.177286 
L 184.676128 79.213677 
L 183.676128 79.27208 
L 182.676128 79.383032 
L 181.676128 79.453691 
L 180.676128 79.566631 
L 179.676128 79.612403 
L 178.676128 79.673687 
L 177.676128 79.722186 
L 176.676128 79.803009 
L 175.676128 79.921528 
L 174.676128 79.991738 
L 173.676128 80.075001 
L 172.676128 80.108142 
L 171.676128 80.15938 
L 170.676128 80.227778 
L 169.676128 80.293994 
L 168.676128 80.370911 
L 167.676128 80.398226 
L 166.676128 80.424704 
L 165.676128 80.447354 
L 164.676128 80.466886 
L 163.676128 80.493279 
L 162.676128 80.54305 
L 161.676128 80.578123 
L 160.676128 80.613989 
L 159.676128 80.629356 
L 158.676128 80.645126 
L 157.676128 80.648538 
L 156.676128 80.650956 
L 155.676128 80.65047 
L 154.676128 80.64854 
L 153.676128 80.635283 
L 152.676128 80.626893 
L 151.676128 80.605356 
L 150.676128 80.582324 
L 149.676128 80.56509 
L 148.676128 80.546628 
L 147.676128 80.526175 
L 146.676128 80.509575 
L 145.676128 80.446797 
L 144.676128 80.371532 
L 143.676128 80.338892 
L 142.676128 80.271329 
L 141.676128 80.217282 
L 140.676128 80.183577 
L 139.676128 80.093451 
L 138.676128 80.064917 
L 137.676128 80.03343 
L 136.676128 80.00242 
L 135.676128 79.947612 
L 134.676128 79.883024 
L 133.196016 79.844829 
" clip-path="url(#p858954d60d)" style="fill: none; stroke: #ffffff; stroke-width: 3; stroke-linecap: round"/>
                 <path d="M 223.676128 79.651151 
L 222.676128 79.619714 
L 221.676128 79.582774 
L 220.676128 79.485027 
L 219.676128 79.452506 
L 218.676128 79.378881 
L 217.676128 79.340315 
L 216.676128 79.304902 
L 215.676128 79.247262 
L 214.676128 79.176876 
L 213.676128 79.124912 
L 212.676128 79.065822 
L 211.676128 78.977501 
L 210.676128 78.931357 
L 209.676128 78.888946 
L 208.676128 78.858453 
L 207.676128 78.832408 
L 206.676128 78.811208 
L 205.676128 78.756907 
L 204.676128 78.72897 
L 203.676128 78.699246 
L 202.676128 78.673851 
L 201.676128 78.66265 
L 200.676128 78.652526 
L 199.676128 78.652731 
L 198.676128 78.662241 
L 197.676128 78.673894 
L 196.676128 78.704923 
L 195.676128 78.716091 
L 194.676128 78.746209 
L 193.676128 78.805986 
L 192.676128 78.843177 
L 191.676128 78.882273 
L 190.676128 78.924713 
L 189.676128 78.957478 
L 188.676128 79.024905 
L 187.676128 79.064031 
L 186.676128 79.106705 
L 185.676128 79.177286 
L 184.676128 79.213677 
L 183.676128 79.27208 
L 182.676128 79.383032 
L 181.676128 79.453691 
L 180.676128 79.566631 
L 179.676128 79.612403 
L 178.676128 79.673687 
L 177.676128 79.722186 
L 176.676128 79.803009 
L 175.676128 79.921528 
L 174.676128 79.991738 
L 173.676128 80.075001 
L 172.676128 80.108142 
L 171.676128 80.15938 
L 170.676128 80.227778 
L 169.676128 80.293994 
L 168.676128 80.370911 
L 167.676128 80.398226 
L 166.676128 80.424704 
L 165.676128 80.447354 
L 164.676128 80.466886 
L 163.676128 80.493279 
L 162.676128 80.54305 
L 161.676128 80.578123 
L 160.676128 80.613989 
L 159.676128 80.629356 
L 158.676128 80.645126 
L 157.676128 80.648538 
L 156.676128 80.650956 
L 155.676128 80.65047 
L 154.676128 80.64854 
L 153.676128 80.635283 
L 152.676128 80.626893 
L 151.676128 80.605356 
L 150.676128 80.582324 
L 149.676128 80.56509 
L 148.676128 80.546628 
L 147.676128 80.526175 
L 146.676128 80.509575 
L 145.676128 80.446797 
L 144.676128 80.371532 
L 143.676128 80.338892 
L 142.676128 80.271329 
L 141.676128 80.217282 
L 140.676128 80.183577 
L 139.676128 80.093451 
L 138.676128 80.064917 
L 137.676128 80.03343 
L 136.676128 80.00242 
L 135.676128 79.947612 
L 134.676128 79.883024 
L 133.196016 79.844829 
" clip-path="url(#p858954d60d)" style="fill: none; stroke: #9467bd; stroke-linecap: round"/>
                 <path d="M 137.196016 81.651151 
L 136.315648 81.175819 
L 135.437741 80.695565 
L 134.587028 80.160925 
L 133.284853 79.473477 
L 134.212206 79.447462 
L 135.123881 79.034743 
L 136.034145 78.619204 
L 137.376641 78.012399 
L 136.721742 78.651151 
L 136.669778 79.651151 
L 136.610688 81.651151 
L 137.196016 81.651151 
z
" clip-path="url(#p858954d60d)" style="fill: #ffffff; stroke: #ffffff; stroke-width: 3; stroke-linecap: round"/>
                 <path d="M 137.196016 81.651151 
L 136.315648 81.175819 
L 135.437741 80.695565 
L 134.587028 80.160925 
L 133.284853 79.473477 
L 134.212206 79.447462 
L 135.123881 79.034743 
L 136.034145 78.619204 
L 137.376641 78.012399 
L 136.721742 78.651151 
L 136.669778 79.651151 
L 136.610688 81.651151 
L 137.196016 81.651151 
z
" clip-path="url(#p858954d60d)" style="fill: #ffffff; stroke: #9467bd; stroke-linecap: round"/>
                 <g id="patch_17">
                  <path d="M 347.276311 79.651151 
L 348.276311 79.682587 
L 349.276311 79.719527 
L 350.276311 79.817274 
L 351.276311 79.849795 
L 352.276311 79.92342 
L 353.276311 79.961986 
L 354.276311 79.997399 
L 355.276311 80.055039 
L 356.276311 80.125425 
L 357.276311 80.177389 
L 358.276311 80.236479 
L 359.276311 80.3248 
L 360.276311 80.370944 
L 361.276311 80.413355 
L 362.276311 80.443848 
L 363.276311 80.469893 
L 364.276311 80.491093 
L 365.276311 80.545394 
L 366.276311 80.573332 
L 367.276311 80.603056 
L 368.276311 80.62845 
L 369.276311 80.639651 
L 370.276311 80.649775 
L 371.276311 80.64957 
L 372.276311 80.64006 
L 373.276311 80.628407 
L 374.276311 80.597378 
L 375.276311 80.58621 
L 376.276311 80.556092 
L 377.276311 80.496315 
L 378.276311 80.459124 
L 379.276311 80.420028 
L 380.276311 80.377588 
L 381.276311 80.344823 
L 382.276311 80.277396 
L 383.276311 80.238271 
L 384.276311 80.195596 
L 385.276311 80.125015 
L 386.276311 80.088625 
L 387.276311 80.030221 
L 388.276311 79.919269 
L 389.276311 79.84861 
L 390.276311 79.735671 
L 391.276311 79.689898 
L 392.276311 79.628614 
L 393.276311 79.580115 
L 394.276311 79.499292 
L 395.276311 79.380774 
L 396.276311 79.310563 
L 397.276311 79.2273 
L 398.276311 79.194159 
L 399.276311 79.142921 
L 400.276311 79.074523 
L 401.276311 79.008308 
L 402.276311 78.931391 
L 403.276311 78.904075 
L 404.276311 78.877598 
L 405.276311 78.854947 
L 406.276311 78.835416 
L 407.276311 78.809022 
L 408.276311 78.759251 
L 409.276311 78.724178 
L 410.276311 78.688312 
L 411.276311 78.672945 
L 412.276311 78.657175 
L 413.276311 78.653763 
L 414.276311 78.651345 
L 415.276311 78.651831 
L 416.276311 78.653761 
L 417.276311 78.667018 
L 418.276311 78.675408 
L 419.276311 78.696945 
L 420.276311 78.719977 
L 421.276311 78.737211 
L 422.276311 78.755673 
L 423.276311 78.776126 
L 424.276311 78.792726 
L 425.276311 78.855504 
L 426.276311 78.930769 
L 427.276311 78.963409 
L 428.276311 79.030972 
L 429.276311 79.085019 
L 430.276311 79.118724 
L 431.276311 79.20885 
L 432.276311 79.237385 
L 433.276311 79.268871 
L 434.276311 79.299882 
L 435.276311 79.354689 
L 436.276311 79.419277 
L 437.276311 79.457472 
L 438.276311 79.553406 
L 439.276311 79.602664 
L 440.276311 79.646734 
L 441.276311 79.686858 
L 442.276311 79.795225 
L 443.276311 79.836853 
L 444.276311 79.898994 
L 445.276311 79.968957 
L 446.276311 80.073461 
L 447.276311 80.110448 
L 448.276311 80.156326 
L 449.276311 80.22482 
L 450.276311 80.273566 
L 451.276311 80.351164 
L 452.276311 80.381704 
L 453.276311 80.451219 
L 454.276311 80.475192 
L 455.700241 80.503813 
" clip-path="url(#p858954d60d)" style="fill: none; stroke: #ffffff; stroke-width: 3; stroke-linecap: round"/>
                  <path d="M 347.276311 79.651151 
L 348.276311 79.682587 
L 349.276311 79.719527 
L 350.276311 79.817274 
L 351.276311 79.849795 
L 352.276311 79.92342 
L 353.276311 79.961986 
L 354.276311 79.997399 
L 355.276311 80.055039 
L 356.276311 80.125425 
L 357.276311 80.177389 
L 358.276311 80.236479 
L 359.276311 80.3248 
L 360.276311 80.370944 
L 361.276311 80.413355 
L 362.276311 80.443848 
L 363.276311 80.469893 
L 364.276311 80.491093 
L 365.276311 80.545394 
L 366.276311 80.573332 
L 367.276311 80.603056 
L 368.276311 80.62845 
L 369.276311 80.639651 
L 370.276311 80.649775 
L 371.276311 80.64957 
L 372.276311 80.64006 
L 373.276311 80.628407 
L 374.276311 80.597378 
L 375.276311 80.58621 
L 376.276311 80.556092 
L 377.276311 80.496315 
L 378.276311 80.459124 
L 379.276311 80.420028 
L 380.276311 80.377588 
L 381.276311 80.344823 
L 382.276311 80.277396 
L 383.276311 80.238271 
L 384.276311 80.195596 
L 385.276311 80.125015 
L 386.276311 80.088625 
L 387.276311 80.030221 
L 388.276311 79.919269 
L 389.276311 79.84861 
L 390.276311 79.735671 
L 391.276311 79.689898 
L 392.276311 79.628614 
L 393.276311 79.580115 
L 394.276311 79.499292 
L 395.276311 79.380774 
L 396.276311 79.310563 
L 397.276311 79.2273 
L 398.276311 79.194159 
L 399.276311 79.142921 
L 400.276311 79.074523 
L 401.276311 79.008308 
L 402.276311 78.931391 
L 403.276311 78.904075 
L 404.276311 78.877598 
L 405.276311 78.854947 
L 406.276311 78.835416 
L 407.276311 78.809022 
L 408.276311 78.759251 
L 409.276311 78.724178 
L 410.276311 78.688312 
L 411.276311 78.672945 
L 412.276311 78.657175 
L 413.276311 78.653763 
L 414.276311 78.651345 
L 415.276311 78.651831 
L 416.276311 78.653761 
L 417.276311 78.667018 
L 418.276311 78.675408 
L 419.276311 78.696945 
L 420.276311 78.719977 
L 421.276311 78.737211 
L 422.276311 78.755673 
L 423.276311 78.776126 
L 424.276311 78.792726 
L 425.276311 78.855504 
L 426.276311 78.930769 
L 427.276311 78.963409 
L 428.276311 79.030972 
L 429.276311 79.085019 
L 430.276311 79.118724 
L 431.276311 79.20885 
L 432.276311 79.237385 
L 433.276311 79.268871 
L 434.276311 79.299882 
L 435.276311 79.354689 
L 436.276311 79.419277 
L 437.276311 79.457472 
L 438.276311 79.553406 
L 439.276311 79.602664 
L 440.276311 79.646734 
L 441.276311 79.686858 
L 442.276311 79.795225 
L 443.276311 79.836853 
L 444.276311 79.898994 
L 445.276311 79.968957 
L 446.276311 80.073461 
L 447.276311 80.110448 
L 448.276311 80.156326 
L 449.276311 80.22482 
L 450.276311 80.273566 
L 451.276311 80.351164 
L 452.276311 80.381704 
L 453.276311 80.451219 
L 454.276311 80.475192 
L 455.700241 80.503813 
" clip-path="url(#p858954d60d)" style="fill: none; stroke: #9467bd; stroke-linecap: round"/>
                  <path d="M 451.700241 77.651151 
L 452.58061 78.126482 
L 453.458517 78.606736 
L 454.30923 79.141377 
L 455.611404 79.828824 
L 454.684051 79.854839 
L 453.772377 80.267558 
L 452.862113 80.683097 
L 451.519617 81.289902 
L 452.174516 80.651151 
L 452.22648 79.651151 
L 452.28557 77.651151 
L 451.700241 77.651151 
z
" clip-path="url(#p858954d60d)" style="fill: #ffffff; stroke: #ffffff; stroke-width: 3; stroke-linecap: round"/>
                  <path d="M 451.700241 77.651151 
L 452.58061 78.126482 
L 453.458517 78.606736 
L 454.30923 79.141377 
L 455.611404 79.828824 
L 454.684051 79.854839 
L 453.772377 80.267558 
L 452.862113 80.683097 
L 451.519617 81.289902 
L 452.174516 80.651151 
L 452.22648 79.651151 
L 452.28557 77.651151 
L 451.700241 77.651151 
z
" clip-path="url(#p858954d60d)" style="fill: #ffffff; stroke: #9467bd; stroke-linecap: round"/>
                  <g id="patch_18">
                   <path d="M 132.074056 205.893196 
L 133.074056 205.924632 
L 134.074056 205.961573 
L 135.074056 206.059319 
L 136.074056 206.091841 
L 137.074056 206.165466 
L 138.074056 206.204031 
L 139.074056 206.239444 
L 140.074056 206.297084 
L 141.074056 206.367471 
L 142.074056 206.419435 
L 143.074056 206.478524 
L 144.074056 206.566845 
L 145.074056 206.61299 
L 146.074056 206.655401 
L 147.074056 206.685893 
L 148.074056 206.711938 
L 149.074056 206.733138 
L 150.074056 206.78744 
L 151.074056 206.815377 
L 152.074056 206.845101 
L 153.074056 206.870496 
L 154.074056 206.881696 
L 155.074056 206.89182 
L 156.074056 206.891616 
L 157.074056 206.882106 
L 158.074056 206.870452 
L 159.074056 206.839423 
L 160.074056 206.828255 
L 161.074056 206.798138 
L 162.074056 206.738361 
L 163.074056 206.701169 
L 164.074056 206.662073 
L 165.074056 206.619633 
L 166.074056 206.586868 
L 167.074056 206.519442 
L 168.074056 206.480316 
L 169.074056 206.437641 
L 170.074056 206.367061 
L 171.074056 206.33067 
L 172.074056 206.272267 
L 173.074056 206.161314 
L 174.074056 206.090656 
L 175.074056 205.977716 
L 176.074056 205.931943 
L 177.074056 205.87066 
L 178.074056 205.822161 
L 179.074056 205.741338 
L 180.074056 205.622819 
L 181.074056 205.552608 
L 182.074056 205.469346 
L 183.074056 205.436204 
L 184.074056 205.384967 
L 185.074056 205.316569 
L 186.074056 205.250353 
L 187.074056 205.173436 
L 188.074056 205.146121 
L 189.074056 205.119643 
L 190.074056 205.096992 
L 191.074056 205.077461 
L 192.074056 205.051067 
L 193.074056 205.001296 
L 194.074056 204.966223 
L 195.074056 204.930357 
L 196.074056 204.91499 
L 197.074056 204.899221 
L 198.074056 204.895808 
L 199.074056 204.893391 
L 200.074056 204.893877 
L 201.074056 204.895806 
L 202.074056 204.909063 
L 203.074056 204.917454 
L 204.074056 204.93899 
L 205.074056 204.962023 
L 206.074056 204.979256 
L 207.074056 204.997719 
L 208.074056 205.018171 
L 209.074056 205.034771 
L 210.074056 205.09755 
L 211.074056 205.172815 
L 212.074056 205.205454 
L 213.074056 205.273018 
L 214.074056 205.327065 
L 215.074056 205.360769 
L 216.074056 205.450895 
L 217.074056 205.47943 
L 218.074056 205.510916 
L 219.074056 205.541927 
L 220.074056 205.596735 
L 221.074056 205.661322 
L 222.554168 205.699518 
" clip-path="url(#p858954d60d)" style="fill: none; stroke: #ffffff; stroke-width: 3; stroke-linecap: round"/>
                   <path d="M 132.074056 205.893196 
L 133.074056 205.924632 
L 134.074056 205.961573 
L 135.074056 206.059319 
L 136.074056 206.091841 
L 137.074056 206.165466 
L 138.074056 206.204031 
L 139.074056 206.239444 
L 140.074056 206.297084 
L 141.074056 206.367471 
L 142.074056 206.419435 
L 143.074056 206.478524 
L 144.074056 206.566845 
L 145.074056 206.61299 
L 146.074056 206.655401 
L 147.074056 206.685893 
L 148.074056 206.711938 
L 149.074056 206.733138 
L 150.074056 206.78744 
L 151.074056 206.815377 
L 152.074056 206.845101 
L 153.074056 206.870496 
L 154.074056 206.881696 
L 155.074056 206.89182 
L 156.074056 206.891616 
L 157.074056 206.882106 
L 158.074056 206.870452 
L 159.074056 206.839423 
L 160.074056 206.828255 
L 161.074056 206.798138 
L 162.074056 206.738361 
L 163.074056 206.701169 
L 164.074056 206.662073 
L 165.074056 206.619633 
L 166.074056 206.586868 
L 167.074056 206.519442 
L 168.074056 206.480316 
L 169.074056 206.437641 
L 170.074056 206.367061 
L 171.074056 206.33067 
L 172.074056 206.272267 
L 173.074056 206.161314 
L 174.074056 206.090656 
L 175.074056 205.977716 
L 176.074056 205.931943 
L 177.074056 205.87066 
L 178.074056 205.822161 
L 179.074056 205.741338 
L 180.074056 205.622819 
L 181.074056 205.552608 
L 182.074056 205.469346 
L 183.074056 205.436204 
L 184.074056 205.384967 
L 185.074056 205.316569 
L 186.074056 205.250353 
L 187.074056 205.173436 
L 188.074056 205.146121 
L 189.074056 205.119643 
L 190.074056 205.096992 
L 191.074056 205.077461 
L 192.074056 205.051067 
L 193.074056 205.001296 
L 194.074056 204.966223 
L 195.074056 204.930357 
L 196.074056 204.91499 
L 197.074056 204.899221 
L 198.074056 204.895808 
L 199.074056 204.893391 
L 200.074056 204.893877 
L 201.074056 204.895806 
L 202.074056 204.909063 
L 203.074056 204.917454 
L 204.074056 204.93899 
L 205.074056 204.962023 
L 206.074056 204.979256 
L 207.074056 204.997719 
L 208.074056 205.018171 
L 209.074056 205.034771 
L 210.074056 205.09755 
L 211.074056 205.172815 
L 212.074056 205.205454 
L 213.074056 205.273018 
L 214.074056 205.327065 
L 215.074056 205.360769 
L 216.074056 205.450895 
L 217.074056 205.47943 
L 218.074056 205.510916 
L 219.074056 205.541927 
L 220.074056 205.596735 
L 221.074056 205.661322 
L 222.554168 205.699518 
" clip-path="url(#p858954d60d)" style="fill: none; stroke: #8c564b; stroke-linecap: round"/>
                   <path d="M 218.554168 203.893196 
L 219.434536 204.368527 
L 220.312443 204.848781 
L 221.163157 205.383422 
L 222.465331 206.070869 
L 221.537978 206.096884 
L 220.626304 206.509604 
L 219.716039 206.925143 
L 218.373543 207.531947 
L 219.028442 206.893196 
L 219.080406 205.893196 
L 219.139496 203.893196 
L 218.554168 203.893196 
z
" clip-path="url(#p858954d60d)" style="fill: #ffffff; stroke: #ffffff; stroke-width: 3; stroke-linecap: round"/>
                   <path d="M 218.554168 203.893196 
L 219.434536 204.368527 
L 220.312443 204.848781 
L 221.163157 205.383422 
L 222.465331 206.070869 
L 221.537978 206.096884 
L 220.626304 206.509604 
L 219.716039 206.925143 
L 218.373543 207.531947 
L 219.028442 206.893196 
L 219.080406 205.893196 
L 219.139496 203.893196 
L 218.554168 203.893196 
z
" clip-path="url(#p858954d60d)" style="fill: #ffffff; stroke: #8c564b; stroke-linecap: round"/>
                   <g id="patch_19">
                    <path d="M 456.81711 205.893196 
L 455.81711 205.86176 
L 454.81711 205.824819 
L 453.81711 205.727073 
L 452.81711 205.694551 
L 451.81711 205.620926 
L 450.81711 205.582361 
L 449.81711 205.546948 
L 448.81711 205.489308 
L 447.81711 205.418922 
L 446.81711 205.366957 
L 445.81711 205.307868 
L 444.81711 205.219547 
L 443.81711 205.173402 
L 442.81711 205.130991 
L 441.81711 205.100499 
L 440.81711 205.074454 
L 439.81711 205.053254 
L 438.81711 204.998953 
L 437.81711 204.971015 
L 436.81711 204.941291 
L 435.81711 204.915896 
L 434.81711 204.904696 
L 433.81711 204.894572 
L 432.81711 204.894776 
L 431.81711 204.904286 
L 430.81711 204.91594 
L 429.81711 204.946969 
L 428.81711 204.958137 
L 427.81711 204.988254 
L 426.81711 205.048031 
L 425.81711 205.085223 
L 424.81711 205.124319 
L 423.81711 205.166759 
L 422.81711 205.199524 
L 421.81711 205.26695 
L 420.81711 205.306076 
L 419.81711 205.348751 
L 418.81711 205.419331 
L 417.81711 205.455722 
L 416.81711 205.514125 
L 415.81711 205.625078 
L 414.81711 205.695736 
L 413.81711 205.808676 
L 412.81711 205.854449 
L 411.81711 205.915732 
L 410.81711 205.964231 
L 409.81711 206.045054 
L 408.81711 206.163573 
L 407.81711 206.233784 
L 406.81711 206.317046 
L 405.81711 206.350188 
L 404.81711 206.401425 
L 403.81711 206.469824 
L 402.81711 206.536039 
L 401.81711 206.612956 
L 400.81711 206.640272 
L 399.81711 206.666749 
L 398.81711 206.6894 
L 397.81711 206.708931 
L 396.81711 206.735325 
L 395.81711 206.785096 
L 394.81711 206.820169 
L 393.81711 206.856035 
L 392.81711 206.871402 
L 391.81711 206.887171 
L 390.81711 206.890584 
L 389.81711 206.893001 
L 388.81711 206.892515 
L 387.81711 206.890586 
L 386.81711 206.877329 
L 385.81711 206.868939 
L 384.81711 206.847402 
L 383.81711 206.824369 
L 382.81711 206.807136 
L 381.81711 206.788673 
L 380.81711 206.768221 
L 379.81711 206.751621 
L 378.81711 206.688842 
L 377.81711 206.613577 
L 376.81711 206.580938 
L 375.81711 206.513374 
L 374.81711 206.459327 
L 373.81711 206.425623 
L 372.81711 206.335497 
L 371.81711 206.306962 
L 370.81711 206.275476 
L 369.81711 206.244465 
L 368.81711 206.189657 
L 367.81711 206.12507 
L 366.81711 206.086874 
L 365.81711 205.99094 
L 364.81711 205.941682 
L 363.81711 205.897613 
L 362.81711 205.857489 
L 361.81711 205.749122 
L 360.81711 205.707494 
L 359.81711 205.645352 
L 358.81711 205.57539 
L 357.81711 205.470886 
L 356.81711 205.433898 
L 355.81711 205.388021 
L 354.81711 205.319526 
L 353.81711 205.270781 
L 352.81711 205.193183 
L 351.81711 205.162642 
L 350.81711 205.093128 
L 349.81711 205.069155 
L 348.39318 205.040533 
" clip-path="url(#p858954d60d)" style="fill: none; stroke: #ffffff; stroke-width: 3; stroke-linecap: round"/>
                    <path d="M 456.81711 205.893196 
L 455.81711 205.86176 
L 454.81711 205.824819 
L 453.81711 205.727073 
L 452.81711 205.694551 
L 451.81711 205.620926 
L 450.81711 205.582361 
L 449.81711 205.546948 
L 448.81711 205.489308 
L 447.81711 205.418922 
L 446.81711 205.366957 
L 445.81711 205.307868 
L 444.81711 205.219547 
L 443.81711 205.173402 
L 442.81711 205.130991 
L 441.81711 205.100499 
L 440.81711 205.074454 
L 439.81711 205.053254 
L 438.81711 204.998953 
L 437.81711 204.971015 
L 436.81711 204.941291 
L 435.81711 204.915896 
L 434.81711 204.904696 
L 433.81711 204.894572 
L 432.81711 204.894776 
L 431.81711 204.904286 
L 430.81711 204.91594 
L 429.81711 204.946969 
L 428.81711 204.958137 
L 427.81711 204.988254 
L 426.81711 205.048031 
L 425.81711 205.085223 
L 424.81711 205.124319 
L 423.81711 205.166759 
L 422.81711 205.199524 
L 421.81711 205.26695 
L 420.81711 205.306076 
L 419.81711 205.348751 
L 418.81711 205.419331 
L 417.81711 205.455722 
L 416.81711 205.514125 
L 415.81711 205.625078 
L 414.81711 205.695736 
L 413.81711 205.808676 
L 412.81711 205.854449 
L 411.81711 205.915732 
L 410.81711 205.964231 
L 409.81711 206.045054 
L 408.81711 206.163573 
L 407.81711 206.233784 
L 406.81711 206.317046 
L 405.81711 206.350188 
L 404.81711 206.401425 
L 403.81711 206.469824 
L 402.81711 206.536039 
L 401.81711 206.612956 
L 400.81711 206.640272 
L 399.81711 206.666749 
L 398.81711 206.6894 
L 397.81711 206.708931 
L 396.81711 206.735325 
L 395.81711 206.785096 
L 394.81711 206.820169 
L 393.81711 206.856035 
L 392.81711 206.871402 
L 391.81711 206.887171 
L 390.81711 206.890584 
L 389.81711 206.893001 
L 388.81711 206.892515 
L 387.81711 206.890586 
L 386.81711 206.877329 
L 385.81711 206.868939 
L 384.81711 206.847402 
L 383.81711 206.824369 
L 382.81711 206.807136 
L 381.81711 206.788673 
L 380.81711 206.768221 
L 379.81711 206.751621 
L 378.81711 206.688842 
L 377.81711 206.613577 
L 376.81711 206.580938 
L 375.81711 206.513374 
L 374.81711 206.459327 
L 373.81711 206.425623 
L 372.81711 206.335497 
L 371.81711 206.306962 
L 370.81711 206.275476 
L 369.81711 206.244465 
L 368.81711 206.189657 
L 367.81711 206.12507 
L 366.81711 206.086874 
L 365.81711 205.99094 
L 364.81711 205.941682 
L 363.81711 205.897613 
L 362.81711 205.857489 
L 361.81711 205.749122 
L 360.81711 205.707494 
L 359.81711 205.645352 
L 358.81711 205.57539 
L 357.81711 205.470886 
L 356.81711 205.433898 
L 355.81711 205.388021 
L 354.81711 205.319526 
L 353.81711 205.270781 
L 352.81711 205.193183 
L 351.81711 205.162642 
L 350.81711 205.093128 
L 349.81711 205.069155 
L 348.39318 205.040533 
" clip-path="url(#p858954d60d)" style="fill: none; stroke: #7f7f7f; stroke-linecap: round"/>
                    <path d="M 352.39318 207.893196 
L 351.512811 207.417865 
L 350.634905 206.937611 
L 349.784191 206.40297 
L 348.482017 205.715523 
L 349.40937 205.689508 
L 350.321044 205.276788 
L 351.231308 204.861249 
L 352.573804 204.254445 
L 351.918905 204.893196 
L 351.866941 205.893196 
L 351.807851 207.893196 
L 352.39318 207.893196 
z
" clip-path="url(#p858954d60d)" style="fill: #ffffff; stroke: #ffffff; stroke-width: 3; stroke-linecap: round"/>
                    <path d="M 352.39318 207.893196 
L 351.512811 207.417865 
L 350.634905 206.937611 
L 349.784191 206.40297 
L 348.482017 205.715523 
L 349.40937 205.689508 
L 350.321044 205.276788 
L 351.231308 204.861249 
L 352.573804 204.254445 
L 351.918905 204.893196 
L 351.866941 205.893196 
L 351.807851 207.893196 
L 352.39318 207.893196 
z
" clip-path="url(#p858954d60d)" style="fill: #ffffff; stroke: #7f7f7f; stroke-linecap: round"/>
                    <g id="patch_20">
                     <path d="M 49.65125 269.014219 
L 49.65125 8.64 
" style="fill: none; stroke: #000000; stroke-width: 0.8; stroke-linejoin: miter; stroke-linecap: square"/>
                    </g>
                    <g id="text_10">
                     <g id="patch_21">
                      <path d="M 266.685184 40.148672 
L 304.266434 40.148672 
Q 305.866434 40.148672 305.866434 38.548672 
L 305.866434 30.806172 
Q 305.866434 29.206172 304.266434 29.206172 
L 266.685184 29.206172 
Q 265.085184 29.206172 265.085184 30.806172 
L 265.085184 38.548672 
Q 265.085184 40.148672 266.685184 40.148672 
z
" style="fill: #ffffff; opacity: 0.6"/>
                     </g>
                     <!-- Ancestral -->
                     <g transform="translate(266.685184 36.884922)scale(0.08 -0.08)">
                      <defs>
                       <path id="DejaVuSans-41" d="M 2188 4044 
L 1331 1722 
L 3047 1722 
L 2188 4044 
z
M 1831 4666 
L 2547 4666 
L 4325 0 
L 3669 0 
L 3244 1197 
L 1141 1197 
L 716 0 
L 50 0 
L 1831 4666 
z
" transform="scale(0.015625)"/>
                       <path id="DejaVuSans-63" d="M 3122 3366 
L 3122 2828 
Q 2878 2963 2633 3030 
Q 2388 3097 2138 3097 
Q 1578 3097 1268 2742 
Q 959 2388 959 1747 
Q 959 1106 1268 751 
Q 1578 397 2138 397 
Q 2388 397 2633 464 
Q 2878 531 3122 666 
L 3122 134 
Q 2881 22 2623 -34 
Q 2366 -91 2075 -91 
Q 1284 -91 818 406 
Q 353 903 353 1747 
Q 353 2603 823 3093 
Q 1294 3584 2113 3584 
Q 2378 3584 2631 3529 
Q 2884 3475 3122 3366 
z
" transform="scale(0.015625)"/>
                       <path id="DejaVuSans-6c" d="M 603 4863 
L 1178 4863 
L 1178 0 
L 603 0 
L 603 4863 
z
" transform="scale(0.015625)"/>
                      </defs>
                      <use xlink:href="#DejaVuSans-41"/>
                      <use xlink:href="#DejaVuSans-6e" x="68.408203"/>
                      <use xlink:href="#DejaVuSans-63" x="131.787109"/>
                      <use xlink:href="#DejaVuSans-65" x="186.767578"/>
                      <use xlink:href="#DejaVuSans-73" x="248.291016"/>
                      <use xlink:href="#DejaVuSans-74" x="300.390625"/>
                      <use xlink:href="#DejaVuSans-72" x="339.599609"/>
                      <use xlink:href="#DejaVuSans-61" x="380.712891"/>
                      <use xlink:href="#DejaVuSans-6c" x="441.992188"/>
                     </g>
                    </g>
                    <g id="text_11">
                     <g id="patch_22">
                      <path d="M 84.215614 72.609446 
L 116.134364 72.609446 
Q 117.734364 72.609446 117.734364 71.009446 
L 117.734364 63.044446 
Q 117.734364 61.444446 116.134364 61.444446 
L 84.215614 61.444446 
Q 82.615614 61.444446 82.615614 63.044446 
L 82.615614 71.009446 
Q 82.615614 72.609446 84.215614 72.609446 
z
" style="fill: #ffffff; opacity: 0.6"/>
                     </g>
                     <!-- Split_00 -->
                     <g transform="translate(84.215614 69.123196)scale(0.08 -0.08)">
                      <defs>
                       <path id="DejaVuSans-53" d="M 3425 4513 
L 3425 3897 
Q 3066 4069 2747 4153 
Q 2428 4238 2131 4238 
Q 1616 4238 1336 4038 
Q 1056 3838 1056 3469 
Q 1056 3159 1242 3001 
Q 1428 2844 1947 2747 
L 2328 2669 
Q 3034 2534 3370 2195 
Q 3706 1856 3706 1288 
Q 3706 609 3251 259 
Q 2797 -91 1919 -91 
Q 1588 -91 1214 -16 
Q 841 59 441 206 
L 441 856 
Q 825 641 1194 531 
Q 1563 422 1919 422 
Q 2459 422 2753 634 
Q 3047 847 3047 1241 
Q 3047 1584 2836 1778 
Q 2625 1972 2144 2069 
L 1759 2144 
Q 1053 2284 737 2584 
Q 422 2884 422 3419 
Q 422 4038 858 4394 
Q 1294 4750 2059 4750 
Q 2388 4750 2728 4690 
Q 3069 4631 3425 4513 
z
" transform="scale(0.015625)"/>
                       <path id="DejaVuSans-70" d="M 1159 525 
L 1159 -1331 
L 581 -1331 
L 581 3500 
L 1159 3500 
L 1159 2969 
Q 1341 3281 1617 3432 
Q 1894 3584 2278 3584 
Q 2916 3584 3314 3078 
Q 3713 2572 3713 1747 
Q 3713 922 3314 415 
Q 2916 -91 2278 -91 
Q 1894 -91 1617 61 
Q 1341 213 1159 525 
z
M 3116 1747 
Q 3116 2381 2855 2742 
Q 2594 3103 2138 3103 
Q 1681 3103 1420 2742 
Q 1159 2381 1159 1747 
Q 1159 1113 1420 752 
Q 1681 391 2138 391 
Q 2594 391 2855 752 
Q 3116 1113 3116 1747 
z
" transform="scale(0.015625)"/>
                      </defs>
                      <use xlink:href="#DejaVuSans-53"/>
                      <use xlink:href="#DejaVuSans-70" x="63.476562"/>
                      <use xlink:href="#DejaVuSans-6c" x="126.953125"/>
                      <use xlink:href="#DejaVuSans-69" x="154.736328"/>
                      <use xlink:href="#DejaVuSans-74" x="182.519531"/>
                      <use xlink:href="#DejaVuSans-5f" x="221.728516"/>
                      <use xlink:href="#DejaVuSans-30" x="271.728516"/>
                      <use xlink:href="#DejaVuSans-30" x="335.351562"/>
                     </g>
                    </g>
                    <g id="text_12">
                     <g id="patch_23">
                      <path d="M 269.516434 72.609446 
L 301.435184 72.609446 
Q 303.035184 72.609446 303.035184 71.009446 
L 303.035184 63.044446 
Q 303.035184 61.444446 301.435184 61.444446 
L 269.516434 61.444446 
Q 267.916434 61.444446 267.916434 63.044446 
L 267.916434 71.009446 
Q 267.916434 72.609446 269.516434 72.609446 
z
" style="fill: #ffffff; opacity: 0.6"/>
                     </g>
                     <!-- Split_01 -->
                     <g transform="translate(269.516434 69.123196)scale(0.08 -0.08)">
                      <use xlink:href="#DejaVuSans-53"/>
                      <use xlink:href="#DejaVuSans-70" x="63.476562"/>
                      <use xlink:href="#DejaVuSans-6c" x="126.953125"/>
                      <use xlink:href="#DejaVuSans-69" x="154.736328"/>
                      <use xlink:href="#DejaVuSans-74" x="182.519531"/>
                      <use xlink:href="#DejaVuSans-5f" x="221.728516"/>
                      <use xlink:href="#DejaVuSans-30" x="271.728516"/>
                      <use xlink:href="#DejaVuSans-31" x="335.351562"/>
                     </g>
                    </g>
                    <g id="text_13">
                     <g id="patch_24">
                      <path d="M 454.817254 72.609446 
L 486.736004 72.609446 
Q 488.336004 72.609446 488.336004 71.009446 
L 488.336004 63.044446 
Q 488.336004 61.444446 486.736004 61.444446 
L 454.817254 61.444446 
Q 453.217254 61.444446 453.217254 63.044446 
L 453.217254 71.009446 
Q 453.217254 72.609446 454.817254 72.609446 
z
" style="fill: #ffffff; opacity: 0.6"/>
                     </g>
                     <!-- Split_02 -->
                     <g transform="translate(454.817254 69.123196)scale(0.08 -0.08)">
                      <use xlink:href="#DejaVuSans-53"/>
                      <use xlink:href="#DejaVuSans-70" x="63.476562"/>
                      <use xlink:href="#DejaVuSans-6c" x="126.953125"/>
                      <use xlink:href="#DejaVuSans-69" x="154.736328"/>
                      <use xlink:href="#DejaVuSans-74" x="182.519531"/>
                      <use xlink:href="#DejaVuSans-5f" x="221.728516"/>
                      <use xlink:href="#DejaVuSans-30" x="271.728516"/>
                      <use xlink:href="#DejaVuSans-32" x="335.351562"/>
                     </g>
                    </g>
                    <g id="text_14">
                     <g id="patch_25">
                      <path d="M 268.443309 81.966349 
L 302.508309 81.966349 
Q 304.108309 81.966349 304.108309 80.366349 
L 304.108309 72.623849 
Q 304.108309 71.023849 302.508309 71.023849 
L 268.443309 71.023849 
Q 266.843309 71.023849 266.843309 72.623849 
L 266.843309 80.366349 
Q 266.843309 81.966349 268.443309 81.966349 
z
" style="fill: #ffffff; opacity: 0.6"/>
                     </g>
                     <!-- Merge_1 -->
                     <g transform="translate(268.443309 78.480099)scale(0.08 -0.08)">
                      <use xlink:href="#DejaVuSans-4d"/>
                      <use xlink:href="#DejaVuSans-65" x="86.279297"/>
                      <use xlink:href="#DejaVuSans-72" x="147.802734"/>
                      <use xlink:href="#DejaVuSans-67" x="187.166016"/>
                      <use xlink:href="#DejaVuSans-65" x="250.642578"/>
                      <use xlink:href="#DejaVuSans-5f" x="312.166016"/>
                      <use xlink:href="#DejaVuSans-31" x="362.166016"/>
                     </g>
                    </g>
                    <g id="text_15">
                     <g id="patch_26">
                      <path d="M 84.215614 148.354673 
L 116.134364 148.354673 
Q 117.734364 148.354673 117.734364 146.754673 
L 117.734364 138.789673 
Q 117.734364 137.189673 116.134364 137.189673 
L 84.215614 137.189673 
Q 82.615614 137.189673 82.615614 138.789673 
L 82.615614 146.754673 
Q 82.615614 148.354673 84.215614 148.354673 
z
" style="fill: #ffffff; opacity: 0.6"/>
                     </g>
                     <!-- Split_10 -->
                     <g transform="translate(84.215614 144.868423)scale(0.08 -0.08)">
                      <use xlink:href="#DejaVuSans-53"/>
                      <use xlink:href="#DejaVuSans-70" x="63.476562"/>
                      <use xlink:href="#DejaVuSans-6c" x="126.953125"/>
                      <use xlink:href="#DejaVuSans-69" x="154.736328"/>
                      <use xlink:href="#DejaVuSans-74" x="182.519531"/>
                      <use xlink:href="#DejaVuSans-5f" x="221.728516"/>
                      <use xlink:href="#DejaVuSans-31" x="271.728516"/>
                      <use xlink:href="#DejaVuSans-30" x="335.351562"/>
                     </g>
                    </g>
                    <g id="text_16">
                     <g id="patch_27">
                      <path d="M 269.516434 148.354673 
L 301.435184 148.354673 
Q 303.035184 148.354673 303.035184 146.754673 
L 303.035184 138.789673 
Q 303.035184 137.189673 301.435184 137.189673 
L 269.516434 137.189673 
Q 267.916434 137.189673 267.916434 138.789673 
L 267.916434 146.754673 
Q 267.916434 148.354673 269.516434 148.354673 
z
" style="fill: #ffffff; opacity: 0.6"/>
                     </g>
                     <!-- Split_11 -->
                     <g transform="translate(269.516434 144.868423)scale(0.08 -0.08)">
                      <use xlink:href="#DejaVuSans-53"/>
                      <use xlink:href="#DejaVuSans-70" x="63.476562"/>
                      <use xlink:href="#DejaVuSans-6c" x="126.953125"/>
                      <use xlink:href="#DejaVuSans-69" x="154.736328"/>
                      <use xlink:href="#DejaVuSans-74" x="182.519531"/>
                      <use xlink:href="#DejaVuSans-5f" x="221.728516"/>
                      <use xlink:href="#DejaVuSans-31" x="271.728516"/>
                      <use xlink:href="#DejaVuSans-31" x="335.351562"/>
                     </g>
                    </g>
                    <g id="text_17">
                     <g id="patch_28">
                      <path d="M 454.817254 148.354673 
L 486.736004 148.354673 
Q 488.336004 148.354673 488.336004 146.754673 
L 488.336004 138.789673 
Q 488.336004 137.189673 486.736004 137.189673 
L 454.817254 137.189673 
Q 453.217254 137.189673 453.217254 138.789673 
L 453.217254 146.754673 
Q 453.217254 148.354673 454.817254 148.354673 
z
" style="fill: #ffffff; opacity: 0.6"/>
                     </g>
                     <!-- Split_12 -->
                     <g transform="translate(454.817254 144.868423)scale(0.08 -0.08)">
                      <use xlink:href="#DejaVuSans-53"/>
                      <use xlink:href="#DejaVuSans-70" x="63.476562"/>
                      <use xlink:href="#DejaVuSans-6c" x="126.953125"/>
                      <use xlink:href="#DejaVuSans-69" x="154.736328"/>
                      <use xlink:href="#DejaVuSans-74" x="182.519531"/>
                      <use xlink:href="#DejaVuSans-5f" x="221.728516"/>
                      <use xlink:href="#DejaVuSans-31" x="271.728516"/>
                      <use xlink:href="#DejaVuSans-32" x="335.351562"/>
                     </g>
                    </g>
                   </g>
                  </g>
                  <defs>
                   <clipPath id="p858954d60d">
                    <rect x="49.65125" y="8.64" width="453.70875" height="260.374219"/>
                   </clipPath>
                  </defs>
                 </g>
                </g>
               </g>
              </g>
             </g>
            </g>
           </g>
          </g>
         </g>
        </g>
       </g>
      </g>
     </g>
    </g>
   </g>
  </g>
 </g>
</svg>
