<?xml version="1.0" encoding="utf-8" standalone="no"?>
<!DOCTYPE svg PUBLIC "-//W3C//DTD SVG 1.1//EN"
  "http://www.w3.org/Graphics/SVG/1.1/DTD/svg11.dtd">
<svg xmlns:xlink="http://www.w3.org/1999/xlink" width="720pt" height="360pt" viewBox="0 0 720 360" xmlns="http://www.w3.org/2000/svg" version="1.1">
 <metadata>
  <rdf:RDF xmlns:dc="http://purl.org/dc/elements/1.1/" xmlns:cc="http://creativecommons.org/ns#" xmlns:rdf="http://www.w3.org/1999/02/22-rdf-syntax-ns#">
   <cc:Work>
    <dc:type rdf:resource="http://purl.org/dc/dcmitype/StillImage"/>
    <dc:date>2023-03-06T15:48:31.965631</dc:date>
    <dc:format>image/svg+xml</dc:format>
    <dc:creator>
     <cc:Agent>
      <dc:title>Matplotlib v3.5.1, https://matplotlib.org/</dc:title>
     </cc:Agent>
    </dc:creator>
   </cc:Work>
  </rdf:RDF>
 </metadata>
 <defs>
  <style type="text/css">*{stroke-linejoin: round; stroke-linecap: butt}</style>
 </defs>
 <g id="figure_1">
  <g id="patch_1">
   <path d="M 0 360 
L 720 360 
L 720 0 
L 0 0 
L 0 360 
z
" style="fill: none"/>
  </g>
  <g id="axes_1">
   <g id="patch_2">
    <path d="M 54.163516 317.06 
L 358.140938 317.06 
L 358.140938 8.64 
L 54.163516 8.64 
z
" style="fill: #ffffff"/>
   </g>
   <g id="matplotlib.axis_1">
    <g id="xtick_1">
     <g id="line2d_1">
      <defs>
       <path id="mda4534c92c" d="M 0 0 
L 0 3.5 
" style="stroke: #000000; stroke-width: 0.8"/>
      </defs>
      <g>
       <use xlink:href="#mda4534c92c" x="67.980671" y="317.06" style="stroke: #000000; stroke-width: 0.8"/>
      </g>
     </g>
     <g id="text_1">
      <!-- $\mathdefault{10^{-2}}$ -->
      <g transform="translate(59.755671 329.378906)scale(0.07 -0.07)">
       <defs>
        <path id="DejaVuSans-31" d="M 794 531 
L 1825 531 
L 1825 4091 
L 703 3866 
L 703 4441 
L 1819 4666 
L 2450 4666 
L 2450 531 
L 3481 531 
L 3481 0 
L 794 0 
L 794 531 
z
" transform="scale(0.015625)"/>
        <path id="DejaVuSans-30" d="M 2034 4250 
Q 1547 4250 1301 3770 
Q 1056 3291 1056 2328 
Q 1056 1369 1301 889 
Q 1547 409 2034 409 
Q 2525 409 2770 889 
Q 3016 1369 3016 2328 
Q 3016 3291 2770 3770 
Q 2525 4250 2034 4250 
z
M 2034 4750 
Q 2819 4750 3233 4129 
Q 3647 3509 3647 2328 
Q 3647 1150 3233 529 
Q 2819 -91 2034 -91 
Q 1250 -91 836 529 
Q 422 1150 422 2328 
Q 422 3509 836 4129 
Q 1250 4750 2034 4750 
z
" transform="scale(0.015625)"/>
        <path id="DejaVuSans-2212" d="M 678 2272 
L 4684 2272 
L 4684 1741 
L 678 1741 
L 678 2272 
z
" transform="scale(0.015625)"/>
        <path id="DejaVuSans-32" d="M 1228 531 
L 3431 531 
L 3431 0 
L 469 0 
L 469 531 
Q 828 903 1448 1529 
Q 2069 2156 2228 2338 
Q 2531 2678 2651 2914 
Q 2772 3150 2772 3378 
Q 2772 3750 2511 3984 
Q 2250 4219 1831 4219 
Q 1534 4219 1204 4116 
Q 875 4013 500 3803 
L 500 4441 
Q 881 4594 1212 4672 
Q 1544 4750 1819 4750 
Q 2544 4750 2975 4387 
Q 3406 4025 3406 3419 
Q 3406 3131 3298 2873 
Q 3191 2616 2906 2266 
Q 2828 2175 2409 1742 
Q 1991 1309 1228 531 
z
" transform="scale(0.015625)"/>
       </defs>
       <use xlink:href="#DejaVuSans-31" transform="translate(0 0.765625)"/>
       <use xlink:href="#DejaVuSans-30" transform="translate(63.623047 0.765625)"/>
       <use xlink:href="#DejaVuSans-2212" transform="translate(128.203125 39.046875)scale(0.7)"/>
       <use xlink:href="#DejaVuSans-32" transform="translate(186.855469 39.046875)scale(0.7)"/>
      </g>
     </g>
    </g>
    <g id="xtick_2">
     <g id="line2d_2">
      <g>
       <use xlink:href="#mda4534c92c" x="137.066449" y="317.06" style="stroke: #000000; stroke-width: 0.8"/>
      </g>
     </g>
     <g id="text_2">
      <!-- $\mathdefault{10^{-1}}$ -->
      <g transform="translate(128.841449 329.378906)scale(0.07 -0.07)">
       <use xlink:href="#DejaVuSans-31" transform="translate(0 0.684375)"/>
       <use xlink:href="#DejaVuSans-30" transform="translate(63.623047 0.684375)"/>
       <use xlink:href="#DejaVuSans-2212" transform="translate(128.203125 38.965625)scale(0.7)"/>
       <use xlink:href="#DejaVuSans-31" transform="translate(186.855469 38.965625)scale(0.7)"/>
      </g>
     </g>
    </g>
    <g id="xtick_3">
     <g id="line2d_3">
      <g>
       <use xlink:href="#mda4534c92c" x="206.152227" y="317.06" style="stroke: #000000; stroke-width: 0.8"/>
      </g>
     </g>
     <g id="text_3">
      <!-- $\mathdefault{10^{0}}$ -->
      <g transform="translate(199.992227 329.378906)scale(0.07 -0.07)">
       <use xlink:href="#DejaVuSans-31" transform="translate(0 0.765625)"/>
       <use xlink:href="#DejaVuSans-30" transform="translate(63.623047 0.765625)"/>
       <use xlink:href="#DejaVuSans-30" transform="translate(128.203125 39.046875)scale(0.7)"/>
      </g>
     </g>
    </g>
    <g id="xtick_4">
     <g id="line2d_4">
      <g>
       <use xlink:href="#mda4534c92c" x="275.238004" y="317.06" style="stroke: #000000; stroke-width: 0.8"/>
      </g>
     </g>
     <g id="text_4">
      <!-- $\mathdefault{10^{1}}$ -->
      <g transform="translate(269.078004 329.378906)scale(0.07 -0.07)">
       <use xlink:href="#DejaVuSans-31" transform="translate(0 0.684375)"/>
       <use xlink:href="#DejaVuSans-30" transform="translate(63.623047 0.684375)"/>
       <use xlink:href="#DejaVuSans-31" transform="translate(128.203125 38.965625)scale(0.7)"/>
      </g>
     </g>
    </g>
    <g id="xtick_5">
     <g id="line2d_5">
      <g>
       <use xlink:href="#mda4534c92c" x="344.323782" y="317.06" style="stroke: #000000; stroke-width: 0.8"/>
      </g>
     </g>
     <g id="text_5">
      <!-- $\mathdefault{10^{2}}$ -->
      <g transform="translate(338.163782 329.378906)scale(0.07 -0.07)">
       <use xlink:href="#DejaVuSans-31" transform="translate(0 0.765625)"/>
       <use xlink:href="#DejaVuSans-30" transform="translate(63.623047 0.765625)"/>
       <use xlink:href="#DejaVuSans-32" transform="translate(128.203125 39.046875)scale(0.7)"/>
      </g>
     </g>
    </g>
    <g id="xtick_6">
     <g id="line2d_6">
      <defs>
       <path id="me9234e0d44" d="M 0 0 
L 0 2 
" style="stroke: #000000; stroke-width: 0.6"/>
      </defs>
      <g>
       <use xlink:href="#me9234e0d44" x="57.279149" y="317.06" style="stroke: #000000; stroke-width: 0.6"/>
      </g>
     </g>
    </g>
    <g id="xtick_7">
     <g id="line2d_7">
      <g>
       <use xlink:href="#me9234e0d44" x="61.285568" y="317.06" style="stroke: #000000; stroke-width: 0.6"/>
      </g>
     </g>
    </g>
    <g id="xtick_8">
     <g id="line2d_8">
      <g>
       <use xlink:href="#me9234e0d44" x="64.819479" y="317.06" style="stroke: #000000; stroke-width: 0.6"/>
      </g>
     </g>
    </g>
    <g id="xtick_9">
     <g id="line2d_9">
      <g>
       <use xlink:href="#me9234e0d44" x="88.777563" y="317.06" style="stroke: #000000; stroke-width: 0.6"/>
      </g>
     </g>
    </g>
    <g id="xtick_10">
     <g id="line2d_10">
      <g>
       <use xlink:href="#me9234e0d44" x="100.942964" y="317.06" style="stroke: #000000; stroke-width: 0.6"/>
      </g>
     </g>
    </g>
    <g id="xtick_11">
     <g id="line2d_11">
      <g>
       <use xlink:href="#me9234e0d44" x="109.574454" y="317.06" style="stroke: #000000; stroke-width: 0.6"/>
      </g>
     </g>
    </g>
    <g id="xtick_12">
     <g id="line2d_12">
      <g>
       <use xlink:href="#me9234e0d44" x="116.269558" y="317.06" style="stroke: #000000; stroke-width: 0.6"/>
      </g>
     </g>
    </g>
    <g id="xtick_13">
     <g id="line2d_13">
      <g>
       <use xlink:href="#me9234e0d44" x="121.739855" y="317.06" style="stroke: #000000; stroke-width: 0.6"/>
      </g>
     </g>
    </g>
    <g id="xtick_14">
     <g id="line2d_14">
      <g>
       <use xlink:href="#me9234e0d44" x="126.364926" y="317.06" style="stroke: #000000; stroke-width: 0.6"/>
      </g>
     </g>
    </g>
    <g id="xtick_15">
     <g id="line2d_15">
      <g>
       <use xlink:href="#me9234e0d44" x="130.371345" y="317.06" style="stroke: #000000; stroke-width: 0.6"/>
      </g>
     </g>
    </g>
    <g id="xtick_16">
     <g id="line2d_16">
      <g>
       <use xlink:href="#me9234e0d44" x="133.905257" y="317.06" style="stroke: #000000; stroke-width: 0.6"/>
      </g>
     </g>
    </g>
    <g id="xtick_17">
     <g id="line2d_17">
      <g>
       <use xlink:href="#me9234e0d44" x="157.86334" y="317.06" style="stroke: #000000; stroke-width: 0.6"/>
      </g>
     </g>
    </g>
    <g id="xtick_18">
     <g id="line2d_18">
      <g>
       <use xlink:href="#me9234e0d44" x="170.028742" y="317.06" style="stroke: #000000; stroke-width: 0.6"/>
      </g>
     </g>
    </g>
    <g id="xtick_19">
     <g id="line2d_19">
      <g>
       <use xlink:href="#me9234e0d44" x="178.660232" y="317.06" style="stroke: #000000; stroke-width: 0.6"/>
      </g>
     </g>
    </g>
    <g id="xtick_20">
     <g id="line2d_20">
      <g>
       <use xlink:href="#me9234e0d44" x="185.355335" y="317.06" style="stroke: #000000; stroke-width: 0.6"/>
      </g>
     </g>
    </g>
    <g id="xtick_21">
     <g id="line2d_21">
      <g>
       <use xlink:href="#me9234e0d44" x="190.825633" y="317.06" style="stroke: #000000; stroke-width: 0.6"/>
      </g>
     </g>
    </g>
    <g id="xtick_22">
     <g id="line2d_22">
      <g>
       <use xlink:href="#me9234e0d44" x="195.450704" y="317.06" style="stroke: #000000; stroke-width: 0.6"/>
      </g>
     </g>
    </g>
    <g id="xtick_23">
     <g id="line2d_23">
      <g>
       <use xlink:href="#me9234e0d44" x="199.457123" y="317.06" style="stroke: #000000; stroke-width: 0.6"/>
      </g>
     </g>
    </g>
    <g id="xtick_24">
     <g id="line2d_24">
      <g>
       <use xlink:href="#me9234e0d44" x="202.991035" y="317.06" style="stroke: #000000; stroke-width: 0.6"/>
      </g>
     </g>
    </g>
    <g id="xtick_25">
     <g id="line2d_25">
      <g>
       <use xlink:href="#me9234e0d44" x="226.949118" y="317.06" style="stroke: #000000; stroke-width: 0.6"/>
      </g>
     </g>
    </g>
    <g id="xtick_26">
     <g id="line2d_26">
      <g>
       <use xlink:href="#me9234e0d44" x="239.11452" y="317.06" style="stroke: #000000; stroke-width: 0.6"/>
      </g>
     </g>
    </g>
    <g id="xtick_27">
     <g id="line2d_27">
      <g>
       <use xlink:href="#me9234e0d44" x="247.746009" y="317.06" style="stroke: #000000; stroke-width: 0.6"/>
      </g>
     </g>
    </g>
    <g id="xtick_28">
     <g id="line2d_28">
      <g>
       <use xlink:href="#me9234e0d44" x="254.441113" y="317.06" style="stroke: #000000; stroke-width: 0.6"/>
      </g>
     </g>
    </g>
    <g id="xtick_29">
     <g id="line2d_29">
      <g>
       <use xlink:href="#me9234e0d44" x="259.911411" y="317.06" style="stroke: #000000; stroke-width: 0.6"/>
      </g>
     </g>
    </g>
    <g id="xtick_30">
     <g id="line2d_30">
      <g>
       <use xlink:href="#me9234e0d44" x="264.536482" y="317.06" style="stroke: #000000; stroke-width: 0.6"/>
      </g>
     </g>
    </g>
    <g id="xtick_31">
     <g id="line2d_31">
      <g>
       <use xlink:href="#me9234e0d44" x="268.542901" y="317.06" style="stroke: #000000; stroke-width: 0.6"/>
      </g>
     </g>
    </g>
    <g id="xtick_32">
     <g id="line2d_32">
      <g>
       <use xlink:href="#me9234e0d44" x="272.076812" y="317.06" style="stroke: #000000; stroke-width: 0.6"/>
      </g>
     </g>
    </g>
    <g id="xtick_33">
     <g id="line2d_33">
      <g>
       <use xlink:href="#me9234e0d44" x="296.034896" y="317.06" style="stroke: #000000; stroke-width: 0.6"/>
      </g>
     </g>
    </g>
    <g id="xtick_34">
     <g id="line2d_34">
      <g>
       <use xlink:href="#me9234e0d44" x="308.200297" y="317.06" style="stroke: #000000; stroke-width: 0.6"/>
      </g>
     </g>
    </g>
    <g id="xtick_35">
     <g id="line2d_35">
      <g>
       <use xlink:href="#me9234e0d44" x="316.831787" y="317.06" style="stroke: #000000; stroke-width: 0.6"/>
      </g>
     </g>
    </g>
    <g id="xtick_36">
     <g id="line2d_36">
      <g>
       <use xlink:href="#me9234e0d44" x="323.526891" y="317.06" style="stroke: #000000; stroke-width: 0.6"/>
      </g>
     </g>
    </g>
    <g id="xtick_37">
     <g id="line2d_37">
      <g>
       <use xlink:href="#me9234e0d44" x="328.997189" y="317.06" style="stroke: #000000; stroke-width: 0.6"/>
      </g>
     </g>
    </g>
    <g id="xtick_38">
     <g id="line2d_38">
      <g>
       <use xlink:href="#me9234e0d44" x="333.62226" y="317.06" style="stroke: #000000; stroke-width: 0.6"/>
      </g>
     </g>
    </g>
    <g id="xtick_39">
     <g id="line2d_39">
      <g>
       <use xlink:href="#me9234e0d44" x="337.628678" y="317.06" style="stroke: #000000; stroke-width: 0.6"/>
      </g>
     </g>
    </g>
    <g id="xtick_40">
     <g id="line2d_40">
      <g>
       <use xlink:href="#me9234e0d44" x="341.16259" y="317.06" style="stroke: #000000; stroke-width: 0.6"/>
      </g>
     </g>
    </g>
    <g id="text_6">
     <!-- $\rho$ -->
     <g transform="translate(202.952227 342.412812)scale(0.1 -0.1)">
      <defs>
       <path id="DejaVuSans-Oblique-3c1" d="M 1203 2875 
Q 1453 3194 1981 3475 
Q 2188 3584 2756 3584 
Q 3394 3584 3694 3078 
Q 3994 2572 3834 1747 
Q 3672 922 3175 415 
Q 2678 -91 2041 -91 
Q 1656 -91 1409 63 
Q 1163 213 1044 525 
L 681 -1331 
L 103 -1331 
L 697 1716 
Q 838 2438 1203 2875 
z
M 3238 1747 
Q 3359 2381 3169 2744 
Q 2978 3103 2522 3103 
Q 2066 3103 1734 2744 
Q 1403 2381 1281 1747 
Q 1156 1113 1347 750 
Q 1538 391 1994 391 
Q 2450 391 2781 750 
Q 3113 1113 3238 1747 
z
" transform="scale(0.015625)"/>
      </defs>
      <use xlink:href="#DejaVuSans-Oblique-3c1"/>
     </g>
    </g>
   </g>
   <g id="matplotlib.axis_2">
    <g id="ytick_1">
     <g id="line2d_41">
      <defs>
       <path id="m319cd94f5a" d="M 0 0 
L -3.5 0 
" style="stroke: #000000; stroke-width: 0.8"/>
      </defs>
      <g>
       <use xlink:href="#m319cd94f5a" x="54.163516" y="260.626515" style="stroke: #000000; stroke-width: 0.8"/>
      </g>
     </g>
     <g id="text_7">
      <!-- $\mathdefault{10^{-2}}$ -->
      <g transform="translate(30.713516 263.285968)scale(0.07 -0.07)">
       <use xlink:href="#DejaVuSans-31" transform="translate(0 0.765625)"/>
       <use xlink:href="#DejaVuSans-30" transform="translate(63.623047 0.765625)"/>
       <use xlink:href="#DejaVuSans-2212" transform="translate(128.203125 39.046875)scale(0.7)"/>
       <use xlink:href="#DejaVuSans-32" transform="translate(186.855469 39.046875)scale(0.7)"/>
      </g>
     </g>
    </g>
    <g id="ytick_2">
     <g id="line2d_42">
      <g>
       <use xlink:href="#m319cd94f5a" x="54.163516" y="122.404972" style="stroke: #000000; stroke-width: 0.8"/>
      </g>
     </g>
     <g id="text_8">
      <!-- $\mathdefault{10^{-1}}$ -->
      <g transform="translate(30.713516 125.064425)scale(0.07 -0.07)">
       <use xlink:href="#DejaVuSans-31" transform="translate(0 0.684375)"/>
       <use xlink:href="#DejaVuSans-30" transform="translate(63.623047 0.684375)"/>
       <use xlink:href="#DejaVuSans-2212" transform="translate(128.203125 38.965625)scale(0.7)"/>
       <use xlink:href="#DejaVuSans-31" transform="translate(186.855469 38.965625)scale(0.7)"/>
      </g>
     </g>
    </g>
    <g id="ytick_3">
     <g id="line2d_43">
      <defs>
       <path id="m4aff00fed6" d="M 0 0 
L -2 0 
" style="stroke: #000000; stroke-width: 0.6"/>
      </defs>
      <g>
       <use xlink:href="#m4aff00fed6" x="54.163516" y="315.630397" style="stroke: #000000; stroke-width: 0.6"/>
      </g>
     </g>
    </g>
    <g id="ytick_4">
     <g id="line2d_44">
      <g>
       <use xlink:href="#m4aff00fed6" x="54.163516" y="302.235345" style="stroke: #000000; stroke-width: 0.6"/>
      </g>
     </g>
    </g>
    <g id="ytick_5">
     <g id="line2d_45">
      <g>
       <use xlink:href="#m4aff00fed6" x="54.163516" y="291.290791" style="stroke: #000000; stroke-width: 0.6"/>
      </g>
     </g>
    </g>
    <g id="ytick_6">
     <g id="line2d_46">
      <g>
       <use xlink:href="#m4aff00fed6" x="54.163516" y="282.037303" style="stroke: #000000; stroke-width: 0.6"/>
      </g>
     </g>
    </g>
    <g id="ytick_7">
     <g id="line2d_47">
      <g>
       <use xlink:href="#m4aff00fed6" x="54.163516" y="274.021566" style="stroke: #000000; stroke-width: 0.6"/>
      </g>
     </g>
    </g>
    <g id="ytick_8">
     <g id="line2d_48">
      <g>
       <use xlink:href="#m4aff00fed6" x="54.163516" y="266.951186" style="stroke: #000000; stroke-width: 0.6"/>
      </g>
     </g>
    </g>
    <g id="ytick_9">
     <g id="line2d_49">
      <g>
       <use xlink:href="#m4aff00fed6" x="54.163516" y="219.017684" style="stroke: #000000; stroke-width: 0.6"/>
      </g>
     </g>
    </g>
    <g id="ytick_10">
     <g id="line2d_50">
      <g>
       <use xlink:href="#m4aff00fed6" x="54.163516" y="194.678079" style="stroke: #000000; stroke-width: 0.6"/>
      </g>
     </g>
    </g>
    <g id="ytick_11">
     <g id="line2d_51">
      <g>
       <use xlink:href="#m4aff00fed6" x="54.163516" y="177.408854" style="stroke: #000000; stroke-width: 0.6"/>
      </g>
     </g>
    </g>
    <g id="ytick_12">
     <g id="line2d_52">
      <g>
       <use xlink:href="#m4aff00fed6" x="54.163516" y="164.013803" style="stroke: #000000; stroke-width: 0.6"/>
      </g>
     </g>
    </g>
    <g id="ytick_13">
     <g id="line2d_53">
      <g>
       <use xlink:href="#m4aff00fed6" x="54.163516" y="153.069249" style="stroke: #000000; stroke-width: 0.6"/>
      </g>
     </g>
    </g>
    <g id="ytick_14">
     <g id="line2d_54">
      <g>
       <use xlink:href="#m4aff00fed6" x="54.163516" y="143.81576" style="stroke: #000000; stroke-width: 0.6"/>
      </g>
     </g>
    </g>
    <g id="ytick_15">
     <g id="line2d_55">
      <g>
       <use xlink:href="#m4aff00fed6" x="54.163516" y="135.800024" style="stroke: #000000; stroke-width: 0.6"/>
      </g>
     </g>
    </g>
    <g id="ytick_16">
     <g id="line2d_56">
      <g>
       <use xlink:href="#m4aff00fed6" x="54.163516" y="128.729643" style="stroke: #000000; stroke-width: 0.6"/>
      </g>
     </g>
    </g>
    <g id="ytick_17">
     <g id="line2d_57">
      <g>
       <use xlink:href="#m4aff00fed6" x="54.163516" y="80.796142" style="stroke: #000000; stroke-width: 0.6"/>
      </g>
     </g>
    </g>
    <g id="ytick_18">
     <g id="line2d_58">
      <g>
       <use xlink:href="#m4aff00fed6" x="54.163516" y="56.456536" style="stroke: #000000; stroke-width: 0.6"/>
      </g>
     </g>
    </g>
    <g id="ytick_19">
     <g id="line2d_59">
      <g>
       <use xlink:href="#m4aff00fed6" x="54.163516" y="39.187312" style="stroke: #000000; stroke-width: 0.6"/>
      </g>
     </g>
    </g>
    <g id="ytick_20">
     <g id="line2d_60">
      <g>
       <use xlink:href="#m4aff00fed6" x="54.163516" y="25.79226" style="stroke: #000000; stroke-width: 0.6"/>
      </g>
     </g>
    </g>
    <g id="ytick_21">
     <g id="line2d_61">
      <g>
       <use xlink:href="#m4aff00fed6" x="54.163516" y="14.847706" style="stroke: #000000; stroke-width: 0.6"/>
      </g>
     </g>
    </g>
    <g id="text_9">
     <!-- $\sigma_d^2$ -->
     <g transform="translate(23.813516 168.65)rotate(-90)scale(0.1 -0.1)">
      <defs>
       <path id="DejaVuSans-Oblique-3c3" d="M 2219 3044 
Q 1744 3044 1422 2700 
Q 1081 2341 969 1747 
Q 844 1119 1044 756 
Q 1241 397 1706 397 
Q 2166 397 2503 759 
Q 2844 1122 2966 1747 
Q 3075 2319 2881 2700 
Q 2700 3044 2219 3044 
z
M 2309 3503 
L 4219 3500 
L 4106 2925 
L 3463 2925 
Q 3706 2438 3575 1747 
Q 3406 888 2884 400 
Q 2359 -91 1609 -91 
Q 856 -91 525 400 
Q 194 888 363 1747 
Q 528 2609 1050 3097 
Q 1484 3503 2309 3503 
z
" transform="scale(0.015625)"/>
       <path id="DejaVuSans-Oblique-64" d="M 2675 525 
Q 2444 222 2128 65 
Q 1813 -91 1428 -91 
Q 903 -91 598 267 
Q 294 625 294 1247 
Q 294 1766 478 2236 
Q 663 2706 1013 3078 
Q 1244 3325 1534 3454 
Q 1825 3584 2144 3584 
Q 2481 3584 2739 3421 
Q 2997 3259 3138 2956 
L 3513 4863 
L 4091 4863 
L 3144 0 
L 2566 0 
L 2675 525 
z
M 891 1350 
Q 891 897 1095 644 
Q 1300 391 1663 391 
Q 1931 391 2161 520 
Q 2391 650 2566 903 
Q 2750 1166 2856 1509 
Q 2963 1853 2963 2188 
Q 2963 2622 2758 2865 
Q 2553 3109 2194 3109 
Q 1922 3109 1687 2981 
Q 1453 2853 1288 2613 
Q 1106 2353 998 2009 
Q 891 1666 891 1350 
z
" transform="scale(0.015625)"/>
      </defs>
      <use xlink:href="#DejaVuSans-Oblique-3c3" transform="translate(0 0.701562)"/>
      <use xlink:href="#DejaVuSans-32" transform="translate(67.851615 39.046875)scale(0.7)"/>
      <use xlink:href="#DejaVuSans-Oblique-64" transform="translate(63.378906 -26.642188)scale(0.7)"/>
     </g>
    </g>
   </g>
   <g id="line2d_62">
    <path d="M 67.980671 42.861501 
L 81.797827 43.029409 
L 95.614982 43.293898 
L 109.432138 43.709049 
L 123.249293 44.357101 
L 137.066449 45.360125 
L 150.883604 46.892522 
L 164.70076 49.188935 
L 178.517915 52.5369 
L 192.335071 57.242586 
L 206.152227 63.57623 
L 219.969382 71.746322 
L 233.786538 81.958541 
L 247.603693 94.527923 
L 261.420849 110.005485 
L 275.238004 129.325384 
L 289.05516 153.523814 
L 302.872315 182.419326 
L 316.689471 213.616191 
L 330.506626 244.314117 
L 344.323782 273.519782 
" clip-path="url(#pc57926ccd8)" style="fill: none; stroke: #ff7f0e; stroke-width: 1.5; stroke-linecap: square"/>
   </g>
   <g id="line2d_63">
    <path d="M 67.980671 43.105746 
L 81.797827 43.230702 
L 95.614982 43.427428 
L 109.432138 43.735963 
L 123.249293 44.216973 
L 137.066449 44.960006 
L 150.883604 46.091882 
L 164.70076 47.780937 
L 178.517915 50.229307 
L 192.335071 53.646393 
L 206.152227 58.213425 
L 219.969382 64.082161 
L 233.786538 71.451417 
L 247.603693 80.695411 
L 261.420849 92.509197 
L 275.238004 108.076137 
L 289.05516 129.036046 
L 302.872315 156.91958 
L 316.689471 192.164354 
L 330.506626 232.715287 
L 344.323782 273.220227 
" clip-path="url(#pc57926ccd8)" style="fill: none; stroke: #d62728; stroke-width: 1.5; stroke-linecap: square"/>
   </g>
   <g id="line2d_64">
    <path d="M 67.980671 41.653492 
L 81.797827 41.824941 
L 95.614982 42.095008 
L 109.432138 42.518916 
L 123.249293 43.180641 
L 137.066449 44.204821 
L 150.883604 45.769491 
L 164.70076 48.114021 
L 178.517915 51.53111 
L 192.335071 56.330182 
L 206.152227 62.777105 
L 219.969382 71.056698 
L 233.786538 81.308855 
L 247.603693 93.695872 
L 261.420849 108.44575 
L 275.238004 125.846757 
L 289.05516 145.727698 
L 302.872315 166.274034 
L 316.689471 184.759571 
L 330.506626 200.909345 
L 344.323782 216.608723 
" clip-path="url(#pc57926ccd8)" style="fill: none; stroke: #bfbf00; stroke-width: 1.5; stroke-linecap: square"/>
   </g>
   <g id="line2d_65">
    <path d="M 67.980671 40.125623 
L 81.797827 40.320486 
L 95.614982 40.62753 
L 109.432138 41.109718 
L 123.249293 41.863003 
L 137.066449 43.030294 
L 150.883604 44.816878 
L 164.70076 47.501302 
L 178.517915 51.429394 
L 192.335071 56.976419 
L 206.152227 64.480026 
L 219.969382 74.192334 
L 233.786538 86.309036 
L 247.603693 101.039074 
L 261.420849 118.694879 
L 275.238004 139.872437 
L 289.05516 165.171634 
L 302.872315 193.704847 
L 316.689471 222.766924 
L 330.506626 251.641341 
L 344.323782 282.452188 
" clip-path="url(#pc57926ccd8)" style="fill: none; stroke: #1f77b4; stroke-width: 1.5; stroke-linecap: square"/>
   </g>
   <g id="line2d_66">
    <path d="M 67.980671 37.542817 
L 81.797827 37.736521 
L 95.614982 38.04169 
L 109.432138 38.520804 
L 123.249293 39.268965 
L 137.066449 40.427515 
L 150.883604 42.198724 
L 164.70076 44.855115 
L 178.517915 48.730148 
L 192.335071 54.173476 
L 206.152227 61.470258 
L 219.969382 70.767652 
L 233.786538 82.057355 
L 247.603693 95.16671 
L 261.420849 109.739345 
L 275.238004 125.304702 
L 289.05516 141.084429 
L 302.872315 155.471152 
L 316.689471 166.87628 
L 330.506626 175.270081 
L 344.323782 181.611828 
" clip-path="url(#pc57926ccd8)" style="fill: none; stroke: #2ca02c; stroke-width: 1.5; stroke-linecap: square"/>
   </g>
   <g id="line2d_67">
    <path d="M 67.980671 37.016951 
L 81.797827 37.145396 
L 95.614982 37.348361 
L 109.432138 37.668521 
L 123.249293 38.172174 
L 137.066449 38.961115 
L 150.883604 40.188795 
L 164.70076 42.079956 
L 178.517915 44.949236 
L 192.335071 49.207633 
L 206.152227 55.33929 
L 219.969382 63.838721 
L 233.786538 75.137855 
L 247.603693 89.59086 
L 261.420849 107.516143 
L 275.238004 129.182765 
L 289.05516 154.774637 
L 302.872315 184.445858 
L 316.689471 217.910968 
L 330.506626 252.981822 
L 344.323782 285.225331 
" clip-path="url(#pc57926ccd8)" style="fill: none; stroke-dasharray: 5.55,2.4; stroke-dashoffset: 0; stroke: #ff7f0e; stroke-width: 1.5"/>
   </g>
   <g id="line2d_68">
    <path d="M 67.980671 22.659091 
L 81.797827 22.749692 
L 95.614982 22.892865 
L 109.432138 23.118731 
L 123.249293 23.474104 
L 137.066449 24.03091 
L 150.883604 24.897708 
L 164.70076 26.233807 
L 178.517915 28.263053 
L 192.335071 31.27993 
L 206.152227 35.636763 
L 219.969382 41.707634 
L 233.786538 49.855066 
L 247.603693 60.457407 
L 261.420849 74.011355 
L 275.238004 91.234491 
L 289.05516 113.133187 
L 302.872315 140.994356 
L 316.689471 175.857682 
L 330.506626 216.768986 
L 344.323782 258.581597 
" clip-path="url(#pc57926ccd8)" style="fill: none; stroke-dasharray: 5.55,2.4; stroke-dashoffset: 0; stroke: #d62728; stroke-width: 1.5"/>
   </g>
   <g id="line2d_69">
    <path d="M 67.980671 37.706821 
L 81.797827 37.836942 
L 95.614982 38.042524 
L 109.432138 38.366743 
L 123.249293 38.876603 
L 137.066449 39.674826 
L 150.883604 40.915859 
L 164.70076 42.824905 
L 178.517915 45.714811 
L 192.335071 49.988341 
L 206.152227 56.106013 
L 219.969382 64.506551 
L 233.786538 75.505731 
L 247.603693 89.235463 
L 261.420849 105.613798 
L 275.238004 124.252648 
L 289.05516 144.441699 
L 302.872315 165.461318 
L 316.689471 186.780146 
L 330.506626 207.725159 
L 344.323782 227.532675 
" clip-path="url(#pc57926ccd8)" style="fill: none; stroke-dasharray: 5.55,2.4; stroke-dashoffset: 0; stroke: #bfbf00; stroke-width: 1.5"/>
   </g>
   <g id="line2d_70">
    <path d="M 67.980671 43.916252 
L 81.797827 44.064973 
L 95.614982 44.299948 
L 109.432138 44.67053 
L 123.249293 45.253321 
L 137.066449 46.165779 
L 150.883604 47.58456 
L 164.70076 49.767393 
L 178.517915 53.072696 
L 192.335071 57.962948 
L 206.152227 64.96993 
L 219.969382 74.609104 
L 233.786538 87.278185 
L 247.603693 103.221658 
L 261.420849 122.55872 
L 275.238004 145.246883 
L 289.05516 171.08259 
L 302.872315 200.009064 
L 316.689471 232.220728 
L 330.506626 267.26847 
L 344.323782 303.040909 
" clip-path="url(#pc57926ccd8)" style="fill: none; stroke-dasharray: 5.55,2.4; stroke-dashoffset: 0; stroke: #1f77b4; stroke-width: 1.5"/>
   </g>
   <g id="line2d_71">
    <path d="M 67.980671 44.27183 
L 81.797827 44.417499 
L 95.614982 44.647617 
L 109.432138 45.01045 
L 123.249293 45.580838 
L 137.066449 46.473325 
L 150.883604 47.859675 
L 164.70076 49.989166 
L 178.517915 53.20513 
L 192.335071 57.942117 
L 206.152227 64.678654 
L 219.969382 73.827766 
L 233.786538 85.595052 
L 247.603693 99.887337 
L 261.420849 116.289937 
L 275.238004 134.040134 
L 289.05516 152.131511 
L 302.872315 169.638328 
L 316.689471 185.686031 
L 330.506626 199.175592 
L 344.323782 209.475411 
" clip-path="url(#pc57926ccd8)" style="fill: none; stroke-dasharray: 5.55,2.4; stroke-dashoffset: 0; stroke: #2ca02c; stroke-width: 1.5"/>
   </g>
   <g id="patch_3">
    <path d="M 54.163516 317.06 
L 54.163516 8.64 
" style="fill: none; stroke: #000000; stroke-width: 1.5; stroke-linejoin: miter; stroke-linecap: square"/>
   </g>
   <g id="patch_4">
    <path d="M 358.140938 317.06 
L 358.140938 8.64 
" style="fill: none; stroke: #000000; stroke-width: 1.5; stroke-linejoin: miter; stroke-linecap: square"/>
   </g>
   <g id="patch_5">
    <path d="M 54.163516 317.06 
L 358.140938 317.06 
" style="fill: none; stroke: #000000; stroke-width: 1.5; stroke-linejoin: miter; stroke-linecap: square"/>
   </g>
   <g id="patch_6">
    <path d="M 54.163516 8.64 
L 358.140938 8.64 
" style="fill: none; stroke: #000000; stroke-width: 1.5; stroke-linejoin: miter; stroke-linecap: square"/>
   </g>
   <g id="legend_1">
    <g id="line2d_72">
     <path d="M 300.210938 19.11875 
L 308.210938 19.11875 
L 316.210938 19.11875 
" style="fill: none; stroke: #ff7f0e; stroke-width: 1.5; stroke-linecap: square"/>
    </g>
    <g id="text_10">
     <!-- EP -->
     <g transform="translate(322.610937 21.91875)scale(0.08 -0.08)">
      <defs>
       <path id="DejaVuSans-45" d="M 628 4666 
L 3578 4666 
L 3578 4134 
L 1259 4134 
L 1259 2753 
L 3481 2753 
L 3481 2222 
L 1259 2222 
L 1259 531 
L 3634 531 
L 3634 0 
L 628 0 
L 628 4666 
z
" transform="scale(0.015625)"/>
       <path id="DejaVuSans-50" d="M 1259 4147 
L 1259 2394 
L 2053 2394 
Q 2494 2394 2734 2622 
Q 2975 2850 2975 3272 
Q 2975 3691 2734 3919 
Q 2494 4147 2053 4147 
L 1259 4147 
z
M 628 4666 
L 2053 4666 
Q 2838 4666 3239 4311 
Q 3641 3956 3641 3272 
Q 3641 2581 3239 2228 
Q 2838 1875 2053 1875 
L 1259 1875 
L 1259 0 
L 628 0 
L 628 4666 
z
" transform="scale(0.015625)"/>
      </defs>
      <use xlink:href="#DejaVuSans-45"/>
      <use xlink:href="#DejaVuSans-50" x="63.183594"/>
     </g>
    </g>
    <g id="line2d_73">
     <path d="M 300.210938 30.86125 
L 308.210938 30.86125 
L 316.210938 30.86125 
" style="fill: none; stroke: #d62728; stroke-width: 1.5; stroke-linecap: square"/>
    </g>
    <g id="text_11">
     <!-- GBR -->
     <g transform="translate(322.610937 33.66125)scale(0.08 -0.08)">
      <defs>
       <path id="DejaVuSans-47" d="M 3809 666 
L 3809 1919 
L 2778 1919 
L 2778 2438 
L 4434 2438 
L 4434 434 
Q 4069 175 3628 42 
Q 3188 -91 2688 -91 
Q 1594 -91 976 548 
Q 359 1188 359 2328 
Q 359 3472 976 4111 
Q 1594 4750 2688 4750 
Q 3144 4750 3555 4637 
Q 3966 4525 4313 4306 
L 4313 3634 
Q 3963 3931 3569 4081 
Q 3175 4231 2741 4231 
Q 1884 4231 1454 3753 
Q 1025 3275 1025 2328 
Q 1025 1384 1454 906 
Q 1884 428 2741 428 
Q 3075 428 3337 486 
Q 3600 544 3809 666 
z
" transform="scale(0.015625)"/>
       <path id="DejaVuSans-42" d="M 1259 2228 
L 1259 519 
L 2272 519 
Q 2781 519 3026 730 
Q 3272 941 3272 1375 
Q 3272 1813 3026 2020 
Q 2781 2228 2272 2228 
L 1259 2228 
z
M 1259 4147 
L 1259 2741 
L 2194 2741 
Q 2656 2741 2882 2914 
Q 3109 3088 3109 3444 
Q 3109 3797 2882 3972 
Q 2656 4147 2194 4147 
L 1259 4147 
z
M 628 4666 
L 2241 4666 
Q 2963 4666 3353 4366 
Q 3744 4066 3744 3513 
Q 3744 3084 3544 2831 
Q 3344 2578 2956 2516 
Q 3422 2416 3680 2098 
Q 3938 1781 3938 1306 
Q 3938 681 3513 340 
Q 3088 0 2303 0 
L 628 0 
L 628 4666 
z
" transform="scale(0.015625)"/>
       <path id="DejaVuSans-52" d="M 2841 2188 
Q 3044 2119 3236 1894 
Q 3428 1669 3622 1275 
L 4263 0 
L 3584 0 
L 2988 1197 
Q 2756 1666 2539 1819 
Q 2322 1972 1947 1972 
L 1259 1972 
L 1259 0 
L 628 0 
L 628 4666 
L 2053 4666 
Q 2853 4666 3247 4331 
Q 3641 3997 3641 3322 
Q 3641 2881 3436 2590 
Q 3231 2300 2841 2188 
z
M 1259 4147 
L 1259 2491 
L 2053 2491 
Q 2509 2491 2742 2702 
Q 2975 2913 2975 3322 
Q 2975 3731 2742 3939 
Q 2509 4147 2053 4147 
L 1259 4147 
z
" transform="scale(0.015625)"/>
      </defs>
      <use xlink:href="#DejaVuSans-47"/>
      <use xlink:href="#DejaVuSans-42" x="77.490234"/>
      <use xlink:href="#DejaVuSans-52" x="146.09375"/>
     </g>
    </g>
    <g id="line2d_74">
     <path d="M 300.210938 42.60375 
L 308.210938 42.60375 
L 316.210938 42.60375 
" style="fill: none; stroke: #bfbf00; stroke-width: 1.5; stroke-linecap: square"/>
    </g>
    <g id="text_12">
     <!-- Gumuz -->
     <g transform="translate(322.610937 45.40375)scale(0.08 -0.08)">
      <defs>
       <path id="DejaVuSans-75" d="M 544 1381 
L 544 3500 
L 1119 3500 
L 1119 1403 
Q 1119 906 1312 657 
Q 1506 409 1894 409 
Q 2359 409 2629 706 
Q 2900 1003 2900 1516 
L 2900 3500 
L 3475 3500 
L 3475 0 
L 2900 0 
L 2900 538 
Q 2691 219 2414 64 
Q 2138 -91 1772 -91 
Q 1169 -91 856 284 
Q 544 659 544 1381 
z
M 1991 3584 
L 1991 3584 
z
" transform="scale(0.015625)"/>
       <path id="DejaVuSans-6d" d="M 3328 2828 
Q 3544 3216 3844 3400 
Q 4144 3584 4550 3584 
Q 5097 3584 5394 3201 
Q 5691 2819 5691 2113 
L 5691 0 
L 5113 0 
L 5113 2094 
Q 5113 2597 4934 2840 
Q 4756 3084 4391 3084 
Q 3944 3084 3684 2787 
Q 3425 2491 3425 1978 
L 3425 0 
L 2847 0 
L 2847 2094 
Q 2847 2600 2669 2842 
Q 2491 3084 2119 3084 
Q 1678 3084 1418 2786 
Q 1159 2488 1159 1978 
L 1159 0 
L 581 0 
L 581 3500 
L 1159 3500 
L 1159 2956 
Q 1356 3278 1631 3431 
Q 1906 3584 2284 3584 
Q 2666 3584 2933 3390 
Q 3200 3197 3328 2828 
z
" transform="scale(0.015625)"/>
       <path id="DejaVuSans-7a" d="M 353 3500 
L 3084 3500 
L 3084 2975 
L 922 459 
L 3084 459 
L 3084 0 
L 275 0 
L 275 525 
L 2438 3041 
L 353 3041 
L 353 3500 
z
" transform="scale(0.015625)"/>
      </defs>
      <use xlink:href="#DejaVuSans-47"/>
      <use xlink:href="#DejaVuSans-75" x="77.490234"/>
      <use xlink:href="#DejaVuSans-6d" x="140.869141"/>
      <use xlink:href="#DejaVuSans-75" x="238.28125"/>
      <use xlink:href="#DejaVuSans-7a" x="301.660156"/>
     </g>
    </g>
    <g id="line2d_75">
     <path d="M 300.210938 54.34625 
L 308.210938 54.34625 
L 316.210938 54.34625 
" style="fill: none; stroke: #1f77b4; stroke-width: 1.5; stroke-linecap: square"/>
    </g>
    <g id="text_13">
     <!-- MSL -->
     <g transform="translate(322.610937 57.14625)scale(0.08 -0.08)">
      <defs>
       <path id="DejaVuSans-4d" d="M 628 4666 
L 1569 4666 
L 2759 1491 
L 3956 4666 
L 4897 4666 
L 4897 0 
L 4281 0 
L 4281 4097 
L 3078 897 
L 2444 897 
L 1241 4097 
L 1241 0 
L 628 0 
L 628 4666 
z
" transform="scale(0.015625)"/>
       <path id="DejaVuSans-53" d="M 3425 4513 
L 3425 3897 
Q 3066 4069 2747 4153 
Q 2428 4238 2131 4238 
Q 1616 4238 1336 4038 
Q 1056 3838 1056 3469 
Q 1056 3159 1242 3001 
Q 1428 2844 1947 2747 
L 2328 2669 
Q 3034 2534 3370 2195 
Q 3706 1856 3706 1288 
Q 3706 609 3251 259 
Q 2797 -91 1919 -91 
Q 1588 -91 1214 -16 
Q 841 59 441 206 
L 441 856 
Q 825 641 1194 531 
Q 1563 422 1919 422 
Q 2459 422 2753 634 
Q 3047 847 3047 1241 
Q 3047 1584 2836 1778 
Q 2625 1972 2144 2069 
L 1759 2144 
Q 1053 2284 737 2584 
Q 422 2884 422 3419 
Q 422 4038 858 4394 
Q 1294 4750 2059 4750 
Q 2388 4750 2728 4690 
Q 3069 4631 3425 4513 
z
" transform="scale(0.015625)"/>
       <path id="DejaVuSans-4c" d="M 628 4666 
L 1259 4666 
L 1259 531 
L 3531 531 
L 3531 0 
L 628 0 
L 628 4666 
z
" transform="scale(0.015625)"/>
      </defs>
      <use xlink:href="#DejaVuSans-4d"/>
      <use xlink:href="#DejaVuSans-53" x="86.279297"/>
      <use xlink:href="#DejaVuSans-4c" x="149.755859"/>
     </g>
    </g>
    <g id="line2d_76">
     <path d="M 300.210938 66.08875 
L 308.210938 66.08875 
L 316.210938 66.08875 
" style="fill: none; stroke: #2ca02c; stroke-width: 1.5; stroke-linecap: square"/>
    </g>
    <g id="text_14">
     <!-- Nama -->
     <g transform="translate(322.610937 68.88875)scale(0.08 -0.08)">
      <defs>
       <path id="DejaVuSans-4e" d="M 628 4666 
L 1478 4666 
L 3547 763 
L 3547 4666 
L 4159 4666 
L 4159 0 
L 3309 0 
L 1241 3903 
L 1241 0 
L 628 0 
L 628 4666 
z
" transform="scale(0.015625)"/>
       <path id="DejaVuSans-61" d="M 2194 1759 
Q 1497 1759 1228 1600 
Q 959 1441 959 1056 
Q 959 750 1161 570 
Q 1363 391 1709 391 
Q 2188 391 2477 730 
Q 2766 1069 2766 1631 
L 2766 1759 
L 2194 1759 
z
M 3341 1997 
L 3341 0 
L 2766 0 
L 2766 531 
Q 2569 213 2275 61 
Q 1981 -91 1556 -91 
Q 1019 -91 701 211 
Q 384 513 384 1019 
Q 384 1609 779 1909 
Q 1175 2209 1959 2209 
L 2766 2209 
L 2766 2266 
Q 2766 2663 2505 2880 
Q 2244 3097 1772 3097 
Q 1472 3097 1187 3025 
Q 903 2953 641 2809 
L 641 3341 
Q 956 3463 1253 3523 
Q 1550 3584 1831 3584 
Q 2591 3584 2966 3190 
Q 3341 2797 3341 1997 
z
" transform="scale(0.015625)"/>
      </defs>
      <use xlink:href="#DejaVuSans-4e"/>
      <use xlink:href="#DejaVuSans-61" x="74.804688"/>
      <use xlink:href="#DejaVuSans-6d" x="136.083984"/>
      <use xlink:href="#DejaVuSans-61" x="233.496094"/>
     </g>
    </g>
   </g>
  </g>
  <g id="axes_2">
   <g id="patch_7">
    <path d="M 407.382578 317.06 
L 711.36 317.06 
L 711.36 8.64 
L 407.382578 8.64 
z
" style="fill: #ffffff"/>
   </g>
   <g id="matplotlib.axis_3">
    <g id="xtick_41">
     <g id="line2d_77">
      <g>
       <use xlink:href="#mda4534c92c" x="421.199734" y="317.06" style="stroke: #000000; stroke-width: 0.8"/>
      </g>
     </g>
     <g id="text_15">
      <!-- $\mathdefault{10^{-2}}$ -->
      <g transform="translate(412.974734 329.378906)scale(0.07 -0.07)">
       <use xlink:href="#DejaVuSans-31" transform="translate(0 0.765625)"/>
       <use xlink:href="#DejaVuSans-30" transform="translate(63.623047 0.765625)"/>
       <use xlink:href="#DejaVuSans-2212" transform="translate(128.203125 39.046875)scale(0.7)"/>
       <use xlink:href="#DejaVuSans-32" transform="translate(186.855469 39.046875)scale(0.7)"/>
      </g>
     </g>
    </g>
    <g id="xtick_42">
     <g id="line2d_78">
      <g>
       <use xlink:href="#mda4534c92c" x="490.285511" y="317.06" style="stroke: #000000; stroke-width: 0.8"/>
      </g>
     </g>
     <g id="text_16">
      <!-- $\mathdefault{10^{-1}}$ -->
      <g transform="translate(482.060511 329.378906)scale(0.07 -0.07)">
       <use xlink:href="#DejaVuSans-31" transform="translate(0 0.684375)"/>
       <use xlink:href="#DejaVuSans-30" transform="translate(63.623047 0.684375)"/>
       <use xlink:href="#DejaVuSans-2212" transform="translate(128.203125 38.965625)scale(0.7)"/>
       <use xlink:href="#DejaVuSans-31" transform="translate(186.855469 38.965625)scale(0.7)"/>
      </g>
     </g>
    </g>
    <g id="xtick_43">
     <g id="line2d_79">
      <g>
       <use xlink:href="#mda4534c92c" x="559.371289" y="317.06" style="stroke: #000000; stroke-width: 0.8"/>
      </g>
     </g>
     <g id="text_17">
      <!-- $\mathdefault{10^{0}}$ -->
      <g transform="translate(553.211289 329.378906)scale(0.07 -0.07)">
       <use xlink:href="#DejaVuSans-31" transform="translate(0 0.765625)"/>
       <use xlink:href="#DejaVuSans-30" transform="translate(63.623047 0.765625)"/>
       <use xlink:href="#DejaVuSans-30" transform="translate(128.203125 39.046875)scale(0.7)"/>
      </g>
     </g>
    </g>
    <g id="xtick_44">
     <g id="line2d_80">
      <g>
       <use xlink:href="#mda4534c92c" x="628.457067" y="317.06" style="stroke: #000000; stroke-width: 0.8"/>
      </g>
     </g>
     <g id="text_18">
      <!-- $\mathdefault{10^{1}}$ -->
      <g transform="translate(622.297067 329.378906)scale(0.07 -0.07)">
       <use xlink:href="#DejaVuSans-31" transform="translate(0 0.684375)"/>
       <use xlink:href="#DejaVuSans-30" transform="translate(63.623047 0.684375)"/>
       <use xlink:href="#DejaVuSans-31" transform="translate(128.203125 38.965625)scale(0.7)"/>
      </g>
     </g>
    </g>
    <g id="xtick_45">
     <g id="line2d_81">
      <g>
       <use xlink:href="#mda4534c92c" x="697.542844" y="317.06" style="stroke: #000000; stroke-width: 0.8"/>
      </g>
     </g>
     <g id="text_19">
      <!-- $\mathdefault{10^{2}}$ -->
      <g transform="translate(691.382844 329.378906)scale(0.07 -0.07)">
       <use xlink:href="#DejaVuSans-31" transform="translate(0 0.765625)"/>
       <use xlink:href="#DejaVuSans-30" transform="translate(63.623047 0.765625)"/>
       <use xlink:href="#DejaVuSans-32" transform="translate(128.203125 39.046875)scale(0.7)"/>
      </g>
     </g>
    </g>
    <g id="xtick_46">
     <g id="line2d_82">
      <g>
       <use xlink:href="#me9234e0d44" x="410.498211" y="317.06" style="stroke: #000000; stroke-width: 0.6"/>
      </g>
     </g>
    </g>
    <g id="xtick_47">
     <g id="line2d_83">
      <g>
       <use xlink:href="#me9234e0d44" x="414.50463" y="317.06" style="stroke: #000000; stroke-width: 0.6"/>
      </g>
     </g>
    </g>
    <g id="xtick_48">
     <g id="line2d_84">
      <g>
       <use xlink:href="#me9234e0d44" x="418.038542" y="317.06" style="stroke: #000000; stroke-width: 0.6"/>
      </g>
     </g>
    </g>
    <g id="xtick_49">
     <g id="line2d_85">
      <g>
       <use xlink:href="#me9234e0d44" x="441.996625" y="317.06" style="stroke: #000000; stroke-width: 0.6"/>
      </g>
     </g>
    </g>
    <g id="xtick_50">
     <g id="line2d_86">
      <g>
       <use xlink:href="#me9234e0d44" x="454.162027" y="317.06" style="stroke: #000000; stroke-width: 0.6"/>
      </g>
     </g>
    </g>
    <g id="xtick_51">
     <g id="line2d_87">
      <g>
       <use xlink:href="#me9234e0d44" x="462.793516" y="317.06" style="stroke: #000000; stroke-width: 0.6"/>
      </g>
     </g>
    </g>
    <g id="xtick_52">
     <g id="line2d_88">
      <g>
       <use xlink:href="#me9234e0d44" x="469.48862" y="317.06" style="stroke: #000000; stroke-width: 0.6"/>
      </g>
     </g>
    </g>
    <g id="xtick_53">
     <g id="line2d_89">
      <g>
       <use xlink:href="#me9234e0d44" x="474.958918" y="317.06" style="stroke: #000000; stroke-width: 0.6"/>
      </g>
     </g>
    </g>
    <g id="xtick_54">
     <g id="line2d_90">
      <g>
       <use xlink:href="#me9234e0d44" x="479.583989" y="317.06" style="stroke: #000000; stroke-width: 0.6"/>
      </g>
     </g>
    </g>
    <g id="xtick_55">
     <g id="line2d_91">
      <g>
       <use xlink:href="#me9234e0d44" x="483.590408" y="317.06" style="stroke: #000000; stroke-width: 0.6"/>
      </g>
     </g>
    </g>
    <g id="xtick_56">
     <g id="line2d_92">
      <g>
       <use xlink:href="#me9234e0d44" x="487.12432" y="317.06" style="stroke: #000000; stroke-width: 0.6"/>
      </g>
     </g>
    </g>
    <g id="xtick_57">
     <g id="line2d_93">
      <g>
       <use xlink:href="#me9234e0d44" x="511.082403" y="317.06" style="stroke: #000000; stroke-width: 0.6"/>
      </g>
     </g>
    </g>
    <g id="xtick_58">
     <g id="line2d_94">
      <g>
       <use xlink:href="#me9234e0d44" x="523.247804" y="317.06" style="stroke: #000000; stroke-width: 0.6"/>
      </g>
     </g>
    </g>
    <g id="xtick_59">
     <g id="line2d_95">
      <g>
       <use xlink:href="#me9234e0d44" x="531.879294" y="317.06" style="stroke: #000000; stroke-width: 0.6"/>
      </g>
     </g>
    </g>
    <g id="xtick_60">
     <g id="line2d_96">
      <g>
       <use xlink:href="#me9234e0d44" x="538.574398" y="317.06" style="stroke: #000000; stroke-width: 0.6"/>
      </g>
     </g>
    </g>
    <g id="xtick_61">
     <g id="line2d_97">
      <g>
       <use xlink:href="#me9234e0d44" x="544.044696" y="317.06" style="stroke: #000000; stroke-width: 0.6"/>
      </g>
     </g>
    </g>
    <g id="xtick_62">
     <g id="line2d_98">
      <g>
       <use xlink:href="#me9234e0d44" x="548.669767" y="317.06" style="stroke: #000000; stroke-width: 0.6"/>
      </g>
     </g>
    </g>
    <g id="xtick_63">
     <g id="line2d_99">
      <g>
       <use xlink:href="#me9234e0d44" x="552.676185" y="317.06" style="stroke: #000000; stroke-width: 0.6"/>
      </g>
     </g>
    </g>
    <g id="xtick_64">
     <g id="line2d_100">
      <g>
       <use xlink:href="#me9234e0d44" x="556.210097" y="317.06" style="stroke: #000000; stroke-width: 0.6"/>
      </g>
     </g>
    </g>
    <g id="xtick_65">
     <g id="line2d_101">
      <g>
       <use xlink:href="#me9234e0d44" x="580.16818" y="317.06" style="stroke: #000000; stroke-width: 0.6"/>
      </g>
     </g>
    </g>
    <g id="xtick_66">
     <g id="line2d_102">
      <g>
       <use xlink:href="#me9234e0d44" x="592.333582" y="317.06" style="stroke: #000000; stroke-width: 0.6"/>
      </g>
     </g>
    </g>
    <g id="xtick_67">
     <g id="line2d_103">
      <g>
       <use xlink:href="#me9234e0d44" x="600.965072" y="317.06" style="stroke: #000000; stroke-width: 0.6"/>
      </g>
     </g>
    </g>
    <g id="xtick_68">
     <g id="line2d_104">
      <g>
       <use xlink:href="#me9234e0d44" x="607.660175" y="317.06" style="stroke: #000000; stroke-width: 0.6"/>
      </g>
     </g>
    </g>
    <g id="xtick_69">
     <g id="line2d_105">
      <g>
       <use xlink:href="#me9234e0d44" x="613.130473" y="317.06" style="stroke: #000000; stroke-width: 0.6"/>
      </g>
     </g>
    </g>
    <g id="xtick_70">
     <g id="line2d_106">
      <g>
       <use xlink:href="#me9234e0d44" x="617.755544" y="317.06" style="stroke: #000000; stroke-width: 0.6"/>
      </g>
     </g>
    </g>
    <g id="xtick_71">
     <g id="line2d_107">
      <g>
       <use xlink:href="#me9234e0d44" x="621.761963" y="317.06" style="stroke: #000000; stroke-width: 0.6"/>
      </g>
     </g>
    </g>
    <g id="xtick_72">
     <g id="line2d_108">
      <g>
       <use xlink:href="#me9234e0d44" x="625.295875" y="317.06" style="stroke: #000000; stroke-width: 0.6"/>
      </g>
     </g>
    </g>
    <g id="xtick_73">
     <g id="line2d_109">
      <g>
       <use xlink:href="#me9234e0d44" x="649.253958" y="317.06" style="stroke: #000000; stroke-width: 0.6"/>
      </g>
     </g>
    </g>
    <g id="xtick_74">
     <g id="line2d_110">
      <g>
       <use xlink:href="#me9234e0d44" x="661.41936" y="317.06" style="stroke: #000000; stroke-width: 0.6"/>
      </g>
     </g>
    </g>
    <g id="xtick_75">
     <g id="line2d_111">
      <g>
       <use xlink:href="#me9234e0d44" x="670.050849" y="317.06" style="stroke: #000000; stroke-width: 0.6"/>
      </g>
     </g>
    </g>
    <g id="xtick_76">
     <g id="line2d_112">
      <g>
       <use xlink:href="#me9234e0d44" x="676.745953" y="317.06" style="stroke: #000000; stroke-width: 0.6"/>
      </g>
     </g>
    </g>
    <g id="xtick_77">
     <g id="line2d_113">
      <g>
       <use xlink:href="#me9234e0d44" x="682.216251" y="317.06" style="stroke: #000000; stroke-width: 0.6"/>
      </g>
     </g>
    </g>
    <g id="xtick_78">
     <g id="line2d_114">
      <g>
       <use xlink:href="#me9234e0d44" x="686.841322" y="317.06" style="stroke: #000000; stroke-width: 0.6"/>
      </g>
     </g>
    </g>
    <g id="xtick_79">
     <g id="line2d_115">
      <g>
       <use xlink:href="#me9234e0d44" x="690.847741" y="317.06" style="stroke: #000000; stroke-width: 0.6"/>
      </g>
     </g>
    </g>
    <g id="xtick_80">
     <g id="line2d_116">
      <g>
       <use xlink:href="#me9234e0d44" x="694.381653" y="317.06" style="stroke: #000000; stroke-width: 0.6"/>
      </g>
     </g>
    </g>
    <g id="text_20">
     <!-- $\rho$ -->
     <g transform="translate(556.171289 342.412812)scale(0.1 -0.1)">
      <use xlink:href="#DejaVuSans-Oblique-3c1"/>
     </g>
    </g>
   </g>
   <g id="matplotlib.axis_4">
    <g id="ytick_22">
     <g id="line2d_117">
      <g>
       <use xlink:href="#m319cd94f5a" x="407.382578" y="264.685671" style="stroke: #000000; stroke-width: 0.8"/>
      </g>
     </g>
     <g id="text_21">
      <!-- $\mathdefault{10^{-3}}$ -->
      <g transform="translate(383.932578 267.345124)scale(0.07 -0.07)">
       <defs>
        <path id="DejaVuSans-33" d="M 2597 2516 
Q 3050 2419 3304 2112 
Q 3559 1806 3559 1356 
Q 3559 666 3084 287 
Q 2609 -91 1734 -91 
Q 1441 -91 1130 -33 
Q 819 25 488 141 
L 488 750 
Q 750 597 1062 519 
Q 1375 441 1716 441 
Q 2309 441 2620 675 
Q 2931 909 2931 1356 
Q 2931 1769 2642 2001 
Q 2353 2234 1838 2234 
L 1294 2234 
L 1294 2753 
L 1863 2753 
Q 2328 2753 2575 2939 
Q 2822 3125 2822 3475 
Q 2822 3834 2567 4026 
Q 2313 4219 1838 4219 
Q 1578 4219 1281 4162 
Q 984 4106 628 3988 
L 628 4550 
Q 988 4650 1302 4700 
Q 1616 4750 1894 4750 
Q 2613 4750 3031 4423 
Q 3450 4097 3450 3541 
Q 3450 3153 3228 2886 
Q 3006 2619 2597 2516 
z
" transform="scale(0.015625)"/>
       </defs>
       <use xlink:href="#DejaVuSans-31" transform="translate(0 0.765625)"/>
       <use xlink:href="#DejaVuSans-30" transform="translate(63.623047 0.765625)"/>
       <use xlink:href="#DejaVuSans-2212" transform="translate(128.203125 39.046875)scale(0.7)"/>
       <use xlink:href="#DejaVuSans-33" transform="translate(186.855469 39.046875)scale(0.7)"/>
      </g>
     </g>
    </g>
    <g id="ytick_23">
     <g id="line2d_118">
      <g>
       <use xlink:href="#m319cd94f5a" x="407.382578" y="172.778321" style="stroke: #000000; stroke-width: 0.8"/>
      </g>
     </g>
     <g id="text_22">
      <!-- $\mathdefault{10^{-2}}$ -->
      <g transform="translate(383.932578 175.437774)scale(0.07 -0.07)">
       <use xlink:href="#DejaVuSans-31" transform="translate(0 0.765625)"/>
       <use xlink:href="#DejaVuSans-30" transform="translate(63.623047 0.765625)"/>
       <use xlink:href="#DejaVuSans-2212" transform="translate(128.203125 39.046875)scale(0.7)"/>
       <use xlink:href="#DejaVuSans-32" transform="translate(186.855469 39.046875)scale(0.7)"/>
      </g>
     </g>
    </g>
    <g id="ytick_24">
     <g id="line2d_119">
      <g>
       <use xlink:href="#m319cd94f5a" x="407.382578" y="80.87097" style="stroke: #000000; stroke-width: 0.8"/>
      </g>
     </g>
     <g id="text_23">
      <!-- $\mathdefault{10^{-1}}$ -->
      <g transform="translate(383.932578 83.530423)scale(0.07 -0.07)">
       <use xlink:href="#DejaVuSans-31" transform="translate(0 0.684375)"/>
       <use xlink:href="#DejaVuSans-30" transform="translate(63.623047 0.684375)"/>
       <use xlink:href="#DejaVuSans-2212" transform="translate(128.203125 38.965625)scale(0.7)"/>
       <use xlink:href="#DejaVuSans-31" transform="translate(186.855469 38.965625)scale(0.7)"/>
      </g>
     </g>
    </g>
    <g id="ytick_25">
     <g id="line2d_120">
      <g>
       <use xlink:href="#m4aff00fed6" x="407.382578" y="312.742071" style="stroke: #000000; stroke-width: 0.6"/>
      </g>
     </g>
    </g>
    <g id="ytick_26">
     <g id="line2d_121">
      <g>
       <use xlink:href="#m4aff00fed6" x="407.382578" y="301.259283" style="stroke: #000000; stroke-width: 0.6"/>
      </g>
     </g>
    </g>
    <g id="ytick_27">
     <g id="line2d_122">
      <g>
       <use xlink:href="#m4aff00fed6" x="407.382578" y="292.352541" style="stroke: #000000; stroke-width: 0.6"/>
      </g>
     </g>
    </g>
    <g id="ytick_28">
     <g id="line2d_123">
      <g>
       <use xlink:href="#m4aff00fed6" x="407.382578" y="285.075202" style="stroke: #000000; stroke-width: 0.6"/>
      </g>
     </g>
    </g>
    <g id="ytick_29">
     <g id="line2d_124">
      <g>
       <use xlink:href="#m4aff00fed6" x="407.382578" y="278.9223" style="stroke: #000000; stroke-width: 0.6"/>
      </g>
     </g>
    </g>
    <g id="ytick_30">
     <g id="line2d_125">
      <g>
       <use xlink:href="#m4aff00fed6" x="407.382578" y="273.592414" style="stroke: #000000; stroke-width: 0.6"/>
      </g>
     </g>
    </g>
    <g id="ytick_31">
     <g id="line2d_126">
      <g>
       <use xlink:href="#m4aff00fed6" x="407.382578" y="268.891121" style="stroke: #000000; stroke-width: 0.6"/>
      </g>
     </g>
    </g>
    <g id="ytick_32">
     <g id="line2d_127">
      <g>
       <use xlink:href="#m4aff00fed6" x="407.382578" y="237.018802" style="stroke: #000000; stroke-width: 0.6"/>
      </g>
     </g>
    </g>
    <g id="ytick_33">
     <g id="line2d_128">
      <g>
       <use xlink:href="#m4aff00fed6" x="407.382578" y="220.834721" style="stroke: #000000; stroke-width: 0.6"/>
      </g>
     </g>
    </g>
    <g id="ytick_34">
     <g id="line2d_129">
      <g>
       <use xlink:href="#m4aff00fed6" x="407.382578" y="209.351933" style="stroke: #000000; stroke-width: 0.6"/>
      </g>
     </g>
    </g>
    <g id="ytick_35">
     <g id="line2d_130">
      <g>
       <use xlink:href="#m4aff00fed6" x="407.382578" y="200.44519" style="stroke: #000000; stroke-width: 0.6"/>
      </g>
     </g>
    </g>
    <g id="ytick_36">
     <g id="line2d_131">
      <g>
       <use xlink:href="#m4aff00fed6" x="407.382578" y="193.167852" style="stroke: #000000; stroke-width: 0.6"/>
      </g>
     </g>
    </g>
    <g id="ytick_37">
     <g id="line2d_132">
      <g>
       <use xlink:href="#m4aff00fed6" x="407.382578" y="187.01495" style="stroke: #000000; stroke-width: 0.6"/>
      </g>
     </g>
    </g>
    <g id="ytick_38">
     <g id="line2d_133">
      <g>
       <use xlink:href="#m4aff00fed6" x="407.382578" y="181.685063" style="stroke: #000000; stroke-width: 0.6"/>
      </g>
     </g>
    </g>
    <g id="ytick_39">
     <g id="line2d_134">
      <g>
       <use xlink:href="#m4aff00fed6" x="407.382578" y="176.983771" style="stroke: #000000; stroke-width: 0.6"/>
      </g>
     </g>
    </g>
    <g id="ytick_40">
     <g id="line2d_135">
      <g>
       <use xlink:href="#m4aff00fed6" x="407.382578" y="145.111451" style="stroke: #000000; stroke-width: 0.6"/>
      </g>
     </g>
    </g>
    <g id="ytick_41">
     <g id="line2d_136">
      <g>
       <use xlink:href="#m4aff00fed6" x="407.382578" y="128.92737" style="stroke: #000000; stroke-width: 0.6"/>
      </g>
     </g>
    </g>
    <g id="ytick_42">
     <g id="line2d_137">
      <g>
       <use xlink:href="#m4aff00fed6" x="407.382578" y="117.444582" style="stroke: #000000; stroke-width: 0.6"/>
      </g>
     </g>
    </g>
    <g id="ytick_43">
     <g id="line2d_138">
      <g>
       <use xlink:href="#m4aff00fed6" x="407.382578" y="108.53784" style="stroke: #000000; stroke-width: 0.6"/>
      </g>
     </g>
    </g>
    <g id="ytick_44">
     <g id="line2d_139">
      <g>
       <use xlink:href="#m4aff00fed6" x="407.382578" y="101.260501" style="stroke: #000000; stroke-width: 0.6"/>
      </g>
     </g>
    </g>
    <g id="ytick_45">
     <g id="line2d_140">
      <g>
       <use xlink:href="#m4aff00fed6" x="407.382578" y="95.107599" style="stroke: #000000; stroke-width: 0.6"/>
      </g>
     </g>
    </g>
    <g id="ytick_46">
     <g id="line2d_141">
      <g>
       <use xlink:href="#m4aff00fed6" x="407.382578" y="89.777713" style="stroke: #000000; stroke-width: 0.6"/>
      </g>
     </g>
    </g>
    <g id="ytick_47">
     <g id="line2d_142">
      <g>
       <use xlink:href="#m4aff00fed6" x="407.382578" y="85.07642" style="stroke: #000000; stroke-width: 0.6"/>
      </g>
     </g>
    </g>
    <g id="ytick_48">
     <g id="line2d_143">
      <g>
       <use xlink:href="#m4aff00fed6" x="407.382578" y="53.204101" style="stroke: #000000; stroke-width: 0.6"/>
      </g>
     </g>
    </g>
    <g id="ytick_49">
     <g id="line2d_144">
      <g>
       <use xlink:href="#m4aff00fed6" x="407.382578" y="37.02002" style="stroke: #000000; stroke-width: 0.6"/>
      </g>
     </g>
    </g>
    <g id="ytick_50">
     <g id="line2d_145">
      <g>
       <use xlink:href="#m4aff00fed6" x="407.382578" y="25.537232" style="stroke: #000000; stroke-width: 0.6"/>
      </g>
     </g>
    </g>
    <g id="ytick_51">
     <g id="line2d_146">
      <g>
       <use xlink:href="#m4aff00fed6" x="407.382578" y="16.630489" style="stroke: #000000; stroke-width: 0.6"/>
      </g>
     </g>
    </g>
    <g id="ytick_52">
     <g id="line2d_147">
      <g>
       <use xlink:href="#m4aff00fed6" x="407.382578" y="9.35315" style="stroke: #000000; stroke-width: 0.6"/>
      </g>
     </g>
    </g>
    <g id="text_24">
     <!-- $\sigma_{Dz}$ -->
     <g transform="translate(377.852891 170.7)rotate(-90)scale(0.1 -0.1)">
      <defs>
       <path id="DejaVuSans-Oblique-44" d="M 1081 4666 
L 2438 4666 
Q 3519 4666 4070 4208 
Q 4622 3750 4622 2847 
Q 4622 2250 4412 1698 
Q 4203 1147 3834 769 
Q 3463 381 2891 190 
Q 2319 0 1538 0 
L 172 0 
L 1081 4666 
z
M 1613 4147 
L 909 519 
L 1734 519 
Q 2794 519 3375 1128 
Q 3956 1738 3956 2847 
Q 3956 3519 3581 3833 
Q 3206 4147 2406 4147 
L 1613 4147 
z
" transform="scale(0.015625)"/>
       <path id="DejaVuSans-Oblique-7a" d="M 744 3500 
L 3475 3500 
L 3372 2975 
L 738 459 
L 2913 459 
L 2822 0 
L -19 0 
L 84 525 
L 2719 3041 
L 653 3041 
L 744 3500 
z
" transform="scale(0.015625)"/>
      </defs>
      <use xlink:href="#DejaVuSans-Oblique-3c3" transform="translate(0 0.265625)"/>
      <use xlink:href="#DejaVuSans-Oblique-44" transform="translate(63.378906 -16.140625)scale(0.7)"/>
      <use xlink:href="#DejaVuSans-Oblique-7a" transform="translate(117.280273 -16.140625)scale(0.7)"/>
     </g>
    </g>
   </g>
   <g id="line2d_148">
    <path d="M 421.199734 25.765331 
L 435.016889 25.890029 
L 448.834045 26.086446 
L 462.6512 26.394725 
L 476.468356 26.87588 
L 490.285511 27.620359 
L 504.102667 28.757004 
L 517.919822 30.457878 
L 531.736978 32.929687 
L 545.554134 36.380205 
L 559.371289 40.960995 
L 573.188445 46.724882 
L 587.0056 53.651659 
L 600.822756 61.715576 
L 614.639911 70.960832 
L 628.457067 81.741629 
L 642.274222 94.972411 
L 656.091378 111.467839 
L 669.908533 130.289952 
L 683.725689 148.629397 
L 697.542844 165.447018 
" clip-path="url(#pab6f011505)" style="fill: none; stroke: #ff7f0e; stroke-width: 1.5; stroke-linecap: square"/>
   </g>
   <g id="line2d_149">
    <path d="M 421.199734 30.918875 
L 435.016889 31.020769 
L 448.834045 31.1812 
L 462.6512 31.432841 
L 476.468356 31.825212 
L 490.285511 32.431418 
L 504.102667 33.354925 
L 517.919822 34.732585 
L 531.736978 36.726616 
L 545.554134 39.497706 
L 559.371289 43.164183 
L 573.188445 47.782434 
L 587.0056 53.390929 
L 600.822756 60.098091 
L 614.639911 68.187364 
L 628.457067 78.303133 
L 642.274222 91.579688 
L 656.091378 109.290842 
L 669.908533 132.071736 
L 683.725689 159.1867 
L 697.542844 187.636107 
" clip-path="url(#pab6f011505)" style="fill: none; stroke: #d62728; stroke-width: 1.5; stroke-linecap: square"/>
   </g>
   <g id="line2d_150">
    <path d="M 421.199734 27.847833 
L 435.016889 27.981373 
L 448.834045 28.191767 
L 462.6512 28.522113 
L 476.468356 29.038023 
L 490.285511 29.83704 
L 504.102667 31.058762 
L 517.919822 32.891117 
L 531.736978 35.563165 
L 545.554134 39.312031 
L 559.371289 44.324169 
L 573.188445 50.689804 
L 587.0056 58.426362 
L 600.822756 67.541391 
L 614.639911 78.10078 
L 628.457067 90.516276 
L 642.274222 105.957145 
L 656.091378 125.758239 
L 669.908533 149.238008 
L 683.725689 172.378576 
L 697.542844 192.376525 
" clip-path="url(#pab6f011505)" style="fill: none; stroke: #bfbf00; stroke-width: 1.5; stroke-linecap: square"/>
   </g>
   <g id="line2d_151">
    <path d="M 421.199734 28.564004 
L 435.016889 28.711589 
L 448.834045 28.944163 
L 462.6512 29.309459 
L 476.468356 29.880253 
L 490.285511 30.764979 
L 504.102667 32.119364 
L 517.919822 34.154101 
L 531.736978 37.127755 
L 545.554134 41.309677 
L 559.371289 46.909189 
L 573.188445 54.008355 
L 587.0056 62.557282 
L 600.822756 72.395609 
L 614.639911 83.268759 
L 628.457067 95.178781 
L 642.274222 109.06106 
L 656.091378 126.422389 
L 669.908533 147.763858 
L 683.725689 172.66598 
L 697.542844 203.094845 
" clip-path="url(#pab6f011505)" style="fill: none; stroke: #1f77b4; stroke-width: 1.5; stroke-linecap: square"/>
   </g>
   <g id="line2d_152">
    <path d="M 421.199734 32.690352 
L 435.016889 32.853624 
L 448.834045 33.111028 
L 462.6512 33.515596 
L 476.468356 34.148429 
L 490.285511 35.130964 
L 504.102667 36.639036 
L 517.919822 38.913938 
L 531.736978 42.259498 
L 545.554134 47.009029 
L 559.371289 53.456405 
L 573.188445 61.787152 
L 587.0056 72.067635 
L 600.822756 84.235432 
L 614.639911 98.006693 
L 628.457067 113.105737 
L 642.274222 130.039366 
L 656.091378 149.610376 
L 669.908533 170.157155 
L 683.725689 187.168199 
L 697.542844 198.804524 
" clip-path="url(#pab6f011505)" style="fill: none; stroke: #2ca02c; stroke-width: 1.5; stroke-linecap: square"/>
   </g>
   <g id="line2d_153">
    <path d="M 421.199734 35.324325 
L 435.016889 35.429448 
L 448.834045 35.595619 
L 462.6512 35.857886 
L 476.468356 36.270829 
L 490.285511 36.918563 
L 504.102667 37.928643 
L 517.919822 39.489614 
L 531.736978 41.869259 
L 545.554134 45.425103 
L 559.371289 50.592117 
L 573.188445 57.834846 
L 587.0056 67.581846 
L 600.822756 80.209212 
L 614.639911 96.10715 
L 628.457067 115.704775 
L 642.274222 139.339472 
L 656.091378 167.233868 
L 669.908533 199.951634 
L 683.725689 238.827861 
L 697.542844 284.972369 
" clip-path="url(#pab6f011505)" style="fill: none; stroke-dasharray: 5.55,2.4; stroke-dashoffset: 0; stroke: #ff7f0e; stroke-width: 1.5"/>
   </g>
   <g id="line2d_154">
    <path d="M 421.199734 22.659091 
L 435.016889 22.73401 
L 448.834045 22.852421 
L 462.6512 23.039271 
L 476.468356 23.333371 
L 490.285511 23.794453 
L 504.102667 24.512885 
L 517.919822 25.621744 
L 531.736978 27.308866 
L 545.554134 29.822514 
L 559.371289 33.459786 
L 573.188445 38.530101 
L 587.0056 45.310819 
L 600.822756 54.047512 
L 614.639911 65.025951 
L 628.457067 78.650934 
L 642.274222 95.509124 
L 656.091378 116.548192 
L 669.908533 143.355889 
L 683.725689 178.193217 
L 697.542844 223.435177 
" clip-path="url(#pab6f011505)" style="fill: none; stroke-dasharray: 5.55,2.4; stroke-dashoffset: 0; stroke: #d62728; stroke-width: 1.5"/>
   </g>
   <g id="line2d_155">
    <path d="M 421.199734 36.299304 
L 435.016889 36.408237 
L 448.834045 36.580426 
L 462.6512 36.852187 
L 476.468356 37.280059 
L 490.285511 37.951171 
L 504.102667 38.9976 
L 517.919822 40.614485 
L 531.736978 43.078713 
L 545.554134 46.75932 
L 559.371289 52.103611 
L 573.188445 59.584978 
L 587.0056 69.629095 
L 600.822756 82.582817 
L 614.639911 98.748979 
L 628.457067 118.335827 
L 642.274222 141.187539 
L 656.091378 166.61693 
L 669.908533 193.831106 
L 683.725689 222.373803 
L 697.542844 251.469274 
" clip-path="url(#pab6f011505)" style="fill: none; stroke-dasharray: 5.55,2.4; stroke-dashoffset: 0; stroke: #bfbf00; stroke-width: 1.5"/>
   </g>
   <g id="line2d_156">
    <path d="M 421.199734 41.534049 
L 435.016889 41.655689 
L 448.834045 41.847968 
L 462.6512 42.151442 
L 476.468356 42.629265 
L 490.285511 43.378767 
L 504.102667 44.547536 
L 517.919822 46.353704 
L 531.736978 49.106955 
L 545.554134 53.220285 
L 559.371289 59.194323 
L 573.188445 67.557562 
L 587.0056 78.780531 
L 600.822756 93.24264 
L 614.639911 111.300773 
L 628.457067 133.309111 
L 642.274222 159.39598 
L 656.091378 189.261874 
L 669.908533 222.640156 
L 683.725689 260.159175 
L 697.542844 303.040909 
" clip-path="url(#pab6f011505)" style="fill: none; stroke-dasharray: 5.55,2.4; stroke-dashoffset: 0; stroke: #1f77b4; stroke-width: 1.5"/>
   </g>
   <g id="line2d_157">
    <path d="M 421.199734 42.431913 
L 435.016889 42.555037 
L 448.834045 42.749664 
L 462.6512 43.056849 
L 476.468356 43.540528 
L 490.285511 44.299245 
L 504.102667 45.482443 
L 517.919822 47.311004 
L 531.736978 50.098448 
L 545.554134 54.262352 
L 559.371289 60.306478 
L 573.188445 68.753573 
L 587.0056 80.040528 
L 600.822756 94.446229 
L 614.639911 112.094003 
L 628.457067 132.881576 
L 642.274222 156.207701 
L 656.091378 180.897189 
L 669.908533 205.705548 
L 683.725689 229.267626 
L 697.542844 249.077779 
" clip-path="url(#pab6f011505)" style="fill: none; stroke-dasharray: 5.55,2.4; stroke-dashoffset: 0; stroke: #2ca02c; stroke-width: 1.5"/>
   </g>
   <g id="patch_8">
    <path d="M 407.382578 317.06 
L 407.382578 8.64 
" style="fill: none; stroke: #000000; stroke-width: 1.5; stroke-linejoin: miter; stroke-linecap: square"/>
   </g>
   <g id="patch_9">
    <path d="M 711.36 317.06 
L 711.36 8.64 
" style="fill: none; stroke: #000000; stroke-width: 1.5; stroke-linejoin: miter; stroke-linecap: square"/>
   </g>
   <g id="patch_10">
    <path d="M 407.382578 317.06 
L 711.36 317.06 
" style="fill: none; stroke: #000000; stroke-width: 1.5; stroke-linejoin: miter; stroke-linecap: square"/>
   </g>
   <g id="patch_11">
    <path d="M 407.382578 8.64 
L 711.36 8.64 
" style="fill: none; stroke: #000000; stroke-width: 1.5; stroke-linejoin: miter; stroke-linecap: square"/>
   </g>
  </g>
  <g id="legend_2">
   <g id="patch_12">
    <path d="M 283.740625 356 
L 436.259375 356 
Q 437.859375 356 437.859375 354.4 
L 437.859375 343.4575 
Q 437.859375 341.8575 436.259375 341.8575 
L 283.740625 341.8575 
Q 282.140625 341.8575 282.140625 343.4575 
L 282.140625 354.4 
Q 282.140625 356 283.740625 356 
z
" style="fill: #ffffff; opacity: 0.8; stroke: #cccccc; stroke-linejoin: miter"/>
   </g>
   <g id="line2d_158">
    <path d="M 285.340625 348.33625 
L 293.340625 348.33625 
L 301.340625 348.33625 
" style="fill: none; stroke: #000000; stroke-width: 1.5; stroke-linecap: square"/>
   </g>
   <g id="text_25">
    <!-- MWS Model -->
    <g transform="translate(307.740625 351.13625)scale(0.08 -0.08)">
     <defs>
      <path id="DejaVuSans-57" d="M 213 4666 
L 850 4666 
L 1831 722 
L 2809 4666 
L 3519 4666 
L 4500 722 
L 5478 4666 
L 6119 4666 
L 4947 0 
L 4153 0 
L 3169 4050 
L 2175 0 
L 1381 0 
L 213 4666 
z
" transform="scale(0.015625)"/>
      <path id="DejaVuSans-20" transform="scale(0.015625)"/>
      <path id="DejaVuSans-6f" d="M 1959 3097 
Q 1497 3097 1228 2736 
Q 959 2375 959 1747 
Q 959 1119 1226 758 
Q 1494 397 1959 397 
Q 2419 397 2687 759 
Q 2956 1122 2956 1747 
Q 2956 2369 2687 2733 
Q 2419 3097 1959 3097 
z
M 1959 3584 
Q 2709 3584 3137 3096 
Q 3566 2609 3566 1747 
Q 3566 888 3137 398 
Q 2709 -91 1959 -91 
Q 1206 -91 779 398 
Q 353 888 353 1747 
Q 353 2609 779 3096 
Q 1206 3584 1959 3584 
z
" transform="scale(0.015625)"/>
      <path id="DejaVuSans-64" d="M 2906 2969 
L 2906 4863 
L 3481 4863 
L 3481 0 
L 2906 0 
L 2906 525 
Q 2725 213 2448 61 
Q 2172 -91 1784 -91 
Q 1150 -91 751 415 
Q 353 922 353 1747 
Q 353 2572 751 3078 
Q 1150 3584 1784 3584 
Q 2172 3584 2448 3432 
Q 2725 3281 2906 2969 
z
M 947 1747 
Q 947 1113 1208 752 
Q 1469 391 1925 391 
Q 2381 391 2643 752 
Q 2906 1113 2906 1747 
Q 2906 2381 2643 2742 
Q 2381 3103 1925 3103 
Q 1469 3103 1208 2742 
Q 947 2381 947 1747 
z
" transform="scale(0.015625)"/>
      <path id="DejaVuSans-65" d="M 3597 1894 
L 3597 1613 
L 953 1613 
Q 991 1019 1311 708 
Q 1631 397 2203 397 
Q 2534 397 2845 478 
Q 3156 559 3463 722 
L 3463 178 
Q 3153 47 2828 -22 
Q 2503 -91 2169 -91 
Q 1331 -91 842 396 
Q 353 884 353 1716 
Q 353 2575 817 3079 
Q 1281 3584 2069 3584 
Q 2775 3584 3186 3129 
Q 3597 2675 3597 1894 
z
M 3022 2063 
Q 3016 2534 2758 2815 
Q 2500 3097 2075 3097 
Q 1594 3097 1305 2825 
Q 1016 2553 972 2059 
L 3022 2063 
z
" transform="scale(0.015625)"/>
      <path id="DejaVuSans-6c" d="M 603 4863 
L 1178 4863 
L 1178 0 
L 603 0 
L 603 4863 
z
" transform="scale(0.015625)"/>
     </defs>
     <use xlink:href="#DejaVuSans-4d"/>
     <use xlink:href="#DejaVuSans-57" x="86.279297"/>
     <use xlink:href="#DejaVuSans-53" x="185.15625"/>
     <use xlink:href="#DejaVuSans-20" x="248.632812"/>
     <use xlink:href="#DejaVuSans-4d" x="280.419922"/>
     <use xlink:href="#DejaVuSans-6f" x="366.699219"/>
     <use xlink:href="#DejaVuSans-64" x="427.880859"/>
     <use xlink:href="#DejaVuSans-65" x="491.357422"/>
     <use xlink:href="#DejaVuSans-6c" x="552.880859"/>
    </g>
   </g>
   <g id="line2d_159">
    <path d="M 370.195625 348.33625 
L 378.195625 348.33625 
L 386.195625 348.33625 
" style="fill: none; stroke-dasharray: 5.55,2.4; stroke-dashoffset: 0; stroke: #000000; stroke-width: 1.5"/>
   </g>
   <g id="text_26">
    <!-- Null Model -->
    <g transform="translate(392.595625 351.13625)scale(0.08 -0.08)">
     <use xlink:href="#DejaVuSans-4e"/>
     <use xlink:href="#DejaVuSans-75" x="74.804688"/>
     <use xlink:href="#DejaVuSans-6c" x="138.183594"/>
     <use xlink:href="#DejaVuSans-6c" x="165.966797"/>
     <use xlink:href="#DejaVuSans-20" x="193.75"/>
     <use xlink:href="#DejaVuSans-4d" x="225.537109"/>
     <use xlink:href="#DejaVuSans-6f" x="311.816406"/>
     <use xlink:href="#DejaVuSans-64" x="372.998047"/>
     <use xlink:href="#DejaVuSans-65" x="436.474609"/>
     <use xlink:href="#DejaVuSans-6c" x="497.998047"/>
    </g>
   </g>
  </g>
 </g>
 <defs>
  <clipPath id="pc57926ccd8">
   <rect x="54.163516" y="8.64" width="303.977422" height="308.42"/>
  </clipPath>
  <clipPath id="pab6f011505">
   <rect x="407.382578" y="8.64" width="303.977422" height="308.42"/>
  </clipPath>
 </defs>
</svg>
